<svg width="249" height="247" viewBox="0 0 249 247" fill="none" xmlns="http://www.w3.org/2000/svg">
<path d="M245 243C241.503 232.475 218.554 205.707 154.738 182.833C140.99 177.906 129.711 173.711 120.457 170.043M4 91.2656C13.2093 88.4136 29.4199 85.6658 42.8038 88.9676M42.8038 88.9676C50.3839 90.8376 57.0573 94.6481 61.0386 101.479C74.8021 125.095 77.9549 111.065 78.1363 130.697C78.2865 146.946 76.0174 152.426 120.457 170.043M42.8038 88.9676C58.9695 76.4081 91.7923 59.9433 93.7576 94.5602M216.267 20.2879C237.751 -35.6 136.97 67.5968 112.223 100.877C92.4249 127.501 109.109 134.136 119.926 134.126C124.882 127.935 139.599 116.45 158.817 120.041M145.075 142.133C151.467 156.38 174.658 185.235 216.288 186.683C268.325 188.493 229.779 123.459 206.475 158.941M120.457 170.043C98.8394 177.755 121.402 199.481 128.316 192.26M145.075 101.479C150.773 98.818 166.862 94.9719 185.633 100.877M158.817 79.6434C167.57 76.5354 188.65 72.1841 202.952 79.6434" stroke="#00F3C8" stroke-width="8" stroke-linecap="round" stroke-linejoin="round"/>
</svg>
