<svg width="223" height="223" viewBox="0 0 223 223" fill="none" xmlns="http://www.w3.org/2000/svg">
<rect x="4" y="4" width="215" height="215" stroke="#FFD600" stroke-width="8" stroke-linejoin="round"/>
<path d="M92.5918 114.684H66.6172L66.4775 101.138H88.7515C92.5685 101.138 95.7572 100.603 98.3174 99.5322C100.878 98.4616 102.809 96.9022 104.113 94.854C105.463 92.8058 106.138 90.3154 106.138 87.3828C106.138 84.1243 105.509 81.471 104.252 79.4229C103.042 77.3747 101.134 75.8851 98.5269 74.9541C95.9201 73.9766 92.6151 73.4878 88.6118 73.4878H72.8315V160H53.6299V58.3359H88.6118C94.384 58.3359 99.5277 58.8945 104.043 60.0117C108.605 61.0824 112.468 62.7581 115.634 65.0391C118.799 67.32 121.196 70.1828 122.826 73.6274C124.501 77.0721 125.339 81.1685 125.339 85.9165C125.339 90.106 124.362 93.9696 122.407 97.5073C120.498 100.999 117.542 103.838 113.539 106.026C109.582 108.214 104.555 109.471 98.457 109.796L92.5918 114.684ZM91.7539 160H60.9614L68.9912 144.918H91.7539C95.571 144.918 98.7131 144.29 101.18 143.033C103.694 141.776 105.556 140.054 106.766 137.866C108.023 135.631 108.651 133.071 108.651 130.185C108.651 127.02 108.093 124.273 106.976 121.946C105.905 119.618 104.183 117.826 101.809 116.569C99.4811 115.312 96.4089 114.684 92.5918 114.684H72.6221L72.7617 101.138H98.1777L102.577 106.375C108.442 106.422 113.213 107.585 116.891 109.866C120.615 112.147 123.361 115.08 125.13 118.664C126.899 122.248 127.783 126.112 127.783 130.255C127.783 136.772 126.363 142.241 123.524 146.664C120.731 151.086 116.635 154.414 111.235 156.648C105.882 158.883 99.388 160 91.7539 160Z" fill="#FFD600"/>
<path d="M154.288 99.8813V160H135.855V84.4502H153.311L154.288 99.8813ZM177.261 83.9614L176.981 101.138C175.957 100.952 174.794 100.812 173.49 100.719C172.233 100.626 171.046 100.58 169.929 100.58C167.09 100.58 164.599 100.975 162.458 101.767C160.317 102.511 158.524 103.605 157.081 105.048C155.685 106.491 154.614 108.26 153.87 110.355C153.125 112.403 152.706 114.731 152.613 117.337L148.633 116.849C148.633 112.054 149.121 107.609 150.099 103.512C151.077 99.4159 152.496 95.8315 154.358 92.7593C156.22 89.687 158.548 87.313 161.341 85.6372C164.18 83.9149 167.439 83.0537 171.116 83.0537C172.14 83.0537 173.234 83.1468 174.398 83.333C175.608 83.4727 176.562 83.6821 177.261 83.9614Z" fill="#FFD600"/>
</svg>
