<svg width="223" height="223" viewBox="0 0 223 223" fill="none" xmlns="http://www.w3.org/2000/svg">
<rect x="4" y="4" width="215" height="215" stroke="#B339EC" stroke-width="8" stroke-linejoin="round"/>
<path d="M78.9761 73.7671L49.999 160H29.6802L67.6646 58.3359H80.6519L78.9761 73.7671ZM103.205 160L74.0884 73.7671L72.3428 58.3359H85.3999L123.594 160H103.205ZM101.878 122.225V137.377H47.3457V122.225H101.878Z" fill="#B339EC"/>
<path d="M159.455 161.396C153.73 161.396 148.586 160.465 144.024 158.604C139.462 156.742 135.576 154.158 132.364 150.853C129.198 147.501 126.754 143.615 125.032 139.192C123.356 134.724 122.518 129.929 122.518 124.809V122.016C122.518 116.197 123.356 110.914 125.032 106.166C126.708 101.371 129.082 97.2513 132.154 93.8066C135.226 90.362 138.904 87.7087 143.186 85.8467C147.469 83.9847 152.194 83.0537 157.361 83.0537C162.714 83.0537 167.439 83.9614 171.535 85.7769C175.631 87.5457 179.053 90.0594 181.799 93.3179C184.546 96.5763 186.617 100.486 188.014 105.048C189.41 109.564 190.108 114.568 190.108 120.061V127.811H130.897V115.103H171.954V113.707C171.861 110.774 171.302 108.097 170.278 105.677C169.254 103.21 167.671 101.255 165.53 99.8115C163.389 98.3219 160.619 97.5771 157.221 97.5771C154.475 97.5771 152.077 98.1823 150.029 99.3926C148.028 100.556 146.352 102.232 145.002 104.42C143.698 106.561 142.721 109.121 142.069 112.101C141.418 115.08 141.092 118.385 141.092 122.016V124.809C141.092 127.974 141.511 130.907 142.349 133.606C143.233 136.306 144.513 138.657 146.189 140.659C147.911 142.614 149.959 144.15 152.333 145.267C154.754 146.338 157.5 146.873 160.573 146.873C164.436 146.873 167.927 146.128 171.046 144.639C174.212 143.103 176.958 140.845 179.286 137.866L188.572 147.501C186.989 149.829 184.848 152.063 182.148 154.205C179.495 156.346 176.283 158.091 172.513 159.441C168.742 160.745 164.39 161.396 159.455 161.396Z" fill="#B339EC"/>
</svg>
