<svg width="238" height="160" viewBox="0 0 238 160" fill="none" xmlns="http://www.w3.org/2000/svg">
<path d="M4 67.6364L1.20311 64.7768C0.0407298 65.9136 -0.317825 67.641 0.296052 69.1466C0.909928 70.6522 2.37407 71.6364 4 71.6364L4 67.6364ZM71.8605 6.85962C73.4398 5.31494 73.4679 2.78243 71.9232 1.20311C70.3785 -0.376212 67.846 -0.404296 66.2667 1.14038L71.8605 6.85962ZM58.4908 71.6364C60.6999 71.6364 62.4908 69.8455 62.4908 67.6364C62.4908 65.4272 60.6999 63.6364 58.4908 63.6364V71.6364ZM50.9135 32.9586C49.3342 34.5033 49.3061 37.0358 50.8508 38.6151C52.3955 40.1944 54.928 40.2225 56.5073 38.6778L50.9135 32.9586ZM89.0391 6.85962C90.6184 5.31494 90.6465 2.78243 89.1018 1.20311C87.5572 -0.376212 85.0247 -0.404296 83.4453 1.14038L89.0391 6.85962ZM69.5199 32.9586C67.9406 34.5033 67.9125 37.0358 69.4572 38.6151C71.0019 40.1944 73.5344 40.2225 75.1137 38.6778L69.5199 32.9586ZM107.645 6.85962C109.225 5.31494 109.253 2.78243 107.708 1.20311C106.164 -0.376212 103.631 -0.404296 102.052 1.14038L107.645 6.85962ZM120.595 64.7768C119.016 66.3214 118.988 68.854 120.532 70.4333C122.077 72.0126 124.609 72.0407 126.189 70.496L120.595 64.7768ZM191.252 6.85962C192.832 5.31494 192.86 2.78243 191.315 1.20311C189.77 -0.376212 187.238 -0.404296 185.659 1.14038L191.252 6.85962ZM201.924 64.7768C200.345 66.3214 200.317 68.854 201.862 70.4333C203.406 72.0126 205.939 72.0407 207.518 70.496L201.924 64.7768ZM236.797 41.8596C238.376 40.3149 238.404 37.7824 236.86 36.2031C235.315 34.6238 232.782 34.5957 231.203 36.1404L236.797 41.8596ZM201.924 47.5172C200.345 49.0619 200.317 51.5944 201.862 53.1737C203.406 54.753 205.939 54.7811 207.518 53.2364L201.924 47.5172ZM236.797 24.6C238.376 23.0554 238.404 20.5229 236.86 18.9435C235.315 17.3642 232.782 17.3361 231.203 18.8808L236.797 24.6ZM201.924 29.7768C200.345 31.3214 200.317 33.8539 201.862 35.4333C203.406 37.0126 205.939 37.0407 207.518 35.496L201.924 29.7768ZM236.797 6.85962C238.376 5.31494 238.404 2.78243 236.86 1.20311C235.315 -0.376212 232.782 -0.404296 231.203 1.14038L236.797 6.85962ZM207.881 83.6627C207.881 81.4535 206.09 79.6627 203.881 79.6627C201.672 79.6627 199.881 81.4535 199.881 83.6627H207.881ZM63.6746 83.6627C63.6746 81.4535 61.8837 79.6627 59.6746 79.6627C57.4654 79.6627 55.6746 81.4535 55.6746 83.6627H63.6746ZM6.79689 70.496L71.8605 6.85962L66.2667 1.14038L1.20311 64.7768L6.79689 70.496ZM4 71.6364H58.4908V63.6364H4V71.6364ZM56.5073 38.6778L89.0391 6.85962L83.4453 1.14038L50.9135 32.9586L56.5073 38.6778ZM75.1137 38.6778L107.645 6.85962L102.052 1.14038L69.5199 32.9586L75.1137 38.6778ZM126.189 70.496L191.252 6.85962L185.659 1.14038L120.595 64.7768L126.189 70.496ZM207.518 70.496L236.797 41.8596L231.203 36.1404L201.924 64.7768L207.518 70.496ZM207.518 53.2364L236.797 24.6L231.203 18.8808L201.924 47.5172L207.518 53.2364ZM207.518 35.496L236.797 6.85962L231.203 1.14038L201.924 29.7768L207.518 35.496ZM199.881 83.6627C199.881 121.417 169.378 152 131.778 152V160C173.821 160 207.881 125.81 207.881 83.6627H199.881ZM131.778 152C94.1776 152 63.6746 121.417 63.6746 83.6627H55.6746C55.6746 125.81 89.7349 160 131.778 160V152Z" fill="#AFED00"/>
</svg>
