<svg width="196" height="154" viewBox="0 0 196 154" fill="none" xmlns="http://www.w3.org/2000/svg">
<path d="M4 150H192V124.309H4V150Z" fill="#00E878"/>
<path d="M75.44 56.5029C75.44 63.752 69.5481 69.6286 62.28 69.6286C55.0119 69.6286 49.12 63.752 49.12 56.5029C49.12 49.2537 55.0119 43.3772 62.28 43.3772C69.5481 43.3772 75.44 49.2537 75.44 56.5029Z" fill="#00E878"/>
<path d="M120.56 56.5029C120.56 63.752 126.452 69.6286 133.72 69.6286C140.988 69.6286 146.88 63.752 146.88 56.5029C146.88 49.2537 140.988 43.3772 133.72 43.3772C126.452 43.3772 120.56 49.2537 120.56 56.5029Z" fill="#00E878"/>
<path d="M98 7.75021C117.468 7.75021 135.554 13.653 150.556 23.7621C152.518 25.0841 154.427 26.478 156.28 27.9401M98 7.75021C75.9861 7.75021 55.7396 15.2978 39.72 27.9401M98 7.75021C120.014 7.75021 140.26 15.2978 156.28 27.9401M156.28 27.9401C178.039 45.1117 192 71.6824 192 101.505H4C4 71.6824 17.961 45.1117 39.72 27.9401M156.28 27.9401L175.08 4M39.72 27.9401L20.92 4M75.44 56.5029C75.44 63.752 69.5481 69.6286 62.28 69.6286C55.0119 69.6286 49.12 63.752 49.12 56.5029C49.12 49.2537 55.0119 43.3772 62.28 43.3772C69.5481 43.3772 75.44 49.2537 75.44 56.5029ZM120.56 56.5029C120.56 63.752 126.452 69.6286 133.72 69.6286C140.988 69.6286 146.88 63.752 146.88 56.5029C146.88 49.2537 140.988 43.3772 133.72 43.3772C126.452 43.3772 120.56 49.2537 120.56 56.5029ZM4 150H192V124.309H4V150Z" stroke="#00E878" stroke-width="8" stroke-linecap="round" stroke-linejoin="round"/>
</svg>
