<svg width="234" height="291" viewBox="0 0 234 291" fill="none" xmlns="http://www.w3.org/2000/svg">
<path d="M168.523 77.7697C167.549 78.409 145.721 91.0584 145.988 117.433H145.997C146.281 148.915 173.692 159.396 174 159.533C173.748 160.253 169.602 174.465 159.54 189.145C150.841 201.835 141.826 214.452 127.601 214.711C113.611 214.986 109.116 206.448 93.1302 206.448C77.1445 206.448 72.154 214.468 58.9273 214.986C45.2055 215.504 34.7458 201.285 25.974 188.652C8.03266 162.803 -5.67285 115.596 12.7391 83.7423C21.8599 67.9124 38.2026 57.8933 55.933 57.6262C69.4113 57.3915 82.143 66.6985 90.3712 66.6985C98.6156 66.6985 114.098 55.4978 130.344 57.1487C137.144 57.4239 156.253 59.8761 168.523 77.7697Z" stroke="#D6E0E3" stroke-width="8" stroke-linejoin="round"/>
<path d="M131.092 4C132.423 16.188 127.497 28.4327 120.218 37.246H120.227C112.923 46.0431 100.979 52.8897 89.2613 51.9833C87.6708 40.0138 93.5864 27.5749 100.338 19.7651C107.876 10.96 120.592 4.42893 131.092 4Z" stroke="#D6E0E3" stroke-width="8" stroke-linejoin="round"/>
</svg>
