<svg width="305" height="305" viewBox="0 0 305 305" fill="none" xmlns="http://www.w3.org/2000/svg">
<path d="M234.5 234.5H240.458C273.894 234.5 301 219.533 301 201.069V180.1M234.5 234.5V240.458C234.5 273.894 219.533 301 201.069 301H179.8M234.5 234.5H179.8M234.5 234.5V179.8M234.5 70.5H70.5M234.5 70.5H240.458C273.894 70.5 301 85.4675 301 103.931V125.1M234.5 70.5V64.5423C234.5 31.1057 219.533 4 201.069 4H180.1M234.5 70.5L180.1 70.5M234.5 70.5V125.1M70.5 70.5V234.5M70.5 70.5V64.5423C70.5 31.1057 85.4675 4 103.931 4H125.1M70.5 70.5H64.5423C31.1057 70.5 4 85.4675 4 103.931V125.1M70.5 70.5L125.1 70.5M70.5 70.5V125.1M70.5 234.5V240.458C70.5 273.894 85.4675 301 103.931 301H125.1M70.5 234.5H64.5423C31.1057 234.5 4 219.533 4 201.069V180.1M70.5 234.5H125.1M125.1 70.5H180.1M125.1 70.5V4M180.1 70.5V4M70.5 180.1V235.1M70.5 180.1V125.1M70.5 180.1H4M70.5 125.1H4M180.1 4H125.1M125.1 234.5V301M125.1 234.5H179.8M125.1 301H179.8M179.8 234.5V301M4 180.1V125.1M234.5 125.1H301M234.5 125.1V179.8M301 125.1V180.1M234.5 179.8L301 180.1" stroke="#AFED00" stroke-width="8"/>
</svg>
