<svg width="290" height="290" viewBox="0 0 290 290" fill="none" xmlns="http://www.w3.org/2000/svg">
<path d="M80.5865 40.25H209.413C231.691 40.25 249.75 58.3093 249.75 80.5865V209.413C249.75 231.691 231.691 249.75 209.413 249.75H80.5865C58.3093 249.75 40.25 231.691 40.25 209.413V80.5865C40.25 58.3093 58.3093 40.25 80.5865 40.25Z" stroke="#AFED00" stroke-width="8"/>
<path fill-rule="evenodd" clip-rule="evenodd" d="M128.237 18.659C128.237 23.6295 132.266 27.659 137.237 27.659H152.763C157.734 27.659 161.763 23.6295 161.763 18.659V9.00001C161.763 4.02944 157.734 0 152.763 0H137.237C132.266 0 128.237 4.02944 128.237 9V18.659ZM271.341 128.237C266.37 128.237 262.341 132.266 262.341 137.237V152.763C262.341 157.734 266.37 161.763 271.341 161.763H281C285.971 161.763 290 157.734 290 152.763V137.237C290 132.266 285.971 128.237 281 128.237H271.341ZM161.763 271.341C161.763 266.37 157.734 262.341 152.763 262.341H137.237C132.266 262.341 128.237 266.37 128.237 271.341V281C128.237 285.971 132.266 290 137.237 290H152.763C157.734 290 161.763 285.971 161.763 281V271.341ZM18.659 128.237C23.6295 128.237 27.659 132.266 27.659 137.237V152.763C27.659 157.734 23.6295 161.763 18.659 161.763H9.00001C4.02944 161.763 0 157.734 0 152.763V137.237C0 132.266 4.02944 128.237 9 128.237H18.659Z" fill="#AFED00"/>
<path d="M108.121 281C108.121 285.971 104.092 290 99.1214 290H83.5954C78.6248 290 74.5954 285.971 74.5954 281V271.335C74.5954 266.363 78.6262 262.334 83.5976 262.335L99.1236 262.339C104.093 262.34 108.121 266.369 108.121 271.339V281Z" fill="#AFED00"/>
<path d="M215.405 281C215.405 285.971 211.375 290 206.405 290H190.879C185.908 290 181.879 285.971 181.879 281V271.339C181.879 266.369 185.907 262.34 190.876 262.339L206.402 262.335C211.374 262.334 215.405 266.363 215.405 271.335V281Z" fill="#AFED00"/>
<path d="M9 215.405C4.02944 215.405 0 211.375 0 206.405V190.879C0 185.908 4.02944 181.879 9 181.879H18.6612C23.6309 181.879 27.66 185.907 27.6612 190.876L27.6651 206.402C27.6663 211.374 23.6365 215.405 18.6651 215.405H9Z" fill="#AFED00"/>
<path d="M9.00001 108.121C4.02944 108.121 0 104.092 0 99.1214V83.5954C0 78.6248 4.02944 74.5954 9 74.5954H18.6651C23.6365 74.5954 27.6663 78.6262 27.6651 83.5976L27.6612 99.1236C27.66 104.093 23.6309 108.121 18.6612 108.121H9.00001Z" fill="#AFED00"/>
<path d="M74.5954 9C74.5954 4.02944 78.6248 0 83.5954 0H99.1214C104.092 0 108.121 4.02944 108.121 9.00001V18.6612C108.121 23.6309 104.093 27.66 99.1236 27.6612L83.5976 27.6651C78.6262 27.6663 74.5954 23.6365 74.5954 18.6651V9Z" fill="#AFED00"/>
<path d="M181.879 9C181.879 4.02944 185.908 0 190.879 0H206.405C211.375 0 215.405 4.02944 215.405 9V18.6651C215.405 23.6365 211.374 27.6663 206.402 27.6651L190.876 27.6612C185.907 27.66 181.879 23.6309 181.879 18.6612V9Z" fill="#AFED00"/>
<path d="M281 74.5954C285.971 74.5954 290 78.6248 290 83.5954V99.1214C290 104.092 285.971 108.121 281 108.121H271.339C266.369 108.121 262.34 104.093 262.339 99.1236L262.335 83.5976C262.334 78.6262 266.363 74.5954 271.335 74.5954H281Z" fill="#AFED00"/>
<path d="M281 181.879C285.971 181.879 290 185.908 290 190.879V206.405C290 211.375 285.971 215.405 281 215.405H271.335C266.363 215.405 262.334 211.374 262.335 206.402L262.339 190.876C262.34 185.907 266.369 181.879 271.339 181.879H281Z" fill="#AFED00"/>
<path d="M39.7024 198.512H249.866" stroke="#AFED00" stroke-width="8" stroke-linecap="round" stroke-linejoin="round" stroke-dasharray="25 25"/>
<path d="M39.7024 94.0774H249.866" stroke="#AFED00" stroke-width="8" stroke-linecap="round" stroke-linejoin="round" stroke-dasharray="25 25"/>
<path d="M74.7473 122C82.5612 122 88.523 123.771 92.6325 127.314C96.7421 130.8 98.7969 136.171 98.7969 143.429V169.229H83.4294V163.229C81.0563 167.743 76.4258 170 69.538 170C65.8915 170 62.7369 169.371 60.0744 168.114C57.4119 166.857 55.386 165.171 53.9969 163.057C52.6656 160.886 52 158.429 52 155.686C52 151.286 53.7075 147.886 57.1225 145.486C60.5375 143.029 65.8046 141.8 72.924 141.8H82.3008C82.0114 136.886 78.6832 134.429 72.3163 134.429C70.0589 134.429 67.7726 134.8 65.4574 135.543C63.1421 136.229 61.1742 137.2 59.5535 138.457L53.9969 127.4C56.6015 125.686 59.7561 124.371 63.4605 123.457C67.2227 122.486 70.985 122 74.7473 122ZM74.1395 159.714C76.0496 159.714 77.7282 159.257 79.1752 158.343C80.6222 157.429 81.6641 156.086 82.3008 154.314V150.286H75.1814C70.3773 150.286 67.9752 151.857 67.9752 155C67.9752 156.429 68.5251 157.571 69.6248 158.429C70.7245 159.286 72.2294 159.714 74.1395 159.714Z" fill="#AFED00"/>
<path d="M126.313 170C122.377 170 118.499 169.571 114.679 168.714C110.859 167.8 107.791 166.629 105.476 165.2L110.425 154.057C112.566 155.371 115.113 156.429 118.065 157.229C121.017 157.971 123.94 158.343 126.834 158.343C129.497 158.343 131.378 158.086 132.478 157.571C133.635 157 134.214 156.2 134.214 155.171C134.214 154.143 133.519 153.429 132.13 153.029C130.799 152.571 128.657 152.143 125.705 151.743C121.943 151.286 118.731 150.686 116.068 149.943C113.464 149.2 111.206 147.829 109.296 145.829C107.386 143.829 106.431 141.029 106.431 137.429C106.431 134.457 107.328 131.829 109.123 129.543C110.917 127.2 113.522 125.371 116.937 124.057C120.409 122.686 124.548 122 129.352 122C132.767 122 136.153 122.343 139.51 123.029C142.867 123.714 145.674 124.686 147.932 125.943L142.983 137C138.816 134.714 134.301 133.571 129.439 133.571C126.834 133.571 124.924 133.886 123.709 134.514C122.493 135.086 121.885 135.857 121.885 136.829C121.885 137.914 122.551 138.686 123.882 139.143C125.213 139.543 127.413 139.971 130.481 140.429C134.359 141 137.571 141.657 140.118 142.4C142.665 143.143 144.864 144.514 146.716 146.514C148.626 148.457 149.581 151.2 149.581 154.743C149.581 157.657 148.684 160.286 146.89 162.629C145.096 164.914 142.433 166.714 138.902 168.029C135.43 169.343 131.233 170 126.313 170Z" fill="#AFED00"/>
<path d="M217.986 122C223.774 122 228.376 123.714 231.791 127.143C235.264 130.571 237 135.743 237 142.657V169.229H220.504V145.314C220.504 142.057 219.867 139.657 218.594 138.114C217.378 136.571 215.642 135.8 213.385 135.8C210.896 135.8 208.899 136.657 207.394 138.371C205.889 140.086 205.136 142.686 205.136 146.171V169.229H188.64V145.314C188.64 138.971 186.267 135.8 181.521 135.8C178.974 135.8 176.948 136.657 175.443 138.371C173.939 140.086 173.186 142.686 173.186 146.171V169.229H156.69V122.771H172.405V127.657C174.141 125.771 176.196 124.371 178.569 123.457C181 122.486 183.634 122 186.47 122C189.769 122 192.721 122.6 195.326 123.8C197.93 125 200.043 126.829 201.664 129.286C203.516 126.943 205.86 125.143 208.696 123.886C211.532 122.629 214.629 122 217.986 122Z" fill="#AFED00"/>
</svg>
