<svg width="148" height="170" viewBox="0 0 148 211" fill="none" xmlns="http://www.w3.org/2000/svg">
<path d="M74.0001 41.3973L48.5891 123.863L4 139.206L40.9179 17.9042C42.516 12.1507 45.2329 4 52.4247 4H74.0001H95.5755C102.767 4 105.484 12.1507 107.082 17.9042L144 139.206L99.4111 123.863L74.0001 41.3973Z" stroke="#D6E0E3" stroke-width="8" stroke-linejoin="round"/>
<path d="M75.4369 153.109C49.067 153.109 43.7936 144.479 40.9163 140.644C38.3592 148.155 36.3136 165.863 48.5876 176.603C51.4648 170.37 67.2867 158.383 68.2457 181.876C69.0128 200.671 79.2731 207.287 83.5881 206.808C76.8758 199.137 80.932 181.804 94.1361 176.603C109.958 170.37 110.597 152.63 109.958 140.644C106.602 144.959 101.807 153.109 75.4369 153.109Z" stroke="#FF47B5" stroke-width="8" stroke-linejoin="round"/>
</svg>
