<svg width="223" height="223" viewBox="0 0 223 223" fill="none" xmlns="http://www.w3.org/2000/svg">
<rect x="4" y="4" width="215" height="215" stroke="#2B66FF" stroke-width="8" stroke-linejoin="round"/>
<path d="M77.9287 73.7671L48.9517 160H28.6328L66.6172 58.3359H79.6045L77.9287 73.7671ZM102.158 160L73.041 73.7671L71.2954 58.3359H84.3525L122.546 160H102.158ZM100.831 122.225V137.377H46.2983V122.225H100.831Z" fill="#2B66FF"/>
<path d="M168.602 142.055V84.4502H187.176V160H169.72L168.602 142.055ZM170.976 126.415L176.702 126.275C176.702 131.349 176.143 136.027 175.026 140.31C173.909 144.592 172.163 148.316 169.789 151.481C167.462 154.6 164.506 157.044 160.922 158.813C157.337 160.535 153.101 161.396 148.214 161.396C144.49 161.396 141.092 160.884 138.019 159.86C134.947 158.79 132.294 157.137 130.059 154.903C127.872 152.622 126.173 149.713 124.962 146.175C123.752 142.59 123.147 138.285 123.147 133.257V84.4502H141.58V133.397C141.58 135.911 141.86 138.005 142.418 139.681C143.023 141.357 143.838 142.73 144.862 143.801C145.933 144.825 147.166 145.57 148.563 146.035C150.006 146.454 151.542 146.664 153.171 146.664C157.64 146.664 161.155 145.779 163.715 144.01C166.322 142.195 168.184 139.774 169.301 136.749C170.418 133.676 170.976 130.232 170.976 126.415Z" fill="#2B66FF"/>
</svg>
