<svg width="233" height="233" viewBox="0 0 233 233" fill="none" xmlns="http://www.w3.org/2000/svg">
<path d="M50.8091 11.3667L48.1622 8.36771L48.0701 8.44899L47.9831 8.53577L50.8091 11.3667ZM179.879 216.021L177.004 213.239L177.004 213.239L179.879 216.021ZM216.713 179.187L219.541 182.016L219.564 181.992L219.587 181.969L216.713 179.187ZM158.7 221H33.4667V229H158.7V221ZM8 195.533V70.3H0V195.533H8ZM33.4667 221C19.4018 221 8 209.598 8 195.533H0C0 214.016 14.9835 229 33.4667 229V221ZM158.7 44.8333C172.765 44.8333 184.167 56.2352 184.167 70.3H192.167C192.167 51.8169 177.183 36.8333 158.7 36.8333V44.8333ZM70.3 8H195.533V0H70.3V8ZM221 33.4667V158.7H229V33.4667H221ZM195.533 8C209.598 8 221 19.4018 221 33.4667H229C229 14.9835 214.016 0 195.533 0V8ZM40.8333 36.8333H33.4667V44.8333H40.8333V36.8333ZM192.167 195.533V188.167H184.167V195.533H192.167ZM192.167 188.167V70.3H184.167V188.167H192.167ZM158.7 36.8333H40.8333V44.8333H158.7V36.8333ZM33.4667 36.8333C24.5562 36.8333 16.4518 40.3209 10.4578 45.9974L15.9588 51.806C20.5262 47.4804 26.683 44.8333 33.4667 44.8333V36.8333ZM10.4578 45.9974C4.0225 52.092 0 60.7295 0 70.3H8C8 63.0166 11.0523 56.4526 15.9588 51.806L10.4578 45.9974ZM70.3 0C61.8152 0 54.0594 3.16274 48.1622 8.36771L53.456 14.3656C57.9478 10.4011 63.8386 8 70.3 8V0ZM16.0343 51.7326L53.635 14.1976L47.9831 8.53577L10.3824 46.0708L16.0343 51.7326ZM184.167 195.533C184.167 202.415 181.442 208.653 177.004 213.239L182.754 218.802C188.577 212.783 192.167 204.573 192.167 195.533H184.167ZM177.004 213.239C172.37 218.03 165.885 221 158.7 221V229C168.141 229 176.674 225.086 182.754 218.802L177.004 213.239ZM221 158.7C221 165.582 218.276 171.819 213.838 176.406L219.587 181.969C225.41 175.95 229 167.74 229 158.7H221ZM182.708 218.849L219.541 182.016L213.884 176.359L177.051 213.192L182.708 218.849Z" fill="#00E878"/>
<path fill-rule="evenodd" clip-rule="evenodd" d="M158.7 225H33.4667C17.1927 225 4 211.807 4 195.533V70.3002C4 61.8732 7.53741 54.2725 13.2083 48.9018C18.489 43.9008 25.6196 40.8335 33.4667 40.8335H158.7C174.974 40.8335 188.167 54.0262 188.167 70.3002V195.533C188.167 203.495 185.01 210.718 179.879 216.021C174.522 221.558 167.013 225 158.7 225ZM48.5262 125.55H41.8381V134.835C39.0342 135.106 36.5047 135.788 34.2496 136.879C31.277 138.302 28.9476 140.336 27.2613 142.979C25.575 145.623 24.7318 148.745 24.7318 152.347C24.7318 156.124 25.5178 159.246 27.0898 161.715C28.6618 164.155 30.8483 166.203 33.6493 167.859C36.4789 169.486 39.7516 171.025 43.4672 172.478C45.668 173.32 47.4115 174.192 48.6977 175.092C50.0125 175.993 50.9557 177.024 51.5273 178.186C52.1275 179.348 52.4276 180.757 52.4276 182.412C52.4276 183.894 52.1132 185.23 51.4844 186.421C50.8842 187.583 49.9839 188.498 48.7834 189.166C47.6116 189.834 46.111 190.168 44.2818 190.168C43.1099 190.168 41.9524 189.994 40.8091 189.645C39.6658 189.297 38.6369 188.716 37.7223 187.902C36.8362 187.06 36.1217 185.942 35.5786 184.547C35.0356 183.124 34.764 181.352 34.764 179.232H22.4167C22.4167 183.124 23.0455 186.407 24.3031 189.079C25.5607 191.722 27.247 193.843 29.3621 195.441C31.4771 197.038 33.8351 198.2 36.4361 198.926C37.9603 199.335 39.4894 199.624 41.0235 199.793V208.425H47.7116V199.798C50.3847 199.515 52.8142 198.891 55 197.924C58.0868 196.53 60.4877 194.526 62.2026 191.911C63.9175 189.268 64.775 186.072 64.775 182.325C64.775 178.549 63.989 175.441 62.417 173.001C60.845 170.561 58.6585 168.498 55.8575 166.813C53.0564 165.129 49.7981 163.56 46.0825 162.108C43.7959 161.149 41.9952 160.219 40.6805 159.319C39.3657 158.389 38.4368 157.373 37.8938 156.269C37.3793 155.165 37.122 153.872 37.122 152.391C37.122 150.88 37.365 149.544 37.8509 148.382C38.3654 147.191 39.1799 146.247 40.2946 145.55C41.4093 144.853 42.8384 144.504 44.5819 144.504C45.7538 144.504 46.8256 144.737 47.7974 145.201C48.7692 145.637 49.598 146.305 50.284 147.206C50.9985 148.106 51.5416 149.225 51.9132 150.561C52.2847 151.897 52.4705 153.437 52.4705 155.18H64.775C64.775 151.926 64.3034 149.036 63.3602 146.509C62.417 143.981 61.0594 141.846 59.2873 140.103C57.5152 138.331 55.4001 136.995 52.9421 136.095C51.5604 135.572 50.0885 135.197 48.5262 134.968V125.55Z" fill="#00E878"/>
</svg>
