<svg width="233" height="233" viewBox="0 0 233 233" fill="none" xmlns="http://www.w3.org/2000/svg">
<path d="M50.8091 11.3667L48.1622 8.36771L48.0701 8.44899L47.9831 8.53577L50.8091 11.3667ZM179.879 216.021L177.004 213.239L177.004 213.239L179.879 216.021ZM216.713 179.187L219.541 182.016L219.564 181.992L219.587 181.969L216.713 179.187ZM158.7 221H33.4667V229H158.7V221ZM8 195.533V70.3H0V195.533H8ZM33.4667 221C19.4018 221 8 209.598 8 195.533H0C0 214.016 14.9835 229 33.4667 229V221ZM158.7 44.8333C172.765 44.8333 184.167 56.2352 184.167 70.3H192.167C192.167 51.8169 177.183 36.8333 158.7 36.8333V44.8333ZM70.3 8H195.533V0H70.3V8ZM221 33.4667V158.7H229V33.4667H221ZM195.533 8C209.598 8 221 19.4018 221 33.4667H229C229 14.9835 214.016 0 195.533 0V8ZM40.8333 36.8333H33.4667V44.8333H40.8333V36.8333ZM192.167 195.533V188.167H184.167V195.533H192.167ZM192.167 188.167V70.3H184.167V188.167H192.167ZM158.7 36.8333H40.8333V44.8333H158.7V36.8333ZM33.4667 36.8333C24.5562 36.8333 16.4518 40.3209 10.4578 45.9974L15.9588 51.806C20.5262 47.4804 26.683 44.8333 33.4667 44.8333V36.8333ZM10.4578 45.9974C4.0225 52.092 0 60.7295 0 70.3H8C8 63.0166 11.0523 56.4526 15.9588 51.806L10.4578 45.9974ZM70.3 0C61.8152 0 54.0594 3.16274 48.1622 8.36771L53.456 14.3656C57.9478 10.4011 63.8386 8 70.3 8V0ZM16.0343 51.7326L53.635 14.1976L47.9831 8.53577L10.3824 46.0708L16.0343 51.7326ZM184.167 195.533C184.167 202.415 181.442 208.653 177.004 213.239L182.754 218.802C188.577 212.783 192.167 204.573 192.167 195.533H184.167ZM177.004 213.239C172.37 218.03 165.885 221 158.7 221V229C168.141 229 176.674 225.086 182.754 218.802L177.004 213.239ZM221 158.7C221 165.582 218.276 171.819 213.838 176.406L219.587 181.969C225.41 175.95 229 167.74 229 158.7H221ZM182.708 218.849L219.541 182.016L213.884 176.359L177.051 213.192L182.708 218.849Z" fill="#00F3C8"/>
<path fill-rule="evenodd" clip-rule="evenodd" d="M158.7 225H33.4667C17.1927 225 4 211.807 4 195.533V70.3002C4 61.8732 7.53742 54.2725 13.2083 48.9018C18.489 43.9008 25.6196 40.8335 33.4667 40.8335H158.7C174.974 40.8335 188.167 54.0262 188.167 70.3002V195.533C188.167 203.495 185.01 210.718 179.879 216.021C174.522 221.558 167.013 225 158.7 225ZM45 168.5L21 155V133L64 157.621V179.379L21 204L21 182L45 168.5Z" fill="#00F3C8"/>
</svg>
