<svg width="245" height="238" viewBox="0 0 245 238" fill="none" xmlns="http://www.w3.org/2000/svg">
<path d="M58.5973 16.3333L55.9504 13.3344L55.8583 13.4157L55.7713 13.5024L58.5973 16.3333ZM187.083 220.061L184.209 217.28L184.209 217.28L187.083 220.061ZM223.75 183.395L226.578 186.223L226.602 186.2L226.625 186.176L223.75 183.395ZM166 225H41.3333V233H166V225ZM16 199.667V75H8V199.667H16ZM41.3333 225C27.3421 225 16 213.658 16 199.667H8C8 218.076 22.9238 233 41.3333 233V225ZM166 49.6667C179.991 49.6667 191.333 61.0088 191.333 75H199.333C199.333 56.5905 184.409 41.6667 166 41.6667V49.6667ZM78 13H202.667V5H78V13ZM228 38.3333V163H236V38.3333H228ZM202.667 13C216.658 13 228 24.3421 228 38.3333H236C236 19.9238 221.076 5 202.667 5V13ZM48.6667 41.6667H41.3333V49.6667H48.6667V41.6667ZM199.333 199.667V192.333H191.333V199.667H199.333ZM199.333 192.333V75H191.333V192.333H199.333ZM166 41.6667H48.6667V49.6667H166V41.6667ZM41.3333 41.6667C32.4584 41.6667 24.3862 45.1403 18.4162 50.7942L23.9172 56.6028C28.4607 52.2999 34.5852 49.6667 41.3333 49.6667V41.6667ZM18.4162 50.7942C12.0065 56.8645 8 65.4676 8 75H16C16 67.7547 19.0363 61.2252 23.9172 56.6028L18.4162 50.7942ZM78 5C69.549 5 61.824 8.15015 55.9504 13.3344L61.2442 19.3323C65.7125 15.3885 71.5724 13 78 13V5ZM23.9926 56.5294L61.4232 19.1642L55.7713 13.5024L18.3407 50.8676L23.9926 56.5294ZM191.333 199.667C191.333 206.513 188.623 212.717 184.209 217.28L189.958 222.843C195.758 216.848 199.333 208.671 199.333 199.667H191.333ZM184.209 217.28C179.598 222.045 173.148 225 166 225V233C175.403 233 183.903 229.101 189.958 222.843L184.209 217.28ZM228 163C228 169.846 225.29 176.051 220.875 180.613L226.625 186.176C232.425 180.181 236 172.004 236 163H228ZM189.912 222.89L226.578 186.223L220.922 180.566L184.255 217.233L189.912 222.89Z" fill="#00F3C8"/>
<path fill-rule="evenodd" clip-rule="evenodd" d="M166 229H41.3333C25.133 229 12 215.867 12 199.667V75.0003C12 66.6115 15.5214 59.0452 21.1667 53.6988C26.4234 48.7204 33.5218 45.667 41.3333 45.667H166C182.2 45.667 195.333 58.8 195.333 75.0003V199.667C195.333 207.592 192.191 214.783 187.083 220.062C181.75 225.574 174.275 229 166 229ZM74.3333 166.667L32.1667 124.5V154.86L43.9733 166.667L32.1667 178.474V208.834L74.3333 166.667Z" fill="#00F3C8"/>
</svg>
