<svg width="258" height="196" viewBox="0 0 258 196" fill="none" xmlns="http://www.w3.org/2000/svg">
<path fill-rule="evenodd" clip-rule="evenodd" d="M193.626 68.8764L188 56L174.344 57.345L171.338 71.0716L151.586 81.6292L138.503 76.5025L129.797 87.1101L137.378 98.9418L130.876 120.374L118 126L119.345 139.656L133.072 142.662L143.629 162.414L138.503 175.497L149.11 184.203L160.942 176.622L182.374 183.124L188 196L201.656 194.655L204.662 180.928L224.414 170.371L237.497 175.497L246.203 164.89L238.622 153.058L245.124 131.626L258 126L256.655 112.344L242.928 109.338L232.371 89.5858L237.497 76.5025L226.89 67.7971L215.058 75.3777L193.626 68.8764ZM188 169.4C211.969 169.4 231.4 149.969 231.4 126C231.4 102.031 211.969 82.6 188 82.6C164.031 82.6 144.6 102.031 144.6 126C144.6 149.969 164.031 169.4 188 169.4Z" fill="#FFA800"/>
<path fill-rule="evenodd" clip-rule="evenodd" d="M75.6262 12.8764L70 0L56.3437 1.34503L53.3377 15.0716L33.5858 25.6292L20.5025 20.5025L11.7971 31.1101L19.3777 42.9418L12.8764 64.3738L0 70L1.34503 83.6563L15.0716 86.6623L25.6292 106.414L20.5025 119.497L31.1101 128.203L42.9418 120.622L64.3738 127.124L70 140L83.6563 138.655L86.6623 124.928L106.414 114.371L119.497 119.497L128.203 108.89L120.622 97.0582L127.124 75.6262L140 70L138.655 56.3437L124.928 53.3377L114.371 33.5858L119.497 20.5025L108.89 11.7971L97.0582 19.3777L75.6262 12.8764ZM70 113.4C93.9692 113.4 113.4 93.9692 113.4 70C113.4 46.0308 93.9692 26.6 70 26.6C46.0308 26.6 26.6 46.0308 26.6 70C26.6 93.9692 46.0308 113.4 70 113.4Z" fill="#FFA800"/>
<path d="M78 39V101H65.735V53.1083L51 57.7827V48.1364L76.6798 39H78Z" fill="#FFA800"/>
<path d="M211 120.596V132.219C211 137.262 210.455 141.613 209.365 145.272C208.276 148.9 206.704 151.883 204.649 154.22C202.625 156.526 200.212 158.233 197.41 159.34C194.608 160.447 191.495 161 188.07 161C185.33 161 182.777 160.662 180.411 159.985C178.045 159.278 175.912 158.186 174.013 156.711C172.145 155.235 170.526 153.374 169.156 151.13C167.818 148.854 166.79 146.148 166.074 143.012C165.358 139.876 165 136.278 165 132.219V120.596C165 115.553 165.545 111.233 166.635 107.636C167.755 104.007 169.328 101.04 171.351 98.734C173.406 96.4278 175.835 94.7366 178.637 93.6604C181.439 92.5535 184.552 92 187.977 92C190.716 92 193.254 92.3536 195.589 93.0608C197.955 93.7373 200.088 94.7981 201.987 96.2433C203.886 97.6885 205.505 99.5488 206.844 101.824C208.182 104.069 209.21 106.759 209.926 109.896C210.642 113.001 211 116.568 211 120.596ZM197.504 133.972V118.797C197.504 116.368 197.363 114.247 197.083 112.432C196.834 110.618 196.445 109.081 195.916 107.82C195.386 106.529 194.733 105.483 193.954 104.684C193.176 103.884 192.289 103.3 191.292 102.931C190.296 102.562 189.191 102.378 187.977 102.378C186.451 102.378 185.097 102.67 183.914 103.254C182.762 103.838 181.781 104.776 180.972 106.068C180.162 107.328 179.539 109.019 179.104 111.141C178.699 113.232 178.496 115.784 178.496 118.797V133.972C178.496 136.401 178.621 138.538 178.87 140.383C179.15 142.228 179.555 143.812 180.084 145.134C180.645 146.425 181.298 147.486 182.046 148.316C182.824 149.116 183.711 149.7 184.708 150.069C185.735 150.438 186.856 150.622 188.07 150.622C189.564 150.622 190.888 150.33 192.04 149.746C193.223 149.131 194.219 148.178 195.028 146.886C195.869 145.564 196.492 143.842 196.896 141.721C197.301 139.599 197.504 137.016 197.504 133.972Z" fill="#FFA800"/>
</svg>
