<svg width="133" height="150" viewBox="0 0 133 205" fill="none" xmlns="http://www.w3.org/2000/svg">
<path d="M75.1245 199.264L5.5967 108.776C4.10146 106.83 5.44804 104.01 7.90139 103.949L26.1875 103.497C45.5375 103.018 58.2912 113.201 62.2492 118.353L74.1235 133.807L96.708 163.2C97.4181 164.124 97.5287 165.375 96.9917 166.41L91.2463 177.476L80.1659 198.819C79.1545 200.767 76.4619 201.005 75.1245 199.264Z" stroke="#8710FF" stroke-width="8" stroke-linejoin="round"/>
<path d="M57.8755 5.73591L127.403 96.2238C128.899 98.1698 127.552 100.99 125.099 101.051L106.812 101.503C87.4625 101.982 74.7089 91.7986 70.7508 86.6473L58.8765 71.1935L36.292 41.8005C35.5819 40.8764 35.4713 39.6246 36.0083 38.5903L41.7537 27.5238L52.8341 6.18142C53.8455 4.23327 56.5381 3.99533 57.8755 5.73591Z" stroke="#8710FF" stroke-width="8" stroke-linejoin="round"/>
</svg>
