<svg width="197" height="203" viewBox="0 0 197 203" fill="none" xmlns="http://www.w3.org/2000/svg">
<path d="M41.1876 183.663C71.6046 212.29 91.8826 192.795 98.2195 179.469V136.835M41.1876 183.663C25.0844 183.663 19.754 168.566 19.1017 161.017C14.2558 156.078 6.01788 143.684 11.8329 133.62C2.04753 122.717 -0.468585 107.34 15.4668 99.5125C11.739 92.3369 7.97375 76.5319 22.7354 70.7169C19.1017 55.6202 14.9075 46.3945 37.8321 34.373M41.1876 183.663C40.9338 180.576 41.3246 175.755 43.2063 170.802M37.8321 34.373C41.1876 18.9968 50.6923 15.6419 62.9933 18.9968C62.9933 3.90014 98.2195 -6.72348 98.2195 22.3516V51.7063M37.8321 34.373C37.4692 39.5759 39.1328 48.8162 46.2192 56.3725M98.2195 51.7063C91.6961 52.0791 76.7481 50.4762 69.1438 41.0827M98.2195 51.7063V94.2007M62.9933 66.2439C55.4612 64.047 50.0485 60.4556 46.2192 56.3725M46.2192 56.3725L37.8321 73.5127M98.2195 94.2007C90.0422 86.4244 71.7679 77.8342 56.2837 95.8054M98.2195 94.2007V136.835M49.0149 106.781C51.3274 102.344 53.7687 98.7242 56.2837 95.8054M56.2837 95.8054C49.3876 93.1271 34.701 90.1189 31.1225 99.5125M31.1225 99.5125C30.7497 101.842 28.7741 106.893 23.8537 108.459M31.1225 99.5125C32.0544 96.4372 32.9117 89.6717 28.886 87.2115M98.2195 136.835C93.0007 141.261 79.2083 144.132 65.789 120.201C59.7257 127.387 52.5802 140.345 37.8321 134.733M25.5311 126.91C30.1514 130.87 34.2198 133.359 37.8321 134.733M37.8321 134.733C33.359 137.251 25.7548 144.635 31.1225 154.028M57.9611 155.147C49.8977 158.69 45.4717 164.841 43.2063 170.802M43.2063 170.802C50.9203 168.007 67.9696 165.099 74.4556 175.835C79.7674 161.017 84.2405 161.577 88.7136 159.34" stroke="#FF47B5" stroke-width="8" stroke-linecap="round" stroke-linejoin="round"/>
<path d="M155.81 183.842C125.393 212.47 105.115 192.975 98.7785 179.649V137.015M155.81 183.842C171.914 183.842 177.244 168.746 177.896 161.197C182.742 156.258 190.98 143.864 185.165 133.799C194.951 122.896 197.467 107.52 181.531 99.6921C185.259 92.5166 189.024 76.7116 174.263 70.8966C177.896 55.7999 182.091 46.5742 159.166 34.5527M155.81 183.842C156.064 180.755 155.673 175.934 153.792 170.982M159.166 34.5527C155.81 19.1765 146.306 15.8216 134.005 19.1765C134.005 4.07983 98.7785 -6.54379 98.7785 22.5313V51.886M159.166 34.5527C159.529 39.7556 157.865 48.9959 150.779 56.5522M98.7785 51.886C105.302 52.2588 120.25 50.6559 127.854 41.2624M98.7785 51.886V94.3804M134.005 66.4236C141.537 64.2267 146.95 60.6353 150.779 56.5522M150.779 56.5522L159.166 73.6924M98.7785 94.3804C106.956 86.6041 125.23 78.0139 140.714 95.9851M98.7785 94.3804V137.015M147.983 106.961C145.671 102.523 143.229 98.9039 140.714 95.9851M140.714 95.9851C147.61 93.3068 162.297 90.2986 165.876 99.6921M165.876 99.6921C166.248 102.022 168.224 107.073 173.144 108.638M165.876 99.6921C164.944 96.6169 164.086 89.8514 168.112 87.3912M98.7785 137.015C103.997 141.441 117.79 144.311 131.209 120.38C137.272 127.566 144.418 140.525 159.166 134.913M171.467 127.09C166.847 131.05 162.778 133.539 159.166 134.913M159.166 134.913C163.639 137.431 171.243 144.815 165.876 154.208M139.037 155.326C147.1 158.869 151.526 165.021 153.792 170.982M153.792 170.982C146.078 168.186 129.028 165.279 122.542 176.014C117.231 161.197 112.758 161.756 108.284 159.52" stroke="#FF47B5" stroke-width="8" stroke-linecap="round" stroke-linejoin="round"/>
<path d="M159.165 4.17969L109.733 83.8202L141.58 90.2872L38.3911 198.759L87.8232 119.119L55.9754 112.652L159.165 4.17969Z" fill="#FFD600" stroke="#FFD600" stroke-width="8" stroke-linejoin="round"/>
</svg>
