<svg width="119" height="134" viewBox="0 0 119 134" fill="none" xmlns="http://www.w3.org/2000/svg">
<path d="M62.6995 4.93012L110.985 32.8079C111.706 33.2243 112.333 33.7581 112.849 34.3777C113.873 35.6074 114.456 37.1724 114.456 38.8203V66.698V94.5758C114.456 95.8573 114.104 97.0876 113.466 98.1502C112.869 99.1442 112.024 99.9886 110.985 100.588L62.6995 128.466C61.6253 129.086 60.4276 129.396 59.2282 129.396C58.0288 129.396 56.8311 129.086 55.7569 128.466L7.47127 100.588C6.43278 99.9886 5.58779 99.1442 4.99088 98.1502C4.35275 97.0876 4 95.8573 4 94.5758V66.698V38.8203C4 36.34 5.32324 34.048 7.47127 32.8079L55.7569 4.93012C56.8311 4.30997 58.0288 4 59.2282 4C60.4276 4 61.6253 4.30997 62.6995 4.93012Z" stroke="#2EB4FF" stroke-width="8"/>
<path fill-rule="evenodd" clip-rule="evenodd" d="M31.3694 95.261C47.5017 111.393 73.6574 111.393 89.7898 95.261L79.2741 84.7453C68.9494 95.07 52.2098 95.07 41.8851 84.7453C31.5604 74.4206 31.5604 57.6809 41.8851 47.3562C52.2098 37.0315 68.9494 37.0315 79.2741 47.3562L89.7898 36.8406C73.6574 20.7082 47.5017 20.7082 31.3694 36.8406C15.237 52.9729 15.237 79.1286 31.3694 95.261Z" fill="#D6E0E3"/>
<path d="M50.6091 69.0483V63.6304H72.103V69.0483H50.6091Z" fill="#D6E0E3"/>
<path d="M78.3567 69.0483V63.6304H99.8505V69.0483H78.3567Z" fill="#D6E0E3"/>
</svg>
