<svg width="116" height="129" viewBox="0 0 116 129" fill="none" xmlns="http://www.w3.org/2000/svg">
<path d="M62.9339 5.47069L106.565 30.6609C107.591 31.2533 108.485 32.0142 109.22 32.8973C110.676 34.647 111.509 36.8762 111.509 39.2239V64.4141V89.6044C111.509 91.4294 111.006 93.1828 110.097 94.695C109.248 96.1099 108.043 97.3136 106.565 98.1673L62.9339 123.358C61.4043 124.241 59.6972 124.682 57.9901 124.682C56.283 124.682 54.5759 124.241 53.0463 123.358L9.4155 98.1673C7.93677 97.3136 6.7325 96.1099 5.88284 94.695C4.9747 93.1828 4.47168 91.4294 4.47168 89.6044V64.4141V39.2239C4.47168 35.6914 6.35625 32.4272 9.4155 30.6609L53.0463 5.47069C54.5759 4.58756 56.283 4.146 57.9901 4.146C59.6972 4.146 61.4043 4.58756 62.9339 5.47069Z" stroke="#B339EC" stroke-width="8"/>
<path fill-rule="evenodd" clip-rule="evenodd" d="M32.8172 90.2237C47.3943 104.801 71.0285 104.801 85.6057 90.2237L76.1037 80.7218C66.7744 90.0512 51.6485 90.0512 42.3191 80.7218C32.9897 71.3924 32.9897 56.2665 42.3191 46.9372C51.6485 37.6078 66.7744 37.6078 76.1037 46.9372L85.6057 37.4353C71.0285 22.8581 47.3943 22.8581 32.8172 37.4353C18.2401 52.0124 18.2401 75.6466 32.8172 90.2237Z" fill="#D6E0E3"/>
</svg>
