<svg width="213" height="173" viewBox="0 0 213 173" fill="none" xmlns="http://www.w3.org/2000/svg">
<path d="M208.692 86.5L161.442 168.5H66.9421L114.192 86.5H208.692Z" stroke="#2B66FF" stroke-width="8" stroke-linejoin="round"/>
<path d="M67.1921 4L114.442 86.0002H208.942L161.692 4H67.1921Z" stroke="#2EB4FF" stroke-width="8" stroke-linejoin="round"/>
<path d="M63.6884 46.1618C65.7695 44.8443 68.4693 46.403 68.3167 48.834L66.7241 74.2098C66.6643 75.1615 67.0685 76.081 67.8116 76.684L87.6243 92.7597C89.5223 94.2997 88.8389 97.3284 86.4527 97.9518L61.5441 104.459C60.6099 104.703 59.8471 105.373 59.4916 106.261L50.0128 129.95C49.1048 132.219 45.9826 132.532 44.6604 130.487L30.8588 109.133C30.3411 108.332 29.4655 107.826 28.5027 107.772L2.83183 106.337C0.372618 106.199 -0.873568 103.364 0.695469 101.477L17.0741 81.7717C17.6884 81.0327 17.9101 80.0504 17.6705 79.1287L11.2838 54.553C10.672 52.1987 13.024 50.1334 15.3158 51.0124L39.2401 60.1882C40.1374 60.5324 41.15 60.4308 41.9647 59.915L63.6884 46.1618Z" fill="#2EB4FF"/>
</svg>
