<svg width="180" height="208" viewBox="0 0 180 208" fill="none" xmlns="http://www.w3.org/2000/svg">
<path d="M89.6432 54.5001L46.8216 29.75V79.2501L89.6432 54.5001Z" fill="#FF4D35"/>
<path d="M89.6432 104L46.8216 79.2501V128.75L4 104V153.5L46.8216 178.25L89.6432 203V153.5V104Z" fill="#FF4D35"/>
<path d="M46.8216 29.75L89.6432 5L132.465 29.75L175.286 54.5001M46.8216 29.75L89.6432 54.5001L46.8216 79.2501M46.8216 29.75V79.2501M89.6432 104L132.465 79.2501L175.286 54.5001M89.6432 104L46.8216 79.2501M89.6432 104V153.5V203M46.8216 79.2501L4 104M46.8216 79.2501V128.75L4 104M89.6432 203L132.465 178.25L175.286 153.5V104V54.5001M89.6432 203L46.8216 178.25L4 153.5V104" stroke="#FF4D35" stroke-width="8"/>
</svg>
