<svg width="262" height="262" viewBox="0 0 262 262" fill="none" xmlns="http://www.w3.org/2000/svg">
<path d="M4 4H258V258" stroke="#2EB4FF" stroke-width="8" stroke-linecap="round" stroke-linejoin="round"/>
<path d="M4 4V258H258" stroke="#00E878" stroke-width="8" stroke-linecap="round" stroke-linejoin="round"/>
<path d="M4 4H131" stroke="#FF47B5" stroke-width="8" stroke-linecap="round" stroke-linejoin="round"/>
<rect x="37" y="37" width="190" height="190" fill="#524E5A"/>
<path d="M34.8428 34.8428H227.157V227.157" stroke="#2EB4FF" stroke-width="8" stroke-linecap="round" stroke-linejoin="round"/>
<path d="M34.8428 34.8428V227.157H227.157" stroke="#00E878" stroke-width="8" stroke-linecap="round" stroke-linejoin="round"/>
<path d="M34.8428 34.8428H131" stroke="#FF47B5" stroke-width="8" stroke-linecap="round" stroke-linejoin="round"/>
<path d="M103.034 104.716H115.253C114.928 109.041 113.728 112.877 111.654 116.225C109.581 119.542 106.693 122.149 102.99 124.045C99.2869 125.941 94.7992 126.889 89.5264 126.889C85.4681 126.889 81.8097 126.178 78.5513 124.756C75.3224 123.304 72.5527 121.246 70.2422 118.58C67.9613 115.884 66.2135 112.655 64.999 108.893C63.7845 105.101 63.1772 100.851 63.1772 96.1406V91.2085C63.1772 86.4985 63.7993 82.2477 65.0435 78.4561C66.2876 74.6644 68.0649 71.4355 70.3755 68.7695C72.7157 66.0739 75.515 64.0003 78.7734 62.5488C82.0615 61.0973 85.7347 60.3716 89.793 60.3716C95.0658 60.3716 99.5239 61.3491 103.167 63.3042C106.811 65.2297 109.64 67.8809 111.654 71.2578C113.669 74.6348 114.883 78.5153 115.298 82.8994H103.079C102.842 80.1742 102.249 77.8636 101.301 75.9678C100.383 74.0719 98.9907 72.6353 97.1245 71.6577C95.2879 70.6506 92.8441 70.147 89.793 70.147C87.4232 70.147 85.3348 70.5913 83.5278 71.48C81.7505 72.3687 80.2694 73.7017 79.0845 75.479C77.8996 77.2267 77.0109 79.4188 76.4185 82.0552C75.826 84.6619 75.5298 87.6834 75.5298 91.1196V96.1406C75.5298 99.4287 75.7964 102.376 76.3296 104.983C76.8628 107.59 77.6922 109.797 78.8179 111.604C79.9435 113.41 81.395 114.788 83.1724 115.736C84.9497 116.684 87.0677 117.158 89.5264 117.158C92.5182 117.158 94.9473 116.684 96.8135 115.736C98.7093 114.788 100.146 113.396 101.124 111.559C102.131 109.722 102.768 107.442 103.034 104.716Z" fill="#D6E0E3"/>
<path d="M165.774 116.402V126H133.249V116.402H165.774ZM136.937 61.3047V126H124.718V61.3047H136.937Z" fill="#D6E0E3"/>
<path d="M99.5239 189V198.064H59.0449V189H99.5239Z" fill="#D6E0E3"/>
</svg>
