<svg width="173" height="173" viewBox="0 0 173 173" fill="none" xmlns="http://www.w3.org/2000/svg">
<path d="M169 86.4999C169 40.9365 132.063 4 86.4998 4C66.4791 4 47.9029 11.3158 33.6152 23.177C45.0778 21.7184 63.0344 23.4674 76.4529 34.5269C79.7069 33.9009 83.0632 33.6153 86.4998 33.6153C115.707 33.6153 139.384 57.2926 139.384 86.4999C139.384 103.258 131.589 118.196 119.427 127.886C130.941 134.243 144.102 135.5 153.545 134.585C163.272 121.047 169 104.442 169 86.4999Z" stroke="#2B66FF" stroke-width="8" stroke-linejoin="round"/>
<path d="M94.3484 79.0142C94.3484 66.7795 92.0047 57.0507 88.1632 49.3661C107.92 50.2362 123.67 66.5287 123.67 86.4999C123.67 99.5485 116.946 111.027 106.775 117.659C99.3764 109.04 94.3484 96.9341 94.3484 79.0142Z" stroke="#2B66FF" stroke-width="8" stroke-linejoin="round"/>
<path d="M4 86.4999C4 132.063 40.9365 169 86.4999 169C106.624 169 125.065 161.794 139.384 149.823C127.922 151.281 109.969 149.49 96.5504 138.431C93.2965 139.057 89.9365 139.384 86.4999 139.384C57.2926 139.384 33.6153 115.707 33.6153 86.4999C33.6153 69.7413 41.4104 54.8033 53.5726 45.1141C42.0582 38.757 28.898 37.4997 19.4545 38.4148C9.72774 51.9529 4 68.5575 4 86.4999Z" stroke="#AFED00" stroke-width="8" stroke-linejoin="round"/>
<path d="M78.6513 93.9856C78.6513 76.0656 73.6232 63.9598 66.2251 55.3409C56.0533 61.9731 49.3296 73.4513 49.3296 86.4999C49.3296 106.471 65.0798 122.764 84.8365 123.634C80.9949 115.949 78.6513 106.22 78.6513 93.9856Z" stroke="#AFED00" stroke-width="8" stroke-linejoin="round"/>
<path d="M91.5559 86.9966L71.3248 146.979H47.8174L81.1536 55.8123L96.0607 56.306L91.5559 86.9966ZM69.6866 20.4316C72.7445 20.4316 75.4201 20.7608 77.7135 21.419C80.0615 22.0773 82.1092 23.0372 83.8566 24.2988C85.6585 25.5056 87.1875 27.0141 88.4434 28.8243C89.6993 30.5796 90.7368 32.5543 91.5559 34.7485L125.793 122.377C126.503 124.023 127.24 125.504 128.005 126.82C128.769 128.082 129.67 129.097 130.708 129.865C131.745 130.578 133.001 130.934 134.475 130.934C134.967 130.934 135.458 130.934 135.95 130.934C136.441 130.934 136.878 130.907 137.26 130.852L137.506 147.802C136.468 148.021 135.24 148.186 133.82 148.296C132.4 148.405 130.844 148.46 129.151 148.46C124.892 148.46 121.261 147.829 118.258 146.568C115.254 145.306 112.743 143.359 110.722 140.726C108.756 138.038 107.036 134.637 105.562 130.523L82.628 67.4961L73.2905 45.4449C72.5261 43.525 71.6524 42.0166 70.6695 40.9195C69.6866 39.7676 68.5399 38.9448 67.2294 38.4511C65.9189 37.9025 64.3899 37.6283 62.6426 37.6283C61.9873 37.6283 61.2775 37.6557 60.513 37.7106C59.7485 37.7106 58.9295 37.7654 58.0558 37.8751L57.6463 21.9127C59.1752 21.4739 61.1137 21.1173 63.4617 20.843C65.8643 20.5688 67.9393 20.4316 69.6866 20.4316Z" fill="#D6E0E3"/>
</svg>
