<svg width="243" height="254" viewBox="0 0 243 254" fill="none" xmlns="http://www.w3.org/2000/svg">
<path fill-rule="evenodd" clip-rule="evenodd" d="M169.313 172.125C144.292 197.021 103.724 197.021 78.7029 172.125C53.6817 147.229 53.6817 106.864 78.7029 81.968C103.724 57.0719 144.292 57.0719 169.313 81.968L150.145 101.04C135.71 86.6765 112.306 86.6765 97.8704 101.04C83.4351 115.403 83.4351 138.69 97.8704 153.053C112.306 167.416 135.71 167.416 150.145 153.053L169.313 172.125Z" fill="#2B66FF"/>
<path fill-rule="evenodd" clip-rule="evenodd" d="M138.792 10.6358C131.625 -3.54529 111.374 -3.54527 104.207 10.6358L100.569 17.8351C95.7199 27.4298 83.9864 31.2423 74.4238 26.3302L67.2486 22.6445C53.115 15.3844 36.732 27.2873 39.2693 42.9727L40.5573 50.9357C42.274 61.5481 35.0223 71.5292 24.3988 73.176L16.4275 74.4116C0.725753 76.8456 -5.53198 96.105 5.74034 107.303L11.4629 112.988C19.0896 120.565 19.0896 132.902 11.4629 140.479L5.74032 146.164C-5.532 157.363 0.725769 176.622 16.4275 179.056L24.3988 180.291C35.0223 181.938 42.274 191.919 40.5573 202.532L39.2693 210.495C36.732 226.18 53.115 238.083 67.2486 230.823L74.4238 227.137C83.9864 222.225 95.7199 226.038 100.569 235.632L104.207 242.832C111.374 257.013 131.625 257.013 138.792 242.832L142.43 235.632C147.279 226.038 159.013 222.225 168.575 227.137L175.751 230.823C189.884 238.083 206.267 226.18 203.73 210.495L202.442 202.532C200.725 191.919 207.977 181.938 218.6 180.291L226.572 179.056C242.273 176.622 248.531 157.362 237.259 146.164L231.536 140.479C223.91 132.902 223.91 120.565 231.536 112.988L237.259 107.303C248.531 96.105 242.273 76.8456 226.572 74.4116L218.6 73.176C207.977 71.5292 200.725 61.5481 202.442 50.9357L203.73 42.9727C206.267 27.2873 189.884 15.3844 175.75 22.6445L168.575 26.3302C159.013 31.2423 147.279 27.4298 142.43 17.8351L138.792 10.6358ZM121.812 215.172C170.482 215.172 209.938 175.717 209.938 127.046C209.938 78.3758 170.482 38.9206 121.812 38.9206C73.1417 38.9206 33.6865 78.3758 33.6865 127.046C33.6865 175.717 73.1417 215.172 121.812 215.172Z" fill="#2B66FF"/>
</svg>
