<svg width="278" height="278" viewBox="0 0 278 278" fill="none" xmlns="http://www.w3.org/2000/svg">
<path fill-rule="evenodd" clip-rule="evenodd" d="M194.154 194.154C163.693 224.615 114.307 224.615 83.8457 194.154C53.3848 163.693 53.3848 114.307 83.8457 83.8457C114.307 53.3848 163.693 53.3848 194.154 83.8457L170.82 107.18C153.246 89.6067 124.754 89.6067 107.18 107.18C89.6066 124.754 89.6066 153.246 107.18 170.82C124.754 188.393 153.246 188.393 170.82 170.82L194.154 194.154Z" fill="#2B66FF"/>
<path fill-rule="evenodd" clip-rule="evenodd" d="M139 278C215.768 278 278 215.768 278 139H257C257 73.8304 204.17 21 139 21V0C62.2324 0 0 62.2324 0 139H21C21 204.17 73.8304 257 139 257V278ZM139 241C195.333 241 241 195.333 241 139C241 82.667 195.333 37 139 37C82.667 37 37 82.667 37 139C37 195.333 82.667 241 139 241Z" fill="#2B66FF"/>
</svg>
