<svg width="116" height="129" viewBox="0 0 116 129" fill="none" xmlns="http://www.w3.org/2000/svg">
<path d="M62.4622 5.32469L106.093 30.5149C107.119 31.1073 108.013 31.8683 108.748 32.7513C110.204 34.501 111.037 36.7302 111.037 39.0779V64.2681V89.4584C111.037 91.2834 110.534 93.0368 109.626 94.549C108.776 95.9639 107.572 97.1676 106.093 98.0213L62.4622 123.212C60.9326 124.095 59.2255 124.536 57.5184 124.536C55.8113 124.536 54.1042 124.095 52.5746 123.212L8.94382 98.0213C7.46509 97.1676 6.26082 95.9639 5.41116 94.549C4.50302 93.0368 4 91.2834 4 89.4584V64.2681V39.0779C4 35.5454 5.88457 32.2812 8.94382 30.5149L52.5746 5.32469C54.1042 4.44156 55.8113 4 57.5184 4C59.2255 4 60.9326 4.44156 62.4622 5.32469Z" stroke="#2B66FF" stroke-width="8"/>
<path fill-rule="evenodd" clip-rule="evenodd" d="M32.3455 90.0777C46.9226 104.655 70.5569 104.655 85.134 90.0777L75.6321 80.5758C66.3027 89.9052 51.1768 89.9052 41.8474 80.5758C32.5181 71.2464 32.5181 56.1206 41.8474 46.7912C51.1768 37.4618 66.3027 37.4618 75.6321 46.7912L85.134 37.2893C70.5568 22.7121 46.9226 22.7121 32.3455 37.2893C17.7684 51.8664 17.7684 75.5006 32.3455 90.0777Z" fill="#D6E0E3"/>
<path d="M69.1523 66.3916H62.0527V73.2134H56.7892V66.3916H49.7305V61.4959H56.7892V54.6741H62.0527V61.4959H69.1523V66.3916Z" fill="#D6E0E3"/>
<path d="M94.2248 66.3916H87.1253V73.2134H81.8618V66.3916H74.803V61.4959H81.8618V54.6741H87.1253V61.4959H94.2248V66.3916Z" fill="#D6E0E3"/>
</svg>
