<svg width="116" height="130" viewBox="0 0 116 130" fill="none" xmlns="http://www.w3.org/2000/svg">
<path d="M9.17966 31.0879L11.1797 34.552L9.17966 31.0879ZM9.17966 98.5943L11.1797 95.1302L11.1797 95.1302L9.17966 98.5943ZM62.6981 123.785L60.6981 120.32L60.6981 120.32L62.6981 123.785ZM52.8104 123.785L50.8104 127.249L50.8104 127.249L52.8104 123.785ZM106.329 98.5943L108.329 102.058L108.329 102.058L106.329 98.5943ZM106.329 31.0879L104.329 34.552L104.329 34.552L106.329 31.0879ZM62.6981 5.89769L64.6981 2.43359L64.6981 2.43359L62.6981 5.89769ZM52.8104 5.89769L50.8104 2.43359L52.8104 5.89769ZM57.7543 4.573L57.7543 0.572998L57.7543 4.573ZM57.7543 125.109L57.7543 121.109L57.7543 125.109ZM109.862 95.122L113.291 97.1814L113.291 97.1814L109.862 95.122ZM5.647 95.122L2.21784 97.1814L2.21784 97.1814L5.647 95.122ZM108.984 33.3243L112.058 30.7653L112.058 30.7653L108.984 33.3243ZM60.6981 9.36179L104.329 34.552L108.329 27.6238L64.6981 2.43359L60.6981 9.36179ZM104.329 95.1302L60.6981 120.32L64.6981 127.249L108.329 102.058L104.329 95.1302ZM54.8104 120.32L11.1797 95.1302L7.17966 102.058L50.8104 127.249L54.8104 120.32ZM11.1797 34.552L54.8104 9.36179L50.8104 2.43359L7.17966 27.6238L11.1797 34.552ZM8.23584 39.6509C8.23584 37.5474 9.35802 35.6038 11.1797 34.552L7.17966 27.6238C2.88281 30.1046 0.23584 34.6893 0.23584 39.6509H8.23584ZM8.23584 90.0314V64.8411H0.23584V90.0314H8.23584ZM8.23584 64.8411V39.6509H0.23584V64.8411H8.23584ZM107.273 39.6509V64.8411H115.273V39.6509H107.273ZM107.273 64.8411V90.0314H115.273V64.8411H107.273ZM64.6981 2.43359C62.5498 1.19327 60.1512 0.572998 57.7543 0.572998L57.7543 8.573C58.7715 8.573 59.7871 8.83585 60.6981 9.36179L64.6981 2.43359ZM57.7543 0.572998C55.3574 0.572998 52.9587 1.19327 50.8104 2.43359L54.8104 9.36179C55.7214 8.83585 56.737 8.573 57.7543 8.573L57.7543 0.572998ZM60.6981 120.32C59.7871 120.846 58.7715 121.109 57.7543 121.109L57.7543 129.109C60.1512 129.109 62.5498 128.489 64.6981 127.249L60.6981 120.32ZM57.7543 121.109C56.737 121.109 55.7214 120.846 54.8104 120.32L50.8104 127.249C52.9587 128.489 55.3573 129.109 57.7543 129.109L57.7543 121.109ZM107.273 90.0314C107.273 91.1182 106.974 92.1614 106.432 93.0627L113.291 97.1814C114.566 95.0582 115.273 92.5946 115.273 90.0314H107.273ZM106.432 93.0627C105.926 93.9057 105.21 94.6217 104.329 95.1302L108.329 102.058C110.406 100.859 112.098 99.168 113.291 97.1814L106.432 93.0627ZM11.1797 95.1302C10.2989 94.6217 9.58242 93.9057 9.07616 93.0627L2.21784 97.1814C3.41089 99.168 5.10292 100.859 7.17966 102.058L11.1797 95.1302ZM9.07616 93.0627C8.53493 92.1614 8.23584 91.1182 8.23584 90.0314H0.23584C0.23584 92.5946 0.94279 95.0582 2.21784 97.1814L9.07616 93.0627ZM104.329 34.552C104.941 34.9052 105.472 35.3579 105.91 35.8833L112.058 30.7653C111.025 29.5246 109.769 28.4555 108.329 27.6238L104.329 34.552ZM105.91 35.8833C106.778 36.9263 107.273 38.2535 107.273 39.6509H115.273C115.273 36.3528 114.103 33.2217 112.058 30.7653L105.91 35.8833Z" fill="#8710FF"/>
<path fill-rule="evenodd" clip-rule="evenodd" d="M32.5813 90.6507C47.1585 105.228 70.7927 105.228 85.3698 90.6507L75.8679 81.1488C66.5385 90.4782 51.4126 90.4782 42.0833 81.1488C32.7539 71.8194 32.7539 56.6935 42.0833 47.3642C51.4126 38.0348 66.5385 38.0348 75.8679 47.3642L85.3698 37.8623C70.7927 23.2851 47.1585 23.2851 32.5813 37.8623C18.0042 52.4394 18.0042 76.0736 32.5813 90.6507Z" fill="#D6E0E3"/>
<path d="M67.7574 66.9809H72.4831V71.0225H67.2849L66.5578 76.9551H62.4501L63.1771 71.0225H57.8334L57.1064 76.9551H53.035L53.7621 71.0225H49V66.9809H54.2346L54.998 60.9742H50.236V56.9326H55.4706L56.1976 51H60.269L59.542 56.9326H64.8857L65.6127 51H69.6841L68.957 56.9326H73.6828L73.7191 60.9742H68.4845L67.7574 66.9809ZM63.6497 66.9809L64.4131 60.9742H59.0694L58.306 66.9809H63.6497Z" fill="#D6E0E3"/>
</svg>
