<svg width="177" height="171" viewBox="0 0 177 171" fill="none" xmlns="http://www.w3.org/2000/svg">
<path d="M106.355 24.4476C108.881 25.4193 111.335 26.5082 113.717 27.7141C125.978 33.7808 135.561 42.3165 142.467 53.3212C145.739 58.5355 148.236 64.209 149.958 70.3419C162.863 65.4187 172.029 52.9257 172.029 38.2917C172.029 19.3529 156.676 4 137.738 4C123.725 4 111.676 12.4045 106.355 24.4476Z" fill="#FF4D35"/>
<path d="M106.355 24.4476C108.881 25.4193 111.335 26.5082 113.717 27.7141C125.978 33.7808 135.561 42.3165 142.467 53.3212C145.739 58.5355 148.236 64.209 149.958 70.3419M106.355 24.4476C111.676 12.4045 123.725 4 137.738 4C156.676 4 172.029 19.3529 172.029 38.2917C172.029 52.9257 162.863 65.4187 149.958 70.3419M106.355 24.4476C95.8805 20.4175 84.1705 18.4025 71.2253 18.4025H4V166.542H71.2253C87.2917 166.542 101.456 163.509 113.717 157.442C125.978 151.235 135.561 142.628 142.467 131.624C149.373 120.478 152.826 107.428 152.826 92.4725C152.826 84.5292 151.87 77.1524 149.958 70.3419M38.2468 138.396H69.5341C79.3994 138.396 87.9259 136.562 95.1135 132.894C102.442 129.084 108.079 123.723 112.026 116.81C116.113 109.897 118.156 101.784 118.156 92.4725C118.156 83.0197 116.113 74.9073 112.026 68.1352C108.079 61.222 102.442 55.9313 95.1135 52.263C87.9259 48.4537 79.3994 46.5491 69.5341 46.5491H38.2468V138.396Z" stroke="#FF4D35" stroke-width="8" stroke-linejoin="round"/>
</svg>
