<svg width="160" height="160" viewBox="0 0 160 160" fill="none" xmlns="http://www.w3.org/2000/svg">
<circle cx="80" cy="80" r="76" stroke="#00E878" stroke-width="8"/>
<path fill-rule="evenodd" clip-rule="evenodd" d="M67.098 29H85.0833V111.013C61.4562 115.92 28.3058 118.373 29.0111 83.3248C29.5753 55.2862 54.6375 53.4169 67.098 55.9871V29ZM47.3496 83.3248C46.7853 99.3068 60.2801 100.265 67.098 98.746V70.3569C60.7503 68.0204 47.9138 67.3428 47.3496 83.3248Z" fill="#00E878"/>
<path d="M114 29H96.0148V46.5241H114V29Z" fill="#00E878"/>
<path d="M94.9568 138C105.395 136.878 114 124.5 114 111.013V55.9871H96.0148V107.508C96.0148 122 84.2597 127.486 78.7349 129.588L94.9568 138Z" fill="#00E878"/>
</svg>
