<svg width="278" height="194" viewBox="0 0 278 194" fill="none" xmlns="http://www.w3.org/2000/svg">
<path d="M41.7997 46.6403V42.6403C39.5906 42.6403 37.7997 44.4312 37.7997 46.6403H41.7997ZM66.7833 46.6403H70.7833C70.7833 44.4312 68.9924 42.6403 66.7833 42.6403V46.6403ZM66.7833 71.6364V75.6364C68.9924 75.6364 70.7833 73.8455 70.7833 71.6364H66.7833ZM41.7997 71.6364H37.7997C37.7997 73.8455 39.5906 75.6364 41.7997 75.6364V71.6364ZM66.7833 4V0C64.5741 0 62.7833 1.79086 62.7833 4L66.7833 4ZM91.7668 4H95.7668C95.7668 1.79086 93.976 0 91.7668 0V4ZM91.7668 28.9961V32.9961C93.976 32.9961 95.7668 31.2052 95.7668 28.9961H91.7668ZM66.7833 28.9961H62.7833C62.7833 31.2052 64.5741 32.9961 66.7833 32.9961V28.9961ZM122.629 4V0C120.42 0 118.629 1.79086 118.629 4L122.629 4ZM147.612 4H151.612C151.612 1.79086 149.822 0 147.612 0V4ZM147.612 28.9961V32.9961C149.822 32.9961 151.612 31.2052 151.612 28.9961H147.612ZM122.629 28.9961H118.629C118.629 31.2052 120.42 32.9961 122.629 32.9961V28.9961ZM150.552 46.6403V42.6403C148.343 42.6403 146.552 44.4312 146.552 46.6403H150.552ZM175.535 46.6403H179.535C179.535 44.4312 177.744 42.6403 175.535 42.6403V46.6403ZM175.535 71.6364V75.6364C177.744 75.6364 179.535 73.8455 179.535 71.6364H175.535ZM150.552 71.6364H146.552C146.552 73.8455 148.343 75.6364 150.552 75.6364V71.6364ZM96.1757 46.6403V42.6403C93.9666 42.6403 92.1757 44.4312 92.1757 46.6403H96.1757ZM121.159 46.6403H125.159C125.159 44.4312 123.368 42.6403 121.159 42.6403V46.6403ZM121.159 71.6364V75.6364C123.368 75.6364 125.159 73.8455 125.159 71.6364H121.159ZM96.1757 71.6364H92.1757C92.1757 73.8455 93.9666 75.6364 96.1757 75.6364V71.6364ZM211.541 83.3992L207.619 82.6151V82.6151L211.541 83.3992ZM215.215 33.407L217.02 29.8374C215.257 28.946 213.107 29.4751 211.96 31.0829L215.215 33.407ZM238.729 64.2845L234.732 64.4362C234.776 65.5887 235.315 66.6662 236.211 67.3922C237.107 68.1183 238.273 68.4223 239.409 68.2263L238.729 64.2845ZM274 70.9011L277.943 71.5767C278.198 70.0861 277.591 68.5789 276.374 67.6815L274 70.9011ZM232.851 98.1027L232.691 94.1059C230.806 94.1813 229.231 95.5626 228.909 97.4209L232.851 98.1027ZM5.05923 122.364L1.06335 122.545L5.05923 122.364ZM41.7997 50.6403H66.7833V42.6403H41.7997V50.6403ZM62.7833 46.6403V71.6364H70.7833V46.6403H62.7833ZM66.7833 67.6364H41.7997V75.6364H66.7833V67.6364ZM45.7997 71.6364V46.6403H37.7997V71.6364H45.7997ZM66.7833 8H91.7668V0H66.7833V8ZM87.7668 4V28.9961H95.7668V4H87.7668ZM91.7668 24.9961H66.7833V32.9961H91.7668V24.9961ZM70.7833 28.9961V4H62.7833V28.9961H70.7833ZM122.629 8H147.612V0H122.629V8ZM143.612 4V28.9961H151.612V4H143.612ZM147.612 24.9961H122.629V32.9961H147.612V24.9961ZM126.629 28.9961V4H118.629V28.9961H126.629ZM150.552 50.6403H175.535V42.6403H150.552V50.6403ZM171.535 46.6403V71.6364H179.535V46.6403H171.535ZM175.535 67.6364H150.552V75.6364H175.535V67.6364ZM154.552 71.6364V46.6403H146.552V71.6364H154.552ZM96.1757 50.6403H121.159V42.6403H96.1757V50.6403ZM117.159 46.6403V71.6364H125.159V46.6403H117.159ZM121.159 67.6364H96.1757V75.6364H121.159V67.6364ZM100.176 71.6364V46.6403H92.1757V71.6364H100.176ZM16.8162 93.2806H186.558V85.2806H16.8162V93.2806ZM186.558 93.2806C191.308 93.2806 197.697 92.5015 202.986 91.3513C205.625 90.7772 208.158 90.0753 210.147 89.2597C211.128 88.8575 212.144 88.3606 213.007 87.7354C213.735 87.2081 215.086 86.0726 215.463 84.1833L207.619 82.6151C207.849 81.461 208.585 81.0606 208.314 81.257C208.178 81.3555 207.812 81.5708 207.112 81.8578C205.739 82.4207 203.716 83.0053 201.285 83.534C196.433 84.5893 190.624 85.2806 186.558 85.2806V93.2806ZM215.463 84.1833C215.606 83.47 215.598 82.7429 215.58 82.2521C215.559 81.6895 215.504 81.0599 215.436 80.4099C215.3 79.1163 215.077 77.476 214.841 75.6847C214.36 72.0408 213.781 67.4853 213.514 62.5965C212.967 52.5487 213.828 42.2343 218.471 35.7312L211.96 31.0829C205.58 40.0186 204.972 52.8624 205.526 63.032C205.811 68.2518 206.426 73.0698 206.91 76.7317C207.155 78.5934 207.358 80.089 207.48 81.2479C207.541 81.8242 207.574 82.25 207.585 82.551C207.599 82.924 207.568 82.8689 207.619 82.6151L215.463 84.1833ZM215.215 33.407C213.41 36.9767 213.409 36.9761 213.408 36.9756C213.408 36.9755 213.407 36.9751 213.407 36.9749C213.406 36.9744 213.405 36.9742 213.405 36.9741C213.405 36.9739 213.406 36.9744 213.408 36.9756C213.413 36.9779 213.423 36.9831 213.438 36.9909C213.468 37.0066 213.519 37.0331 213.589 37.0705C213.729 37.1451 213.945 37.2627 214.228 37.4223C214.793 37.7417 215.619 38.2276 216.621 38.8724C218.631 40.1667 221.31 42.0764 223.995 44.5358C229.462 49.5425 234.424 56.3259 234.732 64.4362L242.726 64.1328C242.299 52.8834 235.504 44.2281 229.398 38.636C226.297 35.796 223.235 33.6162 220.951 32.1459C219.806 31.4084 218.846 30.8433 218.163 30.4572C217.821 30.2641 217.548 30.1153 217.354 30.0118C217.257 29.96 217.179 29.9195 217.123 29.8904C217.095 29.8759 217.073 29.8642 217.055 29.8554C217.047 29.8509 217.039 29.8472 217.033 29.8442C217.031 29.8427 217.028 29.8414 217.026 29.8403C217.025 29.8397 217.023 29.839 217.023 29.8387C217.021 29.838 217.02 29.8374 215.215 33.407ZM239.409 68.2263C242.595 67.6767 248.232 67.287 254.367 68.0175C260.527 68.7512 266.809 70.5692 271.626 74.1208L276.374 67.6815C270.022 62.9991 262.22 60.8961 255.313 60.0737C248.38 59.2481 241.966 59.6671 238.049 60.3427L239.409 68.2263ZM270.057 70.2256C268.913 76.9034 260.235 93.0036 232.691 94.1059L233.011 102.1C264.251 100.849 276.147 82.0531 277.943 71.5767L270.057 70.2256ZM228.909 97.4209C225.821 115.271 211.682 137.45 189.131 155.247C166.687 172.961 136.312 186 101.319 186V194C138.338 194 170.422 180.205 194.087 161.527C217.646 142.934 233.267 119.163 236.792 98.7846L228.909 97.4209ZM101.319 186C56.0891 186 33.5322 173.361 22.0582 159.677C10.4793 145.867 9.41634 130.133 9.05511 122.182L1.06335 122.545C1.43693 130.768 2.54164 148.852 15.928 164.817C29.4192 180.907 54.625 194 101.319 194V186ZM9.05511 122.182C8.87105 118.131 8.43815 113.733 8.20107 110.11C7.95087 106.287 7.88831 103.016 8.2819 100.339C8.67415 97.6699 9.45356 96.0616 10.4881 95.0875C11.4711 94.1618 13.2491 93.2806 16.8162 93.2806V85.2806C11.933 85.2806 7.92439 86.513 5.0037 89.2632C2.13453 91.965 0.893206 95.5948 0.366941 99.1752C-0.157982 102.746 -0.0368462 106.736 0.218144 110.632C0.486238 114.729 0.880007 118.51 1.06335 122.545L9.05511 122.182Z" fill="#2EB4FF"/>
</svg>
