<svg width="187" height="191" viewBox="0 0 187 191" fill="none" xmlns="http://www.w3.org/2000/svg">
<path d="M100 27H183V61.25V78.375V95.5V112.625V129.75V164H100M100 129.75H161M100 95.5H161M100 61.25H161M100 78.375H161M100 112.625H161" stroke="#D6E0E3" stroke-width="8" stroke-linecap="round" stroke-linejoin="round"/>
<path d="M100 154.63V36.3703V4L4 36.3703V154.63L100 187V154.63Z" stroke="#2B66FF" stroke-width="8" stroke-linejoin="round"/>
<path fill-rule="evenodd" clip-rule="evenodd" d="M33.5256 129H28.9895L15 67H26.5732L35.6285 111.83L46.6249 67H49.8467L49.338 77.5179L51.5222 86.1021L40.5627 129H36.6626H33.5256ZM53.2805 67L53.7044 77.5604L51.5222 86.1021L62.4373 129H66.3374H69.4744H74.0105L88 67H76.3844L67.4323 111.884L56.4599 67H53.2805Z" fill="#D6E0E3"/>
<path d="M53.2805 67H49.8467L49.338 77.5179L51.5222 86.1021L53.7044 77.5604L53.2805 67Z" fill="#D6E0E3"/>
</svg>
