<svg width="223" height="223" viewBox="0 0 223 223" fill="none" xmlns="http://www.w3.org/2000/svg">
<rect x="4" y="4" width="215" height="215" stroke="#AFED00" stroke-width="8" stroke-linejoin="round"/>
<path d="M55.7944 160H33.8696L34.0093 144.918H55.7944C61.7062 144.918 66.6637 143.615 70.667 141.008C74.6702 138.354 77.696 134.561 79.7441 129.626C81.7923 124.646 82.8164 118.687 82.8164 111.751V106.515C82.8164 101.161 82.2345 96.4367 81.0708 92.3403C79.9071 88.244 78.1847 84.7993 75.9038 82.0063C73.6694 79.2134 70.8997 77.0954 67.5947 75.6523C64.2897 74.2093 60.4959 73.4878 56.2134 73.4878H33.4507V58.3359H56.2134C63.0096 58.3359 69.2007 59.4764 74.7866 61.7573C80.4191 64.0382 85.2835 67.32 89.3799 71.6025C93.5228 75.8385 96.6881 80.9124 98.876 86.8242C101.11 92.736 102.228 99.346 102.228 106.654V111.751C102.228 119.013 101.11 125.623 98.876 131.582C96.6881 137.493 93.5228 142.567 89.3799 146.803C85.2835 151.039 80.3958 154.298 74.7168 156.579C69.0378 158.86 62.7303 160 55.7944 160ZM44.6226 58.3359V160H25.4209V58.3359H44.6226Z" fill="#AFED00"/>
<path d="M131.037 141.846L147.585 84.4502H159.316L155.825 104.28L139.137 160H129.012L131.037 141.846ZM121.89 84.4502L134.319 141.985L135.436 160H123.775L103.945 84.4502H121.89ZM174.677 141.147L186.827 84.4502H204.702L185.011 160H173.35L174.677 141.147ZM161.131 84.4502L177.54 141.287L179.704 160H169.58L152.752 104.28L149.331 84.4502H161.131Z" fill="#AFED00"/>
</svg>
