<svg width="218" height="190" viewBox="0 0 218 190" fill="none" xmlns="http://www.w3.org/2000/svg">
<path d="M147.201 139.565C147.201 142.724 146.822 145.794 146.108 148.731M147.201 139.565C147.201 135.741 146.646 132.047 145.612 128.561M147.201 139.565C147.201 142.799 146.823 145.862 146.143 148.734M146.108 148.731C144.797 154.12 142.357 159.064 139.054 163.293M146.108 148.731C140.046 148.261 134.461 148.072 130.069 148.072M146.108 148.731C146.119 148.732 146.131 148.733 146.143 148.734M139.054 163.293C136.503 166.559 133.438 169.399 129.981 171.689M139.054 163.293C134.529 161.607 129.939 160.165 126.527 159.208M139.054 163.293C139.091 163.307 139.127 163.321 139.164 163.334M129.981 171.689C123.96 175.678 116.749 178 109 178M129.981 171.689C119.847 177.96 109 176.505 109 164.08C109 176.505 98.1527 177.96 88.0186 171.689M129.981 171.689C133.245 169.669 136.434 166.848 139.164 163.334M109 178C101.251 178 94.0404 175.678 88.0186 171.689M109 178C99.2019 178 87.5818 175.016 77.5517 163.855M109 178C118.805 178 130.436 175.011 140.471 163.83M88.0186 171.689C84.5707 169.405 81.5125 166.574 78.9658 163.318M88.0186 171.689C84.7629 169.674 81.5809 166.862 78.8558 163.36M78.9658 163.318C75.6541 159.085 73.2074 154.135 71.8939 148.737M78.9658 163.318C83.5125 161.621 88.1311 160.17 91.5602 159.208M78.9658 163.318C78.9291 163.332 78.8924 163.346 78.8558 163.36M71.8939 148.737C71.1786 145.798 70.7993 142.726 70.7993 139.565M71.8939 148.737C77.9891 148.263 83.6062 148.072 88.0186 148.072M71.8939 148.737C71.8822 148.738 71.8704 148.739 71.8587 148.74M70.7993 139.565C70.7993 135.741 71.3545 132.047 72.3882 128.561M70.7993 139.565C70.7993 142.801 71.1776 145.866 71.8587 148.74M77.5517 163.855C74.0757 159.988 70.7906 155.138 67.8385 149.09M77.5517 163.855C77.9849 163.688 78.4199 163.523 78.8558 163.36M77.5517 163.855C69.6068 166.925 62.2896 170.675 62.4594 173.777M67.8385 149.09C69.196 148.96 70.5385 148.843 71.8587 148.74M67.8385 149.09C49.7939 150.826 29.1024 155.083 23.0844 164.08M67.8385 149.09C61.4658 136.035 56.6448 117.396 54.8043 91M140.471 163.83C143.94 159.965 147.219 155.121 150.165 149.082M140.471 163.83C140.037 163.663 139.601 163.497 139.164 163.334M140.471 163.83C148.441 166.904 155.798 170.667 155.628 173.777M150.165 149.082C148.807 148.952 147.464 148.836 146.143 148.734M150.165 149.082C168.23 150.813 188.976 155.069 195.003 164.08M150.165 149.082C156.536 136.027 161.356 117.39 163.196 91M78.8558 163.36C75.7288 159.341 73.2034 154.414 71.8587 148.74M139.164 163.334C142.283 159.319 144.801 154.398 146.143 148.734M56.8957 68.284C59.8831 58.6512 65.4366 50.1578 72.7512 43.6138M56.8957 68.284C51.5778 71.652 45.2844 73.6 38.5395 73.6C19.4639 73.6 4 58.0195 4 38.8C4 19.5805 19.4639 4 38.5395 4C57.6151 4 73.0789 19.5805 73.0789 38.8C73.0789 40.4333 72.9673 42.0404 72.7512 43.6138M56.8957 68.284C55.2918 73.4556 54.4276 78.9556 54.4276 84.6587C54.5345 86.8207 54.6603 88.9341 54.8043 91M72.7512 43.6138C82.39 34.9904 95.087 29.752 109 29.752C122.913 29.752 135.61 34.9904 145.249 43.6138M145.249 43.6138C152.563 50.1578 158.117 58.6512 161.104 68.284M145.249 43.6138C145.033 42.0404 144.921 40.4333 144.921 38.8C144.921 19.5805 160.385 4 179.461 4C198.536 4 214 19.5805 214 38.8C214 58.0195 198.536 73.6 179.461 73.6C172.716 73.6 166.422 71.652 161.104 68.284M161.104 68.284C162.708 73.4556 163.572 78.9556 163.572 84.6587C163.466 86.8207 163.34 88.9341 163.196 91M109 91C109 103.3 99.1031 113.272 86.8947 113.272C74.6863 113.272 64.7895 103.3 64.7895 91M109 91C109 78.6995 99.1031 68.728 86.8947 68.728C74.6863 68.728 64.7895 78.6995 64.7895 91M109 91C109 103.3 118.897 113.272 131.105 113.272C143.314 113.272 153.211 103.3 153.211 91M109 91C109 78.6995 118.897 68.728 131.105 68.728C143.314 68.728 153.211 78.6995 153.211 91M64.7895 91H54.8043M153.211 91H163.196M116.79 130.672H100.519C97.8508 130.672 96.1903 133.591 97.5389 135.911L105.674 149.905C107.008 152.2 110.301 152.2 111.635 149.905L119.77 135.911C121.119 133.591 119.458 130.672 116.79 130.672Z" stroke="#D6E0E3" stroke-width="8" stroke-linecap="round" stroke-linejoin="round"/>
</svg>
