<svg width="134" height="160" viewBox="0 0 134 160" fill="none" xmlns="http://www.w3.org/2000/svg">
<path d="M129 4.00001L67 4L5 4.00001L18.3178 138.542L67 155L115.682 138.542L129 4.00001Z" stroke="#FFD600" stroke-width="8"/>
<path d="M46.1923 136.97L56.5961 140.485L61.7981 142.243L61 79L19.6923 72.47L20.4038 79.6538L21.1154 86.8375L32.525 87.7163L43.9347 88.595L44.6872 104.72L45.4397 120.845L34.7006 118.209L33.6128 102.963L22.5384 101.205L23.9615 115.573L24.6731 122.756L25.3846 129.94L35.7884 133.455L46.1923 136.97Z" fill="#FFD600"/>
<path d="M120 15L67 15L40.5 15L14 15L15.2249 27.3665L15.8373 33.5498L16.4498 39.7331L17.0622 45.9164L17.6746 52.0996L18.8995 64.4662L42.9498 67.7168L67 70.9673L115.1 64.4662L116.325 52.0996L67 58.6008L42.3753 55.3552L41.9367 48.1894H77.4039V35.8228H41.362L41.0747 27.3665H92.5813V33.5498H118.163L118.775 27.3665L120 15Z" fill="#FFD600"/>
<path d="M110.038 115.573L110.75 108.389L111.462 101.205L112.173 94.0213L100.88 95.3394L95.2332 95.9985L89.5865 96.6575L83.9399 97.3166L84.2067 89.0344L89.9423 88.595L95.6779 88.1557L101.413 87.7163L112.885 86.8375L113.596 79.6538L114.308 72.47L72.8679 79L72.8245 81.1916L72.7356 89.9131L72.6466 98.6347L72.5577 107.356L72.4688 116.078L83.4062 113.881L88.875 112.783L94.3438 111.684L99.8125 110.586L99.2789 118.209L93.8991 119.527L88.5192 120.845L83.1394 122.163L72.3798 124.799L72.2909 133.521L72.2019 142.243L77.4039 140.485L82.6058 138.728L87.8077 136.97L93.0096 135.213L98.2116 133.455L103.413 131.698L108.615 129.94L109.327 122.756L110.038 115.573Z" fill="#FFD600"/>
</svg>
