<svg width="163" height="162" viewBox="0 0 163 162" fill="none" xmlns="http://www.w3.org/2000/svg">
<path d="M159 158H4M159 158V81M159 158L120.25 119.5M4 158V4M4 158L81.5 81M4 4H81.5M4 4L42.75 42.5M81.5 4H159V81M81.5 4L120.25 42.5M159 81L120.25 42.5M159 81L120.25 119.5M120.25 42.5H42.75M120.25 42.5L81.5 81M42.75 42.5L81.5 81M81.5 81L120.25 119.5" stroke="#2EB4FF" stroke-width="8" stroke-linejoin="round"/>
<path d="M4 4V158L81.5 81L42.75 42.5L4 4Z" stroke="#524E5A" stroke-width="8" stroke-linejoin="round"/>
<path d="M120.25 42.5L81.5 4H4L42.75 42.5L81.5 81M120.25 42.5L159 81V158L120.25 119.5L81.5 81M120.25 42.5L81.5 81" stroke="#AFED00" stroke-width="8" stroke-linejoin="round"/>
<path d="M159 158V81L120.25 119.5L159 158Z" stroke="#FFA800" stroke-width="8" stroke-linejoin="round"/>
<path d="M120.25 42.5H42.75L81.5 81L120.25 42.5Z" stroke="#FFA800" stroke-width="8" stroke-linejoin="round"/>
</svg>
