<svg width="100" height="174" viewBox="0 0 174 174" fill="none" xmlns="http://www.w3.org/2000/svg">
<path d="M54.9764 170H4V119.024L43.0196 80.004C42.2882 76.1304 41.9055 72.1335 41.9055 68.0472C41.9055 32.6749 70.5804 4 105.953 4C110.039 4 114.036 4.38267 117.909 5.11413L81 42.0985V80.004V93.0748H94.0709H131.976L168.886 56.0905C169.617 59.9641 170 63.961 170 68.0472C170 103.42 141.325 132.094 105.953 132.094C101.867 132.094 97.8696 131.712 93.996 130.98L54.9764 170Z" stroke="#FFD600" stroke-width="8" stroke-linejoin="round"/>
<path d="M10.5 169.5H16.5681C18.1277 169.5 19.6261 168.893 20.7456 167.807L67.1775 122.768C68.3425 121.638 69 120.084 69 118.461V112.5C69 109.186 66.3137 106.5 63 106.5H56.9319C55.3723 106.5 53.8739 107.107 52.7544 108.193L6.32245 153.232C5.15749 154.362 4.5 155.916 4.5 157.539V163.5C4.5 166.814 7.18629 169.5 10.5 169.5Z" stroke="#FFD600" stroke-width="8" stroke-linejoin="round"/>
</svg>
