<svg width="195" height="140" viewBox="0 0 195 140" fill="none" xmlns="http://www.w3.org/2000/svg">
<path d="M156.798 4C163.872 11.1926 169.32 19.9366 173.14 30.2319C176.961 40.5272 178.871 52.127 178.871 65.0314V78.5705H72.7506V81.109C72.7506 86.3272 73.8472 90.9812 76.0403 95.0711C78.2335 99.1611 81.3817 102.37 85.485 104.697C89.5883 107.024 94.5406 108.187 100.342 108.187C104.374 108.187 108.053 107.623 111.378 106.495C114.774 105.366 117.675 103.745 120.08 101.629C122.486 99.4431 124.254 96.834 125.386 93.8019H178.871C177.031 105.084 172.68 114.886 165.818 123.207C161.73 128.122 156.851 132.386 151.181 136M156.798 4H38.2023M156.798 4H191M38.2023 4C33.1021 9.05109 28.7712 14.8689 25.2088 21.4527C18.4171 34.0045 15.0213 48.6718 15.0213 65.4545C15.0213 82.9424 18.3817 97.9623 25.1027 110.514C30.8533 121.082 38.6581 129.577 48.517 136M38.2023 4H4M151.181 136H48.517M151.181 136H191M48.517 136H4M124.962 46.4153C124.891 41.7612 123.688 37.6713 121.354 34.1455C119.09 30.5492 116.012 27.7638 112.121 25.7894C108.301 23.7444 103.95 22.7219 99.0684 22.7219C94.3284 22.7219 89.9774 23.7444 86.0156 25.7894C82.0538 27.7638 78.8702 30.5139 76.4648 34.0397C74.1302 37.5655 72.8921 41.6907 72.7506 46.4153H124.962Z" stroke="#FF4D35" stroke-width="8" stroke-linecap="round" stroke-linejoin="round"/>
</svg>
