<svg width="261" height="208" viewBox="0 0 261 208" fill="none" xmlns="http://www.w3.org/2000/svg">
<path d="M73.6515 22.1816C76.5094 17.2353 81.7877 14.1879 87.5002 14.1861L173.368 14.1586C179.087 14.1567 184.371 17.2066 187.23 22.1586L230.13 96.4636C232.989 101.416 232.988 107.517 230.127 112.468L187.17 186.818C184.312 191.765 179.033 194.812 173.321 194.814L87.4526 194.841C81.7345 194.843 76.4501 191.793 73.5911 186.841L30.691 112.536C27.832 107.584 27.833 101.483 30.6936 96.5319L73.6515 22.1816Z" stroke="#2B66FF" stroke-width="8"/>
<path d="M125.413 29.1071C128.506 27.3229 132.315 27.3229 135.408 29.1071L193.247 62.4761C196.343 64.262 198.25 67.5642 198.25 71.138V137.863C198.25 141.437 196.343 144.739 193.247 146.525L135.408 179.894C132.315 181.678 128.506 181.678 125.413 179.894L67.5736 146.525C64.478 144.739 62.5708 141.437 62.5708 137.863L62.5708 71.138C62.5708 67.5642 64.478 64.262 67.5736 62.4761L125.413 29.1071Z" stroke="#2EB4FF" stroke-width="8"/>
<path d="M125.39 57.36C128.494 55.5571 132.327 55.5571 135.432 57.36L168.535 76.5812C171.617 78.3707 173.514 81.6653 173.514 85.2291V123.77C173.514 127.334 171.617 130.629 168.535 132.418L135.432 151.64C132.327 153.442 128.494 153.442 125.39 151.64L92.2863 132.418C89.2043 130.629 87.3076 127.334 87.3076 123.77V85.2291C87.3076 81.6653 89.2043 78.3707 92.2863 76.5812L125.39 57.36Z" stroke="#D6E0E3" stroke-width="8"/>
</svg>
