<svg width="112" height="112" viewBox="0 0 112 163" fill="none" xmlns="http://www.w3.org/2000/svg">
<path d="M29.8333 159C44.1007 159 55.6667 147.434 55.6667 133.167V107.333H29.8333C15.566 107.333 4 118.899 4 133.167C4 147.434 15.566 159 29.8333 159Z" stroke="#00F3C8" stroke-width="8"/>
<path d="M4 81.4998C4 95.7672 15.566 107.333 29.8333 107.333H55.6667V81.4998V55.6665H29.8333C15.566 55.6665 4 67.2325 4 81.4998Z" stroke="#B339EC" stroke-width="8"/>
<path d="M55.6667 4H29.8333C15.566 4 4 15.566 4 29.8333C4 44.1007 15.566 55.6667 29.8333 55.6667H55.6667M55.6667 4H81.5C95.7674 4 107.333 15.566 107.333 29.8333C107.333 44.1007 95.7674 55.6667 81.5 55.6667H55.6667M55.6667 4V55.6667" stroke="#FF4D35" stroke-width="8"/>
<circle cx="81.5" cy="81.4998" r="25.8333" stroke="#2EB4FF" stroke-width="8"/>
</svg>
