<svg width="100" height="100" viewBox="0 0 114 147" fill="none" xmlns="http://www.w3.org/2000/svg">
<path d="M57 4L59.8048 1.14813C59.0566 0.41234 58.0493 0 57 0V4ZM110 56.125H114C114 55.0526 113.569 54.0251 112.805 53.2731L110 56.125ZM22.8444 94.0294C20.6353 94.0294 18.8444 95.8203 18.8444 98.0294C18.8444 100.239 20.6353 102.029 22.8444 102.029V94.0294ZM91.1556 102.029C93.3647 102.029 95.1556 100.239 95.1556 98.0294C95.1556 95.8203 93.3647 94.0294 91.1556 94.0294V102.029ZM22.8444 72.4202C20.6353 72.4202 18.8444 74.211 18.8444 76.4202C18.8444 78.6293 20.6353 80.4202 22.8444 80.4202V72.4202ZM91.1556 80.4202C93.3647 80.4202 95.1556 78.6293 95.1556 76.4202C95.1556 74.211 93.3647 72.4202 91.1556 72.4202V80.4202ZM22.8444 115.055C20.6353 115.055 18.8444 116.845 18.8444 119.055C18.8444 121.264 20.6353 123.055 22.8444 123.055V115.055ZM91.1556 123.055C93.3647 123.055 95.1556 121.264 95.1556 119.055C95.1556 116.845 93.3647 115.055 91.1556 115.055V123.055ZM91.1556 139H22.8444V147H91.1556V139ZM8 124.311V22.6891H0V124.311H8ZM22.8444 8H57V0H22.8444V8ZM112.805 53.2731L59.8048 1.14813L54.1952 6.85187L107.195 58.9769L112.805 53.2731ZM22.8444 139C14.6148 139 8 132.392 8 124.311H0C0 136.873 10.2591 147 22.8444 147V139ZM91.1556 147C103.741 147 114 136.873 114 124.311H106C106 132.392 99.3852 139 91.1556 139V147ZM75.8444 52.125C67.6148 52.125 61 45.5173 61 37.4359H53C53 49.9979 63.2591 60.125 75.8444 60.125V52.125ZM8 22.6891C8 14.6077 14.6148 8 22.8444 8V0C10.2591 0 0 10.1271 0 22.6891H8ZM106 56.125V124.311H114V56.125H106ZM61 37.4359V4H53V37.4359H61ZM75.8444 60.125H110V52.125H75.8444V60.125ZM22.8444 102.029H91.1556V94.0294H22.8444V102.029ZM22.8444 80.4202H91.1556V72.4202H22.8444V80.4202ZM22.8444 123.055H91.1556V115.055H22.8444V123.055Z" fill="#D6E0E3"/>
</svg>
