<svg width="100" height="100" viewBox="0 0 114 147" fill="none" xmlns="http://www.w3.org/2000/svg">
<path d="M57 4L59.8048 1.14813C59.0566 0.41234 58.0493 0 57 0V4ZM110 56.125H114C114 55.0526 113.569 54.0251 112.805 53.2731L110 56.125ZM78 89C80.2091 89 82 87.2091 82 85C82 82.7909 80.2091 81 78 81V89ZM54.5 67V63C52.2909 63 50.5 64.7909 50.5 67H54.5ZM91.1556 139H22.8444V147H91.1556V139ZM8 124.311V22.6891H0V124.311H8ZM22.8444 8H57V0H22.8444V8ZM112.805 53.2731L59.8048 1.14813L54.1952 6.85187L107.195 58.9769L112.805 53.2731ZM22.8444 139C14.6148 139 8 132.392 8 124.311H0C0 136.873 10.2591 147 22.8444 147V139ZM91.1556 147C103.741 147 114 136.873 114 124.311H106C106 132.392 99.3852 139 91.1556 139V147ZM75.8444 52.125C67.6148 52.125 61 45.5173 61 37.4359H53C53 49.9979 63.2591 60.125 75.8444 60.125V52.125ZM8 22.6891C8 14.6077 14.6148 8 22.8444 8V0C10.2591 0 0 10.1271 0 22.6891H8ZM106 56.125V124.311H114V56.125H106ZM61 37.4359V4H53V37.4359H61ZM75.8444 60.125H110V52.125H75.8444V60.125ZM78 81C75.6765 81 74.4293 80.289 73.4667 79.3396C72.2805 78.1697 71.3969 76.5302 70.121 74.1253C68.9726 71.9609 67.4643 69.0969 65.0653 66.8768C62.472 64.4767 59.0648 63 54.5 63V71C57.1352 71 58.578 71.7733 59.6316 72.7482C60.8795 73.9031 61.8149 75.5391 63.054 77.8747C64.1656 79.9698 65.6133 82.8303 67.849 85.0354C70.3082 87.461 73.5735 89 78 89V81ZM54.5 67C50.5 67 50.5 67.0002 50.5 67.0005C50.5 67.0008 50.5 67.0013 50.5 67.0019C50.5 67.0026 50.5 67.0034 50.5 67.0044C50.5 67.0053 50.5 67.0065 50.5 67.0077C50.5 67.009 50.5 67.0105 50.5 67.0121C50.5 67.0137 50.5 67.0155 50.5 67.0174C50.5 67.0193 50.5 67.0214 50.5 67.0236C50.5 67.0259 50.5 67.0283 50.5 67.0308C50.5 67.0334 50.5 67.0361 50.5 67.039C50.5 67.0419 50.5 67.0449 50.5 67.0481C50.5 67.0513 50.5 67.0546 50.5 67.0581C50.5 67.0616 50.5 67.0653 50.5 67.0691C50.5 67.0729 50.5 67.0769 50.5 67.081C50.5 67.0851 50.5 67.0894 50.5 67.0938C50.5 67.0982 50.5 67.1028 50.5 67.1076C50.5 67.1123 50.5 67.1172 50.5 67.1223C50.5 67.1273 50.5 67.1325 50.5 67.1379C50.5 67.1432 50.5 67.1487 50.5 67.1544C50.5 67.16 50.5 67.1658 50.5 67.1718C50.5 67.1778 50.5 67.1839 50.5 67.1901C50.5 67.1964 50.5 67.2028 50.5 67.2094C50.5 67.216 50.5 67.2227 50.5 67.2295C50.5 67.2364 50.5 67.2434 50.5 67.2506C50.5 67.2578 50.5 67.2651 50.5 67.2725C50.5 67.28 50.5 67.2876 50.5 67.2954C50.5 67.3031 50.5 67.311 50.5 67.3191C50.5 67.3272 50.5 67.3354 50.5 67.3437C50.5 67.3521 50.5 67.3606 50.5 67.3692C50.5 67.3779 50.5 67.3867 50.5 67.3956C50.5 67.4045 50.5 67.4136 50.5 67.4229C50.5 67.4321 50.5 67.4415 50.5 67.451C50.5 67.4605 50.5 67.4702 50.5 67.48C50.5 67.4898 50.5 67.4997 50.5 67.5098C50.5 67.5199 50.5 67.5302 50.5 67.5406C50.5 67.551 50.5 67.5615 50.5 67.5722C50.5 67.5828 50.5 67.5937 50.5 67.6046C50.5 67.6156 50.5 67.6267 50.5 67.6379C50.5 67.6492 50.5 67.6605 50.5 67.6721C50.5 67.6836 50.5 67.6953 50.5 67.7071C50.5 67.7189 50.5 67.7308 50.5 67.7429C50.5 67.755 50.5 67.7672 50.5 67.7796C50.5 67.792 50.5 67.8045 50.5 67.8171C50.5 67.8298 50.5 67.8425 50.5 67.8555C50.5 67.8684 50.5 67.8815 50.5 67.8947C50.5 67.9079 50.5 67.9212 50.5 67.9347C50.5 67.9481 50.5 67.9618 50.5 67.9755C50.5 67.9893 50.5 68.0031 50.5 68.0172C50.5 68.0312 50.5 68.0453 50.5 68.0596C50.5 68.0739 50.5 68.0884 50.5 68.1029C50.5 68.1175 50.5 68.1322 50.5 68.147C50.5 68.1618 50.5 68.1768 50.5 68.1919C50.5 68.207 50.5 68.2223 50.5 68.2376C50.5 68.253 50.5 68.2685 50.5 68.2841C50.5 68.2998 50.5 68.3155 50.5 68.3315C50.5 68.3474 50.5 68.3634 50.5 68.3796C50.5 68.3957 50.5 68.412 50.5 68.4284C50.5 68.4449 50.5 68.4614 50.5 68.4781C50.5 68.4948 50.5 68.5116 50.5 68.5286C50.5 68.5455 50.5 68.5626 50.5 68.5798C50.5 68.597 50.5 68.6144 50.5 68.6319C50.5 68.6493 50.5 68.6669 50.5 68.6847C50.5 68.7024 50.5 68.7202 50.5 68.7382C50.5 68.7562 50.5 68.7743 50.5 68.7926C50.5 68.8108 50.5 68.8292 50.5 68.8477C50.5 68.8661 50.5 68.8848 50.5 68.9035C50.5 68.9223 50.5 68.9411 50.5 68.9601C50.5 68.9791 50.5 68.9983 50.5 69.0175C50.5 69.0368 50.5 69.0561 50.5 69.0756C50.5 69.0951 50.5 69.1148 50.5 69.1345C50.5 69.1543 50.5 69.1741 50.5 69.1941C50.5 69.2141 50.5 69.2342 50.5 69.2545C50.5 69.2747 50.5 69.2951 50.5 69.3156C50.5 69.3361 50.5 69.3567 50.5 69.3774C50.5 69.3981 50.5 69.419 50.5 69.44C50.5 69.4609 50.5 69.482 50.5 69.5033C50.5 69.5245 50.5 69.5458 50.5 69.5673C50.5 69.5887 50.5 69.6103 50.5 69.632C50.5 69.6537 50.5 69.6755 50.5 69.6975C50.5 69.7194 50.5 69.7414 50.5 69.7636C50.5 69.7858 50.5 69.8081 50.5 69.8305C50.5 69.8529 50.5 69.8754 50.5 69.8981C50.5 69.9207 50.5 69.9435 50.5 69.9664C50.5 69.9893 50.5 70.0123 50.5 70.0354C50.5 70.0585 50.5 70.0817 50.5 70.1051C50.5 70.1284 50.5 70.1519 50.5 70.1755C50.5 70.199 50.5 70.2227 50.5 70.2465C50.5 70.2703 50.5 70.2943 50.5 70.3183C50.5 70.3423 50.5 70.3665 50.5 70.3908C50.5 70.415 50.5 70.4394 50.5 70.4639C50.5 70.4884 50.5 70.513 50.5 70.5377C50.5 70.5624 50.5 70.5872 50.5 70.6122C50.5 70.6371 50.5 70.6622 50.5 70.6873C50.5 70.7125 50.5 70.7378 50.5 70.7632C50.5 70.7886 50.5 70.8141 50.5 70.8397C50.5 70.8653 50.5 70.891 50.5 70.9168C50.5 70.9426 50.5 70.9686 50.5 70.9946C50.5 71.0207 50.5 71.0468 50.5 71.0731C50.5 71.0994 50.5 71.1257 50.5 71.1522C50.5 71.1787 50.5 71.2053 50.5 71.232C50.5 71.2587 50.5 71.2855 50.5 71.3124C50.5 71.3393 50.5 71.3663 50.5 71.3934C50.5 71.4206 50.5 71.4478 50.5 71.4751C50.5 71.5025 50.5 71.5299 50.5 71.5575C50.5 71.585 50.5 71.6127 50.5 71.6404C50.5 71.6682 50.5 71.6961 50.5 71.724C50.5 71.752 50.5 71.7801 50.5 71.8082C50.5 71.8364 50.5 71.8647 50.5 71.8931C50.5 71.9215 50.5 71.9499 50.5 71.9785C50.5 72.0071 50.5 72.0358 50.5 72.0646C50.5 72.0934 50.5 72.1223 50.5 72.1513C50.5 72.1803 50.5 72.2094 50.5 72.2386C50.5 72.2678 50.5 72.2971 50.5 72.3265C50.5 72.3559 50.5 72.3854 50.5 72.415C50.5 72.4446 50.5 72.4743 50.5 72.5041C50.5 72.5339 50.5 72.5638 50.5 72.5938C50.5 72.6238 50.5 72.6539 50.5 72.6841C50.5 72.7142 50.5 72.7445 50.5 72.7749C50.5 72.8053 50.5 72.8358 50.5 72.8664C50.5 72.897 50.5 72.9277 50.5 72.9584C50.5 72.9892 50.5 73.0201 50.5 73.0511C50.5 73.082 50.5 73.1131 50.5 73.1443C50.5 73.1754 50.5 73.2067 50.5 73.238C50.5 73.2694 50.5 73.3008 50.5 73.3324C50.5 73.3639 50.5 73.3956 50.5 73.4273C50.5 73.459 50.5 73.4908 50.5 73.5228C50.5 73.5547 50.5 73.5867 50.5 73.6188C50.5 73.6509 50.5 73.6831 50.5 73.7154C50.5 73.7477 50.5 73.78 50.5 73.8125C50.5 73.845 50.5 73.8775 50.5 73.9102C50.5 73.9428 50.5 73.9756 50.5 74.0084C50.5 74.0413 50.5 74.0742 50.5 74.1072C50.5 74.1402 50.5 74.1733 50.5 74.2065C50.5 74.2397 50.5 74.273 50.5 74.3064C50.5 74.3397 50.5 74.3732 50.5 74.4067C50.5 74.4403 50.5 74.4739 50.5 74.5077C50.5 74.5414 50.5 74.5752 50.5 74.6091C50.5 74.643 50.5 74.677 50.5 74.7111C50.5 74.7451 50.5 74.7793 50.5 74.8135C50.5 74.8478 50.5 74.8821 50.5 74.9165C50.5 74.951 50.5 74.9855 50.5 75.02C50.5 75.0546 50.5 75.0893 50.5 75.1241C50.5 75.1588 50.5 75.1937 50.5 75.2286C50.5 75.2635 50.5 75.2985 50.5 75.3336C50.5 75.3687 50.5 75.4039 50.5 75.4391C50.5 75.4744 50.5 75.5098 50.5 75.5452C50.5 75.5806 50.5 75.6161 50.5 75.6517C50.5 75.6873 50.5 75.7229 50.5 75.7587C50.5 75.7944 50.5 75.8303 50.5 75.8662C50.5 75.9021 50.5 75.9381 50.5 75.9742C50.5 76.0102 50.5 76.0464 50.5 76.0826C50.5 76.1189 50.5 76.1552 50.5 76.1916C50.5 76.228 50.5 76.2644 50.5 76.301C50.5 76.3375 50.5 76.3741 50.5 76.4109C50.5 76.4476 50.5 76.4843 50.5 76.5212C50.5 76.5581 50.5 76.595 50.5 76.632C50.5 76.669 50.5 76.7061 50.5 76.7433C50.5 76.7804 50.5 76.8177 50.5 76.855C50.5 76.8923 50.5 76.9297 50.5 76.9672C50.5 77.0046 50.5 77.0422 50.5 77.0798C50.5 77.1174 50.5 77.1551 50.5 77.1929C50.5 77.2306 50.5 77.2685 50.5 77.3064C50.5 77.3443 50.5 77.3823 50.5 77.4203C50.5 77.4584 50.5 77.4965 50.5 77.5347C50.5 77.5729 50.5 77.6112 50.5 77.6496C50.5 77.6879 50.5 77.7263 50.5 77.7648C50.5 77.8033 50.5 77.8419 50.5 77.8805C50.5 77.9191 50.5 77.9578 50.5 77.9966C50.5 78.0354 50.5 78.0742 50.5 78.1132C50.5 78.1521 50.5 78.191 50.5 78.2301C50.5 78.2691 50.5 78.3083 50.5 78.3475C50.5 78.3867 50.5 78.4259 50.5 78.4652C50.5 78.5046 50.5 78.5439 50.5 78.5834C50.5 78.6229 50.5 78.6624 50.5 78.702C50.5 78.7416 50.5 78.7812 50.5 78.821C50.5 78.8607 50.5 78.9005 50.5 78.9403C50.5 78.9802 50.5 79.0201 50.5 79.0601C50.5 79.1001 50.5 79.1402 50.5 79.1803C50.5 79.2204 50.5 79.2606 50.5 79.3008C50.5 79.3411 50.5 79.3814 50.5 79.4218C50.5 79.4621 50.5 79.5026 50.5 79.5431C50.5 79.5836 50.5 79.6241 50.5 79.6648C50.5 79.7054 50.5 79.7461 50.5 79.7868C50.5 79.8276 50.5 79.8684 50.5 79.9093C50.5 79.9501 50.5 79.9911 50.5 80.0321C50.5 80.0731 50.5 80.1141 50.5 80.1553C50.5 80.1964 50.5 80.2375 50.5 80.2788C50.5 80.32 50.5 80.3613 50.5 80.4027C50.5 80.444 50.5 80.4854 50.5 80.5269C50.5 80.5684 50.5 80.6099 50.5 80.6515C50.5 80.6931 50.5 80.7347 50.5 80.7764C50.5 80.8181 50.5 80.8599 50.5 80.9017C50.5 80.9435 50.5 80.9854 50.5 81.0273C50.5 81.0693 50.5 81.1113 50.5 81.1533C50.5 81.1954 50.5 81.2374 50.5 81.2796C50.5 81.3218 50.5 81.364 50.5 81.4062C50.5 81.4485 50.5 81.4908 50.5 81.5332C50.5 81.5756 50.5 81.618 50.5 81.6605C50.5 81.7029 50.5 81.7455 50.5 81.7881C50.5 81.8307 50.5 81.8733 50.5 81.916C50.5 81.9587 50.5 82.0014 50.5 82.0442C50.5 82.087 50.5 82.1299 50.5 82.1728C50.5 82.2157 50.5 82.2586 50.5 82.3016C50.5 82.3446 50.5 82.3877 50.5 82.4308C50.5 82.4739 50.5 82.517 50.5 82.5602C50.5 82.6034 50.5 82.6467 50.5 82.69C50.5 82.7333 50.5 82.7766 50.5 82.82C50.5 82.8634 50.5 82.9069 50.5 82.9504C50.5 82.9939 50.5 83.0374 50.5 83.081C50.5 83.1246 50.5 83.1682 50.5 83.2119C50.5 83.2556 50.5 83.2993 50.5 83.3431C50.5 83.3869 50.5 83.4307 50.5 83.4746C50.5 83.5184 50.5 83.5624 50.5 83.6063C50.5 83.6503 50.5 83.6943 50.5 83.7383C50.5 83.7824 50.5 83.8265 50.5 83.8706C50.5 83.9148 50.5 83.959 50.5 84.0032C50.5 84.0474 50.5 84.0917 50.5 84.136C50.5 84.1803 50.5 84.2247 50.5 84.2691C50.5 84.3135 50.5 84.3579 50.5 84.4024C50.5 84.4469 50.5 84.4914 50.5 84.536C50.5 84.5805 50.5 84.6251 50.5 84.6698C50.5 84.7144 50.5 84.7591 50.5 84.8039C50.5 84.8486 50.5 84.8934 50.5 84.9382C50.5 84.983 50.5 85.0278 50.5 85.0727C50.5 85.1176 50.5 85.1626 50.5 85.2075C50.5 85.2525 50.5 85.2975 50.5 85.3425C50.5 85.3876 50.5 85.4327 50.5 85.4778C50.5 85.5229 50.5 85.5681 50.5 85.6133C50.5 85.6584 50.5 85.7037 50.5 85.7489C50.5 85.7942 50.5 85.8395 50.5 85.8849C50.5 85.9302 50.5 85.9756 50.5 86.021C50.5 86.0664 50.5 86.1118 50.5 86.1573C50.5 86.2028 50.5 86.2483 50.5 86.2939C50.5 86.3394 50.5 86.385 50.5 86.4306C50.5 86.4762 50.5 86.5219 50.5 86.5676C50.5 86.6133 50.5 86.659 50.5 86.7047C50.5 86.7505 50.5 86.7963 50.5 86.8421C50.5 86.8879 50.5 86.9338 50.5 86.9796C50.5 87.0255 50.5 87.0714 50.5 87.1174C50.5 87.1633 50.5 87.2093 50.5 87.2553C50.5 87.3013 50.5 87.3473 50.5 87.3934C50.5 87.4394 50.5 87.4855 50.5 87.5316C50.5 87.5778 50.5 87.6239 50.5 87.6701C50.5 87.7163 50.5 87.7625 50.5 87.8087C50.5 87.855 50.5 87.9012 50.5 87.9475C50.5 87.9938 50.5 88.0401 50.5 88.0865C50.5 88.1328 50.5 88.1792 50.5 88.2256C50.5 88.272 50.5 88.3184 50.5 88.3649C50.5 88.4113 50.5 88.4578 50.5 88.5043C50.5 88.5508 50.5 88.5973 50.5 88.6439C50.5 88.6905 50.5 88.737 50.5 88.7836C50.5 88.8302 50.5 88.8769 50.5 88.9235C50.5 88.9702 50.5 89.0168 50.5 89.0635C50.5 89.1102 50.5 89.157 50.5 89.2037C50.5 89.2505 50.5 89.2972 50.5 89.344C50.5 89.3908 50.5 89.4376 50.5 89.4844C50.5 89.5313 50.5 89.5781 50.5 89.625C50.5 89.6719 50.5 89.7188 50.5 89.7657C50.5 89.8126 50.5 89.8595 50.5 89.9065C50.5 89.9535 50.5 90.0004 50.5 90.0474C50.5 90.0944 50.5 90.1414 50.5 90.1885C50.5 90.2355 50.5 90.2826 50.5 90.3296C50.5 90.3767 50.5 90.4238 50.5 90.4709C50.5 90.518 50.5 90.5651 50.5 90.6123C50.5 90.6594 50.5 90.7066 50.5 90.7537C50.5 90.8009 50.5 90.8481 50.5 90.8953C50.5 90.9425 50.5 90.9898 50.5 91.037C50.5 91.0842 50.5 91.1315 50.5 91.1788C50.5 91.226 50.5 91.2733 50.5 91.3206C50.5 91.3679 50.5 91.4152 50.5 91.4625C50.5 91.5099 50.5 91.5572 50.5 91.6046C50.5 91.6519 50.5 91.6993 50.5 91.7467C50.5 91.7941 50.5 91.8414 50.5 91.8889C50.5 91.9363 50.5 91.9837 50.5 92.0311C50.5 92.0785 50.5 92.126 50.5 92.1734C50.5 92.2209 50.5 92.2683 50.5 92.3158C50.5 92.3633 50.5 92.4108 50.5 92.4583C50.5 92.5058 50.5 92.5533 50.5 92.6008C50.5 92.6483 50.5 92.6958 50.5 92.7433C50.5 92.7909 50.5 92.8384 50.5 92.886C50.5 92.9335 50.5 92.9811 50.5 93.0286C50.5 93.0762 50.5 93.1238 50.5 93.1713C50.5 93.2189 50.5 93.2665 50.5 93.3141C50.5 93.3617 50.5 93.4093 50.5 93.4569C50.5 93.5045 50.5 93.5521 50.5 93.5997C50.5 93.6474 50.5 93.695 50.5 93.7426C50.5 93.7902 50.5 93.8379 50.5 93.8855C50.5 93.9332 50.5 93.9808 50.5 94.0284C50.5 94.0761 50.5 94.1237 50.5 94.1714C50.5 94.219 50.5 94.2667 50.5 94.3144C50.5 94.362 50.5 94.4097 50.5 94.4573C50.5 94.505 50.5 94.5527 50.5 94.6003C50.5 94.648 50.5 94.6957 50.5 94.7433C50.5 94.791 50.5 94.8387 50.5 94.8864C50.5 94.934 50.5 94.9817 50.5 95.0294C50.5 95.0771 50.5 95.1247 50.5 95.1724C50.5 95.2201 50.5 95.2678 50.5 95.3154C50.5 95.3631 50.5 95.4108 50.5 95.4584C50.5 95.5061 50.5 95.5538 50.5 95.6014C50.5 95.6491 50.5 95.6968 50.5 95.7444C50.5 95.7921 50.5 95.8397 50.5 95.8874C50.5 95.935 50.5 95.9827 50.5 96.0303C50.5 96.078 50.5 96.1256 50.5 96.1733C50.5 96.2209 50.5 96.2685 50.5 96.3162C50.5 96.3638 50.5 96.4114 50.5 96.459C50.5 96.5067 50.5 96.5543 50.5 96.6019C50.5 96.6495 50.5 96.6971 50.5 96.7447C50.5 96.7923 50.5 96.8399 50.5 96.8875C50.5 96.935 50.5 96.9826 50.5 97.0302C50.5 97.0777 50.5 97.1253 50.5 97.1729C50.5 97.2204 50.5 97.2679 50.5 97.3155C50.5 97.363 50.5 97.4105 50.5 97.458C50.5 97.5056 50.5 97.5531 50.5 97.6006C50.5 97.6481 50.5 97.6955 50.5 97.743C50.5 97.7905 50.5 97.838 50.5 97.8854C50.5 97.9329 50.5 97.9803 50.5 98.0277C50.5 98.0752 50.5 98.1226 50.5 98.17C50.5 98.2174 50.5 98.2648 50.5 98.3122C50.5 98.3596 50.5 98.4069 50.5 98.4543C50.5 98.5017 50.5 98.549 50.5 98.5963C50.5 98.6437 50.5 98.691 50.5 98.7383C50.5 98.7856 50.5 98.8329 50.5 98.8801C50.5 98.9274 50.5 98.9747 50.5 99.0219C50.5 99.0692 50.5 99.1164 50.5 99.1636C50.5 99.2108 50.5 99.258 50.5 99.3052C50.5 99.3524 50.5 99.3995 50.5 99.4467C50.5 99.4938 50.5 99.5409 50.5 99.5881C50.5 99.6352 50.5 99.6823 50.5 99.7293C50.5 99.7764 50.5 99.8235 50.5 99.8705C50.5 99.9175 50.5 99.9646 50.5 100.012C50.5 100.059 50.5 100.106 50.5 100.153C50.5 100.199 50.5 100.246 50.5 100.293C50.5 100.34 50.5 100.387 50.5 100.434C50.5 100.481 50.5 100.528 50.5 100.575C50.5 100.621 50.5 100.668 50.5 100.715C50.5 100.762 50.5 100.809 50.5 100.855C50.5 100.902 50.5 100.949 50.5 100.996C50.5 101.042 50.5 101.089 50.5 101.136C50.5 101.182 50.5 101.229 50.5 101.275C50.5 101.322 50.5 101.369 50.5 101.415C50.5 101.462 50.5 101.508 50.5 101.555C50.5 101.601 50.5 101.648 50.5 101.694C50.5 101.741 50.5 101.787 50.5 101.834C50.5 101.88 50.5 101.926 50.5 101.973C50.5 102.019 50.5 102.065 50.5 102.112C50.5 102.158 50.5 102.204 50.5 102.251C50.5 102.297 50.5 102.343 50.5 102.389C50.5 102.435 50.5 102.481 50.5 102.528C50.5 102.574 50.5 102.62 50.5 102.666C50.5 102.712 50.5 102.758 50.5 102.804C50.5 102.85 50.5 102.896 50.5 102.942C50.5 102.988 50.5 103.034 50.5 103.08C50.5 103.126 50.5 103.171 50.5 103.217C50.5 103.263 50.5 103.309 50.5 103.355C50.5 103.4 50.5 103.446 50.5 103.492C50.5 103.538 50.5 103.583 50.5 103.629C50.5 103.674 50.5 103.72 50.5 103.766C50.5 103.811 50.5 103.857 50.5 103.902C50.5 103.948 50.5 103.993 50.5 104.039C50.5 104.084 50.5 104.129 50.5 104.175C50.5 104.22 50.5 104.265 50.5 104.311C50.5 104.356 50.5 104.401 50.5 104.446C50.5 104.492 50.5 104.537 50.5 104.582C50.5 104.627 50.5 104.672 50.5 104.717C50.5 104.762 50.5 104.807 50.5 104.852C50.5 104.897 50.5 104.942 50.5 104.987C50.5 105.032 50.5 105.077 50.5 105.122C50.5 105.166 50.5 105.211 50.5 105.256C50.5 105.301 50.5 105.345 50.5 105.39C50.5 105.435 50.5 105.479 50.5 105.524C50.5 105.568 50.5 105.613 50.5 105.657C50.5 105.702 50.5 105.746 50.5 105.791C50.5 105.835 50.5 105.88 50.5 105.924C50.5 105.968 50.5 106.012 50.5 106.057C50.5 106.101 50.5 106.145 50.5 106.189C50.5 106.233 50.5 106.278 50.5 106.322C50.5 106.366 50.5 106.41 50.5 106.454C50.5 106.498 50.5 106.542 50.5 106.585C50.5 106.629 50.5 106.673 50.5 106.717C50.5 106.761 50.5 106.804 50.5 106.848C50.5 106.892 50.5 106.936 50.5 106.979C50.5 107.023 50.5 107.066 50.5 107.11C50.5 107.153 50.5 107.197 50.5 107.24C50.5 107.284 50.5 107.327 50.5 107.37C50.5 107.414 50.5 107.457 50.5 107.5C50.5 107.543 50.5 107.586 50.5 107.629C50.5 107.673 50.5 107.716 50.5 107.759C50.5 107.802 50.5 107.845 50.5 107.888C50.5 107.93 50.5 107.973 50.5 108.016C50.5 108.059 50.5 108.102 50.5 108.144C50.5 108.187 50.5 108.23 50.5 108.272C50.5 108.315 50.5 108.357 50.5 108.4C50.5 108.442 50.5 108.485 50.5 108.527C50.5 108.57 50.5 108.612 50.5 108.654C50.5 108.697 50.5 108.739 50.5 108.781C50.5 108.823 50.5 108.865 50.5 108.907C50.5 108.949 50.5 108.991 50.5 109.033C50.5 109.075 50.5 109.117 50.5 109.159C50.5 109.201 50.5 109.243 50.5 109.284C50.5 109.326 50.5 109.368 50.5 109.409C50.5 109.451 50.5 109.492 50.5 109.534C50.5 109.575 50.5 109.617 50.5 109.658C50.5 109.7 50.5 109.741 50.5 109.782C50.5 109.823 50.5 109.865 50.5 109.906C50.5 109.947 50.5 109.988 50.5 110.029C50.5 110.07 50.5 110.111 50.5 110.152C50.5 110.193 50.5 110.233 50.5 110.274C50.5 110.315 50.5 110.356 50.5 110.396C50.5 110.437 50.5 110.478 50.5 110.518C50.5 110.559 50.5 110.599 50.5 110.639C50.5 110.68 50.5 110.72 50.5 110.76C50.5 110.801 50.5 110.841 50.5 110.881C50.5 110.921 50.5 110.961 50.5 111.001C50.5 111.041 50.5 111.081 50.5 111.121C50.5 111.161 50.5 111.201 50.5 111.24C50.5 111.28 50.5 111.32 50.5 111.359C50.5 111.399 50.5 111.439 50.5 111.478C50.5 111.518 50.5 111.557 50.5 111.596C50.5 111.636 50.5 111.675 50.5 111.714C50.5 111.753 50.5 111.792 50.5 111.831C50.5 111.871 50.5 111.91 50.5 111.948C50.5 111.987 50.5 112.026 50.5 112.065C50.5 112.104 50.5 112.143 50.5 112.181C50.5 112.22 50.5 112.258 50.5 112.297C50.5 112.335 50.5 112.374 50.5 112.412C50.5 112.451 50.5 112.489 50.5 112.527C50.5 112.565 50.5 112.603 50.5 112.642C50.5 112.68 50.5 112.718 50.5 112.756C50.5 112.793 50.5 112.831 50.5 112.869C50.5 112.907 50.5 112.945 50.5 112.982C50.5 113.02 50.5 113.057 50.5 113.095C50.5 113.132 50.5 113.17 50.5 113.207C50.5 113.244 50.5 113.282 50.5 113.319C50.5 113.356 50.5 113.393 50.5 113.43C50.5 113.467 50.5 113.504 50.5 113.541C50.5 113.578 50.5 113.615 50.5 113.651C50.5 113.688 50.5 113.725 50.5 113.761C50.5 113.798 50.5 113.834 50.5 113.871C50.5 113.907 50.5 113.944 50.5 113.98C50.5 114.016 50.5 114.052 50.5 114.088C50.5 114.124 50.5 114.16 50.5 114.196C50.5 114.232 50.5 114.268 50.5 114.304C50.5 114.34 50.5 114.375 50.5 114.411C50.5 114.447 50.5 114.482 50.5 114.518C50.5 114.553 50.5 114.588 50.5 114.624C50.5 114.659 50.5 114.694 50.5 114.729C50.5 114.764 50.5 114.799 50.5 114.834C50.5 114.869 50.5 114.904 50.5 114.939C50.5 114.974 50.5 115.008 50.5 115.043C50.5 115.078 50.5 115.112 50.5 115.147C50.5 115.181 50.5 115.215 50.5 115.25C50.5 115.284 50.5 115.318 50.5 115.352C50.5 115.386 50.5 115.42 50.5 115.454C50.5 115.488 50.5 115.522 50.5 115.556C50.5 115.589 50.5 115.623 50.5 115.657C50.5 115.69 50.5 115.724 50.5 115.757C50.5 115.79 50.5 115.824 50.5 115.857C50.5 115.89 50.5 115.923 50.5 115.956C50.5 115.989 50.5 116.022 50.5 116.055C50.5 116.088 50.5 116.121 50.5 116.153C50.5 116.186 50.5 116.219 50.5 116.251C50.5 116.284 50.5 116.316 50.5 116.348C50.5 116.381 50.5 116.413 50.5 116.445C50.5 116.477 50.5 116.509 50.5 116.541C50.5 116.573 50.5 116.605 50.5 116.637C50.5 116.668 50.5 116.7 50.5 116.732C50.5 116.763 50.5 116.795 50.5 116.826C50.5 116.857 50.5 116.889 50.5 116.92C50.5 116.951 50.5 116.982 50.5 117.013C50.5 117.044 50.5 117.075 50.5 117.106C50.5 117.137 50.5 117.167 50.5 117.198C50.5 117.229 50.5 117.259 50.5 117.289C50.5 117.32 50.5 117.35 50.5 117.38C50.5 117.411 50.5 117.441 50.5 117.471C50.5 117.501 50.5 117.531 50.5 117.56C50.5 117.59 50.5 117.62 50.5 117.65C50.5 117.679 50.5 117.709 50.5 117.738C50.5 117.768 50.5 117.797 50.5 117.826C50.5 117.855 50.5 117.885 50.5 117.914C50.5 117.943 50.5 117.971 50.5 118C50.5 118.029 50.5 118.058 50.5 118.086C50.5 118.115 50.5 118.144 50.5 118.172C50.5 118.2 50.5 118.229 50.5 118.257C50.5 118.285 50.5 118.313 50.5 118.341C50.5 118.369 50.5 118.397 50.5 118.425C50.5 118.453 50.5 118.48 50.5 118.508C50.5 118.535 50.5 118.563 50.5 118.59C50.5 118.618 50.5 118.645 50.5 118.672C50.5 118.699 50.5 118.726 50.5 118.753C50.5 118.78 50.5 118.807 50.5 118.834C50.5 118.86 50.5 118.887 50.5 118.913C50.5 118.94 50.5 118.966 50.5 118.993C50.5 119.019 50.5 119.045 50.5 119.071C50.5 119.097 50.5 119.123 50.5 119.149C50.5 119.175 50.5 119.201 50.5 119.226C50.5 119.252 50.5 119.277 50.5 119.303C50.5 119.328 50.5 119.354 50.5 119.379C50.5 119.404 50.5 119.429 50.5 119.454C50.5 119.479 50.5 119.504 50.5 119.529C50.5 119.553 50.5 119.578 50.5 119.602C50.5 119.627 50.5 119.651 50.5 119.676C50.5 119.7 50.5 119.724 50.5 119.748C50.5 119.772 50.5 119.796 50.5 119.82C50.5 119.844 50.5 119.868 50.5 119.891C50.5 119.915 50.5 119.938 50.5 119.962C50.5 119.985 50.5 120.008 50.5 120.031C50.5 120.054 50.5 120.078 50.5 120.1C50.5 120.123 50.5 120.146 50.5 120.169C50.5 120.191 50.5 120.214 50.5 120.236C50.5 120.259 50.5 120.281 50.5 120.303C50.5 120.326 50.5 120.348 50.5 120.37C50.5 120.392 50.5 120.413 50.5 120.435C50.5 120.457 50.5 120.479 50.5 120.5H58.5C58.5 120.479 58.5 120.457 58.5 120.435C58.5 120.413 58.5 120.392 58.5 120.37C58.5 120.348 58.5 120.326 58.5 120.303C58.5 120.281 58.5 120.259 58.5 120.236C58.5 120.214 58.5 120.191 58.5 120.169C58.5 120.146 58.5 120.123 58.5 120.1C58.5 120.078 58.5 120.054 58.5 120.031C58.5 120.008 58.5 119.985 58.5 119.962C58.5 119.938 58.5 119.915 58.5 119.891C58.5 119.868 58.5 119.844 58.5 119.82C58.5 119.796 58.5 119.772 58.5 119.748C58.5 119.724 58.5 119.7 58.5 119.676C58.5 119.651 58.5 119.627 58.5 119.602C58.5 119.578 58.5 119.553 58.5 119.529C58.5 119.504 58.5 119.479 58.5 119.454C58.5 119.429 58.5 119.404 58.5 119.379C58.5 119.354 58.5 119.328 58.5 119.303C58.5 119.277 58.5 119.252 58.5 119.226C58.5 119.201 58.5 119.175 58.5 119.149C58.5 119.123 58.5 119.097 58.5 119.071C58.5 119.045 58.5 119.019 58.5 118.993C58.5 118.966 58.5 118.94 58.5 118.913C58.5 118.887 58.5 118.86 58.5 118.834C58.5 118.807 58.5 118.78 58.5 118.753C58.5 118.726 58.5 118.699 58.5 118.672C58.5 118.645 58.5 118.618 58.5 118.59C58.5 118.563 58.5 118.535 58.5 118.508C58.5 118.48 58.5 118.453 58.5 118.425C58.5 118.397 58.5 118.369 58.5 118.341C58.5 118.313 58.5 118.285 58.5 118.257C58.5 118.229 58.5 118.2 58.5 118.172C58.5 118.144 58.5 118.115 58.5 118.086C58.5 118.058 58.5 118.029 58.5 118C58.5 117.971 58.5 117.943 58.5 117.914C58.5 117.885 58.5 117.855 58.5 117.826C58.5 117.797 58.5 117.768 58.5 117.738C58.5 117.709 58.5 117.679 58.5 117.65C58.5 117.62 58.5 117.59 58.5 117.56C58.5 117.531 58.5 117.501 58.5 117.471C58.5 117.441 58.5 117.411 58.5 117.38C58.5 117.35 58.5 117.32 58.5 117.289C58.5 117.259 58.5 117.229 58.5 117.198C58.5 117.167 58.5 117.137 58.5 117.106C58.5 117.075 58.5 117.044 58.5 117.013C58.5 116.982 58.5 116.951 58.5 116.92C58.5 116.889 58.5 116.857 58.5 116.826C58.5 116.795 58.5 116.763 58.5 116.732C58.5 116.7 58.5 116.668 58.5 116.637C58.5 116.605 58.5 116.573 58.5 116.541C58.5 116.509 58.5 116.477 58.5 116.445C58.5 116.413 58.5 116.381 58.5 116.348C58.5 116.316 58.5 116.284 58.5 116.251C58.5 116.219 58.5 116.186 58.5 116.153C58.5 116.121 58.5 116.088 58.5 116.055C58.5 116.022 58.5 115.989 58.5 115.956C58.5 115.923 58.5 115.89 58.5 115.857C58.5 115.824 58.5 115.79 58.5 115.757C58.5 115.724 58.5 115.69 58.5 115.657C58.5 115.623 58.5 115.589 58.5 115.556C58.5 115.522 58.5 115.488 58.5 115.454C58.5 115.42 58.5 115.386 58.5 115.352C58.5 115.318 58.5 115.284 58.5 115.25C58.5 115.215 58.5 115.181 58.5 115.147C58.5 115.112 58.5 115.078 58.5 115.043C58.5 115.008 58.5 114.974 58.5 114.939C58.5 114.904 58.5 114.869 58.5 114.834C58.5 114.799 58.5 114.764 58.5 114.729C58.5 114.694 58.5 114.659 58.5 114.624C58.5 114.588 58.5 114.553 58.5 114.518C58.5 114.482 58.5 114.447 58.5 114.411C58.5 114.375 58.5 114.34 58.5 114.304C58.5 114.268 58.5 114.232 58.5 114.196C58.5 114.16 58.5 114.124 58.5 114.088C58.5 114.052 58.5 114.016 58.5 113.98C58.5 113.944 58.5 113.907 58.5 113.871C58.5 113.834 58.5 113.798 58.5 113.761C58.5 113.725 58.5 113.688 58.5 113.651C58.5 113.615 58.5 113.578 58.5 113.541C58.5 113.504 58.5 113.467 58.5 113.43C58.5 113.393 58.5 113.356 58.5 113.319C58.5 113.282 58.5 113.244 58.5 113.207C58.5 113.17 58.5 113.132 58.5 113.095C58.5 113.057 58.5 113.02 58.5 112.982C58.5 112.945 58.5 112.907 58.5 112.869C58.5 112.831 58.5 112.793 58.5 112.756C58.5 112.718 58.5 112.68 58.5 112.642C58.5 112.603 58.5 112.565 58.5 112.527C58.5 112.489 58.5 112.451 58.5 112.412C58.5 112.374 58.5 112.335 58.5 112.297C58.5 112.258 58.5 112.22 58.5 112.181C58.5 112.143 58.5 112.104 58.5 112.065C58.5 112.026 58.5 111.987 58.5 111.948C58.5 111.91 58.5 111.871 58.5 111.831C58.5 111.792 58.5 111.753 58.5 111.714C58.5 111.675 58.5 111.636 58.5 111.596C58.5 111.557 58.5 111.518 58.5 111.478C58.5 111.439 58.5 111.399 58.5 111.359C58.5 111.32 58.5 111.28 58.5 111.24C58.5 111.201 58.5 111.161 58.5 111.121C58.5 111.081 58.5 111.041 58.5 111.001C58.5 110.961 58.5 110.921 58.5 110.881C58.5 110.841 58.5 110.801 58.5 110.76C58.5 110.72 58.5 110.68 58.5 110.639C58.5 110.599 58.5 110.559 58.5 110.518C58.5 110.478 58.5 110.437 58.5 110.396C58.5 110.356 58.5 110.315 58.5 110.274C58.5 110.233 58.5 110.193 58.5 110.152C58.5 110.111 58.5 110.07 58.5 110.029C58.5 109.988 58.5 109.947 58.5 109.906C58.5 109.865 58.5 109.823 58.5 109.782C58.5 109.741 58.5 109.7 58.5 109.658C58.5 109.617 58.5 109.575 58.5 109.534C58.5 109.492 58.5 109.451 58.5 109.409C58.5 109.368 58.5 109.326 58.5 109.284C58.5 109.243 58.5 109.201 58.5 109.159C58.5 109.117 58.5 109.075 58.5 109.033C58.5 108.991 58.5 108.949 58.5 108.907C58.5 108.865 58.5 108.823 58.5 108.781C58.5 108.739 58.5 108.697 58.5 108.654C58.5 108.612 58.5 108.57 58.5 108.527C58.5 108.485 58.5 108.442 58.5 108.4C58.5 108.357 58.5 108.315 58.5 108.272C58.5 108.23 58.5 108.187 58.5 108.144C58.5 108.102 58.5 108.059 58.5 108.016C58.5 107.973 58.5 107.93 58.5 107.888C58.5 107.845 58.5 107.802 58.5 107.759C58.5 107.716 58.5 107.673 58.5 107.629C58.5 107.586 58.5 107.543 58.5 107.5C58.5 107.457 58.5 107.414 58.5 107.37C58.5 107.327 58.5 107.284 58.5 107.24C58.5 107.197 58.5 107.153 58.5 107.11C58.5 107.066 58.5 107.023 58.5 106.979C58.5 106.936 58.5 106.892 58.5 106.848C58.5 106.804 58.5 106.761 58.5 106.717C58.5 106.673 58.5 106.629 58.5 106.585C58.5 106.542 58.5 106.498 58.5 106.454C58.5 106.41 58.5 106.366 58.5 106.322C58.5 106.278 58.5 106.233 58.5 106.189C58.5 106.145 58.5 106.101 58.5 106.057C58.5 106.012 58.5 105.968 58.5 105.924C58.5 105.88 58.5 105.835 58.5 105.791C58.5 105.746 58.5 105.702 58.5 105.657C58.5 105.613 58.5 105.568 58.5 105.524C58.5 105.479 58.5 105.435 58.5 105.39C58.5 105.345 58.5 105.301 58.5 105.256C58.5 105.211 58.5 105.166 58.5 105.122C58.5 105.077 58.5 105.032 58.5 104.987C58.5 104.942 58.5 104.897 58.5 104.852C58.5 104.807 58.5 104.762 58.5 104.717C58.5 104.672 58.5 104.627 58.5 104.582C58.5 104.537 58.5 104.492 58.5 104.446C58.5 104.401 58.5 104.356 58.5 104.311C58.5 104.265 58.5 104.22 58.5 104.175C58.5 104.129 58.5 104.084 58.5 104.039C58.5 103.993 58.5 103.948 58.5 103.902C58.5 103.857 58.5 103.811 58.5 103.766C58.5 103.72 58.5 103.674 58.5 103.629C58.5 103.583 58.5 103.538 58.5 103.492C58.5 103.446 58.5 103.4 58.5 103.355C58.5 103.309 58.5 103.263 58.5 103.217C58.5 103.171 58.5 103.126 58.5 103.08C58.5 103.034 58.5 102.988 58.5 102.942C58.5 102.896 58.5 102.85 58.5 102.804C58.5 102.758 58.5 102.712 58.5 102.666C58.5 102.62 58.5 102.574 58.5 102.528C58.5 102.481 58.5 102.435 58.5 102.389C58.5 102.343 58.5 102.297 58.5 102.251C58.5 102.204 58.5 102.158 58.5 102.112C58.5 102.065 58.5 102.019 58.5 101.973C58.5 101.926 58.5 101.88 58.5 101.834C58.5 101.787 58.5 101.741 58.5 101.694C58.5 101.648 58.5 101.601 58.5 101.555C58.5 101.508 58.5 101.462 58.5 101.415C58.5 101.369 58.5 101.322 58.5 101.275C58.5 101.229 58.5 101.182 58.5 101.136C58.5 101.089 58.5 101.042 58.5 100.996C58.5 100.949 58.5 100.902 58.5 100.855C58.5 100.809 58.5 100.762 58.5 100.715C58.5 100.668 58.5 100.621 58.5 100.575C58.5 100.528 58.5 100.481 58.5 100.434C58.5 100.387 58.5 100.34 58.5 100.293C58.5 100.246 58.5 100.199 58.5 100.153C58.5 100.106 58.5 100.059 58.5 100.012C58.5 99.9646 58.5 99.9175 58.5 99.8705C58.5 99.8235 58.5 99.7764 58.5 99.7293C58.5 99.6823 58.5 99.6352 58.5 99.5881C58.5 99.5409 58.5 99.4938 58.5 99.4467C58.5 99.3995 58.5 99.3524 58.5 99.3052C58.5 99.258 58.5 99.2108 58.5 99.1636C58.5 99.1164 58.5 99.0692 58.5 99.0219C58.5 98.9747 58.5 98.9274 58.5 98.8801C58.5 98.8329 58.5 98.7856 58.5 98.7383C58.5 98.691 58.5 98.6437 58.5 98.5963C58.5 98.549 58.5 98.5017 58.5 98.4543C58.5 98.4069 58.5 98.3596 58.5 98.3122C58.5 98.2648 58.5 98.2174 58.5 98.17C58.5 98.1226 58.5 98.0752 58.5 98.0277C58.5 97.9803 58.5 97.9329 58.5 97.8854C58.5 97.838 58.5 97.7905 58.5 97.743C58.5 97.6955 58.5 97.6481 58.5 97.6006C58.5 97.5531 58.5 97.5056 58.5 97.458C58.5 97.4105 58.5 97.363 58.5 97.3155C58.5 97.2679 58.5 97.2204 58.5 97.1729C58.5 97.1253 58.5 97.0777 58.5 97.0302C58.5 96.9826 58.5 96.935 58.5 96.8875C58.5 96.8399 58.5 96.7923 58.5 96.7447C58.5 96.6971 58.5 96.6495 58.5 96.6019C58.5 96.5543 58.5 96.5067 58.5 96.459C58.5 96.4114 58.5 96.3638 58.5 96.3162C58.5 96.2685 58.5 96.2209 58.5 96.1733C58.5 96.1256 58.5 96.078 58.5 96.0303C58.5 95.9827 58.5 95.935 58.5 95.8874C58.5 95.8397 58.5 95.7921 58.5 95.7444C58.5 95.6968 58.5 95.6491 58.5 95.6014C58.5 95.5538 58.5 95.5061 58.5 95.4584C58.5 95.4108 58.5 95.3631 58.5 95.3154C58.5 95.2678 58.5 95.2201 58.5 95.1724C58.5 95.1247 58.5 95.0771 58.5 95.0294C58.5 94.9817 58.5 94.934 58.5 94.8864C58.5 94.8387 58.5 94.791 58.5 94.7433C58.5 94.6957 58.5 94.648 58.5 94.6003C58.5 94.5527 58.5 94.505 58.5 94.4573C58.5 94.4097 58.5 94.362 58.5 94.3144C58.5 94.2667 58.5 94.219 58.5 94.1714C58.5 94.1237 58.5 94.0761 58.5 94.0284C58.5 93.9808 58.5 93.9332 58.5 93.8855C58.5 93.8379 58.5 93.7902 58.5 93.7426C58.5 93.695 58.5 93.6474 58.5 93.5997C58.5 93.5521 58.5 93.5045 58.5 93.4569C58.5 93.4093 58.5 93.3617 58.5 93.3141C58.5 93.2665 58.5 93.2189 58.5 93.1713C58.5 93.1238 58.5 93.0762 58.5 93.0286C58.5 92.9811 58.5 92.9335 58.5 92.886C58.5 92.8384 58.5 92.7909 58.5 92.7433C58.5 92.6958 58.5 92.6483 58.5 92.6008C58.5 92.5533 58.5 92.5058 58.5 92.4583C58.5 92.4108 58.5 92.3633 58.5 92.3158C58.5 92.2683 58.5 92.2209 58.5 92.1734C58.5 92.126 58.5 92.0785 58.5 92.0311C58.5 91.9837 58.5 91.9363 58.5 91.8889C58.5 91.8414 58.5 91.7941 58.5 91.7467C58.5 91.6993 58.5 91.6519 58.5 91.6046C58.5 91.5572 58.5 91.5099 58.5 91.4625C58.5 91.4152 58.5 91.3679 58.5 91.3206C58.5 91.2733 58.5 91.226 58.5 91.1788C58.5 91.1315 58.5 91.0842 58.5 91.037C58.5 90.9898 58.5 90.9425 58.5 90.8953C58.5 90.8481 58.5 90.8009 58.5 90.7537C58.5 90.7066 58.5 90.6594 58.5 90.6123C58.5 90.5651 58.5 90.518 58.5 90.4709C58.5 90.4238 58.5 90.3767 58.5 90.3296C58.5 90.2826 58.5 90.2355 58.5 90.1885C58.5 90.1414 58.5 90.0944 58.5 90.0474C58.5 90.0004 58.5 89.9535 58.5 89.9065C58.5 89.8595 58.5 89.8126 58.5 89.7657C58.5 89.7188 58.5 89.6719 58.5 89.625C58.5 89.5781 58.5 89.5313 58.5 89.4844C58.5 89.4376 58.5 89.3908 58.5 89.344C58.5 89.2972 58.5 89.2505 58.5 89.2037C58.5 89.157 58.5 89.1102 58.5 89.0635C58.5 89.0168 58.5 88.9702 58.5 88.9235C58.5 88.8769 58.5 88.8302 58.5 88.7836C58.5 88.737 58.5 88.6905 58.5 88.6439C58.5 88.5973 58.5 88.5508 58.5 88.5043C58.5 88.4578 58.5 88.4113 58.5 88.3649C58.5 88.3184 58.5 88.272 58.5 88.2256C58.5 88.1792 58.5 88.1328 58.5 88.0865C58.5 88.0401 58.5 87.9938 58.5 87.9475C58.5 87.9012 58.5 87.855 58.5 87.8087C58.5 87.7625 58.5 87.7163 58.5 87.6701C58.5 87.6239 58.5 87.5778 58.5 87.5316C58.5 87.4855 58.5 87.4394 58.5 87.3934C58.5 87.3473 58.5 87.3013 58.5 87.2553C58.5 87.2093 58.5 87.1633 58.5 87.1174C58.5 87.0714 58.5 87.0255 58.5 86.9796C58.5 86.9338 58.5 86.8879 58.5 86.8421C58.5 86.7963 58.5 86.7505 58.5 86.7047C58.5 86.659 58.5 86.6133 58.5 86.5676C58.5 86.5219 58.5 86.4762 58.5 86.4306C58.5 86.385 58.5 86.3394 58.5 86.2939C58.5 86.2483 58.5 86.2028 58.5 86.1573C58.5 86.1118 58.5 86.0664 58.5 86.021C58.5 85.9756 58.5 85.9302 58.5 85.8849C58.5 85.8395 58.5 85.7942 58.5 85.7489C58.5 85.7037 58.5 85.6584 58.5 85.6133C58.5 85.5681 58.5 85.5229 58.5 85.4778C58.5 85.4327 58.5 85.3876 58.5 85.3425C58.5 85.2975 58.5 85.2525 58.5 85.2075C58.5 85.1626 58.5 85.1176 58.5 85.0727C58.5 85.0278 58.5 84.983 58.5 84.9382C58.5 84.8934 58.5 84.8486 58.5 84.8039C58.5 84.7591 58.5 84.7144 58.5 84.6698C58.5 84.6251 58.5 84.5805 58.5 84.536C58.5 84.4914 58.5 84.4469 58.5 84.4024C58.5 84.3579 58.5 84.3135 58.5 84.2691C58.5 84.2247 58.5 84.1803 58.5 84.136C58.5 84.0917 58.5 84.0474 58.5 84.0032C58.5 83.959 58.5 83.9148 58.5 83.8706C58.5 83.8265 58.5 83.7824 58.5 83.7383C58.5 83.6943 58.5 83.6503 58.5 83.6063C58.5 83.5624 58.5 83.5184 58.5 83.4746C58.5 83.4307 58.5 83.3869 58.5 83.3431C58.5 83.2993 58.5 83.2556 58.5 83.2119C58.5 83.1682 58.5 83.1246 58.5 83.081C58.5 83.0374 58.5 82.9939 58.5 82.9504C58.5 82.9069 58.5 82.8634 58.5 82.82C58.5 82.7766 58.5 82.7333 58.5 82.69C58.5 82.6467 58.5 82.6034 58.5 82.5602C58.5 82.517 58.5 82.4739 58.5 82.4308C58.5 82.3877 58.5 82.3446 58.5 82.3016C58.5 82.2586 58.5 82.2157 58.5 82.1728C58.5 82.1299 58.5 82.087 58.5 82.0442C58.5 82.0014 58.5 81.9587 58.5 81.916C58.5 81.8733 58.5 81.8307 58.5 81.7881C58.5 81.7455 58.5 81.7029 58.5 81.6605C58.5 81.618 58.5 81.5756 58.5 81.5332C58.5 81.4908 58.5 81.4485 58.5 81.4062C58.5 81.364 58.5 81.3218 58.5 81.2796C58.5 81.2374 58.5 81.1954 58.5 81.1533C58.5 81.1113 58.5 81.0693 58.5 81.0273C58.5 80.9854 58.5 80.9435 58.5 80.9017C58.5 80.8599 58.5 80.8181 58.5 80.7764C58.5 80.7347 58.5 80.6931 58.5 80.6515C58.5 80.6099 58.5 80.5684 58.5 80.5269C58.5 80.4854 58.5 80.444 58.5 80.4027C58.5 80.3613 58.5 80.32 58.5 80.2788C58.5 80.2375 58.5 80.1964 58.5 80.1553C58.5 80.1141 58.5 80.0731 58.5 80.0321C58.5 79.9911 58.5 79.9501 58.5 79.9093C58.5 79.8684 58.5 79.8276 58.5 79.7868C58.5 79.7461 58.5 79.7054 58.5 79.6648C58.5 79.6241 58.5 79.5836 58.5 79.5431C58.5 79.5026 58.5 79.4621 58.5 79.4218C58.5 79.3814 58.5 79.3411 58.5 79.3008C58.5 79.2606 58.5 79.2204 58.5 79.1803C58.5 79.1402 58.5 79.1001 58.5 79.0601C58.5 79.0201 58.5 78.9802 58.5 78.9403C58.5 78.9005 58.5 78.8607 58.5 78.821C58.5 78.7812 58.5 78.7416 58.5 78.702C58.5 78.6624 58.5 78.6229 58.5 78.5834C58.5 78.5439 58.5 78.5046 58.5 78.4652C58.5 78.4259 58.5 78.3867 58.5 78.3475C58.5 78.3083 58.5 78.2691 58.5 78.2301C58.5 78.191 58.5 78.1521 58.5 78.1132C58.5 78.0742 58.5 78.0354 58.5 77.9966C58.5 77.9578 58.5 77.9191 58.5 77.8805C58.5 77.8419 58.5 77.8033 58.5 77.7648C58.5 77.7263 58.5 77.6879 58.5 77.6496C58.5 77.6112 58.5 77.5729 58.5 77.5347C58.5 77.4965 58.5 77.4584 58.5 77.4203C58.5 77.3823 58.5 77.3443 58.5 77.3064C58.5 77.2685 58.5 77.2306 58.5 77.1929C58.5 77.1551 58.5 77.1174 58.5 77.0798C58.5 77.0422 58.5 77.0046 58.5 76.9672C58.5 76.9297 58.5 76.8923 58.5 76.855C58.5 76.8177 58.5 76.7804 58.5 76.7433C58.5 76.7061 58.5 76.669 58.5 76.632C58.5 76.595 58.5 76.5581 58.5 76.5212C58.5 76.4843 58.5 76.4476 58.5 76.4109C58.5 76.3741 58.5 76.3375 58.5 76.301C58.5 76.2644 58.5 76.228 58.5 76.1916C58.5 76.1552 58.5 76.1189 58.5 76.0826C58.5 76.0464 58.5 76.0102 58.5 75.9742C58.5 75.9381 58.5 75.9021 58.5 75.8662C58.5 75.8303 58.5 75.7944 58.5 75.7587C58.5 75.7229 58.5 75.6873 58.5 75.6517C58.5 75.6161 58.5 75.5806 58.5 75.5452C58.5 75.5098 58.5 75.4744 58.5 75.4391C58.5 75.4039 58.5 75.3687 58.5 75.3336C58.5 75.2985 58.5 75.2635 58.5 75.2286C58.5 75.1937 58.5 75.1588 58.5 75.1241C58.5 75.0893 58.5 75.0546 58.5 75.02C58.5 74.9855 58.5 74.951 58.5 74.9165C58.5 74.8821 58.5 74.8478 58.5 74.8135C58.5 74.7793 58.5 74.7451 58.5 74.7111C58.5 74.677 58.5 74.643 58.5 74.6091C58.5 74.5752 58.5 74.5414 58.5 74.5077C58.5 74.4739 58.5 74.4403 58.5 74.4067C58.5 74.3732 58.5 74.3397 58.5 74.3064C58.5 74.273 58.5 74.2397 58.5 74.2065C58.5 74.1733 58.5 74.1402 58.5 74.1072C58.5 74.0742 58.5 74.0413 58.5 74.0084C58.5 73.9756 58.5 73.9428 58.5 73.9102C58.5 73.8775 58.5 73.845 58.5 73.8125C58.5 73.78 58.5 73.7477 58.5 73.7154C58.5 73.6831 58.5 73.6509 58.5 73.6188C58.5 73.5867 58.5 73.5547 58.5 73.5228C58.5 73.4908 58.5 73.459 58.5 73.4273C58.5 73.3956 58.5 73.3639 58.5 73.3324C58.5 73.3008 58.5 73.2694 58.5 73.238C58.5 73.2067 58.5 73.1754 58.5 73.1443C58.5 73.1131 58.5 73.082 58.5 73.0511C58.5 73.0201 58.5 72.9892 58.5 72.9584C58.5 72.9277 58.5 72.897 58.5 72.8664C58.5 72.8358 58.5 72.8053 58.5 72.7749C58.5 72.7445 58.5 72.7142 58.5 72.6841C58.5 72.6539 58.5 72.6238 58.5 72.5938C58.5 72.5638 58.5 72.5339 58.5 72.5041C58.5 72.4743 58.5 72.4446 58.5 72.415C58.5 72.3854 58.5 72.3559 58.5 72.3265C58.5 72.2971 58.5 72.2678 58.5 72.2386C58.5 72.2094 58.5 72.1803 58.5 72.1513C58.5 72.1223 58.5 72.0934 58.5 72.0646C58.5 72.0358 58.5 72.0071 58.5 71.9785C58.5 71.9499 58.5 71.9215 58.5 71.8931C58.5 71.8647 58.5 71.8364 58.5 71.8082C58.5 71.7801 58.5 71.752 58.5 71.724C58.5 71.6961 58.5 71.6682 58.5 71.6404C58.5 71.6127 58.5 71.585 58.5 71.5575C58.5 71.5299 58.5 71.5025 58.5 71.4751C58.5 71.4478 58.5 71.4206 58.5 71.3934C58.5 71.3663 58.5 71.3393 58.5 71.3124C58.5 71.2855 58.5 71.2587 58.5 71.232C58.5 71.2053 58.5 71.1787 58.5 71.1522C58.5 71.1257 58.5 71.0994 58.5 71.0731C58.5 71.0468 58.5 71.0207 58.5 70.9946C58.5 70.9686 58.5 70.9426 58.5 70.9168C58.5 70.891 58.5 70.8653 58.5 70.8397C58.5 70.8141 58.5 70.7886 58.5 70.7632C58.5 70.7378 58.5 70.7125 58.5 70.6873C58.5 70.6622 58.5 70.6371 58.5 70.6122C58.5 70.5872 58.5 70.5624 58.5 70.5377C58.5 70.513 58.5 70.4884 58.5 70.4639C58.5 70.4394 58.5 70.415 58.5 70.3908C58.5 70.3665 58.5 70.3423 58.5 70.3183C58.5 70.2943 58.5 70.2703 58.5 70.2465C58.5 70.2227 58.5 70.199 58.5 70.1755C58.5 70.1519 58.5 70.1284 58.5 70.1051C58.5 70.0817 58.5 70.0585 58.5 70.0354C58.5 70.0123 58.5 69.9893 58.5 69.9664C58.5 69.9435 58.5 69.9207 58.5 69.8981C58.5 69.8754 58.5 69.8529 58.5 69.8305C58.5 69.8081 58.5 69.7858 58.5 69.7636C58.5 69.7414 58.5 69.7194 58.5 69.6975C58.5 69.6755 58.5 69.6537 58.5 69.632C58.5 69.6103 58.5 69.5887 58.5 69.5673C58.5 69.5458 58.5 69.5245 58.5 69.5033C58.5 69.482 58.5 69.4609 58.5 69.44C58.5 69.419 58.5 69.3981 58.5 69.3774C58.5 69.3567 58.5 69.3361 58.5 69.3156C58.5 69.2951 58.5 69.2747 58.5 69.2545C58.5 69.2342 58.5 69.2141 58.5 69.1941C58.5 69.1741 58.5 69.1543 58.5 69.1345C58.5 69.1148 58.5 69.0951 58.5 69.0756C58.5 69.0561 58.5 69.0368 58.5 69.0175C58.5 68.9983 58.5 68.9791 58.5 68.9601C58.5 68.9411 58.5 68.9223 58.5 68.9035C58.5 68.8848 58.5 68.8661 58.5 68.8477C58.5 68.8292 58.5 68.8108 58.5 68.7926C58.5 68.7743 58.5 68.7562 58.5 68.7382C58.5 68.7202 58.5 68.7024 58.5 68.6847C58.5 68.6669 58.5 68.6493 58.5 68.6319C58.5 68.6144 58.5 68.597 58.5 68.5798C58.5 68.5626 58.5 68.5455 58.5 68.5286C58.5 68.5116 58.5 68.4948 58.5 68.4781C58.5 68.4614 58.5 68.4449 58.5 68.4284C58.5 68.412 58.5 68.3957 58.5 68.3796C58.5 68.3634 58.5 68.3474 58.5 68.3315C58.5 68.3155 58.5 68.2998 58.5 68.2841C58.5 68.2685 58.5 68.253 58.5 68.2376C58.5 68.2223 58.5 68.207 58.5 68.1919C58.5 68.1768 58.5 68.1618 58.5 68.147C58.5 68.1322 58.5 68.1175 58.5 68.1029C58.5 68.0884 58.5 68.0739 58.5 68.0596C58.5 68.0453 58.5 68.0312 58.5 68.0172C58.5 68.0031 58.5 67.9893 58.5 67.9755C58.5 67.9618 58.5 67.9481 58.5 67.9347C58.5 67.9212 58.5 67.9079 58.5 67.8947C58.5 67.8815 58.5 67.8684 58.5 67.8555C58.5 67.8425 58.5 67.8298 58.5 67.8171C58.5 67.8045 58.5 67.792 58.5 67.7796C58.5 67.7672 58.5 67.755 58.5 67.7429C58.5 67.7308 58.5 67.7189 58.5 67.7071C58.5 67.6953 58.5 67.6836 58.5 67.6721C58.5 67.6605 58.5 67.6492 58.5 67.6379C58.5 67.6267 58.5 67.6156 58.5 67.6046C58.5 67.5937 58.5 67.5828 58.5 67.5722C58.5 67.5615 58.5 67.551 58.5 67.5406C58.5 67.5302 58.5 67.5199 58.5 67.5098C58.5 67.4997 58.5 67.4898 58.5 67.48C58.5 67.4702 58.5 67.4605 58.5 67.451C58.5 67.4415 58.5 67.4321 58.5 67.4229C58.5 67.4136 58.5 67.4045 58.5 67.3956C58.5 67.3867 58.5 67.3779 58.5 67.3692C58.5 67.3606 58.5 67.3521 58.5 67.3437C58.5 67.3354 58.5 67.3272 58.5 67.3191C58.5 67.311 58.5 67.3031 58.5 67.2954C58.5 67.2876 58.5 67.28 58.5 67.2725C58.5 67.2651 58.5 67.2578 58.5 67.2506C58.5 67.2434 58.5 67.2364 58.5 67.2295C58.5 67.2227 58.5 67.216 58.5 67.2094C58.5 67.2028 58.5 67.1964 58.5 67.1901C58.5 67.1839 58.5 67.1778 58.5 67.1718C58.5 67.1658 58.5 67.16 58.5 67.1544C58.5 67.1487 58.5 67.1432 58.5 67.1379C58.5 67.1325 58.5 67.1273 58.5 67.1223C58.5 67.1172 58.5 67.1123 58.5 67.1076C58.5 67.1028 58.5 67.0982 58.5 67.0938C58.5 67.0894 58.5 67.0851 58.5 67.081C58.5 67.0769 58.5 67.0729 58.5 67.0691C58.5 67.0653 58.5 67.0616 58.5 67.0581C58.5 67.0546 58.5 67.0513 58.5 67.0481C58.5 67.0449 58.5 67.0419 58.5 67.039C58.5 67.0361 58.5 67.0334 58.5 67.0308C58.5 67.0283 58.5 67.0259 58.5 67.0236C58.5 67.0214 58.5 67.0193 58.5 67.0174C58.5 67.0155 58.5 67.0137 58.5 67.0121C58.5 67.0105 58.5 67.009 58.5 67.0077C58.5 67.0065 58.5 67.0053 58.5 67.0044C58.5 67.0034 58.5 67.0026 58.5 67.0019C58.5 67.0013 58.5 67.0008 58.5 67.0005C58.5 67.0002 58.5 67 54.5 67ZM50.5 120.5C50.5 121.824 49.9562 122.728 48.9694 123.434C47.864 124.225 46.1645 124.75 44.25 124.75C42.3355 124.75 40.636 124.225 39.5306 123.434C38.5438 122.728 38 121.824 38 120.5H30C30 124.676 32.0187 127.897 34.8757 129.941C37.614 131.9 41.0395 132.75 44.25 132.75C47.4605 132.75 50.886 131.9 53.6243 129.941C56.4813 127.897 58.5 124.676 58.5 120.5H50.5ZM58.5 120.5C58.5 116.324 56.4813 113.103 53.6243 111.059C50.886 109.1 47.4605 108.25 44.25 108.25C41.0395 108.25 37.614 109.1 34.8757 111.059C32.0187 113.103 30 116.324 30 120.5H38C38 119.176 38.5438 118.272 39.5306 117.566C40.636 116.775 42.3355 116.25 44.25 116.25C46.1645 116.25 47.864 116.775 48.9694 117.566C49.9562 118.272 50.5 119.176 50.5 120.5H58.5Z" fill="#FF4D35"/>
</svg>
