<svg width="100" height="100" viewBox="0 0 114 147" fill="none" xmlns="http://www.w3.org/2000/svg">
<path d="M57 4L59.8048 1.14813C59.0566 0.41234 58.0493 0 57 0V4ZM110 56.125H114C114 55.0526 113.569 54.0251 112.805 53.2731L110 56.125ZM22.8444 119.055L18.8444 119.055C18.8444 121.264 20.6353 123.055 22.8444 123.055V119.055ZM91.1556 119.055V123.055C93.3647 123.055 95.1556 121.264 95.1556 119.055H91.1556ZM22.8444 76.4202V72.4202C21.7836 72.4202 20.7662 72.8416 20.016 73.5917C19.2659 74.3419 18.8444 75.3593 18.8444 76.4202L22.8444 76.4202ZM91.1556 76.4202H95.1556C95.1556 74.211 93.3647 72.4202 91.1556 72.4202V76.4202ZM49 65H53C53 62.7909 51.2091 61 49 61V65ZM29.5 65V61C27.2909 61 25.5 62.7909 25.5 65H29.5ZM65 97.5C65 101.918 61.4183 105.5 57 105.5V113.5C65.8366 113.5 73 106.337 73 97.5H65ZM57 105.5C52.5817 105.5 49 101.918 49 97.5H41C41 106.337 48.1634 113.5 57 113.5V105.5ZM49 97.5C49 93.0817 52.5817 89.5 57 89.5V81.5C48.1634 81.5 41 88.6634 41 97.5H49ZM57 89.5C61.4183 89.5 65 93.0817 65 97.5H73C73 88.6634 65.8366 81.5 57 81.5V89.5ZM91.1556 139H22.8444V147H91.1556V139ZM8 124.311V22.6891H0V124.311H8ZM22.8444 8H57V0H22.8444V8ZM112.805 53.2731L59.8048 1.14813L54.1952 6.85187L107.195 58.9769L112.805 53.2731ZM22.8444 139C14.6148 139 8 132.392 8 124.311H0C0 136.873 10.2591 147 22.8444 147V139ZM91.1556 147C103.741 147 114 136.873 114 124.311H106C106 132.392 99.3852 139 91.1556 139V147ZM75.8444 52.125C67.6148 52.125 61 45.5173 61 37.4359H53C53 49.9979 63.2591 60.125 75.8444 60.125V52.125ZM8 22.6891C8 14.6077 14.6148 8 22.8444 8V0C10.2591 0 0 10.1271 0 22.6891H8ZM106 56.125V124.311H114V56.125H106ZM61 37.4359V4H53V37.4359H61ZM75.8444 60.125H110V52.125H75.8444V60.125ZM22.8444 123.055H91.1556V115.055H22.8444V123.055ZM18.8444 76.4202L18.8444 119.055L26.8444 119.055L26.8444 76.4202L18.8444 76.4202ZM87.1556 76.4202V119.055H95.1556V76.4202H87.1556ZM49 80.4202H91.1556V72.4202H49V80.4202ZM53 76.4202V65H45V76.4202H53ZM49 61H29.5V69H49V61ZM22.8444 80.4202H29.5V72.4202H22.8444V80.4202ZM29.5 80.4202H49V72.4202H29.5V80.4202ZM25.5 65V76.4202H33.5V65H25.5Z" fill="#FFA800"/>
</svg>
