<svg width="100" height="100" viewBox="0 0 114 147" fill="none" xmlns="http://www.w3.org/2000/svg">
<path d="M57 4L59.8048 1.14813C59.0566 0.41234 58.0493 0 57 0V4ZM110 56.125H114C114 55.0526 113.569 54.0251 112.805 53.2731L110 56.125ZM91.1556 139H22.8444V147H91.1556V139ZM8 124.311V22.6891H0V124.311H8ZM22.8444 8H57V0H22.8444V8ZM112.805 53.2731L59.8048 1.14813L54.1952 6.85187L107.195 58.9769L112.805 53.2731ZM22.8444 139C14.6148 139 8 132.392 8 124.311H0C0 136.873 10.2591 147 22.8444 147V139ZM91.1556 147C103.741 147 114 136.873 114 124.311H106C106 132.392 99.3852 139 91.1556 139V147ZM75.8444 52.125C67.6148 52.125 61 45.5173 61 37.4359H53C53 49.9979 63.2591 60.125 75.8444 60.125V52.125ZM8 22.6891C8 14.6077 14.6148 8 22.8444 8V0C10.2591 0 0 10.1271 0 22.6891H8ZM106 56.125V124.311H114V56.125H106ZM61 37.4359V4H53V37.4359H61ZM75.8444 60.125H110V52.125H75.8444V60.125Z" fill="#00F3C8"/>
<path d="M36.1067 105.822C35.9697 105.415 35.5883 105.141 35.159 105.141H26.3248C25.8943 105.141 25.5122 105.416 25.3761 105.824L23.8788 110.316C23.7427 110.725 23.3605 111 22.9301 111H18.8597C18.1625 111 17.6793 110.305 17.9225 109.651L27.764 83.2136C27.9097 82.8222 28.2834 82.5625 28.7011 82.5625H32.7426C33.1597 82.5625 33.5329 82.8213 33.6791 83.2119L43.575 109.649C43.8197 110.303 43.3364 111 42.6385 111H38.5686C38.1393 111 37.7578 110.726 37.6209 110.319L36.1067 105.822ZM27.6228 99.0793C27.4078 99.7267 27.8898 100.395 28.5719 100.395H32.9048C33.5882 100.395 34.0703 99.7241 33.8527 99.0762L31.6744 92.5888C31.3687 91.6783 30.0801 91.6804 29.7774 92.5919L27.6228 99.0793Z" fill="#00F3C8"/>
<path d="M48.1368 111C47.5845 111 47.1368 110.552 47.1368 110V83.5625C47.1368 83.0102 47.5845 82.5625 48.1368 82.5625H57.0978C60.5483 82.5625 63.1655 83.2266 64.9493 84.5547C66.7332 85.8698 67.6251 87.8034 67.6251 90.3555C67.6251 91.7487 67.267 92.9792 66.5509 94.0469C66.4193 94.2406 66.2783 94.4249 66.1279 94.5998C65.4916 95.3393 65.6066 97.1556 66.3201 97.821C66.5661 98.0504 66.7928 98.3028 67.0001 98.5781C67.8465 99.6849 68.2696 101.039 68.2696 102.641C68.2696 105.375 67.3972 107.445 65.6524 108.852C63.9076 110.258 61.4207 110.974 58.1915 111H48.1368ZM53.9962 98.6172C53.4439 98.6172 52.9962 99.0649 52.9962 99.6172V105.293C52.9962 105.845 53.4439 106.293 53.9962 106.293H58.0157C59.3959 106.293 60.4701 105.967 61.2384 105.316C62.0196 104.652 62.4103 103.741 62.4103 102.582C62.4103 99.9779 61.0626 98.6562 58.3673 98.6172H53.9962ZM52.9962 93.4766C52.9962 94.0288 53.4439 94.4766 53.9962 94.4766H57.3321C60.2879 94.4245 61.7657 93.2461 61.7657 90.9414C61.7657 89.6523 61.3881 88.7279 60.6329 88.168C59.8907 87.5951 58.7123 87.3086 57.0978 87.3086H53.9962C53.4439 87.3086 52.9962 87.7563 52.9962 88.3086V93.4766Z" fill="#00F3C8"/>
<path d="M94.333 101.527C94.9137 101.527 95.3764 102.022 95.2896 102.596C94.903 105.153 93.8096 107.206 92.0095 108.754C89.9782 110.512 87.2959 111.391 83.9626 111.391C80.3168 111.391 77.4457 110.167 75.3493 107.719C73.266 105.258 72.2243 101.885 72.2243 97.6016V95.8633C72.2243 93.1289 72.7061 90.7201 73.6696 88.6367C74.6332 86.5534 76.0069 84.9583 77.7907 83.8516C79.5876 82.7318 81.6709 82.1719 84.0407 82.1719C87.322 82.1719 89.9652 83.0508 91.9704 84.8086C93.7393 86.3593 94.8496 88.4622 95.3012 91.1173C95.4003 91.6999 94.9348 92.2109 94.3438 92.2109H90.5126C89.9905 92.2109 89.563 91.8075 89.4781 91.2924C89.2527 89.925 88.7749 88.9031 88.0446 88.2266C87.1722 87.3932 85.8376 86.9766 84.0407 86.9766C82.0876 86.9766 80.6228 87.6797 79.6462 89.0859C78.6826 90.4792 78.1879 92.6471 78.1618 95.5898V97.7383C78.1618 100.811 78.6241 103.057 79.5485 104.477C80.486 105.896 81.9574 106.605 83.9626 106.605C85.7725 106.605 87.1202 106.195 88.0056 105.375C88.7368 104.697 89.2135 103.721 89.4359 102.448C89.5259 101.932 89.953 101.527 90.4762 101.527H94.333Z" fill="#00F3C8"/>
</svg>
