<svg width="100" height="100" viewBox="0 0 114 147" fill="none" xmlns="http://www.w3.org/2000/svg">
<path d="M57 4L59.8048 1.14813C59.0566 0.41234 58.0493 0 57 0V4ZM110 56.125H114C114 55.0526 113.569 54.0251 112.805 53.2731L110 56.125ZM22.8444 115.055C20.6353 115.055 18.8444 116.845 18.8444 119.055C18.8444 121.264 20.6353 123.055 22.8444 123.055V115.055ZM91.1556 123.055C93.3647 123.055 95.1556 121.264 95.1556 119.055C95.1556 116.845 93.3647 115.055 91.1556 115.055V123.055ZM91.1556 139H22.8444V147H91.1556V139ZM8 124.311V22.6891H0V124.311H8ZM22.8444 8H57V0H22.8444V8ZM112.805 53.2731L59.8048 1.14813L54.1952 6.85187L107.195 58.9769L112.805 53.2731ZM22.8444 139C14.6148 139 8 132.392 8 124.311H0C0 136.873 10.2591 147 22.8444 147V139ZM91.1556 147C103.741 147 114 136.873 114 124.311H106C106 132.392 99.3852 139 91.1556 139V147ZM75.8444 52.125C67.6148 52.125 61 45.5173 61 37.4359H53C53 49.9979 63.2591 60.125 75.8444 60.125V52.125ZM8 22.6891C8 14.6077 14.6148 8 22.8444 8V0C10.2591 0 0 10.1271 0 22.6891H8ZM106 56.125V124.311H114V56.125H106ZM61 37.4359V4H53V37.4359H61ZM75.8444 60.125H110V52.125H75.8444V60.125ZM22.8444 123.055H91.1556V115.055H22.8444V123.055Z" fill="#2EB4FF"/>
<path d="M43.1641 83.7461C43.1641 84.2984 42.7163 84.7461 42.1641 84.7461H35.4531C34.9008 84.7461 34.4531 85.1938 34.4531 85.7461V107.438C34.4531 107.99 34.0054 108.438 33.4531 108.438H29.5938C29.0415 108.438 28.5938 107.99 28.5938 107.438V85.7461C28.5938 85.1938 28.146 84.7461 27.5938 84.7461H21C20.4477 84.7461 20 84.2984 20 83.7461V81C20 80.4477 20.4477 80 21 80H42.1641C42.7163 80 43.1641 80.4477 43.1641 81V83.7461Z" fill="#2EB4FF"/>
<path d="M56.2207 88.1893C56.5994 88.8856 57.599 88.8856 57.9777 88.1893L62.1472 80.5223C62.3223 80.2004 62.6593 80 63.0257 80H67.4226C68.1957 80 68.6764 80.8398 68.2849 81.5064L61.187 93.5929C61.0027 93.9067 61.0035 94.2959 61.1891 94.6091L68.4896 106.928C68.8846 107.594 68.4042 108.438 67.6293 108.438H63.1598C62.7948 108.438 62.4588 108.239 62.2832 107.919L57.9758 100.073C57.5961 99.3815 56.6024 99.3815 56.2226 100.073L51.9153 107.919C51.7396 108.239 51.4037 108.438 51.0387 108.438H46.5691C45.7943 108.438 45.3138 107.594 45.7089 106.928L53.0094 94.6091C53.195 94.2959 53.1957 93.9067 53.0114 93.5928L45.9135 81.5064C45.5221 80.8398 46.0028 80 46.7759 80H51.1727C51.5391 80 51.8762 80.2004 52.0512 80.5223L56.2207 88.1893Z" fill="#2EB4FF"/>
<path d="M94.1594 83.7461C94.1594 84.2984 93.7117 84.7461 93.1594 84.7461H86.4484C85.8962 84.7461 85.4484 85.1938 85.4484 85.7461V107.438C85.4484 107.99 85.0007 108.438 84.4484 108.438H80.5891C80.0368 108.438 79.5891 107.99 79.5891 107.438V85.7461C79.5891 85.1938 79.1413 84.7461 78.5891 84.7461H71.9953C71.443 84.7461 70.9953 84.2984 70.9953 83.7461V81C70.9953 80.4477 71.443 80 71.9953 80H93.1594C93.7117 80 94.1594 80.4477 94.1594 81V83.7461Z" fill="#2EB4FF"/>
</svg>
