<svg width="200" height="200" viewBox="0 0 200 200" fill="none" xmlns="http://www.w3.org/2000/svg">
<path d="M56.25 53.5C54.0409 53.5 52.25 55.2909 52.25 57.5C52.25 59.7091 54.0409 61.5 56.25 61.5V53.5ZM173 73.5V141.5H181V73.5H173ZM161 153.5H32V161.5H161V153.5ZM20 141.5V57.5H12V141.5H20ZM20 57.5V54H12V57.5H20ZM96.5 61.5H161V53.5H96.5V61.5ZM20 54C20 47.3726 25.3726 42 32 42V34C20.9543 34 12 42.9543 12 54H20ZM32 153.5C25.3726 153.5 20 148.127 20 141.5H12C12 152.546 20.9543 161.5 32 161.5V153.5ZM173 141.5C173 148.127 167.627 153.5 161 153.5V161.5C172.046 161.5 181 152.546 181 141.5H173ZM80.5 42C87.1274 42 92.5 47.3726 92.5 54H100.5C100.5 42.9543 91.5457 34 80.5 34V42ZM181 73.5C181 62.4543 172.046 53.5 161 53.5V61.5C167.627 61.5 173 66.8726 173 73.5H181ZM32 42H56.25V34H32V42ZM56.25 42H80.5V34H56.25V42ZM96.5 53.5H56.25V61.5H96.5V53.5ZM92.5 54V57.5H100.5V54H92.5Z" fill="#D170FF"/>
<path fill-rule="evenodd" clip-rule="evenodd" d="M148.694 168.932C153.824 168.932 157.984 164.74 157.984 159.568V96.3636C157.984 91.1922 153.824 87 148.694 87C143.563 87 105 87 105 87V168.932H117.484V190L123.29 180.344L129.677 190V168.932H148.694ZM117.484 123.284H144.194C146.599 123.284 148.548 125.249 148.548 127.673C148.548 130.097 146.599 132.062 144.194 132.062H117.484C115.079 132.062 113.129 130.097 113.129 127.673C113.129 125.249 115.079 123.284 117.484 123.284ZM139.258 94.0227H122.419C117.288 94.0227 113.129 98.215 113.129 103.386V110.409C113.129 115.58 117.288 119.773 122.419 119.773H139.258C144.389 119.773 148.548 115.58 148.548 110.409V103.386C148.548 98.215 144.389 94.0227 139.258 94.0227ZM117.484 134.989H144.194C146.599 134.989 148.548 136.954 148.548 139.378C148.548 141.802 146.599 143.767 144.194 143.767H117.484C115.079 143.767 113.129 141.802 113.129 139.378C113.129 136.954 115.079 134.989 117.484 134.989Z" fill="#B339EC"/>
<path d="M105 87H167.71C172.841 87 177 91.1922 177 96.3636V159.568C177 164.74 172.841 168.932 167.71 168.932H129.677M105 87V168.932H117.484V190L123.29 180.344L129.677 190V168.932M105 87C105 87 143.563 87 148.694 87C153.824 87 157.984 91.1922 157.984 96.3636V159.568C157.984 164.74 153.824 168.932 148.694 168.932H129.677M122.419 119.773H139.258C144.389 119.773 148.548 115.58 148.548 110.409V103.386C148.548 98.215 144.389 94.0227 139.258 94.0227H122.419C117.288 94.0227 113.129 98.215 113.129 103.386V110.409C113.129 115.58 117.288 119.773 122.419 119.773ZM117.484 132.062H144.194C146.599 132.062 148.548 130.097 148.548 127.673C148.548 125.249 146.599 123.284 144.194 123.284H117.484C115.079 123.284 113.129 125.249 113.129 127.673C113.129 130.097 115.079 132.062 117.484 132.062ZM117.484 134.989H144.194C146.599 134.989 148.548 136.954 148.548 139.378C148.548 141.802 146.599 143.767 144.194 143.767H117.484C115.079 143.767 113.129 141.802 113.129 139.378C113.129 136.954 115.079 134.989 117.484 134.989Z" stroke="#B339EC" stroke-width="6" stroke-linejoin="round"/>
</svg>
