<svg width="200" height="200" viewBox="0 0 200 200" fill="none" xmlns="http://www.w3.org/2000/svg">
<path d="M40.25 73.5L44.0176 74.8436C44.0309 74.8063 44.0436 74.7689 44.0558 74.7313L40.25 73.5ZM177 141.5L180.814 142.705C180.844 142.609 180.871 142.513 180.894 142.416L177 141.5ZM92.5 54C92.5 56.2091 94.2909 58 96.5 58C98.7091 58 100.5 56.2091 100.5 54H92.5ZM28.2324 95.2904C27.4904 97.3712 28.5756 99.6596 30.6564 100.402C32.7372 101.144 35.0255 100.058 35.7676 97.9776L28.2324 95.2904ZM192.92 73.8389L196.814 74.7551L192.92 73.8389ZM192.996 73.1507L196.995 73.065L192.996 73.1507ZM189.027 72.9228L173.106 140.584L180.894 142.416L196.814 74.7551L189.027 72.9228ZM161 153.5H32V161.5H161V153.5ZM96.5 61.5H177V53.5H96.5V61.5ZM44.0558 74.7313C45.3695 70.6708 46.9582 67.2716 48.9873 64.9357C50.8958 62.7386 53.1568 61.5 56.25 61.5V53.5C50.5067 53.5 46.1426 56.0114 42.9478 59.6893C39.8736 63.2284 37.8805 67.8292 36.4442 72.2687L44.0558 74.7313ZM32 153.5C25.3726 153.5 20 148.127 20 141.5H12C12 152.546 20.9543 161.5 32 161.5V153.5ZM173.186 140.295C171.736 144.885 170.153 148.225 168.21 150.393C166.434 152.375 164.26 153.5 161 153.5V161.5C166.577 161.5 170.903 159.375 174.168 155.732C177.265 152.275 179.264 147.615 180.814 142.705L173.186 140.295ZM80.5 42C87.1274 42 92.5 47.3726 92.5 54H100.5C100.5 42.9543 91.5457 34 80.5 34V42ZM196.995 73.065C196.763 62.2192 187.9 53.5 177 53.5V61.5C183.539 61.5 188.858 66.7316 188.997 73.2363L196.995 73.065ZM56.25 42H80.5V34H56.25V42ZM96.5 53.5H56.25V61.5H96.5V53.5ZM20 54C20 47.3726 25.3726 42 32 42V34C20.9543 34 12 42.9543 12 54H20ZM32 42H56.25V34H32V42ZM12 54V141.5H20V54H12ZM35.7676 97.9776L44.0176 74.8436L36.4824 72.1564L28.2324 95.2904L35.7676 97.9776ZM196.814 74.7551C196.934 74.2433 197.008 73.6735 196.995 73.065L188.997 73.2363C188.994 73.0904 189.012 72.9842 189.027 72.9228L196.814 74.7551Z" fill="#E8F9FF"/>
<path d="M173.229 123.612C172.737 123.912 161.694 129.847 161.829 142.222H161.834C161.977 156.993 175.844 161.911 176 161.975C175.873 162.313 173.775 168.981 168.685 175.869C164.284 181.823 159.724 187.743 152.528 187.864C145.45 187.994 143.176 183.988 135.089 183.988C127.002 183.988 124.478 187.751 117.787 187.994C110.845 188.237 105.554 181.565 101.116 175.638C92.0401 163.509 85.1067 141.36 94.421 126.415C99.035 118.987 107.303 114.286 116.272 114.161C123.09 114.051 129.531 118.418 133.694 118.418C137.864 118.418 145.697 113.162 153.915 113.937C157.355 114.066 167.022 115.217 173.229 123.612Z" stroke="#D6E0E3" stroke-width="8" stroke-linejoin="round"/>
<path d="M154.294 89C154.967 94.7186 152.475 100.464 148.793 104.599H148.797C145.102 108.726 139.06 111.939 133.132 111.514C132.328 105.897 135.32 100.061 138.736 96.3969C142.549 92.2656 148.982 89.2013 154.294 89Z" stroke="#D6E0E3" stroke-width="8" stroke-linejoin="round"/>
</svg>
