<svg width="200" height="200" viewBox="0 0 200 200" fill="none" xmlns="http://www.w3.org/2000/svg">
<path d="M56.25 53.5C54.0409 53.5 52.25 55.2909 52.25 57.5C52.25 59.7091 54.0409 61.5 56.25 61.5V53.5ZM173 73.5V141.5H181V73.5H173ZM161 153.5H32V161.5H161V153.5ZM20 141.5V57.5H12V141.5H20ZM20 57.5V54H12V57.5H20ZM96.5 61.5H161V53.5H96.5V61.5ZM20 54C20 47.3726 25.3726 42 32 42V34C20.9543 34 12 42.9543 12 54H20ZM32 153.5C25.3726 153.5 20 148.127 20 141.5H12C12 152.546 20.9543 161.5 32 161.5V153.5ZM173 141.5C173 148.127 167.627 153.5 161 153.5V161.5C172.046 161.5 181 152.546 181 141.5H173ZM80.5 42C87.1274 42 92.5 47.3726 92.5 54H100.5C100.5 42.9543 91.5457 34 80.5 34V42ZM181 73.5C181 62.4543 172.046 53.5 161 53.5V61.5C167.627 61.5 173 66.8726 173 73.5H181ZM32 42H56.25V34H32V42ZM56.25 42H80.5V34H56.25V42ZM96.5 53.5H56.25V61.5H96.5V53.5ZM92.5 54V57.5H100.5V54H92.5Z" fill="#84FFC4"/>
<path d="M148.221 183.464C150.174 185.417 153.34 185.417 155.292 183.464L192.464 146.292C194.417 144.34 194.417 141.174 192.464 139.221L182.452 129.209C181.504 128.261 179.968 128.261 179.02 129.209V129.209C178.516 129.713 178.27 130.414 178.276 131.127C178.309 135.012 176.843 138.908 173.878 141.872C168.014 147.736 158.506 147.736 152.642 141.872C146.777 136.007 146.777 126.499 152.642 120.635C155.606 117.671 159.501 116.205 163.386 116.237C164.099 116.243 164.8 115.998 165.305 115.493V115.493C166.252 114.546 166.252 113.009 165.305 112.062L155.292 102.049C153.34 100.096 150.174 100.096 148.221 102.049L136.81 113.46C136.146 114.124 135.07 114.124 134.406 113.46V113.46C134.008 113.062 133.839 112.494 133.911 111.937C134.482 107.482 133.057 102.82 129.635 99.3983C123.771 93.5339 114.263 93.5339 108.398 99.3983C102.534 105.263 102.534 114.771 108.398 120.635C112.143 124.379 117.372 125.733 122.191 124.696C122.635 124.6 123.103 124.722 123.425 125.043V125.043C123.923 125.541 123.923 126.348 123.425 126.845L111.049 139.221C109.096 141.174 109.096 144.34 111.049 146.292L148.221 183.464Z" stroke="#00E878" stroke-width="8" stroke-linejoin="round"/>
</svg>
