<svg width="173" height="151" viewBox="0 0 173 151" fill="none" xmlns="http://www.w3.org/2000/svg">
<path d="M44.25 19.3717C42.0409 19.3717 40.25 21.1508 40.25 23.3454C40.25 25.54 42.0409 27.3191 44.25 27.3191V19.3717ZM161 39.2401V106.793H169V39.2401H161ZM149 118.714H20V126.661H149V118.714ZM8 106.793V23.3454H0V106.793H8ZM8 23.3454V19.8684H0V23.3454H8ZM84.5 27.3191H149V19.3717H84.5V27.3191ZM8 19.8684C8 13.2846 13.3726 7.94737 20 7.94737V0C8.9543 0 0 8.89539 0 19.8684H8ZM20 118.714C13.3726 118.714 8 113.376 8 106.793H0C0 117.766 8.9543 126.661 20 126.661V118.714ZM161 106.793C161 113.376 155.627 118.714 149 118.714V126.661C160.046 126.661 169 117.766 169 106.793H161ZM68.5 7.94737C75.1274 7.94737 80.5 13.2846 80.5 19.8684H88.5C88.5 8.89539 79.5457 0 68.5 0V7.94737ZM169 39.2401C169 28.2671 160.046 19.3717 149 19.3717V27.3191C155.627 27.3191 161 32.6563 161 39.2401H169ZM20 7.94737H44.25V0H20V7.94737ZM44.25 7.94737H68.5V0H44.25V7.94737ZM84.5 19.3717H44.25V27.3191H84.5V19.3717ZM80.5 19.8684V23.3454H88.5V19.8684H80.5Z" fill="#B339EC"/>
<path d="M129 63.5789C140.67 63.5789 151.861 68.1842 160.113 76.3815C168.364 84.5788 173 95.6967 173 107.289C173 118.882 168.364 130 160.113 138.197C151.861 146.395 140.67 151 129 151C117.33 151 106.139 146.395 97.8873 138.197C89.6357 130 85 118.882 85 107.289C85 95.6967 89.6357 84.5788 97.8873 76.3815C106.139 68.1842 117.33 63.5789 129 63.5789ZM93.25 107.289C93.25 116.709 97.0165 125.742 103.721 132.402C110.425 139.063 119.519 142.804 129 142.804C138.481 142.804 147.575 139.063 154.279 132.402C160.983 125.742 164.75 116.709 164.75 107.289C164.75 97.8704 160.983 88.837 154.279 82.1767C147.575 75.5164 138.481 71.7747 129 71.7747C119.519 71.7747 110.425 75.5164 103.721 82.1767C97.0165 88.837 93.25 97.8704 93.25 107.289ZM120.085 92.1383L143.536 106.12C143.739 106.242 143.907 106.413 144.023 106.618C144.14 106.823 144.201 107.054 144.201 107.289C144.201 107.525 144.14 107.756 144.023 107.961C143.907 108.166 143.739 108.337 143.536 108.459L120.085 122.441C119.876 122.565 119.638 122.633 119.394 122.636C119.151 122.64 118.911 122.579 118.699 122.46C118.487 122.341 118.311 122.168 118.188 121.96C118.065 121.751 118 121.513 118 121.271V93.313C117.999 93.0707 118.063 92.8325 118.186 92.6229C118.308 92.4133 118.484 92.2398 118.697 92.1203C118.909 92.0007 119.149 91.9394 119.393 91.9425C119.637 91.9457 119.876 92.0133 120.085 92.1383Z" fill="white"/>
</svg>
