<svg width="204" height="200" viewBox="0 0 204 200" fill="none" xmlns="http://www.w3.org/2000/svg">
<path d="M40.25 73.5L44.0176 74.8436C44.0309 74.8063 44.0436 74.7689 44.0558 74.7313L40.25 73.5ZM177 141.5L180.814 142.705C180.844 142.609 180.871 142.513 180.894 142.416L177 141.5ZM92.5 54C92.5 56.2091 94.2909 58 96.5 58C98.7091 58 100.5 56.2091 100.5 54H92.5ZM28.2324 95.2904C27.4904 97.3712 28.5756 99.6596 30.6564 100.402C32.7372 101.144 35.0255 100.058 35.7676 97.9776L28.2324 95.2904ZM192.92 73.8389L196.814 74.7551L192.92 73.8389ZM192.996 73.1507L196.995 73.065L192.996 73.1507ZM189.027 72.9228L173.106 140.584L180.894 142.416L196.814 74.7551L189.027 72.9228ZM161 153.5H32V161.5H161V153.5ZM96.5 61.5H177V53.5H96.5V61.5ZM44.0558 74.7313C45.3695 70.6708 46.9582 67.2716 48.9873 64.9357C50.8958 62.7386 53.1568 61.5 56.25 61.5V53.5C50.5067 53.5 46.1426 56.0114 42.9478 59.6893C39.8736 63.2284 37.8805 67.8292 36.4442 72.2687L44.0558 74.7313ZM32 153.5C25.3726 153.5 20 148.127 20 141.5H12C12 152.546 20.9543 161.5 32 161.5V153.5ZM173.186 140.295C171.736 144.885 170.153 148.225 168.21 150.393C166.434 152.375 164.26 153.5 161 153.5V161.5C166.577 161.5 170.903 159.375 174.168 155.732C177.265 152.275 179.264 147.615 180.814 142.705L173.186 140.295ZM80.5 42C87.1274 42 92.5 47.3726 92.5 54H100.5C100.5 42.9543 91.5457 34 80.5 34V42ZM196.995 73.065C196.763 62.2192 187.9 53.5 177 53.5V61.5C183.539 61.5 188.858 66.7316 188.997 73.2363L196.995 73.065ZM56.25 42H80.5V34H56.25V42ZM96.5 53.5H56.25V61.5H96.5V53.5ZM20 54C20 47.3726 25.3726 42 32 42V34C20.9543 34 12 42.9543 12 54H20ZM32 42H56.25V34H32V42ZM12 54V141.5H20V54H12ZM35.7676 97.9776L44.0176 74.8436L36.4824 72.1564L28.2324 95.2904L35.7676 97.9776ZM196.814 74.7551C196.934 74.2433 197.008 73.6735 196.995 73.065L188.997 73.2363C188.994 73.0904 189.012 72.9842 189.027 72.9228L196.814 74.7551Z" fill="#FFD37E"/>
<path d="M136.351 165C147.231 165 156.052 156.096 156.052 145.113C156.052 144.741 156.041 144.372 156.022 144.005C155.665 137.455 152.169 131.749 147.026 128.395C143.95 126.389 140.285 125.225 136.351 125.225C131.807 125.225 127.623 126.778 124.29 129.386C119.642 133.024 116.649 138.716 116.649 145.113C116.649 156.096 125.47 165 136.351 165Z" fill="#FFA800"/>
<path d="M156.022 144.005C156.041 144.372 156.052 144.741 156.052 145.113C156.052 156.096 147.231 165 136.351 165C125.47 165 116.649 156.096 116.649 145.113C116.649 138.716 119.642 133.024 124.29 129.386M156.022 144.005C155.665 137.455 152.169 131.749 147.026 128.395M156.022 144.005L176.284 142.602M147.026 128.395C143.95 126.389 140.285 125.225 136.351 125.225C131.807 125.225 127.623 126.778 124.29 129.386M147.026 128.395L159.354 109.623M124.29 129.386L117.172 119.855M117.172 119.855C119.608 118.098 121.196 115.22 121.196 111.967C121.196 106.616 116.899 102.278 111.598 102.278C106.297 102.278 102 106.616 102 111.967C102 117.318 106.297 121.656 111.598 121.656C113.677 121.656 115.601 120.989 117.172 119.855ZM159.354 109.623C156.431 107.44 154.536 103.935 154.536 99.9834C154.536 93.3652 159.851 88 166.407 88C172.963 88 178.278 93.3652 178.278 99.9834C178.278 106.602 172.963 111.967 166.407 111.967C163.766 111.967 161.326 111.096 159.354 109.623ZM176.284 142.602C176.267 142.336 176.258 142.068 176.258 141.798C176.258 135.18 181.573 129.815 188.129 129.815C194.685 129.815 200 135.18 200 141.798C200 148.416 194.685 153.781 188.129 153.781C181.84 153.781 176.694 148.845 176.284 142.602Z" stroke="#FFA800" stroke-width="8"/>
</svg>
