<svg width="200" height="200" viewBox="0 0 200 200" fill="none" xmlns="http://www.w3.org/2000/svg">
<path d="M56.25 53.5C54.0409 53.5 52.25 55.2909 52.25 57.5C52.25 59.7091 54.0409 61.5 56.25 61.5V53.5ZM173 73.5V141.5H181V73.5H173ZM161 153.5H32V161.5H161V153.5ZM20 141.5V57.5H12V141.5H20ZM20 57.5V54H12V57.5H20ZM96.5 61.5H161V53.5H96.5V61.5ZM20 54C20 47.3726 25.3726 42 32 42V34C20.9543 34 12 42.9543 12 54H20ZM32 153.5C25.3726 153.5 20 148.127 20 141.5H12C12 152.546 20.9543 161.5 32 161.5V153.5ZM173 141.5C173 148.127 167.627 153.5 161 153.5V161.5C172.046 161.5 181 152.546 181 141.5H173ZM80.5 42C87.1274 42 92.5 47.3726 92.5 54H100.5C100.5 42.9543 91.5457 34 80.5 34V42ZM181 73.5C181 62.4543 172.046 53.5 161 53.5V61.5C167.627 61.5 173 66.8726 173 73.5H181ZM32 42H56.25V34H32V42ZM56.25 42H80.5V34H56.25V42ZM96.5 53.5H56.25V61.5H96.5V53.5ZM92.5 54V57.5H100.5V54H92.5Z" fill="#FF8575"/>
<path fill-rule="evenodd" clip-rule="evenodd" d="M136.641 154.764C137.668 153.737 139.332 153.737 140.359 154.764L163.825 178.23C164.852 179.257 166.516 179.257 167.542 178.23L178.23 167.542C179.257 166.516 179.257 164.852 178.23 163.825L154.764 140.359C153.737 139.332 153.737 137.668 154.764 136.641L178.23 113.175C179.257 112.148 179.257 110.484 178.23 109.458L167.542 98.7699C166.516 97.7434 164.852 97.7434 163.825 98.7699L140.359 122.236C139.332 123.263 137.668 123.263 136.641 122.236L113.175 98.7699C112.148 97.7434 110.484 97.7434 109.458 98.7699L98.7699 109.458C97.7434 110.484 97.7434 112.148 98.7699 113.175L122.236 136.641C123.263 137.668 123.263 139.332 122.236 140.359L98.7699 163.825C97.7434 164.852 97.7434 166.516 98.7699 167.542L109.458 178.23C110.484 179.257 112.148 179.257 113.175 178.23L136.641 154.764Z" stroke="#FF4D35" stroke-width="8"/>
</svg>
