<svg width="200" height="200" viewBox="0 0 200 200" fill="none" xmlns="http://www.w3.org/2000/svg">
<path d="M40.25 73.5L44.0176 74.8436C44.0309 74.8063 44.0436 74.7689 44.0558 74.7313L40.25 73.5ZM177 141.5L180.814 142.705C180.844 142.609 180.871 142.513 180.894 142.416L177 141.5ZM92.5 54C92.5 56.2091 94.2909 58 96.5 58C98.7091 58 100.5 56.2091 100.5 54H92.5ZM28.2324 95.2904C27.4904 97.3712 28.5756 99.6596 30.6564 100.402C32.7372 101.144 35.0255 100.058 35.7676 97.9776L28.2324 95.2904ZM192.92 73.8389L196.814 74.7551L192.92 73.8389ZM192.996 73.1507L196.995 73.065L192.996 73.1507ZM189.027 72.9228L173.106 140.584L180.894 142.416L196.814 74.7551L189.027 72.9228ZM161 153.5H32V161.5H161V153.5ZM96.5 61.5H177V53.5H96.5V61.5ZM44.0558 74.7313C45.3695 70.6708 46.9582 67.2716 48.9873 64.9357C50.8958 62.7386 53.1568 61.5 56.25 61.5V53.5C50.5067 53.5 46.1426 56.0114 42.9478 59.6893C39.8736 63.2284 37.8805 67.8292 36.4442 72.2687L44.0558 74.7313ZM32 153.5C25.3726 153.5 20 148.127 20 141.5H12C12 152.546 20.9543 161.5 32 161.5V153.5ZM173.186 140.295C171.736 144.885 170.153 148.225 168.21 150.393C166.434 152.375 164.26 153.5 161 153.5V161.5C166.577 161.5 170.903 159.375 174.168 155.732C177.265 152.275 179.264 147.615 180.814 142.705L173.186 140.295ZM80.5 42C87.1274 42 92.5 47.3726 92.5 54H100.5C100.5 42.9543 91.5457 34 80.5 34V42ZM196.995 73.065C196.763 62.2192 187.9 53.5 177 53.5V61.5C183.539 61.5 188.858 66.7316 188.997 73.2363L196.995 73.065ZM56.25 42H80.5V34H56.25V42ZM96.5 53.5H56.25V61.5H96.5V53.5ZM20 54C20 47.3726 25.3726 42 32 42V34C20.9543 34 12 42.9543 12 54H20ZM32 42H56.25V34H32V42ZM12 54V141.5H20V54H12ZM35.7676 97.9776L44.0176 74.8436L36.4824 72.1564L28.2324 95.2904L35.7676 97.9776ZM196.814 74.7551C196.934 74.2433 197.008 73.6735 196.995 73.065L188.997 73.2363C188.994 73.0904 189.012 72.9842 189.027 72.9228L196.814 74.7551Z" fill="#84FFC4"/>
<path d="M148.221 183.464C150.174 185.417 153.34 185.417 155.292 183.464L192.464 146.292C194.417 144.34 194.417 141.174 192.464 139.221L182.452 129.209C181.504 128.261 179.968 128.261 179.02 129.209V129.209C178.516 129.713 178.27 130.414 178.276 131.127C178.309 135.012 176.843 138.908 173.878 141.872C168.014 147.736 158.506 147.736 152.642 141.872C146.777 136.007 146.777 126.499 152.642 120.635C155.606 117.671 159.501 116.205 163.386 116.237C164.099 116.243 164.8 115.998 165.305 115.493V115.493C166.252 114.546 166.252 113.009 165.305 112.062L155.292 102.049C153.34 100.096 150.174 100.096 148.221 102.049L136.81 113.46C136.146 114.124 135.07 114.124 134.406 113.46V113.46C134.008 113.062 133.839 112.494 133.911 111.937C134.482 107.482 133.057 102.82 129.635 99.3983C123.771 93.5339 114.263 93.5339 108.398 99.3983C102.534 105.263 102.534 114.771 108.398 120.635C112.143 124.379 117.372 125.733 122.191 124.696C122.635 124.6 123.103 124.722 123.425 125.043V125.043C123.923 125.541 123.923 126.348 123.425 126.845L111.049 139.221C109.096 141.174 109.096 144.34 111.049 146.292L148.221 183.464Z" stroke="#00E878" stroke-width="8" stroke-linejoin="round"/>
</svg>
