<svg width="200" height="200" viewBox="0 0 200 200" fill="none" xmlns="http://www.w3.org/2000/svg">
<path d="M56.25 53.5C54.0409 53.5 52.25 55.2909 52.25 57.5C52.25 59.7091 54.0409 61.5 56.25 61.5V53.5ZM173 73.5V141.5H181V73.5H173ZM161 153.5H32V161.5H161V153.5ZM20 141.5V57.5H12V141.5H20ZM20 57.5V54H12V57.5H20ZM96.5 61.5H161V53.5H96.5V61.5ZM20 54C20 47.3726 25.3726 42 32 42V34C20.9543 34 12 42.9543 12 54H20ZM32 153.5C25.3726 153.5 20 148.127 20 141.5H12C12 152.546 20.9543 161.5 32 161.5V153.5ZM173 141.5C173 148.127 167.627 153.5 161 153.5V161.5C172.046 161.5 181 152.546 181 141.5H173ZM80.5 42C87.1274 42 92.5 47.3726 92.5 54H100.5C100.5 42.9543 91.5457 34 80.5 34V42ZM181 73.5C181 62.4543 172.046 53.5 161 53.5V61.5C167.627 61.5 173 66.8726 173 73.5H181ZM32 42H56.25V34H32V42ZM56.25 42H80.5V34H56.25V42ZM96.5 53.5H56.25V61.5H96.5V53.5ZM92.5 54V57.5H100.5V54H92.5Z" fill="#5C8AFF"/>
<path d="M92 95H193M92 95V164C92 167.866 95.134 171 99 171H186C189.866 171 193 167.866 193 164V95M92 95V108.583C92 112.449 95.134 115.583 99 115.583H186C189.866 115.583 193 112.449 193 108.583V95M185.786 105.292C185.786 107.769 183.825 109.778 181.406 109.778C178.987 109.778 177.026 107.769 177.026 105.292C177.026 102.814 178.987 100.806 181.406 100.806C183.825 100.806 185.786 102.814 185.786 105.292Z" stroke="#2B66FF" stroke-width="8" stroke-linejoin="round"/>
</svg>
