<svg width="200" height="200" viewBox="0 0 200 200" fill="none" xmlns="http://www.w3.org/2000/svg">
<path d="M56.25 53.5C54.0409 53.5 52.25 55.2909 52.25 57.5C52.25 59.7091 54.0409 61.5 56.25 61.5V53.5ZM173 73.5V141.5H181V73.5H173ZM161 153.5H32V161.5H161V153.5ZM20 141.5V57.5H12V141.5H20ZM20 57.5V54H12V57.5H20ZM96.5 61.5H161V53.5H96.5V61.5ZM20 54C20 47.3726 25.3726 42 32 42V34C20.9543 34 12 42.9543 12 54H20ZM32 153.5C25.3726 153.5 20 148.127 20 141.5H12C12 152.546 20.9543 161.5 32 161.5V153.5ZM173 141.5C173 148.127 167.627 153.5 161 153.5V161.5C172.046 161.5 181 152.546 181 141.5H173ZM80.5 42C87.1274 42 92.5 47.3726 92.5 54H100.5C100.5 42.9543 91.5457 34 80.5 34V42ZM181 73.5C181 62.4543 172.046 53.5 161 53.5V61.5C167.627 61.5 173 66.8726 173 73.5H181ZM32 42H56.25V34H32V42ZM56.25 42H80.5V34H56.25V42ZM96.5 53.5H56.25V61.5H96.5V53.5ZM92.5 54V57.5H100.5V54H92.5Z" fill="#FF8575"/>
<path d="M159.873 143.065C163.168 160.145 168.052 176.261 174.942 183.444C136.871 159.505 118.7 173.469 114.374 183.444C112.092 164.888 112.805 150.42 115.393 139.1" stroke="#FF4D35" stroke-width="8" stroke-linecap="round" stroke-linejoin="round"/>
<path d="M159.859 143.065C156.67 126.539 154.969 109.11 154.378 98C142.01 101.31 122.194 109.291 115.379 139.1C127.442 123.525 150.059 135.254 159.859 143.065Z" stroke="#FF4D35" stroke-width="8" stroke-linecap="round" stroke-linejoin="round"/>
<circle r="10.0946" transform="matrix(-1 0 0 1 137.087 134.052)" fill="#FF4D35"/>
</svg>
