<svg width="200" height="200" viewBox="0 0 200 200" fill="none" xmlns="http://www.w3.org/2000/svg">
<path d="M56.25 53.5C54.0409 53.5 52.25 55.2909 52.25 57.5C52.25 59.7091 54.0409 61.5 56.25 61.5V53.5ZM173 73.5V141.5H181V73.5H173ZM161 153.5H32V161.5H161V153.5ZM20 141.5V57.5H12V141.5H20ZM20 57.5V54H12V57.5H20ZM96.5 61.5H161V53.5H96.5V61.5ZM20 54C20 47.3726 25.3726 42 32 42V34C20.9543 34 12 42.9543 12 54H20ZM32 153.5C25.3726 153.5 20 148.127 20 141.5H12C12 152.546 20.9543 161.5 32 161.5V153.5ZM173 141.5C173 148.127 167.627 153.5 161 153.5V161.5C172.046 161.5 181 152.546 181 141.5H173ZM80.5 42C87.1274 42 92.5 47.3726 92.5 54H100.5C100.5 42.9543 91.5457 34 80.5 34V42ZM181 73.5C181 62.4543 172.046 53.5 161 53.5V61.5C167.627 61.5 173 66.8726 173 73.5H181ZM32 42H56.25V34H32V42ZM56.25 42H80.5V34H56.25V42ZM96.5 53.5H56.25V61.5H96.5V53.5ZM92.5 54V57.5H100.5V54H92.5Z" fill="#A852FF"/>
<path d="M115.626 98V94C113.417 94 111.626 95.7909 111.626 98H115.626ZM164.374 98H168.374C168.374 95.7909 166.583 94 164.374 94V98ZM164.374 131.677V135.677C166.583 135.677 168.374 133.887 168.374 131.677H164.374ZM115.626 131.677H111.626C111.626 133.887 113.417 135.677 115.626 135.677V131.677ZM87 164.723C84.7909 164.723 83 166.513 83 168.723C83 170.932 84.7909 172.723 87 172.723V164.723ZM193 172.723C195.209 172.723 197 170.932 197 168.723C197 166.513 195.209 164.723 193 164.723V172.723ZM152.439 168.723C152.439 175.466 146.907 181 140 181V189C151.251 189 160.439 179.959 160.439 168.723H152.439ZM140 181C133.093 181 127.562 175.466 127.562 168.723H119.562C119.562 179.959 128.749 189 140 189V181ZM127.562 168.723C127.562 161.979 133.093 156.445 140 156.445V148.445C128.749 148.445 119.562 157.487 119.562 168.723H127.562ZM140 156.445C146.907 156.445 152.439 161.979 152.439 168.723H160.439C160.439 157.487 151.251 148.445 140 148.445V156.445ZM115.626 102H164.374V94H115.626V102ZM160.374 98V131.677H168.374V98H160.374ZM119.626 131.677V98H111.626V131.677H119.626ZM164.374 127.677H140V135.677H164.374V127.677ZM140 127.677H115.626V135.677H140V127.677ZM136 131.677V152.445H144V131.677H136ZM123.562 164.723H87V172.723H123.562V164.723ZM193 164.723H156.439V172.723H193V164.723Z" fill="#8710FF"/>
</svg>
