<svg width="185" height="151" viewBox="0 0 185 151" fill="none" xmlns="http://www.w3.org/2000/svg">
<path d="M28.25 40.0301L32.0176 41.3917C32.0309 41.3539 32.0436 41.316 32.0558 41.2779L28.25 40.0301ZM165 108.943L168.814 110.164C168.844 110.067 168.871 109.969 168.894 109.871L165 108.943ZM80.5 20.2684C80.5 22.5072 82.2909 24.3221 84.5 24.3221C86.7091 24.3221 88.5 22.5072 88.5 20.2684H80.5ZM16.2324 62.1129C15.4904 64.2217 16.5756 66.5408 18.6564 67.2931C20.7372 68.0451 23.0255 66.9445 23.7676 64.8362L16.2324 62.1129ZM177.027 39.4452L161.106 108.014L168.894 109.871L184.814 41.302L177.027 39.4452ZM149 121.104H20V129.211H149V121.104ZM84.5 27.8691H165V19.7617H84.5V27.8691ZM32.0558 41.2779C33.3695 37.1629 34.9582 33.7181 36.9873 31.3509C38.8958 29.1243 41.1568 27.8691 44.25 27.8691V19.7617C38.5067 19.7617 34.1426 22.3068 30.9478 26.0341C27.8736 29.6207 25.8805 34.2832 24.4442 38.7823L32.0558 41.2779ZM20 121.104C13.3726 121.104 8 115.659 8 108.943H0C0 120.137 8.9543 129.211 20 129.211V121.104ZM161.186 107.722C159.736 112.373 158.153 115.758 156.21 117.955C154.434 119.964 152.26 121.104 149 121.104V129.211C154.577 129.211 158.903 127.058 162.168 123.366C165.265 119.862 167.264 115.14 168.814 110.164L161.186 107.722ZM68.5 8.10736C75.1274 8.10736 80.5 13.5521 80.5 20.2684H88.5C88.5 9.07447 79.5457 0 68.5 0V8.10736ZM184.995 39.5893C184.763 28.5979 175.9 19.7617 165 19.7617V27.8691C171.539 27.8691 176.858 33.1709 176.997 39.7629L184.995 39.5893ZM44.25 8.10736H68.5V0H44.25V8.10736ZM84.5 19.7617H44.25V27.8691H84.5V19.7617ZM8 20.2684C8 13.5521 13.3726 8.10736 20 8.10736V0C8.9543 0 0 9.07447 0 20.2684H8ZM20 8.10736H44.25V0H20V8.10736ZM0 20.2684V108.943H8V20.2684H0ZM23.7676 64.8362L32.0176 41.3917L24.4824 38.6685L16.2324 62.1129L23.7676 64.8362ZM184.814 41.302C184.934 40.7834 185.008 40.2059 184.995 39.5893L176.997 39.7629C176.994 39.615 177.012 39.5074 177.027 39.4452L184.814 41.302Z" fill="#524E5A"/>
<path fill-rule="evenodd" clip-rule="evenodd" d="M128.869 62.8321C104.611 62.8321 85 83.0371 85 108.034C85 128.015 97.5651 144.928 114.996 150.914C117.176 151.364 117.974 149.942 117.974 148.745C117.974 147.697 117.902 144.105 117.902 140.363C105.699 143.057 103.158 134.974 103.158 134.974C101.196 129.736 98.2907 128.389 98.2907 128.389C94.2966 125.62 98.5816 125.62 98.5816 125.62C103.012 125.92 105.337 130.26 105.337 130.26C109.258 137.144 115.577 135.199 118.119 134.002C118.482 131.083 119.645 129.062 120.88 127.94C111.147 126.892 100.906 123.001 100.906 105.638C100.906 100.699 102.648 96.6581 105.409 93.5153C104.973 92.393 103.448 87.7523 105.845 81.541C105.845 81.541 109.549 80.3434 117.901 86.1809C121.477 85.1914 125.165 84.6881 128.869 84.6838C132.573 84.6838 136.349 85.2083 139.836 86.1809C148.188 80.3434 151.893 81.541 151.893 81.541C154.29 87.7523 152.764 92.393 152.328 93.5153C155.161 96.6581 156.831 100.699 156.831 105.638C156.831 123.001 146.591 126.817 136.785 127.94C138.384 129.362 139.763 132.056 139.763 136.322C139.763 142.383 139.691 147.248 139.691 148.744C139.691 149.942 140.49 151.364 142.669 150.915C160.1 144.927 172.665 128.015 172.665 108.034C172.737 83.0371 153.055 62.8321 128.869 62.8321Z" fill="white"/>
</svg>
