<svg width="200" height="200" viewBox="0 0 200 200" fill="none" xmlns="http://www.w3.org/2000/svg">
<path d="M56.25 53.5C54.0409 53.5 52.25 55.2909 52.25 57.5C52.25 59.7091 54.0409 61.5 56.25 61.5V53.5ZM173 73.5V141.5H181V73.5H173ZM161 153.5H32V161.5H161V153.5ZM20 141.5V57.5H12V141.5H20ZM20 57.5V54H12V57.5H20ZM96.5 61.5H161V53.5H96.5V61.5ZM20 54C20 47.3726 25.3726 42 32 42V34C20.9543 34 12 42.9543 12 54H20ZM32 153.5C25.3726 153.5 20 148.127 20 141.5H12C12 152.546 20.9543 161.5 32 161.5V153.5ZM173 141.5C173 148.127 167.627 153.5 161 153.5V161.5C172.046 161.5 181 152.546 181 141.5H173ZM80.5 42C87.1274 42 92.5 47.3726 92.5 54H100.5C100.5 42.9543 91.5457 34 80.5 34V42ZM181 73.5C181 62.4543 172.046 53.5 161 53.5V61.5C167.627 61.5 173 66.8726 173 73.5H181ZM32 42H56.25V34H32V42ZM56.25 42H80.5V34H56.25V42ZM96.5 53.5H56.25V61.5H96.5V53.5ZM92.5 54V57.5H100.5V54H92.5Z" fill="#80D1FF"/>
<path d="M111.3 120.038V116.038C109.091 116.038 107.3 117.829 107.3 120.038H111.3ZM120.09 120.038H124.09C124.09 117.829 122.3 116.038 120.09 116.038V120.038ZM120.09 128.853V132.853C122.3 132.853 124.09 131.062 124.09 128.853H120.09ZM111.3 128.853H107.3C107.3 131.062 109.091 132.853 111.3 132.853V128.853ZM120.09 105V101C117.881 101 116.09 102.791 116.09 105H120.09ZM128.881 105H132.881C132.881 102.791 131.09 101 128.881 101V105ZM128.881 113.815V117.815C131.09 117.815 132.881 116.024 132.881 113.815H128.881ZM120.09 113.815H116.09C116.09 116.024 117.881 117.815 120.09 117.815V113.815ZM139.74 105V101C137.531 101 135.74 102.791 135.74 105H139.74ZM148.53 105H152.53C152.53 102.791 150.739 101 148.53 101V105ZM148.53 113.815V117.815C150.739 117.815 152.53 116.024 152.53 113.815H148.53ZM139.74 113.815H135.74C135.74 116.024 137.531 117.815 139.74 117.815V113.815ZM149.564 120.038V116.038C147.355 116.038 145.564 117.829 145.564 120.038H149.564ZM158.355 120.038H162.355C162.355 117.829 160.564 116.038 158.355 116.038V120.038ZM158.355 128.853V132.853C160.564 132.853 162.355 131.062 162.355 128.853H158.355ZM149.564 128.853H145.564C145.564 131.062 147.355 132.853 149.564 132.853V128.853ZM130.432 120.038V116.038C128.223 116.038 126.432 117.829 126.432 120.038H130.432ZM139.223 120.038H143.223C143.223 117.829 141.432 116.038 139.223 116.038V120.038ZM139.223 128.853V132.853C141.432 132.853 143.223 131.062 143.223 128.853H139.223ZM130.432 128.853H126.432C126.432 131.062 128.223 132.853 130.432 132.853V128.853ZM171.024 133.001L167.101 132.219V132.219L171.024 133.001ZM172.316 115.371L174.125 111.803C172.36 110.908 170.206 111.439 169.058 113.05L172.316 115.371ZM180.59 126.26L176.593 126.411C176.636 127.564 177.176 128.642 178.072 129.368C178.968 130.094 180.135 130.398 181.271 130.202L180.59 126.26ZM193 128.594L196.943 129.268C197.197 127.779 196.592 126.274 195.377 125.376L193 128.594ZM178.522 138.187L178.361 134.19C176.476 134.265 174.901 135.647 174.58 137.506L178.522 138.187ZM98.3727 146.742L94.3768 146.924L98.3727 146.742ZM111.3 124.038H120.09V116.038H111.3V124.038ZM116.09 120.038V128.853H124.09V120.038H116.09ZM120.09 124.853H111.3V132.853H120.09V124.853ZM115.3 128.853V120.038H107.3V128.853H115.3ZM120.09 109H128.881V101H120.09V109ZM124.881 105V113.815H132.881V105H124.881ZM128.881 109.815H120.09V117.815H128.881V109.815ZM124.09 113.815V105H116.09V113.815H124.09ZM139.74 109H148.53V101H139.74V109ZM144.53 105V113.815H152.53V105H144.53ZM148.53 109.815H139.74V117.815H148.53V109.815ZM143.74 113.815V105H135.74V113.815H143.74ZM149.564 124.038H158.355V116.038H149.564V124.038ZM154.355 120.038V128.853H162.355V120.038H154.355ZM158.355 124.853H149.564V132.853H158.355V124.853ZM153.564 128.853V120.038H145.564V128.853H153.564ZM130.432 124.038H139.223V116.038H130.432V124.038ZM135.223 120.038V128.853H143.223V120.038H135.223ZM139.223 124.853H130.432V132.853H139.223V124.853ZM134.432 128.853V120.038H126.432V128.853H134.432ZM102.509 139.075H162.233V131.075H102.509V139.075ZM162.233 139.075C164.127 139.075 166.564 138.772 168.566 138.335C169.563 138.118 170.62 137.832 171.52 137.462C171.956 137.283 172.525 137.016 173.064 136.625C173.47 136.33 174.618 135.432 174.946 133.783L167.101 132.219C167.378 130.829 168.31 130.19 168.364 130.151C168.551 130.015 168.634 129.999 168.479 130.063C168.196 130.179 167.65 130.347 166.862 130.519C165.297 130.86 163.442 131.075 162.233 131.075V139.075ZM174.946 133.783C175.059 133.22 175.043 132.711 175.035 132.5C175.025 132.217 174.999 131.93 174.973 131.677C174.92 131.177 174.835 130.552 174.755 129.943C174.587 128.664 174.395 127.142 174.307 125.524C174.116 122.02 174.501 119.198 175.574 117.691L169.058 113.05C166.254 116.988 166.121 122.334 166.319 125.959C166.425 127.906 166.653 129.69 166.824 130.987C166.913 131.667 166.978 132.147 167.016 132.513C167.035 132.692 167.04 132.777 167.041 132.798C167.045 132.892 167.021 132.62 167.101 132.219L174.946 133.783ZM172.316 115.371C170.508 118.939 170.507 118.938 170.506 118.938C170.506 118.937 170.505 118.937 170.504 118.937C170.503 118.936 170.501 118.935 170.5 118.935C170.498 118.934 170.497 118.933 170.495 118.932C170.493 118.931 170.492 118.931 170.493 118.931C170.496 118.932 170.505 118.937 170.521 118.946C170.552 118.963 170.61 118.994 170.69 119.039C170.851 119.13 171.098 119.276 171.404 119.473C172.023 119.872 172.841 120.458 173.651 121.202C175.367 122.777 176.523 124.564 176.593 126.411L184.587 126.109C184.398 121.129 181.417 117.471 179.061 115.308C177.835 114.183 176.634 113.327 175.742 112.751C175.292 112.461 174.911 112.236 174.633 112.078C174.493 111.999 174.378 111.936 174.292 111.891C174.249 111.868 174.214 111.849 174.186 111.834C174.172 111.827 174.159 111.821 174.149 111.815C174.144 111.813 174.14 111.81 174.135 111.808C174.133 111.807 174.131 111.806 174.13 111.805C174.129 111.805 174.128 111.804 174.127 111.804C174.126 111.803 174.125 111.803 172.316 115.371ZM181.271 130.202C182.155 130.049 183.886 129.921 185.784 130.148C187.709 130.377 189.425 130.926 190.623 131.811L195.377 125.376C192.645 123.358 189.406 122.523 186.733 122.204C184.034 121.882 181.524 122.039 179.908 122.319L181.271 130.202ZM189.057 127.92C188.864 129.05 186.849 133.849 178.361 134.19L178.682 142.183C190.878 141.694 196.102 134.186 196.943 129.268L189.057 127.92ZM174.58 137.506C173.634 142.985 169.136 150.292 161.529 156.31C154.028 162.243 143.895 166.595 132.242 166.595V174.595C145.926 174.595 157.77 169.484 166.492 162.584C175.109 155.768 181.082 146.87 182.463 138.867L174.58 137.506ZM132.242 166.595C116.805 166.595 109.728 162.287 106.343 158.241C102.853 154.068 102.492 149.278 102.369 146.561L94.3768 146.924C94.5122 149.91 94.914 157.047 100.207 163.374C105.607 169.829 115.335 174.595 132.242 174.595V166.595ZM102.369 146.561C102.304 145.127 102.139 143.377 102.065 142.252C101.979 140.928 101.976 140.006 102.072 139.35C102.167 138.702 102.293 138.789 102.064 139.005C101.782 139.271 101.683 139.075 102.509 139.075V131.075C100.362 131.075 98.2279 131.625 96.5725 133.187C94.9699 134.7 94.3847 136.633 94.1565 138.189C93.9295 139.737 93.991 141.376 94.0822 142.774C94.1866 144.371 94.3125 145.505 94.3768 146.924L102.369 146.561Z" fill="#2EB4FF"/>
</svg>
