<svg width="200" height="200" viewBox="0 0 200 200" fill="none" xmlns="http://www.w3.org/2000/svg">
<path d="M56.25 53.5C54.0409 53.5 52.25 55.2909 52.25 57.5C52.25 59.7091 54.0409 61.5 56.25 61.5V53.5ZM173 73.5V141.5H181V73.5H173ZM161 153.5H32V161.5H161V153.5ZM20 141.5V57.5H12V141.5H20ZM20 57.5V54H12V57.5H20ZM96.5 61.5H161V53.5H96.5V61.5ZM20 54C20 47.3726 25.3726 42 32 42V34C20.9543 34 12 42.9543 12 54H20ZM32 153.5C25.3726 153.5 20 148.127 20 141.5H12C12 152.546 20.9543 161.5 32 161.5V153.5ZM173 141.5C173 148.127 167.627 153.5 161 153.5V161.5C172.046 161.5 181 152.546 181 141.5H173ZM80.5 42C87.1274 42 92.5 47.3726 92.5 54H100.5C100.5 42.9543 91.5457 34 80.5 34V42ZM181 73.5C181 62.4543 172.046 53.5 161 53.5V61.5C167.627 61.5 173 66.8726 173 73.5H181ZM32 42H56.25V34H32V42ZM56.25 42H80.5V34H56.25V42ZM96.5 53.5H56.25V61.5H96.5V53.5ZM92.5 54V57.5H100.5V54H92.5Z" fill="#00E878"/>
<path d="M141.167 103.094H181.597V145.297H141.167V103.094Z" fill="#D6E0E3"/>
<path d="M165.653 169C167.225 169 168.5 167.706 168.5 166.109V164.375C168.5 162.779 167.225 161.484 165.653 161.484H163.944C162.372 161.484 161.097 160.19 161.097 158.594V152.812H134.903V158.594C134.903 160.19 133.628 161.484 132.056 161.484H130.347C128.775 161.484 127.5 162.779 127.5 164.375V166.109C127.5 167.706 128.775 169 130.347 169H165.653Z" fill="#D6E0E3"/>
<path d="M134.903 152.812H161.097M134.903 152.812V158.594C134.903 160.19 133.628 161.484 132.056 161.484H130.347C128.775 161.484 127.5 162.779 127.5 164.375V166.109C127.5 167.706 128.775 169 130.347 169H165.653C167.225 169 168.5 167.706 168.5 166.109V164.375C168.5 162.779 167.225 161.484 165.653 161.484H163.944C162.372 161.484 161.097 160.19 161.097 158.594V152.812M134.903 152.812H109.847C108.275 152.812 107 151.518 107 149.922V97.8906C107 96.2942 108.275 95 109.847 95H186.153C187.725 95 189 96.2942 189 97.8906V149.922C189 151.518 187.725 152.812 186.153 152.812H161.097M141.167 103.094H181.597V145.297H141.167V103.094Z" stroke="#D6E0E3" stroke-width="6" stroke-linejoin="round"/>
</svg>
