<svg width="200" height="200" viewBox="0 0 200 200" fill="none" xmlns="http://www.w3.org/2000/svg">
<path d="M40.25 73.5L44.0176 74.8436C44.0309 74.8063 44.0436 74.7689 44.0558 74.7313L40.25 73.5ZM177 141.5L180.814 142.705C180.844 142.609 180.871 142.513 180.894 142.416L177 141.5ZM92.5 54C92.5 56.2091 94.2909 58 96.5 58C98.7091 58 100.5 56.2091 100.5 54H92.5ZM28.2324 95.2904C27.4904 97.3712 28.5756 99.6596 30.6564 100.402C32.7372 101.144 35.0255 100.058 35.7676 97.9776L28.2324 95.2904ZM192.92 73.8389L196.814 74.7551L192.92 73.8389ZM192.996 73.1507L196.995 73.065L192.996 73.1507ZM189.027 72.9228L173.106 140.584L180.894 142.416L196.814 74.7551L189.027 72.9228ZM161 153.5H32V161.5H161V153.5ZM96.5 61.5H177V53.5H96.5V61.5ZM44.0558 74.7313C45.3695 70.6708 46.9582 67.2716 48.9873 64.9357C50.8958 62.7386 53.1568 61.5 56.25 61.5V53.5C50.5067 53.5 46.1426 56.0114 42.9478 59.6893C39.8736 63.2284 37.8805 67.8292 36.4442 72.2687L44.0558 74.7313ZM32 153.5C25.3726 153.5 20 148.127 20 141.5H12C12 152.546 20.9543 161.5 32 161.5V153.5ZM173.186 140.295C171.736 144.885 170.153 148.225 168.21 150.393C166.434 152.375 164.26 153.5 161 153.5V161.5C166.577 161.5 170.903 159.375 174.168 155.732C177.265 152.275 179.264 147.615 180.814 142.705L173.186 140.295ZM80.5 42C87.1274 42 92.5 47.3726 92.5 54H100.5C100.5 42.9543 91.5457 34 80.5 34V42ZM196.995 73.065C196.763 62.2192 187.9 53.5 177 53.5V61.5C183.539 61.5 188.858 66.7316 188.997 73.2363L196.995 73.065ZM56.25 42H80.5V34H56.25V42ZM96.5 53.5H56.25V61.5H96.5V53.5ZM20 54C20 47.3726 25.3726 42 32 42V34C20.9543 34 12 42.9543 12 54H20ZM32 42H56.25V34H32V42ZM12 54V141.5H20V54H12ZM35.7676 97.9776L44.0176 74.8436L36.4824 72.1564L28.2324 95.2904L35.7676 97.9776ZM196.814 74.7551C196.934 74.2433 197.008 73.6735 196.995 73.065L188.997 73.2363C188.994 73.0904 189.012 72.9842 189.027 72.9228L196.814 74.7551Z" fill="#80D1FF"/>
<path d="M105.279 118.789V176.211H93.449V118.789H105.279ZM123.005 118.789V128.057H76V118.789H123.005Z" fill="#2EB4FF"/>
<path d="M159.13 161.185C159.13 160.16 158.972 159.24 158.655 158.424C158.365 157.583 157.811 156.821 156.993 156.137C156.176 155.427 155.028 154.73 153.551 154.047C152.074 153.363 150.161 152.653 147.814 151.917C145.202 151.076 142.723 150.129 140.375 149.078C138.054 148.026 135.997 146.803 134.203 145.41C132.436 143.99 131.037 142.347 130.009 140.48C129.006 138.613 128.505 136.444 128.505 133.973C128.505 131.58 129.033 129.411 130.088 127.465C131.143 125.493 132.62 123.811 134.519 122.417C136.419 120.997 138.661 119.906 141.246 119.144C143.857 118.381 146.719 118 149.832 118C154.079 118 157.785 118.762 160.95 120.287C164.115 121.812 166.569 123.903 168.309 126.558C170.077 129.214 170.96 132.25 170.96 135.668H159.17C159.17 133.986 158.813 132.513 158.101 131.251C157.415 129.963 156.36 128.951 154.936 128.215C153.538 127.478 151.771 127.11 149.634 127.11C147.576 127.11 145.862 127.426 144.49 128.057C143.119 128.662 142.09 129.49 141.404 130.541C140.718 131.567 140.375 132.724 140.375 134.012C140.375 134.985 140.613 135.866 141.087 136.654C141.589 137.443 142.327 138.179 143.303 138.863C144.279 139.547 145.479 140.191 146.904 140.795C148.328 141.4 149.977 141.992 151.85 142.57C154.989 143.517 157.745 144.582 160.119 145.765C162.52 146.948 164.524 148.276 166.133 149.748C167.742 151.22 168.956 152.89 169.773 154.757C170.591 156.623 171 158.74 171 161.106C171 163.604 170.512 165.839 169.536 167.811C168.56 169.783 167.149 171.452 165.302 172.82C163.456 174.187 161.253 175.225 158.695 175.935C156.136 176.645 153.274 177 150.109 177C147.26 177 144.451 176.632 141.681 175.896C138.911 175.133 136.392 173.99 134.124 172.465C131.882 170.94 130.088 168.994 128.743 166.628C127.397 164.261 126.725 161.461 126.725 158.227H138.634C138.634 160.015 138.911 161.527 139.465 162.763C140.019 163.998 140.797 164.998 141.8 165.76C142.828 166.523 144.042 167.075 145.44 167.416C146.864 167.758 148.421 167.929 150.109 167.929C152.166 167.929 153.854 167.64 155.173 167.061C156.519 166.483 157.508 165.681 158.141 164.656C158.8 163.63 159.13 162.473 159.13 161.185Z" fill="#2EB4FF"/>
</svg>
