<svg width="200" height="200" viewBox="0 0 200 200" fill="none" xmlns="http://www.w3.org/2000/svg">
<path d="M40.25 73.5L44.0176 74.8436C44.0309 74.8063 44.0436 74.7689 44.0558 74.7313L40.25 73.5ZM177 141.5L180.814 142.705C180.844 142.609 180.871 142.513 180.894 142.416L177 141.5ZM92.5 54C92.5 56.2091 94.2909 58 96.5 58C98.7091 58 100.5 56.2091 100.5 54H92.5ZM28.2324 95.2904C27.4904 97.3712 28.5756 99.6596 30.6564 100.402C32.7372 101.144 35.0255 100.058 35.7676 97.9776L28.2324 95.2904ZM192.92 73.8389L196.814 74.7551L192.92 73.8389ZM192.996 73.1507L196.995 73.065L192.996 73.1507ZM189.027 72.9228L173.106 140.584L180.894 142.416L196.814 74.7551L189.027 72.9228ZM161 153.5H32V161.5H161V153.5ZM96.5 61.5H177V53.5H96.5V61.5ZM44.0558 74.7313C45.3695 70.6708 46.9582 67.2716 48.9873 64.9357C50.8958 62.7386 53.1568 61.5 56.25 61.5V53.5C50.5067 53.5 46.1426 56.0114 42.9478 59.6893C39.8736 63.2284 37.8805 67.8292 36.4442 72.2687L44.0558 74.7313ZM32 153.5C25.3726 153.5 20 148.127 20 141.5H12C12 152.546 20.9543 161.5 32 161.5V153.5ZM173.186 140.295C171.736 144.885 170.153 148.225 168.21 150.393C166.434 152.375 164.26 153.5 161 153.5V161.5C166.577 161.5 170.903 159.375 174.168 155.732C177.265 152.275 179.264 147.615 180.814 142.705L173.186 140.295ZM80.5 42C87.1274 42 92.5 47.3726 92.5 54H100.5C100.5 42.9543 91.5457 34 80.5 34V42ZM196.995 73.065C196.763 62.2192 187.9 53.5 177 53.5V61.5C183.539 61.5 188.858 66.7316 188.997 73.2363L196.995 73.065ZM56.25 42H80.5V34H56.25V42ZM96.5 53.5H56.25V61.5H96.5V53.5ZM20 54C20 47.3726 25.3726 42 32 42V34C20.9543 34 12 42.9543 12 54H20ZM32 42H56.25V34H32V42ZM12 54V141.5H20V54H12ZM35.7676 97.9776L44.0176 74.8436L36.4824 72.1564L28.2324 95.2904L35.7676 97.9776ZM196.814 74.7551C196.934 74.2433 197.008 73.6735 196.995 73.065L188.997 73.2363C188.994 73.0904 189.012 72.9842 189.027 72.9228L196.814 74.7551Z" fill="#84FFC4"/>
<path d="M129.853 90.896C131.923 89.7013 134.472 89.7013 136.541 90.896L166.051 107.933C168.12 109.128 169.394 111.336 169.394 113.725V147.8C169.394 150.189 168.12 152.397 166.051 153.591L136.541 170.629C134.472 171.823 131.923 171.823 129.853 170.629L100.344 153.591C98.2746 152.397 97 150.189 97 147.8V113.725C97 111.336 98.2746 109.128 100.344 107.933L129.853 90.896Z" stroke="#00E878" stroke-width="8"/>
<path d="M122.513 115.312H129.003V137.119C129.003 139.123 128.556 140.897 127.662 142.44C126.782 143.969 125.534 145.152 123.919 145.988C122.304 146.825 120.479 147.243 118.446 147.243C115.114 147.243 112.518 146.399 110.658 144.712C108.797 143.01 107.867 140.609 107.867 137.508H114.4C114.4 139.051 114.725 140.19 115.374 140.926C116.023 141.662 117.047 142.029 118.446 142.029C119.686 142.029 120.674 141.604 121.41 140.753C122.145 139.902 122.513 138.691 122.513 137.119V115.312Z" fill="#00E878"/>
<path d="M151.339 138.546C151.339 137.32 150.906 136.383 150.041 135.734C149.175 135.071 147.618 134.378 145.368 133.657C143.118 132.922 141.337 132.201 140.024 131.494C136.448 129.561 134.659 126.958 134.659 123.684C134.659 121.983 135.135 120.468 136.087 119.141C137.054 117.8 138.431 116.755 140.219 116.005C142.022 115.255 144.041 114.88 146.276 114.88C148.526 114.88 150.531 115.291 152.291 116.113C154.05 116.92 155.413 118.067 156.379 119.552C157.36 121.038 157.85 122.725 157.85 124.615H151.36C151.36 123.172 150.906 122.055 149.997 121.261C149.089 120.454 147.812 120.05 146.168 120.05C144.582 120.05 143.349 120.389 142.469 121.067C141.589 121.73 141.149 122.61 141.149 123.706C141.149 124.73 141.661 125.588 142.685 126.28C143.724 126.973 145.245 127.622 147.25 128.227C150.942 129.338 153.632 130.715 155.319 132.359C157.007 134.003 157.85 136.051 157.85 138.503C157.85 141.229 156.819 143.371 154.757 144.928C152.694 146.471 149.918 147.243 146.428 147.243C144.005 147.243 141.798 146.803 139.808 145.923C137.818 145.029 136.296 143.81 135.244 142.267C134.205 140.724 133.686 138.936 133.686 136.902H140.198C140.198 140.378 142.274 142.116 146.428 142.116C147.971 142.116 149.175 141.806 150.041 141.186C150.906 140.551 151.339 139.671 151.339 138.546Z" fill="#00E878"/>
</svg>
