<svg width="200" height="200" viewBox="0 0 200 200" fill="none" xmlns="http://www.w3.org/2000/svg">
<path d="M56.25 53.5C54.0409 53.5 52.25 55.2909 52.25 57.5C52.25 59.7091 54.0409 61.5 56.25 61.5V53.5ZM173 73.5V141.5H181V73.5H173ZM161 153.5H32V161.5H161V153.5ZM20 141.5V57.5H12V141.5H20ZM20 57.5V54H12V57.5H20ZM96.5 61.5H161V53.5H96.5V61.5ZM20 54C20 47.3726 25.3726 42 32 42V34C20.9543 34 12 42.9543 12 54H20ZM32 153.5C25.3726 153.5 20 148.127 20 141.5H12C12 152.546 20.9543 161.5 32 161.5V153.5ZM173 141.5C173 148.127 167.627 153.5 161 153.5V161.5C172.046 161.5 181 152.546 181 141.5H173ZM80.5 42C87.1274 42 92.5 47.3726 92.5 54H100.5C100.5 42.9543 91.5457 34 80.5 34V42ZM181 73.5C181 62.4543 172.046 53.5 161 53.5V61.5C167.627 61.5 173 66.8726 173 73.5H181ZM32 42H56.25V34H32V42ZM56.25 42H80.5V34H56.25V42ZM96.5 53.5H56.25V61.5H96.5V53.5ZM92.5 54V57.5H100.5V54H92.5Z" fill="#5C8AFF"/>
<path fill-rule="evenodd" clip-rule="evenodd" d="M147.694 88H104V170H116.484H128.677H147.694C152.824 170 156.984 165.804 156.984 160.629V97.3714C156.984 92.1957 152.824 88 147.694 88ZM138.258 95.0286H121.419C116.288 95.0286 112.129 99.2243 112.129 104.4V111.429C112.129 116.604 116.288 120.8 121.419 120.8H138.258C143.389 120.8 147.548 116.604 147.548 111.429V104.4C147.548 99.2243 143.389 95.0286 138.258 95.0286ZM143.194 124.314H116.484C114.079 124.314 112.129 126.281 112.129 128.707C112.129 131.133 114.079 133.1 116.484 133.1H143.194C145.599 133.1 147.548 131.133 147.548 128.707C147.548 126.281 145.599 124.314 143.194 124.314ZM143.194 136.029H116.484C114.079 136.029 112.129 137.995 112.129 140.421C112.129 142.848 114.079 144.814 116.484 144.814H143.194C145.599 144.814 147.548 142.848 147.548 140.421C147.548 137.995 145.599 136.029 143.194 136.029Z" fill="#2B66FF"/>
<path d="M104 88H166.71C171.841 88 176 92.1957 176 97.3714V160.629C176 165.804 171.841 170 166.71 170H128.677M104 88V170H116.484H128.677M104 88C104 88 142.563 88 147.694 88M104 88H147.694M147.694 88C152.824 88 156.984 92.1957 156.984 97.3714V160.629C156.984 165.804 152.824 170 147.694 170H128.677M121.419 120.8H138.258C143.389 120.8 147.548 116.604 147.548 111.429V104.4C147.548 99.2243 143.389 95.0286 138.258 95.0286H121.419C116.288 95.0286 112.129 99.2243 112.129 104.4V111.429C112.129 116.604 116.288 120.8 121.419 120.8ZM116.484 133.1H143.194C145.599 133.1 147.548 131.133 147.548 128.707C147.548 126.281 145.599 124.314 143.194 124.314H116.484C114.079 124.314 112.129 126.281 112.129 128.707C112.129 131.133 114.079 133.1 116.484 133.1ZM116.484 136.029H143.194C145.599 136.029 147.548 137.995 147.548 140.421C147.548 142.848 145.599 144.814 143.194 144.814H116.484C114.079 144.814 112.129 142.848 112.129 140.421C112.129 137.995 114.079 136.029 116.484 136.029Z" stroke="#2B66FF" stroke-width="6" stroke-linejoin="round"/>
</svg>
