<svg width="200" height="200" viewBox="0 0 200 200" fill="none" xmlns="http://www.w3.org/2000/svg">
<path d="M40.25 73.5L44.0176 74.8436C44.0309 74.8063 44.0436 74.7689 44.0558 74.7313L40.25 73.5ZM177 141.5L180.814 142.705C180.844 142.609 180.871 142.513 180.894 142.416L177 141.5ZM92.5 54C92.5 56.2091 94.2909 58 96.5 58C98.7091 58 100.5 56.2091 100.5 54H92.5ZM28.2324 95.2904C27.4904 97.3712 28.5756 99.6596 30.6564 100.402C32.7372 101.144 35.0255 100.058 35.7676 97.9776L28.2324 95.2904ZM192.92 73.8389L196.814 74.7551L192.92 73.8389ZM192.996 73.1507L196.995 73.065L192.996 73.1507ZM189.027 72.9228L173.106 140.584L180.894 142.416L196.814 74.7551L189.027 72.9228ZM161 153.5H32V161.5H161V153.5ZM96.5 61.5H177V53.5H96.5V61.5ZM44.0558 74.7313C45.3695 70.6708 46.9582 67.2716 48.9873 64.9357C50.8958 62.7386 53.1568 61.5 56.25 61.5V53.5C50.5067 53.5 46.1426 56.0114 42.9478 59.6893C39.8736 63.2284 37.8805 67.8292 36.4442 72.2687L44.0558 74.7313ZM32 153.5C25.3726 153.5 20 148.127 20 141.5H12C12 152.546 20.9543 161.5 32 161.5V153.5ZM173.186 140.295C171.736 144.885 170.153 148.225 168.21 150.393C166.434 152.375 164.26 153.5 161 153.5V161.5C166.577 161.5 170.903 159.375 174.168 155.732C177.265 152.275 179.264 147.615 180.814 142.705L173.186 140.295ZM80.5 42C87.1274 42 92.5 47.3726 92.5 54H100.5C100.5 42.9543 91.5457 34 80.5 34V42ZM196.995 73.065C196.763 62.2192 187.9 53.5 177 53.5V61.5C183.539 61.5 188.858 66.7316 188.997 73.2363L196.995 73.065ZM56.25 42H80.5V34H56.25V42ZM96.5 53.5H56.25V61.5H96.5V53.5ZM20 54C20 47.3726 25.3726 42 32 42V34C20.9543 34 12 42.9543 12 54H20ZM32 42H56.25V34H32V42ZM12 54V141.5H20V54H12ZM35.7676 97.9776L44.0176 74.8436L36.4824 72.1564L28.2324 95.2904L35.7676 97.9776ZM196.814 74.7551C196.934 74.2433 197.008 73.6735 196.995 73.065L188.997 73.2363C188.994 73.0904 189.012 72.9842 189.027 72.9228L196.814 74.7551Z" fill="#FFED8F"/>
<path d="M104.79 158.958V117.816H117.063V158.958C117.063 162.927 116.187 166.338 114.436 169.193C112.684 172.02 110.29 174.194 107.252 175.717C104.242 177.239 100.849 178 97.0725 178C93.1592 178 89.6975 177.348 86.6873 176.043C83.6771 174.738 81.31 172.74 79.586 170.049C77.862 167.33 77 163.892 77 159.733H89.3555C89.3555 161.907 89.6565 163.633 90.2585 164.911C90.8879 166.189 91.7773 167.099 92.9266 167.643C94.076 168.187 95.4579 168.459 97.0725 168.459C98.6323 168.459 99.9869 168.092 101.136 167.358C102.286 166.624 103.175 165.55 103.804 164.136C104.461 162.723 104.79 160.997 104.79 158.958Z" fill="#FFD600"/>
<path d="M158.686 161.649C158.686 160.589 158.521 159.637 158.193 158.795C157.892 157.925 157.317 157.137 156.469 156.43C155.621 155.696 154.43 154.975 152.898 154.269C151.365 153.562 149.381 152.828 146.946 152.067C144.237 151.197 141.664 150.218 139.229 149.131C136.821 148.044 134.686 146.78 132.825 145.339C130.992 143.871 129.541 142.172 128.474 140.242C127.434 138.312 126.914 136.069 126.914 133.514C126.914 131.04 127.462 128.798 128.556 126.786C129.651 124.747 131.183 123.008 133.154 121.567C135.124 120.099 137.45 118.971 140.132 118.182C142.841 117.394 145.81 117 149.039 117C153.445 117 157.29 117.788 160.574 119.365C163.858 120.942 166.403 123.103 168.209 125.848C170.042 128.594 170.959 131.734 170.959 135.267H158.727C158.727 133.528 158.357 132.005 157.618 130.701C156.907 129.369 155.812 128.322 154.334 127.561C152.884 126.8 151.051 126.419 148.834 126.419C146.7 126.419 144.921 126.745 143.498 127.398C142.075 128.023 141.008 128.879 140.296 129.967C139.585 131.027 139.229 132.223 139.229 133.555C139.229 134.561 139.475 135.471 139.968 136.287C140.488 137.102 141.254 137.863 142.266 138.57C143.279 139.277 144.524 139.943 146.002 140.568C147.479 141.193 149.19 141.805 151.133 142.403C154.389 143.382 157.249 144.483 159.712 145.706C162.202 146.929 164.282 148.302 165.951 149.824C167.62 151.346 168.879 153.073 169.728 155.003C170.576 156.933 171 159.121 171 161.568C171 164.15 170.494 166.461 169.481 168.499C168.469 170.538 167.005 172.264 165.089 173.678C163.174 175.091 160.889 176.165 158.234 176.899C155.58 177.633 152.61 178 149.327 178C146.371 178 143.457 177.619 140.583 176.858C137.71 176.07 135.097 174.887 132.743 173.311C130.417 171.734 128.556 169.723 127.161 167.276C125.765 164.83 125.067 161.934 125.067 158.591H137.423C137.423 160.439 137.71 162.002 138.285 163.28C138.859 164.558 139.667 165.591 140.707 166.379C141.774 167.167 143.033 167.738 144.483 168.092C145.961 168.445 147.575 168.622 149.327 168.622C151.461 168.622 153.213 168.323 154.581 167.725C155.976 167.127 157.003 166.297 157.659 165.237C158.344 164.177 158.686 162.981 158.686 161.649Z" fill="#FFD600"/>
</svg>
