<svg width="185" height="149" viewBox="0 0 185 149" fill="none" xmlns="http://www.w3.org/2000/svg">
<path d="M28.25 39.5L32.0176 40.8436C32.0309 40.8063 32.0436 40.7689 32.0558 40.7313L28.25 39.5ZM165 107.5L168.814 108.705C168.844 108.609 168.871 108.513 168.894 108.416L165 107.5ZM80.5 20C80.5 22.2091 82.2909 24 84.5 24C86.7091 24 88.5 22.2091 88.5 20H80.5ZM16.2324 61.2904C15.4904 63.3712 16.5756 65.6596 18.6564 66.402C20.7372 67.144 23.0255 66.058 23.7676 63.9776L16.2324 61.2904ZM177.027 38.9228L161.106 106.584L168.894 108.416L184.814 40.7551L177.027 38.9228ZM149 119.5H20V127.5H149V119.5ZM84.5 27.5H165V19.5H84.5V27.5ZM32.0558 40.7313C33.3695 36.6708 34.9582 33.2716 36.9873 30.9357C38.8958 28.7386 41.1568 27.5 44.25 27.5V19.5C38.5067 19.5 34.1426 22.0114 30.9478 25.6893C27.8736 29.2284 25.8805 33.8292 24.4442 38.2687L32.0558 40.7313ZM20 119.5C13.3726 119.5 8 114.127 8 107.5H0C0 118.546 8.9543 127.5 20 127.5V119.5ZM161.186 106.295C159.736 110.885 158.153 114.225 156.21 116.393C154.434 118.375 152.26 119.5 149 119.5V127.5C154.577 127.5 158.903 125.375 162.168 121.732C165.265 118.275 167.264 113.615 168.814 108.705L161.186 106.295ZM68.5 8C75.1274 8 80.5 13.3726 80.5 20H88.5C88.5 8.9543 79.5457 0 68.5 0V8ZM184.995 39.065C184.763 28.2192 175.9 19.5 165 19.5V27.5C171.539 27.5 176.858 32.7316 176.997 39.2363L184.995 39.065ZM44.25 8H68.5V0H44.25V8ZM84.5 19.5H44.25V27.5H84.5V19.5ZM8 20C8 13.3726 13.3726 8 20 8V0C8.9543 0 0 8.9543 0 20H8ZM20 8H44.25V0H20V8ZM0 20V107.5H8V20H0ZM23.7676 63.9776L32.0176 40.8436L24.4824 38.1564L16.2324 61.2904L23.7676 63.9776ZM184.814 40.7551C184.934 40.2433 185.008 39.6735 184.995 39.065L176.997 39.2363C176.994 39.0904 177.012 38.9842 177.027 38.9228L184.814 40.7551Z" fill="#8F8F8F"/>
<path fill-rule="evenodd" clip-rule="evenodd" d="M137.869 62C113.611 62 94 81.9375 94 106.603C94 126.319 106.565 143.009 123.996 148.916C126.176 149.36 126.974 147.956 126.974 146.775C126.974 145.741 126.902 142.197 126.902 138.504C114.699 141.163 112.158 133.187 112.158 133.187C110.196 128.018 107.291 126.689 107.291 126.689C103.297 123.957 107.582 123.957 107.582 123.957C112.012 124.252 114.337 128.535 114.337 128.535C118.258 135.328 124.577 133.409 127.119 132.227C127.482 129.347 128.645 127.353 129.88 126.246C120.147 125.212 109.906 121.372 109.906 104.239C109.906 99.3656 111.648 95.3781 114.409 92.2769C113.973 91.1695 112.448 86.5902 114.845 80.4612C114.845 80.4612 118.549 79.2795 126.901 85.0396C130.477 84.0633 134.165 83.5666 137.869 83.5624C141.573 83.5624 145.349 84.0799 148.836 85.0396C157.188 79.2795 160.893 80.4612 160.893 80.4612C163.29 86.5902 161.764 91.1695 161.328 92.2769C164.161 95.3781 165.831 99.3656 165.831 104.239C165.831 121.372 155.591 125.138 145.785 126.246C147.384 127.649 148.763 130.307 148.763 134.516C148.763 140.498 148.691 145.298 148.691 146.774C148.691 147.956 149.49 149.36 151.669 148.917C169.1 143.008 181.665 126.319 181.665 106.603C181.737 81.9375 162.055 62 137.869 62Z" fill="white"/>
</svg>
