<svg width="205" height="200" viewBox="0 0 205 200" fill="none" xmlns="http://www.w3.org/2000/svg">
<path d="M56.25 53.5C54.0409 53.5 52.25 55.2909 52.25 57.5C52.25 59.7091 54.0409 61.5 56.25 61.5V53.5ZM173 73.5V141.5H181V73.5H173ZM161 153.5H32V161.5H161V153.5ZM20 141.5V57.5H12V141.5H20ZM20 57.5V54H12V57.5H20ZM96.5 61.5H161V53.5H96.5V61.5ZM20 54C20 47.3726 25.3726 42 32 42V34C20.9543 34 12 42.9543 12 54H20ZM32 153.5C25.3726 153.5 20 148.127 20 141.5H12C12 152.546 20.9543 161.5 32 161.5V153.5ZM173 141.5C173 148.127 167.627 153.5 161 153.5V161.5C172.046 161.5 181 152.546 181 141.5H173ZM80.5 42C87.1274 42 92.5 47.3726 92.5 54H100.5C100.5 42.9543 91.5457 34 80.5 34V42ZM181 73.5C181 62.4543 172.046 53.5 161 53.5V61.5C167.627 61.5 173 66.8726 173 73.5H181ZM32 42H56.25V34H32V42ZM56.25 42H80.5V34H56.25V42ZM96.5 53.5H56.25V61.5H96.5V53.5ZM92.5 54V57.5H100.5V54H92.5Z" fill="#FFD37E"/>
<path d="M123.244 117V113C121.035 113 119.244 114.791 119.244 117H123.244ZM133.087 117H137.087C137.087 114.791 135.296 113 133.087 113V117ZM133.087 154V158C135.296 158 137.087 156.209 137.087 154H133.087ZM123.244 154H119.244C119.244 156.209 121.035 158 123.244 158V154ZM76 173H72C72 175.209 73.7909 177 76 177V173ZM76 163V159C73.7909 159 72 160.791 72 163H76ZM112.417 163H116.417C116.417 160.791 114.626 159 112.417 159V163ZM112.417 173V177C114.626 177 116.417 175.209 116.417 173H112.417ZM110.449 152V148C108.24 148 106.449 149.791 106.449 152H110.449ZM100.606 119.5V115.5C100.547 115.5 100.489 115.501 100.43 115.504L100.606 119.5ZM153.756 154V158C155.965 158 157.756 156.209 157.756 154H153.756ZM143.913 154H139.913C139.913 156.209 141.704 158 143.913 158V154ZM143.913 117V113C141.704 113 139.913 114.791 139.913 117H143.913ZM153.756 117H157.756C157.756 114.791 155.965 113 153.756 113V117ZM201 98H205C205 95.7909 203.209 94 201 94V98ZM201 108V112C203.209 112 205 110.209 205 108H201ZM164.583 108H160.583C160.583 110.209 162.374 112 164.583 112V108ZM164.583 98V94C162.374 94 160.583 95.7909 160.583 98H164.583ZM166.551 119V123C168.76 123 170.551 121.209 170.551 119H166.551ZM176.394 151.5V155.5C176.453 155.5 176.511 155.499 176.57 155.496L176.394 151.5ZM123.244 121H133.087V113H123.244V121ZM129.087 117V154H137.087V117H129.087ZM133.087 150H123.244V158H133.087V150ZM80 173V163H72V173H80ZM108.417 163V173H116.417V163H108.417ZM112.417 169H76V177H112.417V169ZM127.244 154V152H119.244V154H127.244ZM123.244 148H110.449V156H123.244V148ZM110.449 167H112.417V159H110.449V167ZM106.449 152V163H114.449V152H106.449ZM127.244 152V119.5H119.244V152H127.244ZM127.244 119.5V117H119.244V119.5H127.244ZM123.244 115.5H100.606V123.5H123.244V115.5ZM76 167H78.4606V159H76V167ZM78.4606 167H110.449V159H78.4606V167ZM82.4606 163V140H74.4606V163H82.4606ZM82.4606 140C82.4606 131.247 90.9398 123.931 100.783 123.496L100.43 115.504C87.635 116.069 74.4606 125.753 74.4606 140H82.4606ZM153.756 150H143.913V158H153.756V150ZM147.913 154V117H139.913V154H147.913ZM143.913 121H153.756V113H143.913V121ZM197 98V108H205V98H197ZM168.583 108V98H160.583V108H168.583ZM164.583 102H201V94H164.583V102ZM149.756 117V119H157.756V117H149.756ZM153.756 123H166.551V115H153.756V123ZM166.551 104H164.583V112H166.551V104ZM170.551 119V108H162.551V119H170.551ZM149.756 119V151.5H157.756V119H149.756ZM149.756 151.5V154H157.756V151.5H149.756ZM153.756 155.5H176.394V147.5H153.756V155.5ZM201 104H198.539V112H201V104ZM198.539 104H166.551V112H198.539V104ZM194.539 108V131H202.539V108H194.539ZM194.539 131C194.539 139.753 186.06 147.069 176.217 147.504L176.57 155.496C189.365 154.931 202.539 145.247 202.539 131H194.539Z" fill="#FFA800"/>
</svg>
