<svg width="200" height="200" viewBox="0 0 200 200" fill="none" xmlns="http://www.w3.org/2000/svg">
<path d="M56.25 53.5C54.0409 53.5 52.25 55.2909 52.25 57.5C52.25 59.7091 54.0409 61.5 56.25 61.5V53.5ZM173 73.5V141.5H181V73.5H173ZM161 153.5H32V161.5H161V153.5ZM20 141.5V57.5H12V141.5H20ZM20 57.5V54H12V57.5H20ZM96.5 61.5H161V53.5H96.5V61.5ZM20 54C20 47.3726 25.3726 42 32 42V34C20.9543 34 12 42.9543 12 54H20ZM32 153.5C25.3726 153.5 20 148.127 20 141.5H12C12 152.546 20.9543 161.5 32 161.5V153.5ZM173 141.5C173 148.127 167.627 153.5 161 153.5V161.5C172.046 161.5 181 152.546 181 141.5H173ZM80.5 42C87.1274 42 92.5 47.3726 92.5 54H100.5C100.5 42.9543 91.5457 34 80.5 34V42ZM181 73.5C181 62.4543 172.046 53.5 161 53.5V61.5C167.627 61.5 173 66.8726 173 73.5H181ZM32 42H56.25V34H32V42ZM56.25 42H80.5V34H56.25V42ZM96.5 53.5H56.25V61.5H96.5V53.5ZM92.5 54V57.5H100.5V54H92.5Z" fill="#80D1FF"/>
<path fill-rule="evenodd" clip-rule="evenodd" d="M110.929 173.078C109.328 174.678 106.716 174.692 105.278 172.946C104.064 171.471 102.946 169.901 101.925 168.226C101.514 167.551 101.12 166.861 100.744 166.156C99.6781 164.158 100.69 161.748 102.783 160.882L105.932 159.578C105.937 159.576 105.939 159.571 105.937 159.566C105.249 157.905 104.702 156.22 104.29 154.526C104.181 154.071 104.081 153.614 103.99 153.156C103.899 152.7 103.817 152.241 103.744 151.78C103.478 150.062 103.339 148.302 103.339 146.509C103.339 146.504 103.335 146.5 103.33 146.5H99.9207C97.6555 146.5 95.7979 144.66 96.0177 142.407C96.0948 141.616 96.1939 140.832 96.3145 140.056C96.6013 138.235 97.0583 136.316 97.6224 134.453C98.2829 132.271 100.712 131.261 102.819 132.133L105.932 133.422C105.937 133.424 105.942 133.422 105.944 133.417C105.989 133.309 106.035 133.201 106.081 133.093C106.912 131.146 107.923 129.275 109.102 127.508C110.269 125.768 111.591 124.141 113.048 122.647L113.117 122.577C113.192 122.501 113.267 122.424 113.343 122.348C113.347 122.345 113.347 122.339 113.343 122.336L110.905 119.898C109.314 118.308 109.285 115.711 111.022 114.281C112.496 113.068 114.048 111.984 115.783 110.922C116.458 110.511 117.149 110.117 117.853 109.742C119.852 108.676 122.264 109.688 123.13 111.78L124.435 114.928C124.437 114.932 124.442 114.935 124.447 114.933C124.499 114.911 124.552 114.889 124.605 114.868C126.619 114.046 128.711 113.415 130.852 112.988C132.98 112.567 135.14 112.35 137.301 112.336C137.37 112.336 137.44 112.335 137.51 112.335C137.514 112.335 137.518 112.331 137.518 112.327V108.919C137.518 106.655 139.359 104.798 141.614 105.018C142.984 105.151 144.335 105.351 145.663 105.614C146.986 105.879 148.305 106.21 149.617 106.609C151.784 107.268 152.773 109.688 151.907 111.78L150.602 114.928C150.6 114.932 150.602 114.938 150.607 114.939C152.263 115.626 153.836 116.427 155.322 117.33C155.725 117.577 156.122 117.831 156.514 118.093C156.903 118.352 157.287 118.62 157.665 118.895C159.069 119.921 160.412 121.068 161.681 122.336C161.684 122.339 161.69 122.339 161.694 122.336L164.104 119.926C165.706 118.325 168.321 118.313 169.76 120.062C170.267 120.679 170.754 121.307 171.221 121.945C172.264 123.378 173.3 125.08 174.224 126.802C175.306 128.821 174.309 131.268 172.193 132.144L169.105 133.422C169.1 133.424 169.098 133.429 169.1 133.434C169.141 133.534 169.182 133.633 169.222 133.733C170.013 135.696 170.623 137.731 171.041 139.813C171.443 141.835 171.66 143.886 171.694 145.939C171.697 146.123 171.698 146.307 171.698 146.491C171.698 146.496 171.702 146.5 171.707 146.5H175.065C177.35 146.5 179.207 148.37 178.981 150.643C178.788 152.585 178.479 154.543 178.054 156.305C177.868 157.07 177.659 157.833 177.427 158.593C176.768 160.759 174.347 161.748 172.254 160.882L169.105 159.578C169.1 159.576 169.095 159.578 169.093 159.582C168.405 161.241 167.602 162.816 166.697 164.303C166.451 164.704 166.198 165.099 165.937 165.489C165.678 165.877 165.411 166.26 165.136 166.638C164.109 168.041 162.961 169.384 161.694 170.652C161.69 170.655 161.69 170.661 161.694 170.664L164.104 173.074C165.706 174.675 165.718 177.289 163.968 178.727C162.908 179.598 161.815 180.41 160.693 181.161C159.568 181.911 158.397 182.611 157.184 183.258C155.185 184.324 152.773 183.312 151.907 181.22L150.602 178.072C150.6 178.068 150.595 178.065 150.59 178.067C148.931 178.754 147.248 179.3 145.556 179.712C145.1 179.821 144.642 179.922 144.183 180.013C143.726 180.104 143.268 180.186 142.807 180.258C141.086 180.525 139.323 180.664 137.527 180.665C137.522 180.665 137.518 180.669 137.518 180.673V184.081C137.518 186.345 135.678 188.202 133.423 187.982C132.06 187.849 130.715 187.651 129.393 187.39C128.064 187.125 126.739 186.792 125.42 186.391C123.253 185.732 122.264 183.312 123.13 181.22L124.435 178.072C124.437 178.068 124.435 178.062 124.43 178.06C124.301 178.007 124.172 177.953 124.044 177.898C122.123 177.074 120.275 176.075 118.529 174.911C116.754 173.723 115.096 172.373 113.577 170.883C113.503 170.81 113.429 170.738 113.356 170.664C113.353 170.661 113.347 170.661 113.343 170.664L110.929 173.078ZM137.499 159.486C136.667 159.485 135.828 159.404 134.993 159.237C134.138 159.069 133.314 158.817 132.528 158.49C131.755 158.169 131.007 157.77 130.296 157.293C129.593 156.824 128.947 156.294 128.361 155.712C127.752 155.107 127.198 154.437 126.711 153.706C126.244 153.007 125.851 152.272 125.534 151.514C125.202 150.722 124.946 149.889 124.776 149.027C124.605 148.169 124.523 147.308 124.527 146.454C124.529 145.635 124.61 144.81 124.773 143.989C124.943 143.121 125.2 142.284 125.534 141.488C125.852 140.725 126.247 139.987 126.718 139.284C127.192 138.574 127.728 137.922 128.317 137.332C128.917 136.73 129.581 136.183 130.305 135.701C131.014 135.227 131.758 134.83 132.527 134.511C133.311 134.184 134.134 133.932 134.988 133.764C135.824 133.597 136.665 133.515 137.499 133.514C138.35 133.512 139.208 133.595 140.062 133.766C140.897 133.932 141.704 134.178 142.473 134.495C143.254 134.817 144.01 135.218 144.729 135.699C145.463 136.187 146.135 136.743 146.741 137.354C147.32 137.936 147.847 138.578 148.314 139.276C148.805 140.008 149.214 140.779 149.54 141.576C149.852 142.337 150.095 143.135 150.258 143.96C150.425 144.791 150.507 145.626 150.51 146.454C150.514 147.317 150.43 148.189 150.255 149.055C150.091 149.875 149.85 150.667 149.54 151.424C149.215 152.217 148.809 152.984 148.32 153.713C147.84 154.434 147.294 155.095 146.695 155.693C146.104 156.283 145.45 156.82 144.739 157.295C144.017 157.778 143.257 158.181 142.473 158.505C141.702 158.823 140.894 159.069 140.058 159.235C139.205 159.405 138.348 159.488 137.499 159.486Z" stroke="#2EB4FF" stroke-width="8"/>
</svg>
