<svg width="200" height="200" viewBox="0 0 200 200" fill="none" xmlns="http://www.w3.org/2000/svg">
<path d="M40.25 73.5L44.0176 74.8436C44.0309 74.8063 44.0436 74.7689 44.0558 74.7313L40.25 73.5ZM177 141.5L180.814 142.705C180.844 142.609 180.871 142.513 180.894 142.416L177 141.5ZM92.5 54C92.5 56.2091 94.2909 58 96.5 58C98.7091 58 100.5 56.2091 100.5 54H92.5ZM28.2324 95.2904C27.4904 97.3712 28.5756 99.6596 30.6564 100.402C32.7372 101.144 35.0255 100.058 35.7676 97.9776L28.2324 95.2904ZM192.92 73.8389L196.814 74.7551L192.92 73.8389ZM192.996 73.1507L196.995 73.065L192.996 73.1507ZM189.027 72.9228L173.106 140.584L180.894 142.416L196.814 74.7551L189.027 72.9228ZM161 153.5H32V161.5H161V153.5ZM96.5 61.5H177V53.5H96.5V61.5ZM44.0558 74.7313C45.3695 70.6708 46.9582 67.2716 48.9873 64.9357C50.8958 62.7386 53.1568 61.5 56.25 61.5V53.5C50.5067 53.5 46.1426 56.0114 42.9478 59.6893C39.8736 63.2284 37.8805 67.8292 36.4442 72.2687L44.0558 74.7313ZM32 153.5C25.3726 153.5 20 148.127 20 141.5H12C12 152.546 20.9543 161.5 32 161.5V153.5ZM173.186 140.295C171.736 144.885 170.153 148.225 168.21 150.393C166.434 152.375 164.26 153.5 161 153.5V161.5C166.577 161.5 170.903 159.375 174.168 155.732C177.265 152.275 179.264 147.615 180.814 142.705L173.186 140.295ZM80.5 42C87.1274 42 92.5 47.3726 92.5 54H100.5C100.5 42.9543 91.5457 34 80.5 34V42ZM196.995 73.065C196.763 62.2192 187.9 53.5 177 53.5V61.5C183.539 61.5 188.858 66.7316 188.997 73.2363L196.995 73.065ZM56.25 42H80.5V34H56.25V42ZM96.5 53.5H56.25V61.5H96.5V53.5ZM20 54C20 47.3726 25.3726 42 32 42V34C20.9543 34 12 42.9543 12 54H20ZM32 42H56.25V34H32V42ZM12 54V141.5H20V54H12ZM35.7676 97.9776L44.0176 74.8436L36.4824 72.1564L28.2324 95.2904L35.7676 97.9776ZM196.814 74.7551C196.934 74.2433 197.008 73.6735 196.995 73.065L188.997 73.2363C188.994 73.0904 189.012 72.9842 189.027 72.9228L196.814 74.7551Z" fill="#A852FF"/>
<path d="M115.626 98V94C113.417 94 111.626 95.7909 111.626 98H115.626ZM164.374 98H168.374C168.374 95.7909 166.583 94 164.374 94V98ZM164.374 131.677V135.677C166.583 135.677 168.374 133.887 168.374 131.677H164.374ZM115.626 131.677H111.626C111.626 133.887 113.417 135.677 115.626 135.677V131.677ZM87 164.723C84.7909 164.723 83 166.513 83 168.723C83 170.932 84.7909 172.723 87 172.723V164.723ZM193 172.723C195.209 172.723 197 170.932 197 168.723C197 166.513 195.209 164.723 193 164.723V172.723ZM152.439 168.723C152.439 175.466 146.907 181 140 181V189C151.251 189 160.439 179.959 160.439 168.723H152.439ZM140 181C133.093 181 127.562 175.466 127.562 168.723H119.562C119.562 179.959 128.749 189 140 189V181ZM127.562 168.723C127.562 161.979 133.093 156.445 140 156.445V148.445C128.749 148.445 119.562 157.487 119.562 168.723H127.562ZM140 156.445C146.907 156.445 152.439 161.979 152.439 168.723H160.439C160.439 157.487 151.251 148.445 140 148.445V156.445ZM115.626 102H164.374V94H115.626V102ZM160.374 98V131.677H168.374V98H160.374ZM119.626 131.677V98H111.626V131.677H119.626ZM164.374 127.677H140V135.677H164.374V127.677ZM140 127.677H115.626V135.677H140V127.677ZM136 131.677V152.445H144V131.677H136ZM123.562 164.723H87V172.723H123.562V164.723ZM193 164.723H156.439V172.723H193V164.723Z" fill="#8710FF"/>
</svg>
