<svg width="200" height="200" viewBox="0 0 200 200" fill="none" xmlns="http://www.w3.org/2000/svg">
<path d="M56.25 53.5C54.0409 53.5 52.25 55.2909 52.25 57.5C52.25 59.7091 54.0409 61.5 56.25 61.5V53.5ZM173 73.5V141.5H181V73.5H173ZM161 153.5H32V161.5H161V153.5ZM20 141.5V57.5H12V141.5H20ZM20 57.5V54H12V57.5H20ZM96.5 61.5H161V53.5H96.5V61.5ZM20 54C20 47.3726 25.3726 42 32 42V34C20.9543 34 12 42.9543 12 54H20ZM32 153.5C25.3726 153.5 20 148.127 20 141.5H12C12 152.546 20.9543 161.5 32 161.5V153.5ZM173 141.5C173 148.127 167.627 153.5 161 153.5V161.5C172.046 161.5 181 152.546 181 141.5H173ZM80.5 42C87.1274 42 92.5 47.3726 92.5 54H100.5C100.5 42.9543 91.5457 34 80.5 34V42ZM181 73.5C181 62.4543 172.046 53.5 161 53.5V61.5C167.627 61.5 173 66.8726 173 73.5H181ZM32 42H56.25V34H32V42ZM56.25 42H80.5V34H56.25V42ZM96.5 53.5H56.25V61.5H96.5V53.5ZM92.5 54V57.5H100.5V54H92.5Z" fill="#A852FF"/>
<path d="M147.806 180C149.57 180 151 178.566 151 176.797V174.875C151 173.106 149.57 171.672 147.806 171.672H145.889C144.125 171.672 142.694 170.238 142.694 168.469V162.062H113.306V168.469C113.306 170.238 111.875 171.672 110.111 171.672H108.194C106.43 171.672 105 173.106 105 174.875V176.797C105 178.566 106.43 180 108.194 180H147.806Z" fill="#8710FF"/>
<path d="M128 130.992L145.25 120.902M128 130.992V151.172M128 130.992L110.75 120.902M110.75 120.902L128 110.812L145.25 120.902M110.75 120.902L110.75 141.082L128 151.172M145.25 120.902L145.25 141.082L128 151.172M113.306 162.062H142.694M113.306 162.062V168.469C113.306 170.238 111.875 171.672 110.111 171.672H108.194C106.43 171.672 105 173.106 105 174.875V176.797C105 178.566 106.43 180 108.194 180H147.806C149.57 180 151 178.566 151 176.797V174.875C151 173.106 149.57 171.672 147.806 171.672H145.889C144.125 171.672 142.694 170.238 142.694 168.469V162.062M113.306 162.062H85.1944C83.4302 162.062 82 160.628 82 158.859V101.203C82 99.4341 83.4302 98 85.1944 98H170.806C172.57 98 174 99.4341 174 101.203V158.859C174 160.628 172.57 162.062 170.806 162.062H142.694" stroke="#8710FF" stroke-width="8" stroke-linejoin="round"/>
</svg>
