<svg width="200" height="200" viewBox="0 0 200 200" fill="none" xmlns="http://www.w3.org/2000/svg">
<path d="M56.25 53.5C54.0409 53.5 52.25 55.2909 52.25 57.5C52.25 59.7091 54.0409 61.5 56.25 61.5V53.5ZM173 73.5V141.5H181V73.5H173ZM161 153.5H32V161.5H161V153.5ZM20 141.5V57.5H12V141.5H20ZM20 57.5V54H12V57.5H20ZM96.5 61.5H161V53.5H96.5V61.5ZM20 54C20 47.3726 25.3726 42 32 42V34C20.9543 34 12 42.9543 12 54H20ZM32 153.5C25.3726 153.5 20 148.127 20 141.5H12C12 152.546 20.9543 161.5 32 161.5V153.5ZM173 141.5C173 148.127 167.627 153.5 161 153.5V161.5C172.046 161.5 181 152.546 181 141.5H173ZM80.5 42C87.1274 42 92.5 47.3726 92.5 54H100.5C100.5 42.9543 91.5457 34 80.5 34V42ZM181 73.5C181 62.4543 172.046 53.5 161 53.5V61.5C167.627 61.5 173 66.8726 173 73.5H181ZM32 42H56.25V34H32V42ZM56.25 42H80.5V34H56.25V42ZM96.5 53.5H56.25V61.5H96.5V53.5ZM92.5 54V57.5H100.5V54H92.5Z" fill="#84FFC4"/>
<path d="M105 160H185V149.09H105V160Z" fill="#00E878"/>
<path d="M135.4 120.296C135.4 123.374 132.893 125.87 129.8 125.87C126.707 125.87 124.2 123.374 124.2 120.296C124.2 117.217 126.707 114.722 129.8 114.722C132.893 114.722 135.4 117.217 135.4 120.296Z" fill="#00E878"/>
<path d="M154.6 120.296C154.6 123.374 157.107 125.87 160.2 125.87C163.293 125.87 165.8 123.374 165.8 120.296C165.8 117.217 163.293 114.722 160.2 114.722C157.107 114.722 154.6 117.217 154.6 120.296Z" fill="#00E878"/>
<path d="M145 99.5926C153.284 99.5926 160.98 102.099 167.364 106.392C168.199 106.954 169.012 107.545 169.8 108.166M145 99.5926C135.632 99.5926 127.017 102.798 120.2 108.166M145 99.5926C154.368 99.5926 162.983 102.798 169.8 108.166M169.8 108.166C179.059 115.458 185 126.742 185 139.406H105C105 126.742 110.941 115.458 120.2 108.166M169.8 108.166L177.8 98M120.2 108.166L112.2 98M135.4 120.296C135.4 123.374 132.893 125.87 129.8 125.87C126.707 125.87 124.2 123.374 124.2 120.296C124.2 117.217 126.707 114.722 129.8 114.722C132.893 114.722 135.4 117.217 135.4 120.296ZM154.6 120.296C154.6 123.374 157.107 125.87 160.2 125.87C163.293 125.87 165.8 123.374 165.8 120.296C165.8 117.217 163.293 114.722 160.2 114.722C157.107 114.722 154.6 117.217 154.6 120.296ZM105 160H185V149.09H105V160Z" stroke="#00E878" stroke-width="8" stroke-linecap="round" stroke-linejoin="round"/>
</svg>
