<svg width="200" height="200" viewBox="0 0 200 200" fill="none" xmlns="http://www.w3.org/2000/svg">
<path d="M56.25 53.5C54.0409 53.5 52.25 55.2909 52.25 57.5C52.25 59.7091 54.0409 61.5 56.25 61.5V53.5ZM173 73.5V141.5H181V73.5H173ZM161 153.5H32V161.5H161V153.5ZM20 141.5V57.5H12V141.5H20ZM20 57.5V54H12V57.5H20ZM96.5 61.5H161V53.5H96.5V61.5ZM20 54C20 47.3726 25.3726 42 32 42V34C20.9543 34 12 42.9543 12 54H20ZM32 153.5C25.3726 153.5 20 148.127 20 141.5H12C12 152.546 20.9543 161.5 32 161.5V153.5ZM173 141.5C173 148.127 167.627 153.5 161 153.5V161.5C172.046 161.5 181 152.546 181 141.5H173ZM80.5 42C87.1274 42 92.5 47.3726 92.5 54H100.5C100.5 42.9543 91.5457 34 80.5 34V42ZM181 73.5C181 62.4543 172.046 53.5 161 53.5V61.5C167.627 61.5 173 66.8726 173 73.5H181ZM32 42H56.25V34H32V42ZM56.25 42H80.5V34H56.25V42ZM96.5 53.5H56.25V61.5H96.5V53.5ZM92.5 54V57.5H100.5V54H92.5Z" fill="#80D1FF"/>
<path d="M140.354 91C137.431 91 135.071 93.3892 135.108 96.3121L135.695 142.659C135.728 145.196 137.794 147.236 140.331 147.236V147.236C142.867 147.236 144.932 145.199 144.966 142.664L145.599 96.3172C145.639 93.3924 143.279 91 140.354 91V91ZM146 164.349C146 162.735 145.507 161.372 144.521 160.26C143.498 159.147 142 158.591 140.027 158.591C138.091 158.591 136.612 159.147 135.589 160.26C134.53 161.372 134 162.735 134 164.349C134 165.892 134.53 167.22 135.589 168.332C136.612 169.444 138.091 170 140.027 170C142 170 143.498 169.444 144.521 168.332C145.507 167.22 146 165.892 146 164.349Z" stroke="#2EB4FF" stroke-width="8"/>
</svg>
