<svg width="200" height="200" viewBox="0 0 200 200" fill="none" xmlns="http://www.w3.org/2000/svg">
<path d="M56.25 53.5C54.0409 53.5 52.25 55.2909 52.25 57.5C52.25 59.7091 54.0409 61.5 56.25 61.5V53.5ZM173 73.5V141.5H181V73.5H173ZM161 153.5H32V161.5H161V153.5ZM20 141.5V57.5H12V141.5H20ZM20 57.5V54H12V57.5H20ZM96.5 61.5H161V53.5H96.5V61.5ZM20 54C20 47.3726 25.3726 42 32 42V34C20.9543 34 12 42.9543 12 54H20ZM32 153.5C25.3726 153.5 20 148.127 20 141.5H12C12 152.546 20.9543 161.5 32 161.5V153.5ZM173 141.5C173 148.127 167.627 153.5 161 153.5V161.5C172.046 161.5 181 152.546 181 141.5H173ZM80.5 42C87.1274 42 92.5 47.3726 92.5 54H100.5C100.5 42.9543 91.5457 34 80.5 34V42ZM181 73.5C181 62.4543 172.046 53.5 161 53.5V61.5C167.627 61.5 173 66.8726 173 73.5H181ZM32 42H56.25V34H32V42ZM56.25 42H80.5V34H56.25V42ZM96.5 53.5H56.25V61.5H96.5V53.5ZM92.5 54V57.5H100.5V54H92.5Z" fill="#FF8575"/>
<path d="M183.158 128.712L152.034 97.5875C147.25 92.8042 139.495 92.8042 134.712 97.5875L103.588 128.712C98.8042 133.495 98.8042 141.25 103.588 146.034L134.712 177.158C139.495 181.941 147.25 181.941 152.034 177.158L183.158 146.034C187.941 141.25 187.941 133.495 183.158 128.712Z" stroke="#FF4D35" stroke-width="8"/>
<path d="M152.619 113.625C152.619 108.5 148.464 104.345 143.339 104.345C141.788 104.345 140.325 104.726 139.04 105.399L135.765 102.124L131.323 106.566L134.783 110.026C134.317 111.132 134.06 112.348 134.06 113.625C134.06 117.665 136.642 121.102 140.246 122.376V153.849C136.642 155.123 134.06 158.56 134.06 162.6C134.06 167.725 138.214 171.88 143.339 171.88C148.464 171.88 152.619 167.725 152.619 162.6C152.619 158.595 150.082 155.183 146.527 153.883V122.342V121.77L146.938 122.181L157.797 133.04C157.124 134.325 156.743 135.788 156.743 137.339C156.743 142.464 160.898 146.619 166.023 146.619C171.148 146.619 175.302 142.464 175.302 137.339C175.302 132.214 171.148 128.06 166.023 128.06C164.746 128.06 163.53 128.317 162.424 128.783L151.565 117.924C152.238 116.639 152.619 115.176 152.619 113.625Z" fill="#FF4D35"/>
</svg>
