<svg width="206" height="200" viewBox="0 0 206 200" fill="none" xmlns="http://www.w3.org/2000/svg">
<path d="M40.25 73.5L44.0176 74.8436C44.0309 74.8063 44.0436 74.7689 44.0558 74.7313L40.25 73.5ZM177 141.5L180.814 142.705C180.844 142.609 180.871 142.513 180.894 142.416L177 141.5ZM92.5 54C92.5 56.2091 94.2909 58 96.5 58C98.7091 58 100.5 56.2091 100.5 54H92.5ZM28.2324 95.2904C27.4904 97.3712 28.5756 99.6596 30.6564 100.402C32.7372 101.144 35.0255 100.058 35.7676 97.9776L28.2324 95.2904ZM192.92 73.8389L196.814 74.7551L192.92 73.8389ZM192.996 73.1507L196.995 73.065L192.996 73.1507ZM189.027 72.9228L173.106 140.584L180.894 142.416L196.814 74.7551L189.027 72.9228ZM161 153.5H32V161.5H161V153.5ZM96.5 61.5H177V53.5H96.5V61.5ZM44.0558 74.7313C45.3695 70.6708 46.9582 67.2716 48.9873 64.9357C50.8958 62.7386 53.1568 61.5 56.25 61.5V53.5C50.5067 53.5 46.1426 56.0114 42.9478 59.6893C39.8736 63.2284 37.8805 67.8292 36.4442 72.2687L44.0558 74.7313ZM32 153.5C25.3726 153.5 20 148.127 20 141.5H12C12 152.546 20.9543 161.5 32 161.5V153.5ZM173.186 140.295C171.736 144.885 170.153 148.225 168.21 150.393C166.434 152.375 164.26 153.5 161 153.5V161.5C166.577 161.5 170.903 159.375 174.168 155.732C177.265 152.275 179.264 147.615 180.814 142.705L173.186 140.295ZM80.5 42C87.1274 42 92.5 47.3726 92.5 54H100.5C100.5 42.9543 91.5457 34 80.5 34V42ZM196.995 73.065C196.763 62.2192 187.9 53.5 177 53.5V61.5C183.539 61.5 188.858 66.7316 188.997 73.2363L196.995 73.065ZM56.25 42H80.5V34H56.25V42ZM96.5 53.5H56.25V61.5H96.5V53.5ZM20 54C20 47.3726 25.3726 42 32 42V34C20.9543 34 12 42.9543 12 54H20ZM32 42H56.25V34H32V42ZM12 54V141.5H20V54H12ZM35.7676 97.9776L44.0176 74.8436L36.4824 72.1564L28.2324 95.2904L35.7676 97.9776ZM196.814 74.7551C196.934 74.2433 197.008 73.6735 196.995 73.065L188.997 73.2363C188.994 73.0904 189.012 72.9842 189.027 72.9228L196.814 74.7551Z" fill="#94FFEC"/>
<path d="M197.533 158.579C197.74 157.585 198.581 156.82 199.596 156.82H203.793C204.964 156.82 205.894 157.823 205.681 158.974C205.262 161.237 204.488 163.303 203.358 165.172C201.88 167.596 199.803 169.506 197.129 170.904C194.455 172.301 191.204 173 187.377 173C184.442 173 181.8 172.476 179.452 171.428C177.104 170.358 175.093 168.851 173.418 166.908C171.744 164.943 170.461 162.573 169.57 159.8C168.7 157.027 168.265 153.926 168.265 150.498V146.535C168.265 143.107 168.711 140.006 169.602 137.233C170.516 134.459 171.82 132.09 173.516 130.125C175.212 128.138 177.245 126.62 179.615 125.572C182.007 124.524 184.692 124 187.671 124C191.454 124 194.65 124.699 197.259 126.096C199.869 127.494 201.891 129.426 203.326 131.894C204.44 133.781 205.223 135.878 205.676 138.186C205.904 139.349 204.97 140.377 203.785 140.377H199.646C198.623 140.377 197.779 139.601 197.578 138.598C197.316 137.29 196.927 136.125 196.411 135.104C195.694 133.641 194.628 132.527 193.215 131.763C191.802 130.977 189.954 130.584 187.671 130.584C185.801 130.584 184.17 130.933 182.779 131.632C181.387 132.33 180.224 133.357 179.289 134.711C178.354 136.064 177.647 137.735 177.169 139.722C176.712 141.687 176.484 143.936 176.484 146.469V150.498C176.484 152.9 176.691 155.084 177.104 157.049C177.539 158.992 178.191 160.663 179.061 162.06C179.952 163.458 181.083 164.539 182.452 165.303C183.822 166.067 185.464 166.449 187.377 166.449C189.704 166.449 191.584 166.078 193.02 165.336C194.476 164.593 195.574 163.512 196.314 162.093C196.849 161.079 197.256 159.907 197.533 158.579Z" fill="#00F3C8"/>
<path fill-rule="evenodd" clip-rule="evenodd" d="M88.0412 170.994C87.7638 171.802 87.0038 172.345 86.1495 172.345H81.8854C80.4891 172.345 79.5226 170.95 80.0126 169.643L96.8726 124.655H98.7969H102.352H104.309L121.229 169.641C121.721 170.949 120.755 172.345 119.357 172.345H115.063C114.21 172.345 113.45 171.803 113.172 170.996L110.258 162.525C109.981 161.718 109.221 161.176 108.367 161.176H92.8391C91.9848 161.176 91.2248 161.718 90.9474 162.527L88.0412 170.994ZM98.7025 139.932C99.3204 138.131 101.866 138.13 102.485 139.93L106.64 152.007C107.087 153.306 106.122 154.658 104.749 154.658H96.4491C95.0765 154.658 94.1118 153.307 94.5574 152.008L98.7025 139.932Z" fill="#00F3C8"/>
<path fill-rule="evenodd" clip-rule="evenodd" d="M135.749 172.345H130.694H127.563V126.655C127.563 125.551 128.458 124.655 129.563 124.655H143.674C146.283 124.655 148.61 124.906 150.654 125.408C152.719 125.911 154.469 126.697 155.904 127.767C157.361 128.815 158.459 130.147 159.199 131.763C159.96 133.379 160.34 135.3 160.34 137.527C160.34 139.493 159.873 141.294 158.938 142.932C158.003 144.548 156.622 145.869 154.796 146.895C154.386 147.125 153.953 147.335 153.498 147.524C154.622 147.814 155.62 148.238 156.492 148.795C158.187 149.865 159.449 151.251 160.275 152.955C161.101 154.658 161.514 156.492 161.514 158.457C161.514 161.492 160.851 164.036 159.525 166.089C158.22 168.141 156.339 169.703 153.882 170.773C151.425 171.821 148.468 172.345 145.011 172.345H135.749ZM148.305 144.013C147.066 144.537 145.555 144.799 143.772 144.799H136.238H135.749V133.206C135.749 132.101 136.644 131.206 137.749 131.206H143.674C145.609 131.206 147.196 131.435 148.436 131.894C149.697 132.352 150.632 133.084 151.241 134.088C151.849 135.093 152.154 136.392 152.154 137.986C152.154 139.427 151.828 140.661 151.175 141.687C150.523 142.692 149.566 143.467 148.305 144.013ZM149.643 164.91C148.403 165.521 146.859 165.827 145.011 165.827H137.749C136.644 165.827 135.749 164.931 135.749 163.827V150.793H136.173H145.37C147.262 150.793 148.795 151.109 149.969 151.743C151.143 152.354 152.002 153.238 152.545 154.396C153.089 155.531 153.361 156.874 153.361 158.424C153.361 159.909 153.045 161.209 152.415 162.322C151.806 163.414 150.882 164.277 149.643 164.91Z" fill="#00F3C8"/>
</svg>
