<svg width="185" height="152" viewBox="0 0 185 152" fill="none" xmlns="http://www.w3.org/2000/svg">
<path d="M28.2505 39.6549L32.0182 41.0038C32.0315 40.9663 32.0442 40.9288 32.0564 40.891L28.2505 39.6549ZM165.003 107.922L168.817 109.131C168.847 109.035 168.874 108.939 168.897 108.841L165.003 107.922ZM80.5015 20.0784C80.5015 22.2962 82.2925 24.0941 84.5016 24.0941C86.7108 24.0941 88.5017 22.2962 88.5017 20.0784H80.5015ZM16.2327 61.5308C15.4907 63.6197 16.5759 65.9171 18.6568 66.6624C20.7376 67.4073 23.0259 66.3171 23.7681 64.2285L16.2327 61.5308ZM177.03 39.0754L161.109 107.002L168.897 108.841L184.818 40.9149L177.03 39.0754ZM149.003 119.969H20.0004V128H149.003V119.969ZM84.5016 27.6078H165.003V19.5765H84.5016V27.6078ZM32.0564 40.891C33.3701 36.8146 34.9589 33.4021 36.988 31.057C38.8965 28.8513 41.1576 27.6078 44.2508 27.6078V19.5765C38.5074 19.5765 34.1433 22.0977 30.9484 25.79C27.8741 29.343 25.881 33.9619 24.4447 38.4188L32.0564 40.891ZM20.0004 119.969C13.3729 119.969 8.00015 114.575 8.00015 107.922H0C0 119.011 8.95447 128 20.0004 128V119.969ZM161.189 106.712C159.739 111.32 158.156 114.673 156.213 116.849C154.437 118.839 152.263 119.969 149.003 119.969V128C154.58 128 158.906 125.867 162.171 122.209C165.268 118.739 167.267 114.061 168.817 109.131L161.189 106.712ZM68.5013 8.03137C75.1288 8.03137 80.5015 13.425 80.5015 20.0784H88.5017C88.5017 8.98942 79.5472 0 68.5013 0V8.03137ZM184.999 39.2182C184.767 28.3299 175.903 19.5765 165.003 19.5765V27.6078C171.542 27.6078 176.861 32.86 177 39.3902L184.999 39.2182ZM44.2508 8.03137H68.5013V0H44.2508V8.03137ZM84.5016 19.5765H44.2508V27.6078H84.5016V19.5765ZM8.00015 20.0784C8.00015 13.425 13.3729 8.03137 20.0004 8.03137V0C8.95447 0 0 8.98942 0 20.0784H8.00015ZM20.0004 8.03137H44.2508V0H20.0004V8.03137ZM0 20.0784V107.922H8.00015V20.0784H0ZM23.7681 64.2285L32.0182 41.0038L24.4829 38.306L16.2327 61.5308L23.7681 64.2285ZM184.818 40.9149C184.938 40.4011 185.012 39.8291 184.999 39.2182L177 39.3902C176.997 39.2437 177.015 39.1371 177.03 39.0754L184.818 40.9149Z" fill="#D426FF"/>
<path d="M137 64C148.67 64 159.861 68.6357 168.113 76.8873C176.364 85.1389 181 96.3305 181 108C181 119.67 176.364 130.861 168.113 139.113C159.861 147.364 148.67 152 137 152C125.33 152 114.139 147.364 105.887 139.113C97.6357 130.861 93 119.67 93 108C93 96.3305 97.6357 85.1389 105.887 76.8873C114.139 68.6357 125.33 64 137 64ZM101.25 108C101.25 117.481 105.017 126.575 111.721 133.279C118.425 139.983 127.519 143.75 137 143.75C146.481 143.75 155.575 139.983 162.279 133.279C168.983 126.575 172.75 117.481 172.75 108C172.75 98.5185 168.983 89.4254 162.279 82.7209C155.575 76.0165 146.481 72.25 137 72.25C127.519 72.25 118.425 76.0165 111.721 82.7209C105.017 89.4254 101.25 98.5185 101.25 108ZM128.085 92.7485L151.536 106.823C151.739 106.945 151.907 107.118 152.023 107.324C152.14 107.53 152.201 107.763 152.201 108C152.201 108.237 152.14 108.47 152.023 108.676C151.907 108.882 151.739 109.055 151.536 109.177L128.085 123.251C127.876 123.377 127.638 123.445 127.394 123.449C127.151 123.452 126.911 123.391 126.699 123.271C126.487 123.151 126.311 122.977 126.188 122.767C126.065 122.557 126 122.318 126 122.075V93.931C125.999 93.6871 126.063 93.4473 126.186 93.2363C126.308 93.0253 126.484 92.8507 126.697 92.7303C126.909 92.61 127.149 92.5482 127.393 92.5514C127.637 92.5546 127.876 92.6226 128.085 92.7485Z" fill="white"/>
</svg>
