<svg width="200" height="200" viewBox="0 0 200 200" fill="none" xmlns="http://www.w3.org/2000/svg">
<path d="M56.25 53.5C54.0409 53.5 52.25 55.2909 52.25 57.5C52.25 59.7091 54.0409 61.5 56.25 61.5V53.5ZM173 73.5V141.5H181V73.5H173ZM161 153.5H32V161.5H161V153.5ZM20 141.5V57.5H12V141.5H20ZM20 57.5V54H12V57.5H20ZM96.5 61.5H161V53.5H96.5V61.5ZM20 54C20 47.3726 25.3726 42 32 42V34C20.9543 34 12 42.9543 12 54H20ZM32 153.5C25.3726 153.5 20 148.127 20 141.5H12C12 152.546 20.9543 161.5 32 161.5V153.5ZM173 141.5C173 148.127 167.627 153.5 161 153.5V161.5C172.046 161.5 181 152.546 181 141.5H173ZM80.5 42C87.1274 42 92.5 47.3726 92.5 54H100.5C100.5 42.9543 91.5457 34 80.5 34V42ZM181 73.5C181 62.4543 172.046 53.5 161 53.5V61.5C167.627 61.5 173 66.8726 173 73.5H181ZM32 42H56.25V34H32V42ZM56.25 42H80.5V34H56.25V42ZM96.5 53.5H56.25V61.5H96.5V53.5ZM92.5 54V57.5H100.5V54H92.5Z" fill="#D170FF"/>
<path d="M160.071 146.678C168.634 143.664 173.095 134.341 170.035 125.854C166.975 117.368 157.552 112.931 148.988 115.944L131.544 122.083C124.189 124.671 119.86 131.914 120.724 139.283C120.866 140.494 121.148 141.708 121.58 142.906C124.64 151.393 134.063 155.83 142.627 152.816L148.451 150.766M114.929 141.322C106.366 144.336 101.905 153.659 104.965 162.146C108.025 170.632 117.448 175.069 126.012 172.056L143.456 165.917C150.811 163.329 155.14 156.086 154.276 148.717C154.134 147.506 153.852 146.292 153.42 145.094C150.36 136.607 140.937 132.17 132.373 135.184L126.549 137.234" stroke="#B339EC" stroke-width="8" stroke-linecap="round" stroke-linejoin="round"/>
</svg>
