<svg width="200" height="275" viewBox="0 0 200 275" fill="none" xmlns="http://www.w3.org/2000/svg">
<path d="M40.25 148.5L44.0176 149.844C44.0309 149.806 44.0436 149.769 44.0558 149.731L40.25 148.5ZM177 216.5L180.814 217.705C180.844 217.609 180.871 217.513 180.894 217.416L177 216.5ZM92.5 129C92.5 131.209 94.2909 133 96.5 133C98.7091 133 100.5 131.209 100.5 129H92.5ZM28.2324 170.29C27.4904 172.371 28.5756 174.66 30.6564 175.402C32.7372 176.144 35.0255 175.058 35.7676 172.978L28.2324 170.29ZM192.92 148.839L196.814 149.755L192.92 148.839ZM192.996 148.151L196.995 148.065L192.996 148.151ZM189.027 147.923L173.106 215.584L180.894 217.416L196.814 149.755L189.027 147.923ZM161 228.5H32V236.5H161V228.5ZM96.5 136.5H177V128.5H96.5V136.5ZM44.0558 149.731C45.3695 145.671 46.9582 142.272 48.9873 139.936C50.8958 137.739 53.1568 136.5 56.25 136.5V128.5C50.5067 128.5 46.1426 131.011 42.9478 134.689C39.8736 138.228 37.8805 142.829 36.4442 147.269L44.0558 149.731ZM32 228.5C25.3726 228.5 20 223.127 20 216.5H12C12 227.546 20.9543 236.5 32 236.5V228.5ZM173.186 215.295C171.736 219.885 170.153 223.225 168.21 225.393C166.434 227.375 164.26 228.5 161 228.5V236.5C166.577 236.5 170.903 234.375 174.168 230.732C177.265 227.275 179.264 222.615 180.814 217.705L173.186 215.295ZM80.5 117C87.1274 117 92.5 122.373 92.5 129H100.5C100.5 117.954 91.5457 109 80.5 109V117ZM196.995 148.065C196.763 137.219 187.9 128.5 177 128.5V136.5C183.539 136.5 188.858 141.732 188.997 148.236L196.995 148.065ZM56.25 117H80.5V109H56.25V117ZM96.5 128.5H56.25V136.5H96.5V128.5ZM20 129C20 122.373 25.3726 117 32 117V109C20.9543 109 12 117.954 12 129H20ZM32 117H56.25V109H32V117ZM12 129V216.5H20V129H12ZM35.7676 172.978L44.0176 149.844L36.4824 147.156L28.2324 170.29L35.7676 172.978ZM196.814 149.755C196.934 149.243 197.008 148.674 196.995 148.065L188.997 148.236C188.994 148.09 189.012 147.984 189.027 147.923L196.814 149.755Z" fill="#94FFEC"/>
<path d="M161.539 81C163.727 81 165.5 79.1867 165.5 76.9992C165.5 74.8552 163.762 73.0781 161.618 73.0781C159.474 73.0781 157.736 71.3401 157.736 69.1962V63.9375H130.264V69.1962C130.264 71.3401 128.526 73.0781 126.382 73.0781C124.238 73.0781 122.5 74.8552 122.5 76.9992C122.5 79.1867 124.273 81 126.461 81H161.539Z" fill="#00F3C8"/>
<path d="M130.264 63.9375H157.736M130.264 63.9375V69.1962C130.264 71.3401 128.526 73.0781 126.382 73.0781V73.0781C124.238 73.0781 122.5 74.8552 122.5 76.9992V76.9992C122.5 79.1867 124.273 81 126.461 81H161.539C163.727 81 165.5 79.1867 165.5 76.9992V76.9992C165.5 74.8552 163.762 73.0781 161.618 73.0781V73.0781C159.474 73.0781 157.736 71.3401 157.736 69.1962V63.9375M130.264 63.9375H106C103.239 63.9375 101 61.6989 101 58.9375V8C101 5.23858 103.239 3 106 3H182C184.761 3 187 5.23858 187 8V58.9375C187 61.6989 184.761 63.9375 182 63.9375H157.736" stroke="#00F3C8" stroke-width="5"/>
</svg>
