<svg width="200" height="200" viewBox="0 0 200 200" fill="none" xmlns="http://www.w3.org/2000/svg">
<path d="M40.25 73.5L44.0176 74.8436C44.0309 74.8063 44.0436 74.7689 44.0558 74.7313L40.25 73.5ZM177 141.5L180.814 142.705C180.844 142.609 180.871 142.513 180.894 142.416L177 141.5ZM92.5 54C92.5 56.2091 94.2909 58 96.5 58C98.7091 58 100.5 56.2091 100.5 54H92.5ZM28.2324 95.2904C27.4904 97.3712 28.5756 99.6596 30.6564 100.402C32.7372 101.144 35.0255 100.058 35.7676 97.9776L28.2324 95.2904ZM192.92 73.8389L196.814 74.7551L192.92 73.8389ZM192.996 73.1507L196.995 73.065L192.996 73.1507ZM189.027 72.9228L173.106 140.584L180.894 142.416L196.814 74.7551L189.027 72.9228ZM161 153.5H32V161.5H161V153.5ZM96.5 61.5H177V53.5H96.5V61.5ZM44.0558 74.7313C45.3695 70.6708 46.9582 67.2716 48.9873 64.9357C50.8958 62.7386 53.1568 61.5 56.25 61.5V53.5C50.5067 53.5 46.1426 56.0114 42.9478 59.6893C39.8736 63.2284 37.8805 67.8292 36.4442 72.2687L44.0558 74.7313ZM32 153.5C25.3726 153.5 20 148.127 20 141.5H12C12 152.546 20.9543 161.5 32 161.5V153.5ZM173.186 140.295C171.736 144.885 170.153 148.225 168.21 150.393C166.434 152.375 164.26 153.5 161 153.5V161.5C166.577 161.5 170.903 159.375 174.168 155.732C177.265 152.275 179.264 147.615 180.814 142.705L173.186 140.295ZM80.5 42C87.1274 42 92.5 47.3726 92.5 54H100.5C100.5 42.9543 91.5457 34 80.5 34V42ZM196.995 73.065C196.763 62.2192 187.9 53.5 177 53.5V61.5C183.539 61.5 188.858 66.7316 188.997 73.2363L196.995 73.065ZM56.25 42H80.5V34H56.25V42ZM96.5 53.5H56.25V61.5H96.5V53.5ZM20 54C20 47.3726 25.3726 42 32 42V34C20.9543 34 12 42.9543 12 54H20ZM32 42H56.25V34H32V42ZM12 54V141.5H20V54H12ZM35.7676 97.9776L44.0176 74.8436L36.4824 72.1564L28.2324 95.2904L35.7676 97.9776ZM196.814 74.7551C196.934 74.2433 197.008 73.6735 196.995 73.065L188.997 73.2363C188.994 73.0904 189.012 72.9842 189.027 72.9228L196.814 74.7551Z" fill="#80D1FF"/>
<path fill-rule="evenodd" clip-rule="evenodd" d="M110.929 174.078C109.328 175.678 106.716 175.692 105.278 173.946C104.064 172.471 102.946 170.901 101.925 169.226C101.514 168.551 101.12 167.861 100.744 167.156C99.6781 165.158 100.69 162.748 102.783 161.882L105.932 160.578C105.937 160.576 105.939 160.571 105.937 160.566C105.249 158.905 104.702 157.22 104.29 155.526C104.181 155.071 104.081 154.614 103.99 154.156C103.899 153.7 103.817 153.241 103.744 152.78C103.478 151.062 103.339 149.302 103.339 147.509C103.339 147.504 103.335 147.5 103.33 147.5H99.9207C97.6555 147.5 95.7979 145.66 96.0177 143.407C96.0948 142.616 96.1939 141.832 96.3145 141.056C96.6013 139.235 97.0583 137.316 97.6224 135.453C98.2829 133.271 100.712 132.261 102.819 133.133L105.932 134.422C105.937 134.424 105.942 134.422 105.944 134.417C105.989 134.309 106.035 134.201 106.081 134.093C106.912 132.146 107.923 130.275 109.102 128.508C110.269 126.768 111.591 125.141 113.048 123.647L113.117 123.577C113.192 123.501 113.267 123.424 113.343 123.348C113.347 123.345 113.347 123.339 113.343 123.336L110.905 120.898C109.314 119.308 109.285 116.711 111.022 115.281C112.496 114.068 114.048 112.984 115.783 111.922C116.458 111.511 117.149 111.117 117.853 110.742C119.852 109.676 122.264 110.688 123.13 112.78L124.435 115.928C124.437 115.932 124.442 115.935 124.447 115.933C124.499 115.911 124.552 115.889 124.605 115.868C126.619 115.046 128.711 114.415 130.852 113.988C132.98 113.567 135.14 113.35 137.301 113.336C137.37 113.336 137.44 113.335 137.51 113.335C137.514 113.335 137.518 113.331 137.518 113.327V109.919C137.518 107.655 139.359 105.798 141.614 106.018C142.984 106.151 144.335 106.351 145.663 106.614C146.986 106.879 148.305 107.21 149.617 107.609C151.784 108.268 152.773 110.688 151.907 112.78L150.602 115.928C150.6 115.932 150.602 115.938 150.607 115.939C152.263 116.626 153.836 117.427 155.322 118.33C155.725 118.577 156.122 118.831 156.514 119.093C156.903 119.352 157.287 119.62 157.665 119.895C159.069 120.921 160.412 122.068 161.681 123.336C161.684 123.339 161.69 123.339 161.694 123.336L164.104 120.926C165.706 119.325 168.321 119.313 169.76 121.062C170.267 121.679 170.754 122.307 171.221 122.945C172.264 124.378 173.3 126.08 174.224 127.802C175.306 129.821 174.309 132.268 172.193 133.144L169.105 134.422C169.1 134.424 169.098 134.429 169.1 134.434C169.141 134.534 169.182 134.633 169.222 134.733C170.013 136.696 170.623 138.731 171.041 140.813C171.443 142.835 171.66 144.886 171.694 146.939C171.697 147.123 171.698 147.307 171.698 147.491C171.698 147.496 171.702 147.5 171.707 147.5H175.065C177.35 147.5 179.207 149.37 178.981 151.643C178.788 153.585 178.479 155.543 178.054 157.305C177.868 158.07 177.659 158.833 177.427 159.593C176.768 161.759 174.347 162.748 172.254 161.882L169.105 160.578C169.1 160.576 169.095 160.578 169.093 160.582C168.405 162.241 167.602 163.816 166.697 165.303C166.451 165.704 166.198 166.099 165.937 166.489C165.678 166.877 165.411 167.26 165.136 167.638C164.109 169.041 162.961 170.384 161.694 171.652C161.69 171.655 161.69 171.661 161.694 171.664L164.104 174.074C165.706 175.675 165.718 178.289 163.968 179.727C162.908 180.598 161.815 181.41 160.693 182.161C159.568 182.911 158.397 183.611 157.184 184.258C155.185 185.324 152.773 184.312 151.907 182.22L150.602 179.072C150.6 179.068 150.595 179.065 150.59 179.067C148.931 179.754 147.248 180.3 145.556 180.712C145.1 180.821 144.642 180.922 144.183 181.013C143.726 181.104 143.268 181.186 142.807 181.258C141.086 181.525 139.323 181.664 137.527 181.665C137.522 181.665 137.518 181.669 137.518 181.673V185.081C137.518 187.345 135.678 189.202 133.423 188.982C132.06 188.849 130.715 188.651 129.393 188.39C128.064 188.125 126.739 187.792 125.42 187.391C123.253 186.732 122.264 184.312 123.13 182.22L124.435 179.072C124.437 179.068 124.435 179.062 124.43 179.06C124.301 179.007 124.172 178.953 124.044 178.898C122.123 178.074 120.275 177.075 118.529 175.911C116.754 174.723 115.096 173.373 113.577 171.883C113.503 171.81 113.429 171.738 113.356 171.664C113.353 171.661 113.347 171.661 113.343 171.664L110.929 174.078ZM137.499 160.486C136.667 160.485 135.828 160.404 134.993 160.237C134.138 160.069 133.314 159.817 132.528 159.49C131.755 159.169 131.007 158.77 130.296 158.293C129.593 157.824 128.947 157.294 128.361 156.712C127.752 156.107 127.198 155.437 126.711 154.706C126.244 154.007 125.851 153.272 125.534 152.514C125.202 151.722 124.946 150.889 124.776 150.027C124.605 149.169 124.523 148.308 124.527 147.454C124.529 146.635 124.61 145.81 124.773 144.989C124.943 144.121 125.2 143.284 125.534 142.488C125.852 141.725 126.247 140.987 126.718 140.284C127.192 139.574 127.728 138.922 128.317 138.332C128.917 137.73 129.581 137.183 130.305 136.701C131.014 136.227 131.758 135.83 132.527 135.511C133.311 135.184 134.134 134.932 134.988 134.764C135.824 134.597 136.665 134.515 137.499 134.514C138.35 134.512 139.208 134.595 140.062 134.766C140.897 134.932 141.704 135.178 142.473 135.495C143.254 135.817 144.01 136.218 144.729 136.699C145.463 137.187 146.135 137.743 146.741 138.354C147.32 138.936 147.847 139.578 148.314 140.276C148.805 141.008 149.214 141.779 149.54 142.576C149.852 143.337 150.095 144.135 150.258 144.96C150.425 145.791 150.507 146.626 150.51 147.454C150.514 148.317 150.43 149.189 150.255 150.055C150.091 150.875 149.85 151.667 149.54 152.424C149.215 153.217 148.809 153.984 148.32 154.713C147.84 155.434 147.294 156.095 146.695 156.693C146.104 157.283 145.45 157.82 144.739 158.295C144.017 158.778 143.257 159.181 142.473 159.505C141.702 159.823 140.894 160.069 140.058 160.235C139.205 160.405 138.348 160.488 137.499 160.486Z" stroke="#2EB4FF" stroke-width="8"/>
</svg>
