<svg width="173" height="152" viewBox="0 0 173 152" fill="none" xmlns="http://www.w3.org/2000/svg">
<path d="M44.25 19.5C42.0409 19.5 40.25 21.2909 40.25 23.5C40.25 25.7091 42.0409 27.5 44.25 27.5V19.5ZM161 39.5V107.5H169V39.5H161ZM149 119.5H20V127.5H149V119.5ZM8 107.5V23.5H0V107.5H8ZM8 23.5V20H0V23.5H8ZM84.5 27.5H149V19.5H84.5V27.5ZM8 20C8 13.3726 13.3726 8 20 8V0C8.9543 0 0 8.9543 0 20H8ZM20 119.5C13.3726 119.5 8 114.127 8 107.5H0C0 118.546 8.9543 127.5 20 127.5V119.5ZM161 107.5C161 114.127 155.627 119.5 149 119.5V127.5C160.046 127.5 169 118.546 169 107.5H161ZM68.5 8C75.1274 8 80.5 13.3726 80.5 20H88.5C88.5 8.9543 79.5457 0 68.5 0V8ZM169 39.5C169 28.4543 160.046 19.5 149 19.5V27.5C155.627 27.5 161 32.8726 161 39.5H169ZM20 8H44.25V0H20V8ZM44.25 8H68.5V0H44.25V8ZM84.5 19.5H44.25V27.5H84.5V19.5ZM80.5 20V23.5H88.5V20H80.5Z" fill="#D426FF"/>
<path d="M129 64C140.67 64 151.861 68.6357 160.113 76.8873C168.364 85.1389 173 96.3305 173 108C173 119.67 168.364 130.861 160.113 139.113C151.861 147.364 140.67 152 129 152C117.33 152 106.139 147.364 97.8873 139.113C89.6357 130.861 85 119.67 85 108C85 96.3305 89.6357 85.1389 97.8873 76.8873C106.139 68.6357 117.33 64 129 64ZM93.25 108C93.25 117.481 97.0165 126.575 103.721 133.279C110.425 139.983 119.519 143.75 129 143.75C138.481 143.75 147.575 139.983 154.279 133.279C160.983 126.575 164.75 117.481 164.75 108C164.75 98.5185 160.983 89.4254 154.279 82.7209C147.575 76.0165 138.481 72.25 129 72.25C119.519 72.25 110.425 76.0165 103.721 82.7209C97.0165 89.4254 93.25 98.5185 93.25 108ZM120.084 92.7485L143.536 106.823C143.739 106.945 143.907 107.118 144.023 107.324C144.14 107.53 144.201 107.763 144.201 108C144.201 108.237 144.14 108.47 144.023 108.676C143.907 108.882 143.739 109.055 143.536 109.177L120.084 123.251C119.876 123.377 119.638 123.445 119.394 123.449C119.151 123.452 118.911 123.391 118.699 123.271C118.487 123.151 118.311 122.977 118.188 122.767C118.065 122.557 118 122.318 118 122.075V93.931C117.999 93.6871 118.063 93.4473 118.186 93.2363C118.308 93.0253 118.484 92.8507 118.697 92.7303C118.909 92.61 119.149 92.5482 119.393 92.5514C119.637 92.5546 119.876 92.6226 120.084 92.7485Z" fill="white"/>
</svg>
