<svg width="200" height="200" viewBox="0 0 200 200" fill="none" xmlns="http://www.w3.org/2000/svg">
<path d="M56.25 53.5C54.0409 53.5 52.25 55.2909 52.25 57.5C52.25 59.7091 54.0409 61.5 56.25 61.5V53.5ZM173 73.5V141.5H181V73.5H173ZM161 153.5H32V161.5H161V153.5ZM20 141.5V57.5H12V141.5H20ZM20 57.5V54H12V57.5H20ZM96.5 61.5H161V53.5H96.5V61.5ZM20 54C20 47.3726 25.3726 42 32 42V34C20.9543 34 12 42.9543 12 54H20ZM32 153.5C25.3726 153.5 20 148.127 20 141.5H12C12 152.546 20.9543 161.5 32 161.5V153.5ZM173 141.5C173 148.127 167.627 153.5 161 153.5V161.5C172.046 161.5 181 152.546 181 141.5H173ZM80.5 42C87.1274 42 92.5 47.3726 92.5 54H100.5C100.5 42.9543 91.5457 34 80.5 34V42ZM181 73.5C181 62.4543 172.046 53.5 161 53.5V61.5C167.627 61.5 173 66.8726 173 73.5H181ZM32 42H56.25V34H32V42ZM56.25 42H80.5V34H56.25V42ZM96.5 53.5H56.25V61.5H96.5V53.5ZM92.5 54V57.5H100.5V54H92.5Z" fill="#80D1FF"/>
<path d="M105.279 118.789V176.211H93.449V118.789H105.279ZM123.005 118.789V128.057H76V118.789H123.005Z" fill="#2EB4FF"/>
<path d="M159.13 161.185C159.13 160.16 158.972 159.24 158.655 158.424C158.365 157.583 157.811 156.821 156.993 156.137C156.176 155.427 155.028 154.73 153.551 154.047C152.074 153.363 150.161 152.653 147.814 151.917C145.202 151.076 142.723 150.129 140.375 149.078C138.054 148.026 135.997 146.803 134.203 145.41C132.436 143.99 131.037 142.347 130.009 140.48C129.006 138.613 128.505 136.444 128.505 133.973C128.505 131.58 129.033 129.411 130.088 127.465C131.143 125.493 132.62 123.811 134.519 122.417C136.419 120.997 138.661 119.906 141.246 119.144C143.857 118.381 146.719 118 149.832 118C154.079 118 157.785 118.762 160.95 120.287C164.115 121.812 166.569 123.903 168.309 126.558C170.077 129.214 170.96 132.25 170.96 135.668H159.17C159.17 133.986 158.813 132.513 158.101 131.251C157.415 129.963 156.36 128.951 154.936 128.215C153.538 127.478 151.771 127.11 149.634 127.11C147.576 127.11 145.862 127.426 144.49 128.057C143.119 128.662 142.09 129.49 141.404 130.541C140.718 131.567 140.375 132.724 140.375 134.012C140.375 134.985 140.613 135.866 141.087 136.654C141.589 137.443 142.327 138.179 143.303 138.863C144.279 139.547 145.479 140.191 146.904 140.795C148.328 141.4 149.977 141.992 151.85 142.57C154.989 143.517 157.745 144.582 160.119 145.765C162.52 146.948 164.524 148.276 166.133 149.748C167.742 151.22 168.956 152.89 169.773 154.757C170.591 156.623 171 158.74 171 161.106C171 163.604 170.512 165.839 169.536 167.811C168.56 169.783 167.149 171.452 165.302 172.82C163.456 174.187 161.253 175.225 158.695 175.935C156.136 176.645 153.274 177 150.109 177C147.26 177 144.451 176.632 141.681 175.896C138.911 175.133 136.392 173.99 134.124 172.465C131.882 170.94 130.088 168.994 128.743 166.628C127.397 164.261 126.725 161.461 126.725 158.227H138.634C138.634 160.015 138.911 161.527 139.465 162.763C140.019 163.998 140.797 164.998 141.8 165.76C142.828 166.523 144.042 167.075 145.44 167.416C146.864 167.758 148.421 167.929 150.109 167.929C152.166 167.929 153.854 167.64 155.173 167.061C156.519 166.483 157.508 165.681 158.141 164.656C158.8 163.63 159.13 162.473 159.13 161.185Z" fill="#2EB4FF"/>
</svg>
