<svg width="200" height="200" viewBox="0 0 200 200" fill="none" xmlns="http://www.w3.org/2000/svg">
<path d="M56.25 53.5C54.0409 53.5 52.25 55.2909 52.25 57.5C52.25 59.7091 54.0409 61.5 56.25 61.5V53.5ZM173 73.5V141.5H181V73.5H173ZM161 153.5H32V161.5H161V153.5ZM20 141.5V57.5H12V141.5H20ZM20 57.5V54H12V57.5H20ZM96.5 61.5H161V53.5H96.5V61.5ZM20 54C20 47.3726 25.3726 42 32 42V34C20.9543 34 12 42.9543 12 54H20ZM32 153.5C25.3726 153.5 20 148.127 20 141.5H12C12 152.546 20.9543 161.5 32 161.5V153.5ZM173 141.5C173 148.127 167.627 153.5 161 153.5V161.5C172.046 161.5 181 152.546 181 141.5H173ZM80.5 42C87.1274 42 92.5 47.3726 92.5 54H100.5C100.5 42.9543 91.5457 34 80.5 34V42ZM181 73.5C181 62.4543 172.046 53.5 161 53.5V61.5C167.627 61.5 173 66.8726 173 73.5H181ZM32 42H56.25V34H32V42ZM56.25 42H80.5V34H56.25V42ZM96.5 53.5H56.25V61.5H96.5V53.5ZM92.5 54V57.5H100.5V54H92.5Z" fill="#94FFEC"/>
<path d="M161.539 186C163.727 186 165.5 184.187 165.5 181.999C165.5 179.855 163.762 178.078 161.618 178.078C159.474 178.078 157.736 176.34 157.736 174.196V168.938H130.264V174.196C130.264 176.34 128.526 178.078 126.382 178.078C124.238 178.078 122.5 179.855 122.5 181.999C122.5 184.187 124.273 186 126.461 186H161.539Z" fill="#00F3C8"/>
<path d="M130.264 168.938H157.736M130.264 168.938V174.196C130.264 176.34 128.526 178.078 126.382 178.078V178.078C124.238 178.078 122.5 179.855 122.5 181.999V181.999C122.5 184.187 124.273 186 126.461 186H161.539C163.727 186 165.5 184.187 165.5 181.999V181.999C165.5 179.855 163.762 178.078 161.618 178.078V178.078C159.474 178.078 157.736 176.34 157.736 174.196V168.938M130.264 168.938H106C103.239 168.938 101 166.699 101 163.937V113C101 110.239 103.239 108 106 108H182C184.761 108 187 110.239 187 113V163.938C187 166.699 184.761 168.938 182 168.938H157.736" stroke="#00F3C8" stroke-width="5"/>
</svg>
