<svg width="200" height="200" viewBox="0 0 200 200" fill="none" xmlns="http://www.w3.org/2000/svg">
<path d="M56.25 53.5C54.0409 53.5 52.25 55.2909 52.25 57.5C52.25 59.7091 54.0409 61.5 56.25 61.5V53.5ZM173 73.5V141.5H181V73.5H173ZM161 153.5H32V161.5H161V153.5ZM20 141.5V57.5H12V141.5H20ZM20 57.5V54H12V57.5H20ZM96.5 61.5H161V53.5H96.5V61.5ZM20 54C20 47.3726 25.3726 42 32 42V34C20.9543 34 12 42.9543 12 54H20ZM32 153.5C25.3726 153.5 20 148.127 20 141.5H12C12 152.546 20.9543 161.5 32 161.5V153.5ZM173 141.5C173 148.127 167.627 153.5 161 153.5V161.5C172.046 161.5 181 152.546 181 141.5H173ZM80.5 42C87.1274 42 92.5 47.3726 92.5 54H100.5C100.5 42.9543 91.5457 34 80.5 34V42ZM181 73.5C181 62.4543 172.046 53.5 161 53.5V61.5C167.627 61.5 173 66.8726 173 73.5H181ZM32 42H56.25V34H32V42ZM56.25 42H80.5V34H56.25V42ZM96.5 53.5H56.25V61.5H96.5V53.5ZM92.5 54V57.5H100.5V54H92.5Z" fill="#D170FF"/>
<path d="M123.396 125.083C123.396 132.732 117.263 138.933 109.698 138.933C102.133 138.933 96 132.732 96 125.083C96 117.434 102.133 111.233 109.698 111.233C117.263 111.233 123.396 117.434 123.396 125.083Z" stroke="#B339EC" stroke-width="8"/>
<path d="M184 157.819C184 167.09 176.566 174.606 167.396 174.606C158.226 174.606 150.792 167.09 150.792 157.819C150.792 148.547 158.226 141.031 167.396 141.031C176.566 141.031 184 148.547 184 157.819Z" stroke="#B339EC" stroke-width="8"/>
<path d="M176.528 113.751C176.528 120.241 171.325 125.503 164.906 125.503C158.487 125.503 153.283 120.241 153.283 113.751C153.283 107.261 158.487 102 164.906 102C171.325 102 176.528 107.261 176.528 113.751Z" stroke="#B339EC" stroke-width="8"/>
<path d="M143.736 162.016C143.736 173.605 134.444 183 122.981 183C111.519 183 102.226 173.605 102.226 162.016C102.226 150.426 111.519 141.031 122.981 141.031C134.444 141.031 143.736 150.426 143.736 162.016Z" stroke="#B339EC" stroke-width="8"/>
</svg>
