<svg width="200" height="200" viewBox="0 0 200 200" fill="none" xmlns="http://www.w3.org/2000/svg">
<path d="M40.25 73.5L44.0176 74.8436C44.0309 74.8063 44.0436 74.7689 44.0558 74.7313L40.25 73.5ZM177 141.5L180.814 142.705C180.844 142.609 180.871 142.513 180.894 142.416L177 141.5ZM92.5 54C92.5 56.2091 94.2909 58 96.5 58C98.7091 58 100.5 56.2091 100.5 54H92.5ZM28.2324 95.2904C27.4904 97.3712 28.5756 99.6596 30.6564 100.402C32.7372 101.144 35.0255 100.058 35.7676 97.9776L28.2324 95.2904ZM192.92 73.8389L196.814 74.7551L192.92 73.8389ZM192.996 73.1507L196.995 73.065L192.996 73.1507ZM189.027 72.9228L173.106 140.584L180.894 142.416L196.814 74.7551L189.027 72.9228ZM161 153.5H32V161.5H161V153.5ZM96.5 61.5H177V53.5H96.5V61.5ZM44.0558 74.7313C45.3695 70.6708 46.9582 67.2716 48.9873 64.9357C50.8958 62.7386 53.1568 61.5 56.25 61.5V53.5C50.5067 53.5 46.1426 56.0114 42.9478 59.6893C39.8736 63.2284 37.8805 67.8292 36.4442 72.2687L44.0558 74.7313ZM32 153.5C25.3726 153.5 20 148.127 20 141.5H12C12 152.546 20.9543 161.5 32 161.5V153.5ZM173.186 140.295C171.736 144.885 170.153 148.225 168.21 150.393C166.434 152.375 164.26 153.5 161 153.5V161.5C166.577 161.5 170.903 159.375 174.168 155.732C177.265 152.275 179.264 147.615 180.814 142.705L173.186 140.295ZM80.5 42C87.1274 42 92.5 47.3726 92.5 54H100.5C100.5 42.9543 91.5457 34 80.5 34V42ZM196.995 73.065C196.763 62.2192 187.9 53.5 177 53.5V61.5C183.539 61.5 188.858 66.7316 188.997 73.2363L196.995 73.065ZM56.25 42H80.5V34H56.25V42ZM96.5 53.5H56.25V61.5H96.5V53.5ZM20 54C20 47.3726 25.3726 42 32 42V34C20.9543 34 12 42.9543 12 54H20ZM32 42H56.25V34H32V42ZM12 54V141.5H20V54H12ZM35.7676 97.9776L44.0176 74.8436L36.4824 72.1564L28.2324 95.2904L35.7676 97.9776ZM196.814 74.7551C196.934 74.2433 197.008 73.6735 196.995 73.065L188.997 73.2363C188.994 73.0904 189.012 72.9842 189.027 72.9228L196.814 74.7551Z" fill="#DFFF85"/>
<path d="M112 119.454C112 114.233 116.233 110 121.454 110H160.546C165.767 110 170 114.233 170 119.454V158.546C170 163.767 165.767 168 160.546 168H121.454C116.233 168 112 163.767 112 158.546V119.454Z" stroke="#AFED00" stroke-width="8"/>
<path fill-rule="evenodd" clip-rule="evenodd" d="M135.913 99.1965C135.913 101.514 137.792 103.393 140.11 103.393H141.89C144.208 103.393 146.087 101.514 146.087 99.1965C146.087 96.8789 144.208 95 141.89 95H140.11C137.792 95 135.913 96.8789 135.913 99.1965ZM180.803 133.913C178.486 133.913 176.607 135.792 176.607 138.11V139.89C176.607 142.208 178.486 144.087 180.803 144.087C183.121 144.087 185 142.208 185 139.89V138.11C185 135.792 183.121 133.913 180.803 133.913ZM146.087 178.803C146.087 176.486 144.208 174.607 141.89 174.607H140.11C137.792 174.607 135.913 176.486 135.913 178.803C135.913 181.121 137.792 183 140.11 183H141.89C144.208 183 146.087 181.121 146.087 178.803ZM101.197 133.913C103.514 133.913 105.393 135.792 105.393 138.11V139.89C105.393 142.208 103.514 144.087 101.197 144.087C98.8789 144.087 97 142.208 97 139.89V138.11C97 135.792 98.8789 133.913 101.197 133.913Z" fill="#AFED00"/>
<path d="M129.809 178.803C129.809 181.121 127.93 183 125.612 183H123.833C121.515 183 119.636 181.121 119.636 178.803C119.636 176.484 121.516 174.605 123.834 174.605L125.613 174.606C127.931 174.606 129.809 176.485 129.809 178.803Z" fill="#AFED00"/>
<path d="M162.364 178.803C162.364 181.121 160.485 183 158.167 183H156.388C154.07 183 152.191 181.121 152.191 178.803C152.191 176.485 154.069 174.606 156.387 174.606L158.166 174.605C160.484 174.605 162.364 176.484 162.364 178.803Z" fill="#AFED00"/>
<path d="M101.197 160.364C98.8792 160.364 97 158.485 97 156.167V154.388C97 152.07 98.8791 150.191 101.197 150.191C103.515 150.191 105.394 152.069 105.394 154.387L105.395 156.166C105.395 158.484 103.516 160.364 101.197 160.364Z" fill="#AFED00"/>
<path d="M101.197 127.809C98.8791 127.809 97 125.93 97 123.612V121.833C97 119.515 98.8792 117.636 101.197 117.636C103.516 117.636 105.395 119.516 105.395 121.834L105.394 123.613C105.394 125.931 103.515 127.809 101.197 127.809Z" fill="#AFED00"/>
<path d="M119.636 99.1973C119.636 96.8792 121.515 95 123.833 95H125.612C127.93 95 129.809 96.8791 129.809 99.1971C129.809 101.515 127.931 103.394 125.613 103.394L123.834 103.395C121.516 103.395 119.636 101.516 119.636 99.1973Z" fill="#AFED00"/>
<path d="M152.191 99.1971C152.191 96.8791 154.07 95 156.388 95H158.167C160.485 95 162.364 96.8792 162.364 99.1973C162.364 101.516 160.484 103.395 158.166 103.395L156.387 103.394C154.069 103.394 152.191 101.515 152.191 99.1971Z" fill="#AFED00"/>
<path d="M180.803 117.636C183.121 117.636 185 119.515 185 121.833V123.612C185 125.93 183.121 127.809 180.803 127.809C178.485 127.809 176.606 125.931 176.606 123.613L176.605 121.834C176.605 119.516 178.484 117.636 180.803 117.636Z" fill="#AFED00"/>
<path d="M180.803 150.191C183.121 150.191 185 152.07 185 154.388V156.167C185 158.485 183.121 160.364 180.803 160.364C178.484 160.364 176.605 158.484 176.605 156.166L176.606 154.387C176.606 152.069 178.485 150.191 180.803 150.191Z" fill="#AFED00"/>
<path d="M111.667 155.392H170.334M111.667 123.471H170.334" stroke="#AFED00" stroke-width="8" stroke-linecap="round" stroke-linejoin="round" stroke-dasharray="8 13"/>
</svg>
