<svg width="200" height="200" viewBox="0 0 200 200" fill="none" xmlns="http://www.w3.org/2000/svg">
<path d="M56.25 53.5C54.0409 53.5 52.25 55.2909 52.25 57.5C52.25 59.7091 54.0409 61.5 56.25 61.5V53.5ZM173 73.5V141.5H181V73.5H173ZM161 153.5H32V161.5H161V153.5ZM20 141.5V57.5H12V141.5H20ZM20 57.5V54H12V57.5H20ZM96.5 61.5H161V53.5H96.5V61.5ZM20 54C20 47.3726 25.3726 42 32 42V34C20.9543 34 12 42.9543 12 54H20ZM32 153.5C25.3726 153.5 20 148.127 20 141.5H12C12 152.546 20.9543 161.5 32 161.5V153.5ZM173 141.5C173 148.127 167.627 153.5 161 153.5V161.5C172.046 161.5 181 152.546 181 141.5H173ZM80.5 42C87.1274 42 92.5 47.3726 92.5 54H100.5C100.5 42.9543 91.5457 34 80.5 34V42ZM181 73.5C181 62.4543 172.046 53.5 161 53.5V61.5C167.627 61.5 173 66.8726 173 73.5H181ZM32 42H56.25V34H32V42ZM56.25 42H80.5V34H56.25V42ZM96.5 53.5H56.25V61.5H96.5V53.5ZM92.5 54V57.5H100.5V54H92.5Z" fill="#84FFC4"/>
<path d="M129.853 90.896C131.923 89.7013 134.472 89.7013 136.541 90.896L166.051 107.933C168.12 109.128 169.394 111.336 169.394 113.725V147.8C169.394 150.189 168.12 152.397 166.051 153.591L136.541 170.629C134.472 171.823 131.923 171.823 129.853 170.629L100.344 153.591C98.2746 152.397 97 150.189 97 147.8V113.725C97 111.336 98.2746 109.128 100.344 107.933L129.853 90.896Z" stroke="#00E878" stroke-width="8"/>
<path d="M122.513 115.312H129.003V137.119C129.003 139.123 128.556 140.897 127.662 142.44C126.782 143.969 125.534 145.152 123.919 145.988C122.304 146.825 120.479 147.243 118.446 147.243C115.114 147.243 112.518 146.399 110.658 144.712C108.797 143.01 107.867 140.609 107.867 137.508H114.4C114.4 139.051 114.725 140.19 115.374 140.926C116.023 141.662 117.047 142.029 118.446 142.029C119.686 142.029 120.674 141.604 121.41 140.753C122.145 139.902 122.513 138.691 122.513 137.119V115.312Z" fill="#00E878"/>
<path d="M151.339 138.546C151.339 137.32 150.906 136.383 150.041 135.734C149.175 135.071 147.618 134.378 145.368 133.657C143.118 132.922 141.337 132.201 140.024 131.494C136.448 129.561 134.659 126.958 134.659 123.684C134.659 121.983 135.135 120.468 136.087 119.141C137.054 117.8 138.431 116.755 140.219 116.005C142.022 115.255 144.041 114.88 146.276 114.88C148.526 114.88 150.531 115.291 152.291 116.113C154.05 116.92 155.413 118.067 156.379 119.552C157.36 121.038 157.85 122.725 157.85 124.615H151.36C151.36 123.172 150.906 122.055 149.997 121.261C149.089 120.454 147.812 120.05 146.168 120.05C144.582 120.05 143.349 120.389 142.469 121.067C141.589 121.73 141.149 122.61 141.149 123.706C141.149 124.73 141.661 125.588 142.685 126.28C143.724 126.973 145.245 127.622 147.25 128.227C150.942 129.338 153.632 130.715 155.319 132.359C157.007 134.003 157.85 136.051 157.85 138.503C157.85 141.229 156.819 143.371 154.757 144.928C152.694 146.471 149.918 147.243 146.428 147.243C144.005 147.243 141.798 146.803 139.808 145.923C137.818 145.029 136.296 143.81 135.244 142.267C134.205 140.724 133.686 138.936 133.686 136.902H140.198C140.198 140.378 142.274 142.116 146.428 142.116C147.971 142.116 149.175 141.806 150.041 141.186C150.906 140.551 151.339 139.671 151.339 138.546Z" fill="#00E878"/>
</svg>
