<svg width="200" height="200" viewBox="0 0 200 200" fill="none" xmlns="http://www.w3.org/2000/svg">
<path d="M56.25 53.5C54.0409 53.5 52.25 55.2909 52.25 57.5C52.25 59.7091 54.0409 61.5 56.25 61.5V53.5ZM173 73.5V141.5H181V73.5H173ZM161 153.5H32V161.5H161V153.5ZM20 141.5V57.5H12V141.5H20ZM20 57.5V54H12V57.5H20ZM96.5 61.5H161V53.5H96.5V61.5ZM20 54C20 47.3726 25.3726 42 32 42V34C20.9543 34 12 42.9543 12 54H20ZM32 153.5C25.3726 153.5 20 148.127 20 141.5H12C12 152.546 20.9543 161.5 32 161.5V153.5ZM173 141.5C173 148.127 167.627 153.5 161 153.5V161.5C172.046 161.5 181 152.546 181 141.5H173ZM80.5 42C87.1274 42 92.5 47.3726 92.5 54H100.5C100.5 42.9543 91.5457 34 80.5 34V42ZM181 73.5C181 62.4543 172.046 53.5 161 53.5V61.5C167.627 61.5 173 66.8726 173 73.5H181ZM32 42H56.25V34H32V42ZM56.25 42H80.5V34H56.25V42ZM96.5 53.5H56.25V61.5H96.5V53.5ZM92.5 54V57.5H100.5V54H92.5Z" fill="#DFFF85"/>
<path d="M110 178C110 175.791 111.791 174 114 174H177C179.209 174 181 175.791 181 178V179C181 181.209 179.209 183 177 183H114C111.791 183 110 181.209 110 179V178Z" stroke="#AFED00" stroke-width="8" stroke-linejoin="round"/>
<path d="M147.091 167.185C146.312 168.272 144.688 168.272 143.909 167.185L119.367 132.973C118.444 131.687 119.369 129.902 120.958 129.902H132.146C133.225 129.902 134.1 129.032 134.1 127.959V99.9427C134.1 98.8698 134.975 98 136.055 98H154.294C155.373 98 156.248 98.8698 156.248 99.9427V127.959C156.248 129.032 157.123 129.902 158.202 129.902H170.042C171.631 129.902 172.556 131.687 171.633 132.973L147.091 167.185Z" stroke="#AFED00" stroke-width="8" stroke-linejoin="round"/>
</svg>
