<svg width="205" height="200" viewBox="0 0 205 200" fill="none" xmlns="http://www.w3.org/2000/svg">
<path d="M40.25 73.5L44.0176 74.8436C44.0309 74.8063 44.0436 74.7689 44.0558 74.7313L40.25 73.5ZM177 141.5L180.814 142.705C180.844 142.609 180.871 142.513 180.894 142.416L177 141.5ZM92.5 54C92.5 56.2091 94.2909 58 96.5 58C98.7091 58 100.5 56.2091 100.5 54H92.5ZM28.2324 95.2904C27.4904 97.3712 28.5756 99.6596 30.6564 100.402C32.7372 101.144 35.0255 100.058 35.7676 97.9776L28.2324 95.2904ZM192.92 73.8389L196.814 74.7551L192.92 73.8389ZM192.996 73.1507L196.995 73.065L192.996 73.1507ZM189.027 72.9228L173.106 140.584L180.894 142.416L196.814 74.7551L189.027 72.9228ZM161 153.5H32V161.5H161V153.5ZM96.5 61.5H177V53.5H96.5V61.5ZM44.0558 74.7313C45.3695 70.6708 46.9582 67.2716 48.9873 64.9357C50.8958 62.7386 53.1568 61.5 56.25 61.5V53.5C50.5067 53.5 46.1426 56.0114 42.9478 59.6893C39.8736 63.2284 37.8805 67.8292 36.4442 72.2687L44.0558 74.7313ZM32 153.5C25.3726 153.5 20 148.127 20 141.5H12C12 152.546 20.9543 161.5 32 161.5V153.5ZM173.186 140.295C171.736 144.885 170.153 148.225 168.21 150.393C166.434 152.375 164.26 153.5 161 153.5V161.5C166.577 161.5 170.903 159.375 174.168 155.732C177.265 152.275 179.264 147.615 180.814 142.705L173.186 140.295ZM80.5 42C87.1274 42 92.5 47.3726 92.5 54H100.5C100.5 42.9543 91.5457 34 80.5 34V42ZM196.995 73.065C196.763 62.2192 187.9 53.5 177 53.5V61.5C183.539 61.5 188.858 66.7316 188.997 73.2363L196.995 73.065ZM56.25 42H80.5V34H56.25V42ZM96.5 53.5H56.25V61.5H96.5V53.5ZM20 54C20 47.3726 25.3726 42 32 42V34C20.9543 34 12 42.9543 12 54H20ZM32 42H56.25V34H32V42ZM12 54V141.5H20V54H12ZM35.7676 97.9776L44.0176 74.8436L36.4824 72.1564L28.2324 95.2904L35.7676 97.9776ZM196.814 74.7551C196.934 74.2433 197.008 73.6735 196.995 73.065L188.997 73.2363C188.994 73.0904 189.012 72.9842 189.027 72.9228L196.814 74.7551Z" fill="#FFD37E"/>
<path d="M123.244 117V113C121.035 113 119.244 114.791 119.244 117H123.244ZM133.087 117H137.087C137.087 114.791 135.296 113 133.087 113V117ZM133.087 154V158C135.296 158 137.087 156.209 137.087 154H133.087ZM123.244 154H119.244C119.244 156.209 121.035 158 123.244 158V154ZM76 173H72C72 175.209 73.7909 177 76 177V173ZM76 163V159C73.7909 159 72 160.791 72 163H76ZM112.417 163H116.417C116.417 160.791 114.626 159 112.417 159V163ZM112.417 173V177C114.626 177 116.417 175.209 116.417 173H112.417ZM110.449 152V148C108.24 148 106.449 149.791 106.449 152H110.449ZM100.606 119.5V115.5C100.547 115.5 100.489 115.501 100.43 115.504L100.606 119.5ZM153.756 154V158C155.965 158 157.756 156.209 157.756 154H153.756ZM143.913 154H139.913C139.913 156.209 141.704 158 143.913 158V154ZM143.913 117V113C141.704 113 139.913 114.791 139.913 117H143.913ZM153.756 117H157.756C157.756 114.791 155.965 113 153.756 113V117ZM201 98H205C205 95.7909 203.209 94 201 94V98ZM201 108V112C203.209 112 205 110.209 205 108H201ZM164.583 108H160.583C160.583 110.209 162.374 112 164.583 112V108ZM164.583 98V94C162.374 94 160.583 95.7909 160.583 98H164.583ZM166.551 119V123C168.76 123 170.551 121.209 170.551 119H166.551ZM176.394 151.5V155.5C176.453 155.5 176.511 155.499 176.57 155.496L176.394 151.5ZM123.244 121H133.087V113H123.244V121ZM129.087 117V154H137.087V117H129.087ZM133.087 150H123.244V158H133.087V150ZM80 173V163H72V173H80ZM108.417 163V173H116.417V163H108.417ZM112.417 169H76V177H112.417V169ZM127.244 154V152H119.244V154H127.244ZM123.244 148H110.449V156H123.244V148ZM110.449 167H112.417V159H110.449V167ZM106.449 152V163H114.449V152H106.449ZM127.244 152V119.5H119.244V152H127.244ZM127.244 119.5V117H119.244V119.5H127.244ZM123.244 115.5H100.606V123.5H123.244V115.5ZM76 167H78.4606V159H76V167ZM78.4606 167H110.449V159H78.4606V167ZM82.4606 163V140H74.4606V163H82.4606ZM82.4606 140C82.4606 131.247 90.9398 123.931 100.783 123.496L100.43 115.504C87.635 116.069 74.4606 125.753 74.4606 140H82.4606ZM153.756 150H143.913V158H153.756V150ZM147.913 154V117H139.913V154H147.913ZM143.913 121H153.756V113H143.913V121ZM197 98V108H205V98H197ZM168.583 108V98H160.583V108H168.583ZM164.583 102H201V94H164.583V102ZM149.756 117V119H157.756V117H149.756ZM153.756 123H166.551V115H153.756V123ZM166.551 104H164.583V112H166.551V104ZM170.551 119V108H162.551V119H170.551ZM149.756 119V151.5H157.756V119H149.756ZM149.756 151.5V154H157.756V151.5H149.756ZM153.756 155.5H176.394V147.5H153.756V155.5ZM201 104H198.539V112H201V104ZM198.539 104H166.551V112H198.539V104ZM194.539 108V131H202.539V108H194.539ZM194.539 131C194.539 139.753 186.06 147.069 176.217 147.504L176.57 155.496C189.365 154.931 202.539 145.247 202.539 131H194.539Z" fill="#FFA800"/>
</svg>
