<svg width="200" height="200" viewBox="0 0 200 200" fill="none" xmlns="http://www.w3.org/2000/svg">
<path d="M40.25 73.5L44.0176 74.8436C44.0309 74.8063 44.0436 74.7689 44.0558 74.7313L40.25 73.5ZM177 141.5L180.814 142.705C180.844 142.609 180.871 142.513 180.894 142.416L177 141.5ZM92.5 54C92.5 56.2091 94.2909 58 96.5 58C98.7091 58 100.5 56.2091 100.5 54H92.5ZM28.2324 95.2904C27.4904 97.3712 28.5756 99.6596 30.6564 100.402C32.7372 101.144 35.0255 100.058 35.7676 97.9776L28.2324 95.2904ZM192.92 73.8389L196.814 74.7551L192.92 73.8389ZM192.996 73.1507L196.995 73.065L192.996 73.1507ZM189.027 72.9228L173.106 140.584L180.894 142.416L196.814 74.7551L189.027 72.9228ZM161 153.5H32V161.5H161V153.5ZM96.5 61.5H177V53.5H96.5V61.5ZM44.0558 74.7313C45.3695 70.6708 46.9582 67.2716 48.9873 64.9357C50.8958 62.7386 53.1568 61.5 56.25 61.5V53.5C50.5067 53.5 46.1426 56.0114 42.9478 59.6893C39.8736 63.2284 37.8805 67.8292 36.4442 72.2687L44.0558 74.7313ZM32 153.5C25.3726 153.5 20 148.127 20 141.5H12C12 152.546 20.9543 161.5 32 161.5V153.5ZM173.186 140.295C171.736 144.885 170.153 148.225 168.21 150.393C166.434 152.375 164.26 153.5 161 153.5V161.5C166.577 161.5 170.903 159.375 174.168 155.732C177.265 152.275 179.264 147.615 180.814 142.705L173.186 140.295ZM80.5 42C87.1274 42 92.5 47.3726 92.5 54H100.5C100.5 42.9543 91.5457 34 80.5 34V42ZM196.995 73.065C196.763 62.2192 187.9 53.5 177 53.5V61.5C183.539 61.5 188.858 66.7316 188.997 73.2363L196.995 73.065ZM56.25 42H80.5V34H56.25V42ZM96.5 53.5H56.25V61.5H96.5V53.5ZM20 54C20 47.3726 25.3726 42 32 42V34C20.9543 34 12 42.9543 12 54H20ZM32 42H56.25V34H32V42ZM12 54V141.5H20V54H12ZM35.7676 97.9776L44.0176 74.8436L36.4824 72.1564L28.2324 95.2904L35.7676 97.9776ZM196.814 74.7551C196.934 74.2433 197.008 73.6735 196.995 73.065L188.997 73.2363C188.994 73.0904 189.012 72.9842 189.027 72.9228L196.814 74.7551Z" fill="#5C8AFF"/>
<path d="M153.43 175.662L152.438 171.787C152.29 171.825 152.144 171.872 152.001 171.926L153.43 175.662ZM180.321 163.355L181.191 159.451L180.321 163.355ZM156.183 105.427L153.522 108.414C153.66 108.537 153.807 108.65 153.961 108.753L156.183 105.427ZM152.16 105.427L154.662 108.548L152.16 105.427ZM110.745 168.518L107.491 170.844L110.745 168.518ZM111.932 153.381L115.159 155.746L111.932 153.381ZM155.874 133.494L152.249 131.804L155.874 133.494ZM159.671 155.267L155.684 155.581L159.671 155.267ZM137.833 177.993L137.894 173.994L137.833 177.993ZM179.458 154.517L178.671 158.439L179.458 154.517ZM178.644 154.448L178.747 158.447L178.644 154.448ZM154.422 179.538C159.997 178.111 166.429 174.572 171.413 171.793C174.021 170.338 176.228 169.089 177.991 168.227C178.871 167.796 179.509 167.528 179.939 167.387C180.55 167.188 180.201 167.427 179.452 167.26L181.191 159.451C179.679 159.114 178.229 159.53 177.458 159.782C176.506 160.093 175.481 160.548 174.475 161.041C172.464 162.024 170.005 163.417 167.516 164.806C162.303 167.713 156.815 170.668 152.438 171.787L154.422 179.538ZM179.452 167.26C182.113 167.852 184.251 166.44 185.391 165.283C186.625 164.031 187.528 162.32 187.86 160.482C188.201 158.596 187.971 156.33 186.547 154.33C185.122 152.328 182.884 151.125 180.245 150.595L178.671 158.439C179.912 158.688 180.096 159.063 180.029 158.969C179.963 158.876 180.026 158.847 179.987 159.059C179.94 159.32 179.791 159.568 179.693 159.667C179.654 159.707 179.719 159.624 179.934 159.535C180.166 159.439 180.62 159.324 181.191 159.451L179.452 167.26ZM178.541 150.45C172.547 150.603 167.047 153.467 163.429 155.439L167.258 162.463C170.958 160.446 174.904 158.546 178.747 158.447L178.541 150.45ZM163.659 154.954C163.337 150.86 162.324 145.871 159.875 141.588L152.93 145.559C154.581 148.446 155.414 152.147 155.684 155.581L163.659 154.954ZM159.5 135.183C161.932 129.965 163.242 123.148 163.367 117.242C163.43 114.274 163.199 111.342 162.56 108.829C161.963 106.481 160.811 103.708 158.405 102.101L153.961 108.753C153.859 108.685 154.358 109.038 154.807 110.801C155.213 112.398 155.422 114.562 155.369 117.073C155.262 122.126 154.113 127.802 152.249 131.804L159.5 135.183ZM158.843 102.44C158.008 101.696 156.709 100.964 155.117 100.743C153.371 100.501 151.407 100.903 149.657 102.306L154.662 108.548C154.672 108.539 154.597 108.599 154.438 108.641C154.285 108.681 154.137 108.684 154.019 108.667C153.911 108.653 153.836 108.624 153.785 108.599C153.743 108.579 153.655 108.532 153.522 108.414L158.843 102.44ZM149.657 102.306C149.9 102.111 151.394 101.085 153.267 102.004C153.972 102.35 154.361 102.826 154.521 103.051C154.687 103.284 154.754 103.453 154.755 103.455C154.762 103.472 154.746 103.435 154.709 103.313C154.674 103.195 154.633 103.044 154.582 102.84C154.496 102.502 154.341 101.852 154.196 101.312C153.902 100.215 153.39 98.5165 152.335 97.0567C151.137 95.3988 149.185 94 146.443 94V102C146.395 102 146.225 101.98 146.031 101.871C145.86 101.774 145.81 101.686 145.85 101.742C145.993 101.94 146.209 102.416 146.47 103.388C146.603 103.882 146.684 104.241 146.827 104.806C146.941 105.255 147.112 105.907 147.361 106.51C147.517 106.887 148.128 108.393 149.744 109.186C151.972 110.279 153.889 109.167 154.662 108.548L149.657 102.306ZM146.443 94C143.793 94 141.757 95.2978 140.374 96.7109C139.021 98.0932 138.073 99.7887 137.421 101.271L144.746 104.488C145.185 103.488 145.664 102.744 146.091 102.307C146.489 101.901 146.588 102 146.443 102V94ZM134.948 103.408C132.568 104.002 129.723 105.064 127.149 106.889L131.778 113.414C133.314 112.325 135.162 111.6 136.885 111.17L134.948 103.408ZM122.187 108.632C118.474 110.077 117.02 113.774 116.571 116.695C116.093 119.81 116.488 123.366 117.593 126.598L125.163 124.009C124.416 121.825 124.223 119.578 124.479 117.909C124.764 116.046 125.366 115.979 125.087 116.088L122.187 108.632ZM117.054 130.437C113.752 134.365 110.155 140.557 109.925 148.134L117.921 148.377C118.079 143.19 120.585 138.67 123.178 135.584L117.054 130.437ZM108.706 151.017C106.841 153.562 105.531 156.925 105.13 160.326C104.73 163.714 105.187 167.621 107.491 170.844L113.999 166.192C113.21 165.087 112.825 163.383 113.075 161.263C113.323 159.157 114.154 157.116 115.159 155.746L108.706 151.017ZM109.142 174.16C109.321 174.706 109.551 175.265 109.843 175.818L116.916 172.081C116.853 171.961 116.794 171.823 116.743 171.667L109.142 174.16ZM137.772 181.993C143.1 182.075 149.416 181.481 154.859 179.398L152.001 171.926C147.87 173.507 142.68 174.067 137.894 173.994L137.772 181.993ZM107.491 170.844C108.178 171.805 108.748 172.958 109.142 174.16L116.743 171.667C116.123 169.776 115.206 167.879 113.999 166.192L107.491 170.844ZM109.925 148.134C109.902 148.884 109.53 149.893 108.706 151.017L115.159 155.746C116.524 153.883 117.832 151.327 117.921 148.377L109.925 148.134ZM117.593 126.598C118.08 128.021 117.769 129.586 117.054 130.437L123.178 135.584C125.943 132.294 126.427 127.705 125.163 124.009L117.593 126.598ZM127.149 106.889C126.852 107.1 126.374 107.318 125.461 107.599C124.765 107.814 123.31 108.195 122.187 108.632L125.087 116.088C125.872 115.782 126.496 115.652 127.818 115.244C128.924 114.903 130.405 114.388 131.778 113.414L127.149 106.889ZM159.875 141.588C158.848 139.791 158.702 136.895 159.5 135.183L152.249 131.804C150.278 136.033 150.705 141.667 152.93 145.559L159.875 141.588ZM137.421 101.271C136.957 102.33 135.975 103.152 134.948 103.408L136.885 111.17C140.408 110.291 143.325 107.724 144.746 104.488L137.421 101.271ZM163.429 155.439C163.258 155.532 163.258 155.485 163.406 155.49C163.473 155.492 163.549 155.504 163.626 155.53C163.702 155.555 163.762 155.588 163.804 155.616C163.887 155.674 163.869 155.695 163.815 155.59C163.762 155.486 163.685 155.279 163.659 154.954L155.684 155.581C155.884 158.127 157.033 160.664 159.26 162.201C161.648 163.849 164.634 163.893 167.258 162.463L163.429 155.439ZM109.843 175.818C110.625 177.298 111.892 178.218 112.921 178.788C113.995 179.384 115.207 179.815 116.391 180.144C118.761 180.802 121.592 181.2 124.313 181.455C129.779 181.966 135.557 181.959 137.772 181.993L137.894 173.994C135.502 173.957 130.13 173.964 125.059 173.49C122.512 173.251 120.227 172.906 118.531 172.436C117.68 172.199 117.122 171.97 116.798 171.791C116.43 171.587 116.673 171.619 116.916 172.081L109.843 175.818ZM180.245 150.595C179.673 150.481 179.095 150.435 178.541 150.45L178.747 158.447C178.737 158.447 178.728 158.447 178.72 158.446C178.711 158.446 178.695 158.444 178.671 158.439L180.245 150.595Z" fill="#2B66FF"/>
</svg>
