<svg width="203" height="200" viewBox="0 0 203 200" fill="none" xmlns="http://www.w3.org/2000/svg">
<path d="M56.25 53.5C54.0409 53.5 52.25 55.2909 52.25 57.5C52.25 59.7091 54.0409 61.5 56.25 61.5V53.5ZM173 73.5V141.5H181V73.5H173ZM161 153.5H32V161.5H161V153.5ZM20 141.5V57.5H12V141.5H20ZM20 57.5V54H12V57.5H20ZM96.5 61.5H161V53.5H96.5V61.5ZM20 54C20 47.3726 25.3726 42 32 42V34C20.9543 34 12 42.9543 12 54H20ZM32 153.5C25.3726 153.5 20 148.127 20 141.5H12C12 152.546 20.9543 161.5 32 161.5V153.5ZM173 141.5C173 148.127 167.627 153.5 161 153.5V161.5C172.046 161.5 181 152.546 181 141.5H173ZM80.5 42C87.1274 42 92.5 47.3726 92.5 54H100.5C100.5 42.9543 91.5457 34 80.5 34V42ZM181 73.5C181 62.4543 172.046 53.5 161 53.5V61.5C167.627 61.5 173 66.8726 173 73.5H181ZM32 42H56.25V34H32V42ZM56.25 42H80.5V34H56.25V42ZM96.5 53.5H56.25V61.5H96.5V53.5ZM92.5 54V57.5H100.5V54H92.5Z" fill="#2B66FF"/>
<path d="M135.351 169C146.231 169 155.052 160.096 155.052 149.113C155.052 148.741 155.041 148.372 155.022 148.005C154.665 141.455 151.169 135.749 146.026 132.395C142.95 130.389 139.285 129.225 135.351 129.225C130.807 129.225 126.623 130.778 123.29 133.386C118.642 137.024 115.649 142.716 115.649 149.113C115.649 160.096 124.47 169 135.351 169Z" fill="#D6E0E3"/>
<path d="M155.022 148.005C155.041 148.372 155.052 148.741 155.052 149.113C155.052 160.096 146.231 169 135.351 169C124.47 169 115.649 160.096 115.649 149.113C115.649 142.716 118.642 137.024 123.29 133.386M155.022 148.005C154.665 141.455 151.169 135.749 146.026 132.395M155.022 148.005L175.284 146.602M146.026 132.395C142.95 130.389 139.285 129.225 135.351 129.225C130.807 129.225 126.623 130.778 123.29 133.386M146.026 132.395L158.354 113.623M123.29 133.386L116.172 123.855M116.172 123.855C118.608 122.098 120.196 119.22 120.196 115.967C120.196 110.616 115.899 106.278 110.598 106.278C105.297 106.278 101 110.616 101 115.967C101 121.318 105.297 125.656 110.598 125.656C112.677 125.656 114.601 124.989 116.172 123.855ZM158.354 113.623C155.431 111.44 153.536 107.935 153.536 103.983C153.536 97.3652 158.851 92 165.407 92C171.963 92 177.278 97.3652 177.278 103.983C177.278 110.602 171.963 115.967 165.407 115.967C162.766 115.967 160.326 115.096 158.354 113.623ZM175.284 146.602C175.267 146.336 175.258 146.068 175.258 145.798C175.258 139.18 180.573 133.815 187.129 133.815C193.685 133.815 199 139.18 199 145.798C199 152.416 193.685 157.781 187.129 157.781C180.84 157.781 175.694 152.845 175.284 146.602Z" stroke="#D6E0E3" stroke-width="8"/>
</svg>
