<svg width="200" height="200" viewBox="0 0 200 200" fill="none" xmlns="http://www.w3.org/2000/svg">
<path d="M56.25 53.5C54.0409 53.5 52.25 55.2909 52.25 57.5C52.25 59.7091 54.0409 61.5 56.25 61.5V53.5ZM173 73.5V141.5H181V73.5H173ZM161 153.5H32V161.5H161V153.5ZM20 141.5V57.5H12V141.5H20ZM20 57.5V54H12V57.5H20ZM96.5 61.5H161V53.5H96.5V61.5ZM20 54C20 47.3726 25.3726 42 32 42V34C20.9543 34 12 42.9543 12 54H20ZM32 153.5C25.3726 153.5 20 148.127 20 141.5H12C12 152.546 20.9543 161.5 32 161.5V153.5ZM173 141.5C173 148.127 167.627 153.5 161 153.5V161.5C172.046 161.5 181 152.546 181 141.5H173ZM80.5 42C87.1274 42 92.5 47.3726 92.5 54H100.5C100.5 42.9543 91.5457 34 80.5 34V42ZM181 73.5C181 62.4543 172.046 53.5 161 53.5V61.5C167.627 61.5 173 66.8726 173 73.5H181ZM32 42H56.25V34H32V42ZM56.25 42H80.5V34H56.25V42ZM96.5 53.5H56.25V61.5H96.5V53.5ZM92.5 54V57.5H100.5V54H92.5Z" fill="#FFED8F"/>
<path d="M166.478 100.788C166.478 107.85 153.164 113.576 136.739 113.576C120.315 113.576 107 107.85 107 100.788V113.278C107 120.341 120.315 126.066 136.739 126.066C153.164 126.066 166.478 120.341 166.478 113.278V100.788Z" fill="#FFD600"/>
<path d="M166.478 100.788C166.478 107.85 153.164 113.576 136.739 113.576C120.315 113.576 107 107.85 107 100.788M166.478 100.788C166.478 93.7253 153.164 88 136.739 88C120.315 88 107 93.7253 107 100.788M166.478 100.788V113.278C166.478 120.341 153.164 126.066 136.739 126.066C120.315 126.066 107 120.341 107 113.278V100.788" stroke="#FFD600" stroke-width="6" stroke-linejoin="round"/>
<path d="M166.478 122.795C166.478 129.857 153.164 135.583 136.739 135.583C120.315 135.583 107 129.857 107 122.795V135.285C107 142.348 120.315 148.073 136.739 148.073C153.164 148.073 166.478 142.348 166.478 135.285V122.795Z" fill="#FFD600" stroke="#FFD600" stroke-width="6" stroke-linejoin="round"/>
<path d="M166.478 144.802C166.478 151.864 153.164 157.59 136.739 157.59C120.315 157.59 107 151.864 107 144.802V157.292C107 164.355 120.315 170.08 136.739 170.08C153.164 170.08 166.478 164.355 166.478 157.292V144.802Z" fill="#FFD600" stroke="#FFD600" stroke-width="6" stroke-linejoin="round"/>
</svg>
