<svg width="200" height="200" viewBox="0 0 200 200" fill="none" xmlns="http://www.w3.org/2000/svg">
<path d="M56.25 53.5C54.0409 53.5 52.25 55.2909 52.25 57.5C52.25 59.7091 54.0409 61.5 56.25 61.5V53.5ZM173 73.5V141.5H181V73.5H173ZM161 153.5H32V161.5H161V153.5ZM20 141.5V57.5H12V141.5H20ZM20 57.5V54H12V57.5H20ZM96.5 61.5H161V53.5H96.5V61.5ZM20 54C20 47.3726 25.3726 42 32 42V34C20.9543 34 12 42.9543 12 54H20ZM32 153.5C25.3726 153.5 20 148.127 20 141.5H12C12 152.546 20.9543 161.5 32 161.5V153.5ZM173 141.5C173 148.127 167.627 153.5 161 153.5V161.5C172.046 161.5 181 152.546 181 141.5H173ZM80.5 42C87.1274 42 92.5 47.3726 92.5 54H100.5C100.5 42.9543 91.5457 34 80.5 34V42ZM181 73.5C181 62.4543 172.046 53.5 161 53.5V61.5C167.627 61.5 173 66.8726 173 73.5H181ZM32 42H56.25V34H32V42ZM56.25 42H80.5V34H56.25V42ZM96.5 53.5H56.25V61.5H96.5V53.5ZM92.5 54V57.5H100.5V54H92.5Z" fill="#80D1FF"/>
<path d="M153.307 186L175.242 174.995C176.933 174.146 178 172.417 178 170.526V109.474C178 107.583 176.933 105.854 175.242 105.005L153.307 94M153.307 186V158.293M153.307 186L114.608 149.847M153.307 94V120.347M153.307 94L114.601 129.089M153.307 120.347V158.293M153.307 120.347L128.289 139.417M153.307 158.293L128.289 139.417M103.327 139.308L114.608 149.847M103.327 139.308L90.8372 150.631C88.7402 152.532 88.6379 155.793 90.6116 157.822L93.284 160.569C95.0477 162.382 97.8875 162.592 99.899 161.059L114.608 149.847M103.327 139.308L90.9198 127.717C88.8009 125.737 88.8047 122.376 90.928 120.402L93.3044 118.192C95.0802 116.54 97.7851 116.401 99.721 117.862L114.601 129.089M128.289 139.417L114.601 129.089" stroke="#2EB4FF" stroke-width="8" stroke-linecap="round" stroke-linejoin="round"/>
</svg>
