<svg width="185" height="151" viewBox="0 0 185 151" fill="none" xmlns="http://www.w3.org/2000/svg">
<path d="M28.2505 39.394L32.0182 40.734C32.0315 40.6968 32.0442 40.6595 32.0564 40.622L28.2505 39.394ZM165.003 107.212L168.817 108.413C168.847 108.318 168.874 108.222 168.897 108.125L165.003 107.212ZM80.5015 19.9463C80.5015 22.1495 82.2925 23.9356 84.5016 23.9356C86.7108 23.9356 88.5017 22.1495 88.5017 19.9463H80.5015ZM16.2327 61.1259C15.4907 63.2012 16.5759 65.4834 18.6568 66.2238C20.7376 66.9638 23.0259 65.8808 23.7681 63.8059L16.2327 61.1259ZM177.03 38.8184L161.109 106.298L168.897 108.125L184.818 40.6457L177.03 38.8184ZM149.003 119.179H20.0004V127.158H149.003V119.179ZM84.5016 27.4262H165.003V19.4477H84.5016V27.4262ZM32.0564 40.622C33.3701 36.5724 34.9589 33.1823 36.988 30.8527C38.8965 28.6615 41.1576 27.4262 44.2508 27.4262V19.4477C38.5074 19.4477 34.1433 21.9523 30.9484 25.6204C27.8741 29.15 25.881 33.7384 24.4447 38.166L32.0564 40.622ZM20.0004 119.179C13.3729 119.179 8.00015 113.821 8.00015 107.212H0C0 118.228 8.95447 127.158 20.0004 127.158V119.179ZM161.189 106.01C159.739 110.587 158.156 113.919 156.213 116.081C154.437 118.057 152.263 119.179 149.003 119.179V127.158C154.58 127.158 158.906 125.039 162.171 121.405C165.268 117.958 167.267 113.31 168.817 108.413L161.189 106.01ZM68.5013 7.97853C75.1288 7.97853 80.5015 13.3367 80.5015 19.9463H88.5017C88.5017 8.93027 79.5472 0 68.5013 0V7.97853ZM184.999 38.9602C184.767 28.1435 175.903 19.4477 165.003 19.4477V27.4262C171.542 27.4262 176.861 32.6438 177 39.131L184.999 38.9602ZM44.2508 7.97853H68.5013V0H44.2508V7.97853ZM84.5016 19.4477H44.2508V27.4262H84.5016V19.4477ZM8.00015 19.9463C8.00015 13.3367 13.3729 7.97853 20.0004 7.97853V0C8.95447 0 0 8.93027 0 19.9463H8.00015ZM20.0004 7.97853H44.2508V0H20.0004V7.97853ZM0 19.9463V107.212H8.00015V19.9463H0ZM23.7681 63.8059L32.0182 40.734L24.4829 38.054L16.2327 61.1259L23.7681 63.8059ZM184.818 40.6457C184.938 40.1353 185.012 39.5671 184.999 38.9602L177 39.131C176.997 38.9855 177.015 38.8796 177.03 38.8184L184.818 40.6457Z" fill="#B339EC"/>
<path d="M137 63.5789C148.67 63.5789 159.861 68.1842 168.113 76.3815C176.364 84.5788 181 95.6967 181 107.289C181 118.882 176.364 130 168.113 138.197C159.861 146.395 148.67 151 137 151C125.33 151 114.139 146.395 105.887 138.197C97.6357 130 93 118.882 93 107.289C93 95.6967 97.6357 84.5788 105.887 76.3815C114.139 68.1842 125.33 63.5789 137 63.5789ZM101.25 107.289C101.25 116.709 105.017 125.742 111.721 132.402C118.425 139.063 127.519 142.804 137 142.804C146.481 142.804 155.575 139.063 162.279 132.402C168.983 125.742 172.75 116.709 172.75 107.289C172.75 97.8704 168.983 88.837 162.279 82.1767C155.575 75.5164 146.481 71.7747 137 71.7747C127.519 71.7747 118.425 75.5164 111.721 82.1767C105.017 88.837 101.25 97.8704 101.25 107.289ZM128.085 92.1383L151.536 106.12C151.739 106.242 151.907 106.413 152.023 106.618C152.14 106.823 152.201 107.054 152.201 107.289C152.201 107.525 152.14 107.756 152.023 107.961C151.907 108.166 151.739 108.337 151.536 108.459L128.085 122.441C127.876 122.565 127.638 122.633 127.394 122.636C127.151 122.64 126.911 122.579 126.699 122.46C126.487 122.341 126.311 122.168 126.188 121.96C126.065 121.751 126 121.513 126 121.271V93.313C125.999 93.0707 126.063 92.8325 126.186 92.6229C126.308 92.4133 126.484 92.2398 126.697 92.1203C126.909 92.0007 127.149 91.9394 127.393 91.9425C127.637 91.9457 127.876 92.0133 128.085 92.1383Z" fill="white"/>
</svg>
