<svg width="200" height="200" viewBox="0 0 200 200" fill="none" xmlns="http://www.w3.org/2000/svg">
<path d="M40.25 73.5L44.0176 74.8436C44.0309 74.8063 44.0436 74.7689 44.0558 74.7313L40.25 73.5ZM177 141.5L180.814 142.705C180.844 142.609 180.871 142.513 180.894 142.416L177 141.5ZM92.5 54C92.5 56.2091 94.2909 58 96.5 58C98.7091 58 100.5 56.2091 100.5 54H92.5ZM28.2324 95.2904C27.4904 97.3712 28.5756 99.6596 30.6564 100.402C32.7372 101.144 35.0255 100.058 35.7676 97.9776L28.2324 95.2904ZM192.92 73.8389L196.814 74.7551L192.92 73.8389ZM192.996 73.1507L196.995 73.065L192.996 73.1507ZM189.027 72.9228L173.106 140.584L180.894 142.416L196.814 74.7551L189.027 72.9228ZM161 153.5H32V161.5H161V153.5ZM96.5 61.5H177V53.5H96.5V61.5ZM44.0558 74.7313C45.3695 70.6708 46.9582 67.2716 48.9873 64.9357C50.8958 62.7386 53.1568 61.5 56.25 61.5V53.5C50.5067 53.5 46.1426 56.0114 42.9478 59.6893C39.8736 63.2284 37.8805 67.8292 36.4442 72.2687L44.0558 74.7313ZM32 153.5C25.3726 153.5 20 148.127 20 141.5H12C12 152.546 20.9543 161.5 32 161.5V153.5ZM173.186 140.295C171.736 144.885 170.153 148.225 168.21 150.393C166.434 152.375 164.26 153.5 161 153.5V161.5C166.577 161.5 170.903 159.375 174.168 155.732C177.265 152.275 179.264 147.615 180.814 142.705L173.186 140.295ZM80.5 42C87.1274 42 92.5 47.3726 92.5 54H100.5C100.5 42.9543 91.5457 34 80.5 34V42ZM196.995 73.065C196.763 62.2192 187.9 53.5 177 53.5V61.5C183.539 61.5 188.858 66.7316 188.997 73.2363L196.995 73.065ZM56.25 42H80.5V34H56.25V42ZM96.5 53.5H56.25V61.5H96.5V53.5ZM20 54C20 47.3726 25.3726 42 32 42V34C20.9543 34 12 42.9543 12 54H20ZM32 42H56.25V34H32V42ZM12 54V141.5H20V54H12ZM35.7676 97.9776L44.0176 74.8436L36.4824 72.1564L28.2324 95.2904L35.7676 97.9776ZM196.814 74.7551C196.934 74.2433 197.008 73.6735 196.995 73.065L188.997 73.2363C188.994 73.0904 189.012 72.9842 189.027 72.9228L196.814 74.7551Z" fill="#FF8575"/>
<path d="M183.158 128.712L152.034 97.5875C147.25 92.8042 139.495 92.8042 134.712 97.5875L103.588 128.712C98.8042 133.495 98.8042 141.25 103.588 146.034L134.712 177.158C139.495 181.941 147.25 181.941 152.034 177.158L183.158 146.034C187.941 141.25 187.941 133.495 183.158 128.712Z" stroke="#FF4D35" stroke-width="8"/>
<path d="M152.619 113.625C152.619 108.5 148.464 104.345 143.339 104.345C141.788 104.345 140.325 104.726 139.04 105.399L135.765 102.124L131.323 106.566L134.783 110.026C134.317 111.132 134.06 112.348 134.06 113.625C134.06 117.665 136.642 121.102 140.246 122.376V153.849C136.642 155.123 134.06 158.56 134.06 162.6C134.06 167.725 138.214 171.88 143.339 171.88C148.464 171.88 152.619 167.725 152.619 162.6C152.619 158.595 150.082 155.183 146.527 153.883V122.342V121.77L146.938 122.181L157.797 133.04C157.124 134.325 156.743 135.788 156.743 137.339C156.743 142.464 160.898 146.619 166.023 146.619C171.148 146.619 175.302 142.464 175.302 137.339C175.302 132.214 171.148 128.06 166.023 128.06C164.746 128.06 163.53 128.317 162.424 128.783L151.565 117.924C152.238 116.639 152.619 115.176 152.619 113.625Z" fill="#FF4D35"/>
</svg>
