<svg width="206" height="200" viewBox="0 0 206 200" fill="none" xmlns="http://www.w3.org/2000/svg">
<path d="M56.25 53.5C54.0409 53.5 52.25 55.2909 52.25 57.5C52.25 59.7091 54.0409 61.5 56.25 61.5V53.5ZM173 73.5V141.5H181V73.5H173ZM161 153.5H32V161.5H161V153.5ZM20 141.5V57.5H12V141.5H20ZM20 57.5V54H12V57.5H20ZM96.5 61.5H161V53.5H96.5V61.5ZM20 54C20 47.3726 25.3726 42 32 42V34C20.9543 34 12 42.9543 12 54H20ZM32 153.5C25.3726 153.5 20 148.127 20 141.5H12C12 152.546 20.9543 161.5 32 161.5V153.5ZM173 141.5C173 148.127 167.627 153.5 161 153.5V161.5C172.046 161.5 181 152.546 181 141.5H173ZM80.5 42C87.1274 42 92.5 47.3726 92.5 54H100.5C100.5 42.9543 91.5457 34 80.5 34V42ZM181 73.5C181 62.4543 172.046 53.5 161 53.5V61.5C167.627 61.5 173 66.8726 173 73.5H181ZM32 42H56.25V34H32V42ZM56.25 42H80.5V34H56.25V42ZM96.5 53.5H56.25V61.5H96.5V53.5ZM92.5 54V57.5H100.5V54H92.5Z" fill="#94FFEC"/>
<path d="M197.533 158.579C197.74 157.585 198.581 156.82 199.596 156.82H203.793C204.964 156.82 205.894 157.823 205.681 158.974C205.262 161.237 204.488 163.303 203.358 165.172C201.88 167.596 199.803 169.506 197.129 170.904C194.455 172.301 191.204 173 187.377 173C184.442 173 181.8 172.476 179.452 171.428C177.104 170.358 175.093 168.851 173.418 166.908C171.744 164.943 170.461 162.573 169.57 159.8C168.7 157.027 168.265 153.926 168.265 150.498V146.535C168.265 143.107 168.711 140.006 169.602 137.233C170.516 134.459 171.82 132.09 173.516 130.125C175.212 128.138 177.245 126.62 179.615 125.572C182.007 124.524 184.692 124 187.671 124C191.454 124 194.65 124.699 197.259 126.096C199.869 127.494 201.891 129.426 203.326 131.894C204.44 133.781 205.223 135.878 205.676 138.186C205.904 139.349 204.97 140.377 203.785 140.377H199.646C198.623 140.377 197.779 139.601 197.578 138.598C197.316 137.29 196.927 136.125 196.411 135.104C195.694 133.641 194.628 132.527 193.215 131.763C191.802 130.977 189.954 130.584 187.671 130.584C185.801 130.584 184.17 130.933 182.779 131.632C181.387 132.33 180.224 133.357 179.289 134.711C178.354 136.064 177.647 137.735 177.169 139.722C176.712 141.687 176.484 143.936 176.484 146.469V150.498C176.484 152.9 176.691 155.084 177.104 157.049C177.539 158.992 178.191 160.663 179.061 162.06C179.952 163.458 181.083 164.539 182.452 165.303C183.822 166.067 185.464 166.449 187.377 166.449C189.704 166.449 191.584 166.078 193.02 165.336C194.476 164.593 195.574 163.512 196.314 162.093C196.849 161.079 197.256 159.907 197.533 158.579Z" fill="#00F3C8"/>
<path fill-rule="evenodd" clip-rule="evenodd" d="M88.0412 170.994C87.7638 171.802 87.0038 172.345 86.1495 172.345H81.8854C80.4891 172.345 79.5226 170.95 80.0126 169.643L96.8726 124.655H98.7969H102.352H104.309L121.229 169.641C121.721 170.949 120.755 172.345 119.357 172.345H115.063C114.21 172.345 113.45 171.803 113.172 170.996L110.258 162.525C109.981 161.718 109.221 161.176 108.367 161.176H92.8391C91.9848 161.176 91.2248 161.718 90.9474 162.527L88.0412 170.994ZM98.7025 139.932C99.3204 138.131 101.866 138.13 102.485 139.93L106.64 152.007C107.087 153.306 106.122 154.658 104.749 154.658H96.4491C95.0765 154.658 94.1118 153.307 94.5574 152.008L98.7025 139.932Z" fill="#00F3C8"/>
<path fill-rule="evenodd" clip-rule="evenodd" d="M135.749 172.345H130.694H127.563V126.655C127.563 125.551 128.458 124.655 129.563 124.655H143.674C146.283 124.655 148.61 124.906 150.654 125.408C152.719 125.911 154.469 126.697 155.904 127.767C157.361 128.815 158.459 130.147 159.199 131.763C159.96 133.379 160.34 135.3 160.34 137.527C160.34 139.493 159.873 141.294 158.938 142.932C158.003 144.548 156.622 145.869 154.796 146.895C154.386 147.125 153.953 147.335 153.498 147.524C154.622 147.814 155.62 148.238 156.492 148.795C158.187 149.865 159.449 151.251 160.275 152.955C161.101 154.658 161.514 156.492 161.514 158.457C161.514 161.492 160.851 164.036 159.525 166.089C158.22 168.141 156.339 169.703 153.882 170.773C151.425 171.821 148.468 172.345 145.011 172.345H135.749ZM148.305 144.013C147.066 144.537 145.555 144.799 143.772 144.799H136.238H135.749V133.206C135.749 132.101 136.644 131.206 137.749 131.206H143.674C145.609 131.206 147.196 131.435 148.436 131.894C149.697 132.352 150.632 133.084 151.241 134.088C151.849 135.093 152.154 136.392 152.154 137.986C152.154 139.427 151.828 140.661 151.175 141.687C150.523 142.692 149.566 143.467 148.305 144.013ZM149.643 164.91C148.403 165.521 146.859 165.827 145.011 165.827H137.749C136.644 165.827 135.749 164.931 135.749 163.827V150.793H136.173H145.37C147.262 150.793 148.795 151.109 149.969 151.743C151.143 152.354 152.002 153.238 152.545 154.396C153.089 155.531 153.361 156.874 153.361 158.424C153.361 159.909 153.045 161.209 152.415 162.322C151.806 163.414 150.882 164.277 149.643 164.91Z" fill="#00F3C8"/>
</svg>
