<svg width="200" height="200" viewBox="0 0 200 200" fill="none" xmlns="http://www.w3.org/2000/svg">
<path d="M40.25 73.5L44.0176 74.8436C44.0309 74.8063 44.0436 74.7689 44.0558 74.7313L40.25 73.5ZM177 141.5L180.814 142.705C180.844 142.609 180.871 142.513 180.894 142.416L177 141.5ZM92.5 54C92.5 56.2091 94.2909 58 96.5 58C98.7091 58 100.5 56.2091 100.5 54H92.5ZM28.2324 95.2904C27.4904 97.3712 28.5756 99.6596 30.6564 100.402C32.7372 101.144 35.0255 100.058 35.7676 97.9776L28.2324 95.2904ZM192.92 73.8389L196.814 74.7551L192.92 73.8389ZM192.996 73.1507L196.995 73.065L192.996 73.1507ZM189.027 72.9228L173.106 140.584L180.894 142.416L196.814 74.7551L189.027 72.9228ZM161 153.5H32V161.5H161V153.5ZM96.5 61.5H177V53.5H96.5V61.5ZM44.0558 74.7313C45.3695 70.6708 46.9582 67.2716 48.9873 64.9357C50.8958 62.7386 53.1568 61.5 56.25 61.5V53.5C50.5067 53.5 46.1426 56.0114 42.9478 59.6893C39.8736 63.2284 37.8805 67.8292 36.4442 72.2687L44.0558 74.7313ZM32 153.5C25.3726 153.5 20 148.127 20 141.5H12C12 152.546 20.9543 161.5 32 161.5V153.5ZM173.186 140.295C171.736 144.885 170.153 148.225 168.21 150.393C166.434 152.375 164.26 153.5 161 153.5V161.5C166.577 161.5 170.903 159.375 174.168 155.732C177.265 152.275 179.264 147.615 180.814 142.705L173.186 140.295ZM80.5 42C87.1274 42 92.5 47.3726 92.5 54H100.5C100.5 42.9543 91.5457 34 80.5 34V42ZM196.995 73.065C196.763 62.2192 187.9 53.5 177 53.5V61.5C183.539 61.5 188.858 66.7316 188.997 73.2363L196.995 73.065ZM56.25 42H80.5V34H56.25V42ZM96.5 53.5H56.25V61.5H96.5V53.5ZM20 54C20 47.3726 25.3726 42 32 42V34C20.9543 34 12 42.9543 12 54H20ZM32 42H56.25V34H32V42ZM12 54V141.5H20V54H12ZM35.7676 97.9776L44.0176 74.8436L36.4824 72.1564L28.2324 95.2904L35.7676 97.9776ZM196.814 74.7551C196.934 74.2433 197.008 73.6735 196.995 73.065L188.997 73.2363C188.994 73.0904 189.012 72.9842 189.027 72.9228L196.814 74.7551Z" fill="#D170FF"/>
<path fill-rule="evenodd" clip-rule="evenodd" d="M147.694 169.932C152.824 169.932 156.984 165.74 156.984 160.568V97.3636C156.984 92.1922 152.824 88 147.694 88C142.563 88 104 88 104 88V169.932H116.484V191L122.29 181.344L128.677 191V169.932H147.694ZM116.484 124.284H143.194C145.599 124.284 147.548 126.249 147.548 128.673C147.548 131.097 145.599 133.062 143.194 133.062H116.484C114.079 133.062 112.129 131.097 112.129 128.673C112.129 126.249 114.079 124.284 116.484 124.284ZM138.258 95.0227H121.419C116.288 95.0227 112.129 99.215 112.129 104.386V111.409C112.129 116.58 116.288 120.773 121.419 120.773H138.258C143.389 120.773 147.548 116.58 147.548 111.409V104.386C147.548 99.215 143.389 95.0227 138.258 95.0227ZM116.484 135.989H143.194C145.599 135.989 147.548 137.954 147.548 140.378C147.548 142.802 145.599 144.767 143.194 144.767H116.484C114.079 144.767 112.129 142.802 112.129 140.378C112.129 137.954 114.079 135.989 116.484 135.989Z" fill="#B339EC"/>
<path d="M104 88H166.71C171.841 88 176 92.1922 176 97.3636V160.568C176 165.74 171.841 169.932 166.71 169.932H128.677M104 88V169.932H116.484V191L122.29 181.344L128.677 191V169.932M104 88C104 88 142.563 88 147.694 88C152.824 88 156.984 92.1922 156.984 97.3636V160.568C156.984 165.74 152.824 169.932 147.694 169.932H128.677M121.419 120.773H138.258C143.389 120.773 147.548 116.58 147.548 111.409V104.386C147.548 99.215 143.389 95.0227 138.258 95.0227H121.419C116.288 95.0227 112.129 99.215 112.129 104.386V111.409C112.129 116.58 116.288 120.773 121.419 120.773ZM116.484 133.062H143.194C145.599 133.062 147.548 131.097 147.548 128.673C147.548 126.249 145.599 124.284 143.194 124.284H116.484C114.079 124.284 112.129 126.249 112.129 128.673C112.129 131.097 114.079 133.062 116.484 133.062ZM116.484 135.989H143.194C145.599 135.989 147.548 137.954 147.548 140.378C147.548 142.802 145.599 144.767 143.194 144.767H116.484C114.079 144.767 112.129 142.802 112.129 140.378C112.129 137.954 114.079 135.989 116.484 135.989Z" stroke="#B339EC" stroke-width="6" stroke-linejoin="round"/>
</svg>
