<svg width="211" height="200" viewBox="0 0 211 200" fill="none" xmlns="http://www.w3.org/2000/svg">
<path d="M56.25 53.5C54.0409 53.5 52.25 55.2909 52.25 57.5C52.25 59.7091 54.0409 61.5 56.25 61.5V53.5ZM173 73.5V141.5H181V73.5H173ZM161 153.5H32V161.5H161V153.5ZM20 141.5V57.5H12V141.5H20ZM20 57.5V54H12V57.5H20ZM96.5 61.5H161V53.5H96.5V61.5ZM20 54C20 47.3726 25.3726 42 32 42V34C20.9543 34 12 42.9543 12 54H20ZM32 153.5C25.3726 153.5 20 148.127 20 141.5H12C12 152.546 20.9543 161.5 32 161.5V153.5ZM173 141.5C173 148.127 167.627 153.5 161 153.5V161.5C172.046 161.5 181 152.546 181 141.5H173ZM80.5 42C87.1274 42 92.5 47.3726 92.5 54H100.5C100.5 42.9543 91.5457 34 80.5 34V42ZM181 73.5C181 62.4543 172.046 53.5 161 53.5V61.5C167.627 61.5 173 66.8726 173 73.5H181ZM32 42H56.25V34H32V42ZM56.25 42H80.5V34H56.25V42ZM96.5 53.5H56.25V61.5H96.5V53.5ZM92.5 54V57.5H100.5V54H92.5Z" fill="#FF8FD2"/>
<path d="M205.924 143.899C207.359 144.928 207.359 147.072 205.924 148.101L160.749 180.516C159.051 181.734 156.694 180.513 156.694 178.414V163.637C156.694 162.212 155.546 161.056 154.129 161.056H92.5652C91.1485 161.056 90 159.901 90 158.475V134.385C90 132.96 91.1485 131.804 92.5652 131.804H154.129C155.546 131.804 156.694 130.649 156.694 129.223V113.586C156.694 111.487 159.051 110.266 160.749 111.484L205.924 143.899Z" stroke="#FF47B5" stroke-width="8" stroke-linejoin="round"/>
</svg>
