<svg width="173" height="152" viewBox="0 0 173 152" fill="none" xmlns="http://www.w3.org/2000/svg">
<path d="M44.25 19.5C42.0409 19.5 40.25 21.2909 40.25 23.5C40.25 25.7091 42.0409 27.5 44.25 27.5V19.5ZM161 39.5V107.5H169V39.5H161ZM149 119.5H20V127.5H149V119.5ZM8 107.5V23.5H0V107.5H8ZM8 23.5V20H0V23.5H8ZM84.5 27.5H149V19.5H84.5V27.5ZM8 20C8 13.3726 13.3726 8 20 8V0C8.9543 0 0 8.9543 0 20H8ZM20 119.5C13.3726 119.5 8 114.127 8 107.5H0C0 118.546 8.9543 127.5 20 127.5V119.5ZM161 107.5C161 114.127 155.627 119.5 149 119.5V127.5C160.046 127.5 169 118.546 169 107.5H161ZM68.5 8C75.1274 8 80.5 13.3726 80.5 20H88.5C88.5 8.9543 79.5457 0 68.5 0V8ZM169 39.5C169 28.4543 160.046 19.5 149 19.5V27.5C155.627 27.5 161 32.8726 161 39.5H169ZM20 8H44.25V0H20V8ZM44.25 8H68.5V0H44.25V8ZM84.5 19.5H44.25V27.5H84.5V19.5ZM80.5 20V23.5H88.5V20H80.5Z" fill="#00E878"/>
<g clip-path="url(#clip0_8_6)">
<path d="M129 116.25C131.188 116.25 133.286 115.381 134.834 113.834C136.381 112.286 137.25 110.188 137.25 108C137.25 105.812 136.381 103.714 134.834 102.166C133.286 100.619 131.188 99.75 129 99.75C126.812 99.75 124.714 100.619 123.166 102.166C121.619 103.714 120.75 105.812 120.75 108C120.75 110.188 121.619 112.286 123.166 113.834C124.714 115.381 126.812 116.25 129 116.25Z" fill="white"/>
<path d="M129 64C140.67 64 151.861 68.6357 160.113 76.8873C168.364 85.1389 173 96.3305 173 108C173 119.67 168.364 130.861 160.113 139.113C151.861 147.364 140.67 152 129 152C117.33 152 106.139 147.364 97.8873 139.113C89.6357 130.861 85 119.67 85 108C85 96.3305 89.6357 85.1389 97.8873 76.8873C106.139 68.6357 117.33 64 129 64ZM93.25 108C93.25 117.481 97.0165 126.575 103.721 133.279C110.425 139.983 119.519 143.75 129 143.75C138.481 143.75 147.575 139.983 154.279 133.279C160.983 126.575 164.75 117.481 164.75 108C164.75 98.5185 160.983 89.4254 154.279 82.7209C147.575 76.0165 138.481 72.25 129 72.25C119.519 72.25 110.425 76.0165 103.721 82.7209C97.0165 89.4254 93.25 98.5185 93.25 108Z" fill="white"/>
</g>
<defs>
<clipPath id="clip0_8_6">
<rect width="88" height="88" fill="white" transform="translate(85 64)"/>
</clipPath>
</defs>
</svg>
