<svg width="200" height="200" viewBox="0 0 200 200" fill="none" xmlns="http://www.w3.org/2000/svg">
<path d="M40.25 73.5L44.0176 74.8436C44.0309 74.8063 44.0436 74.7689 44.0558 74.7313L40.25 73.5ZM177 141.5L180.814 142.705C180.844 142.609 180.871 142.513 180.894 142.416L177 141.5ZM92.5 54C92.5 56.2091 94.2909 58 96.5 58C98.7091 58 100.5 56.2091 100.5 54H92.5ZM28.2324 95.2904C27.4904 97.3712 28.5756 99.6596 30.6564 100.402C32.7372 101.144 35.0255 100.058 35.7676 97.9776L28.2324 95.2904ZM192.92 73.8389L196.814 74.7551L192.92 73.8389ZM192.996 73.1507L196.995 73.065L192.996 73.1507ZM189.027 72.9228L173.106 140.584L180.894 142.416L196.814 74.7551L189.027 72.9228ZM161 153.5H32V161.5H161V153.5ZM96.5 61.5H177V53.5H96.5V61.5ZM44.0558 74.7313C45.3695 70.6708 46.9582 67.2716 48.9873 64.9357C50.8958 62.7386 53.1568 61.5 56.25 61.5V53.5C50.5067 53.5 46.1426 56.0114 42.9478 59.6893C39.8736 63.2284 37.8805 67.8292 36.4442 72.2687L44.0558 74.7313ZM32 153.5C25.3726 153.5 20 148.127 20 141.5H12C12 152.546 20.9543 161.5 32 161.5V153.5ZM173.186 140.295C171.736 144.885 170.153 148.225 168.21 150.393C166.434 152.375 164.26 153.5 161 153.5V161.5C166.577 161.5 170.903 159.375 174.168 155.732C177.265 152.275 179.264 147.615 180.814 142.705L173.186 140.295ZM80.5 42C87.1274 42 92.5 47.3726 92.5 54H100.5C100.5 42.9543 91.5457 34 80.5 34V42ZM196.995 73.065C196.763 62.2192 187.9 53.5 177 53.5V61.5C183.539 61.5 188.858 66.7316 188.997 73.2363L196.995 73.065ZM56.25 42H80.5V34H56.25V42ZM96.5 53.5H56.25V61.5H96.5V53.5ZM20 54C20 47.3726 25.3726 42 32 42V34C20.9543 34 12 42.9543 12 54H20ZM32 42H56.25V34H32V42ZM12 54V141.5H20V54H12ZM35.7676 97.9776L44.0176 74.8436L36.4824 72.1564L28.2324 95.2904L35.7676 97.9776ZM196.814 74.7551C196.934 74.2433 197.008 73.6735 196.995 73.065L188.997 73.2363C188.994 73.0904 189.012 72.9842 189.027 72.9228L196.814 74.7551Z" fill="#FF8575"/>
<path d="M185 117.486C187.209 117.486 189 115.695 189 113.486C189 111.277 187.209 109.486 185 109.486V117.486ZM152.955 89V85C150.745 85 148.955 86.7909 148.955 89H152.955ZM185 109.486C181.446 109.486 179.377 108.367 177.793 106.809C175.986 105.03 174.679 102.58 172.969 99.3646C171.387 96.3892 169.433 92.7146 166.37 89.8869C163.113 86.8801 158.826 85 152.955 85V93C156.902 93 159.228 94.1806 160.944 95.7649C162.854 97.5283 164.233 99.9752 165.906 103.121C167.452 106.027 169.324 109.698 172.183 112.511C175.265 115.544 179.349 117.486 185 117.486V109.486ZM152.955 89C148.955 89 148.955 89.0002 148.955 89.0007C148.955 89.0011 148.955 89.0018 148.955 89.0026C148.955 89.0035 148.955 89.0046 148.955 89.0059C148.955 89.0073 148.955 89.0088 148.955 89.0105C148.955 89.0123 148.955 89.0143 148.955 89.0164C148.955 89.0186 148.955 89.021 148.955 89.0237C148.955 89.0263 148.955 89.0291 148.955 89.0322C148.955 89.0352 148.955 89.0385 148.955 89.042C148.955 89.0454 148.955 89.0491 148.955 89.053C148.955 89.057 148.955 89.0611 148.955 89.0654C148.955 89.0697 148.955 89.0743 148.955 89.0791C148.955 89.0838 148.955 89.0888 148.955 89.094C148.955 89.0992 148.955 89.1046 148.955 89.1102C148.955 89.1158 148.955 89.1216 148.955 89.1276C148.955 89.1336 148.955 89.1399 148.955 89.1463C148.955 89.1528 148.955 89.1594 148.955 89.1663C148.955 89.1732 148.955 89.1802 148.955 89.1875C148.955 89.1948 148.955 89.2023 148.955 89.21C148.955 89.2177 148.955 89.2256 148.955 89.2337C148.955 89.2418 148.955 89.2501 148.955 89.2587C148.955 89.2672 148.955 89.2759 148.955 89.2848C148.955 89.2938 148.955 89.3029 148.955 89.3122C148.955 89.3216 148.955 89.3311 148.955 89.3409C148.955 89.3506 148.955 89.3606 148.955 89.3707C148.955 89.3809 148.955 89.3912 148.955 89.4018C148.955 89.4124 148.955 89.4231 148.955 89.4341C148.955 89.445 148.955 89.4562 148.955 89.4676C148.955 89.4789 148.955 89.4905 148.955 89.5023C148.955 89.514 148.955 89.526 148.955 89.5381C148.955 89.5503 148.955 89.5627 148.955 89.5752C148.955 89.5878 148.955 89.6005 148.955 89.6135C148.955 89.6264 148.955 89.6396 148.955 89.6529C148.955 89.6663 148.955 89.6798 148.955 89.6936C148.955 89.7073 148.955 89.7212 148.955 89.7354C148.955 89.7495 148.955 89.7638 148.955 89.7783C148.955 89.7929 148.955 89.8076 148.955 89.8225C148.955 89.8374 148.955 89.8525 148.955 89.8678C148.955 89.8831 148.955 89.8986 148.955 89.9142C148.955 89.9299 148.955 89.9458 148.955 89.9618C148.955 89.9779 148.955 89.9942 148.955 90.0106C148.955 90.027 148.955 90.0437 148.955 90.0605C148.955 90.0773 148.955 90.0943 148.955 90.1115C148.955 90.1287 148.955 90.1461 148.955 90.1637C148.955 90.1813 148.955 90.1991 148.955 90.217C148.955 90.235 148.955 90.2531 148.955 90.2714C148.955 90.2898 148.955 90.3083 148.955 90.327C148.955 90.3457 148.955 90.3646 148.955 90.3837C148.955 90.4027 148.955 90.422 148.955 90.4414C148.955 90.4609 148.955 90.4805 148.955 90.5003C148.955 90.5201 148.955 90.5401 148.955 90.5603C148.955 90.5805 148.955 90.6009 148.955 90.6214C148.955 90.6419 148.955 90.6627 148.955 90.6836C148.955 90.7045 148.955 90.7256 148.955 90.7468C148.955 90.7681 148.955 90.7896 148.955 90.8112C148.955 90.8328 148.955 90.8546 148.955 90.8766C148.955 90.8986 148.955 90.9208 148.955 90.9431C148.955 90.9655 148.955 90.988 148.955 91.0107C148.955 91.0334 148.955 91.0563 148.955 91.0794C148.955 91.1024 148.955 91.1257 148.955 91.1491C148.955 91.1725 148.955 91.1961 148.955 91.2199C148.955 91.2436 148.955 91.2676 148.955 91.2917C148.955 91.3158 148.955 91.3401 148.955 91.3645C148.955 91.389 148.955 91.4136 148.955 91.4385C148.955 91.4633 148.955 91.4883 148.955 91.5134C148.955 91.5386 148.955 91.5639 148.955 91.5894C148.955 91.6149 148.955 91.6406 148.955 91.6664C148.955 91.6923 148.955 91.7183 148.955 91.7445C148.955 91.7707 148.955 91.797 148.955 91.8235C148.955 91.8501 148.955 91.8768 148.955 91.9036C148.955 91.9305 148.955 91.9575 148.955 91.9847C148.955 92.0119 148.955 92.0393 148.955 92.0668C148.955 92.0944 148.955 92.1221 148.955 92.1499C148.955 92.1778 148.955 92.2058 148.955 92.234C148.955 92.2622 148.955 92.2906 148.955 92.3191C148.955 92.3477 148.955 92.3764 148.955 92.4052C148.955 92.4341 148.955 92.4631 148.955 92.4923C148.955 92.5215 148.955 92.5509 148.955 92.5804C148.955 92.6099 148.955 92.6396 148.955 92.6694C148.955 92.6993 148.955 92.7293 148.955 92.7594C148.955 92.7896 148.955 92.8199 148.955 92.8504C148.955 92.8809 148.955 92.9115 148.955 92.9423C148.955 92.9732 148.955 93.0041 148.955 93.0352C148.955 93.0664 148.955 93.0977 148.955 93.1291C148.955 93.1605 148.955 93.1921 148.955 93.2239C148.955 93.2557 148.955 93.2876 148.955 93.3197C148.955 93.3517 148.955 93.384 148.955 93.4163C148.955 93.4487 148.955 93.4813 148.955 93.514C148.955 93.5467 148.955 93.5795 148.955 93.6125C148.955 93.6455 148.955 93.6787 148.955 93.712C148.955 93.7453 148.955 93.7788 148.955 93.8124C148.955 93.846 148.955 93.8798 148.955 93.9137C148.955 93.9477 148.955 93.9818 148.955 94.016C148.955 94.0502 148.955 94.0846 148.955 94.1191C148.955 94.1537 148.955 94.1884 148.955 94.2232C148.955 94.258 148.955 94.293 148.955 94.3281C148.955 94.3633 148.955 94.3986 148.955 94.434C148.955 94.4694 148.955 94.505 148.955 94.5407C148.955 94.5765 148.955 94.6123 148.955 94.6484C148.955 94.6844 148.955 94.7206 148.955 94.7569C148.955 94.7932 148.955 94.8296 148.955 94.8663C148.955 94.9029 148.955 94.9396 148.955 94.9765C148.955 95.0134 148.955 95.0505 148.955 95.0876C148.955 95.1248 148.955 95.1622 148.955 95.1996C148.955 95.2371 148.955 95.2747 148.955 95.3125C148.955 95.3503 148.955 95.3882 148.955 95.4262C148.955 95.4642 148.955 95.5024 148.955 95.5408C148.955 95.5791 148.955 95.6176 148.955 95.6562C148.955 95.6948 148.955 95.7335 148.955 95.7724C148.955 95.8113 148.955 95.8503 148.955 95.8895C148.955 95.9287 148.955 95.968 148.955 96.0074C148.955 96.0469 148.955 96.0864 148.955 96.1262C148.955 96.1659 148.955 96.2057 148.955 96.2457C148.955 96.2857 148.955 96.3259 148.955 96.3661C148.955 96.4064 148.955 96.4468 148.955 96.4873C148.955 96.5279 148.955 96.5685 148.955 96.6093C148.955 96.6501 148.955 96.6911 148.955 96.7322C148.955 96.7732 148.955 96.8144 148.955 96.8558C148.955 96.8971 148.955 96.9386 148.955 96.9802C148.955 97.0218 148.955 97.0635 148.955 97.1054C148.955 97.1473 148.955 97.1893 148.955 97.2314C148.955 97.2735 148.955 97.3158 148.955 97.3582C148.955 97.4006 148.955 97.4431 148.955 97.4857C148.955 97.5284 148.955 97.5712 148.955 97.6141C148.955 97.657 148.955 97.7 148.955 97.7432C148.955 97.7863 148.955 97.8296 148.955 97.8731C148.955 97.9165 148.955 97.96 148.955 98.0037C148.955 98.0474 148.955 98.0911 148.955 98.1351C148.955 98.179 148.955 98.223 148.955 98.2672C148.955 98.3114 148.955 98.3557 148.955 98.4001C148.955 98.4445 148.955 98.4891 148.955 98.5337C148.955 98.5784 148.955 98.6232 148.955 98.6681C148.955 98.713 148.955 98.758 148.955 98.8032C148.955 98.8483 148.955 98.8936 148.955 98.939C148.955 98.9844 148.955 99.0299 148.955 99.0756C148.955 99.1212 148.955 99.167 148.955 99.2128C148.955 99.2587 148.955 99.3047 148.955 99.3508C148.955 99.3969 148.955 99.4432 148.955 99.4895C148.955 99.5359 148.955 99.5824 148.955 99.6289C148.955 99.6755 148.955 99.7222 148.955 99.769C148.955 99.8159 148.955 99.8628 148.955 99.9099C148.955 99.9569 148.955 100.004 148.955 100.051C148.955 100.099 148.955 100.146 148.955 100.194C148.955 100.241 148.955 100.289 148.955 100.336C148.955 100.384 148.955 100.432 148.955 100.48C148.955 100.528 148.955 100.576 148.955 100.624C148.955 100.672 148.955 100.721 148.955 100.769C148.955 100.818 148.955 100.866 148.955 100.915C148.955 100.963 148.955 101.012 148.955 101.061C148.955 101.11 148.955 101.159 148.955 101.208C148.955 101.257 148.955 101.306 148.955 101.355C148.955 101.405 148.955 101.454 148.955 101.504C148.955 101.553 148.955 101.603 148.955 101.652C148.955 101.702 148.955 101.752 148.955 101.802C148.955 101.852 148.955 101.902 148.955 101.952C148.955 102.002 148.955 102.052 148.955 102.103C148.955 102.153 148.955 102.203 148.955 102.254C148.955 102.305 148.955 102.355 148.955 102.406C148.955 102.457 148.955 102.508 148.955 102.559C148.955 102.61 148.955 102.661 148.955 102.712C148.955 102.763 148.955 102.814 148.955 102.866C148.955 102.917 148.955 102.968 148.955 103.02C148.955 103.072 148.955 103.123 148.955 103.175C148.955 103.227 148.955 103.279 148.955 103.331C148.955 103.383 148.955 103.435 148.955 103.487C148.955 103.539 148.955 103.591 148.955 103.644C148.955 103.696 148.955 103.748 148.955 103.801C148.955 103.854 148.955 103.906 148.955 103.959C148.955 104.012 148.955 104.065 148.955 104.117C148.955 104.17 148.955 104.223 148.955 104.277C148.955 104.33 148.955 104.383 148.955 104.436C148.955 104.49 148.955 104.543 148.955 104.596C148.955 104.65 148.955 104.704 148.955 104.757C148.955 104.811 148.955 104.865 148.955 104.918C148.955 104.972 148.955 105.026 148.955 105.08C148.955 105.134 148.955 105.189 148.955 105.243C148.955 105.297 148.955 105.351 148.955 105.406C148.955 105.46 148.955 105.515 148.955 105.569C148.955 105.624 148.955 105.678 148.955 105.733C148.955 105.788 148.955 105.843 148.955 105.898C148.955 105.953 148.955 106.008 148.955 106.063C148.955 106.118 148.955 106.173 148.955 106.228C148.955 106.283 148.955 106.339 148.955 106.394C148.955 106.45 148.955 106.505 148.955 106.561C148.955 106.616 148.955 106.672 148.955 106.728C148.955 106.784 148.955 106.839 148.955 106.895C148.955 106.951 148.955 107.007 148.955 107.063C148.955 107.12 148.955 107.176 148.955 107.232C148.955 107.288 148.955 107.345 148.955 107.401C148.955 107.457 148.955 107.514 148.955 107.57C148.955 107.627 148.955 107.684 148.955 107.74C148.955 107.797 148.955 107.854 148.955 107.911C148.955 107.968 148.955 108.025 148.955 108.082C148.955 108.139 148.955 108.196 148.955 108.253C148.955 108.31 148.955 108.368 148.955 108.425C148.955 108.482 148.955 108.54 148.955 108.597C148.955 108.655 148.955 108.712 148.955 108.77C148.955 108.827 148.955 108.885 148.955 108.943C148.955 109.001 148.955 109.059 148.955 109.117C148.955 109.174 148.955 109.232 148.955 109.291C148.955 109.349 148.955 109.407 148.955 109.465C148.955 109.523 148.955 109.582 148.955 109.64C148.955 109.698 148.955 109.757 148.955 109.815C148.955 109.874 148.955 109.932 148.955 109.991C148.955 110.049 148.955 110.108 148.955 110.167C148.955 110.226 148.955 110.285 148.955 110.343C148.955 110.402 148.955 110.461 148.955 110.52C148.955 110.579 148.955 110.638 148.955 110.698C148.955 110.757 148.955 110.816 148.955 110.875C148.955 110.935 148.955 110.994 148.955 111.053C148.955 111.113 148.955 111.172 148.955 111.232C148.955 111.291 148.955 111.351 148.955 111.411C148.955 111.47 148.955 111.53 148.955 111.59C148.955 111.65 148.955 111.71 148.955 111.77C148.955 111.829 148.955 111.889 148.955 111.95C148.955 112.01 148.955 112.07 148.955 112.13C148.955 112.19 148.955 112.25 148.955 112.311C148.955 112.371 148.955 112.431 148.955 112.492C148.955 112.552 148.955 112.612 148.955 112.673C148.955 112.733 148.955 112.794 148.955 112.855C148.955 112.915 148.955 112.976 148.955 113.037C148.955 113.097 148.955 113.158 148.955 113.219C148.955 113.28 148.955 113.341 148.955 113.402C148.955 113.463 148.955 113.524 148.955 113.585C148.955 113.646 148.955 113.707 148.955 113.768C148.955 113.829 148.955 113.891 148.955 113.952C148.955 114.013 148.955 114.074 148.955 114.136C148.955 114.197 148.955 114.259 148.955 114.32C148.955 114.382 148.955 114.443 148.955 114.505C148.955 114.566 148.955 114.628 148.955 114.69C148.955 114.751 148.955 114.813 148.955 114.875C148.955 114.936 148.955 114.998 148.955 115.06C148.955 115.122 148.955 115.184 148.955 115.246C148.955 115.308 148.955 115.37 148.955 115.432C148.955 115.494 148.955 115.556 148.955 115.618C148.955 115.68 148.955 115.743 148.955 115.805C148.955 115.867 148.955 115.929 148.955 115.992C148.955 116.054 148.955 116.116 148.955 116.179C148.955 116.241 148.955 116.304 148.955 116.366C148.955 116.429 148.955 116.491 148.955 116.554C148.955 116.616 148.955 116.679 148.955 116.742C148.955 116.804 148.955 116.867 148.955 116.93C148.955 116.992 148.955 117.055 148.955 117.118C148.955 117.181 148.955 117.244 148.955 117.307C148.955 117.37 148.955 117.432 148.955 117.495C148.955 117.558 148.955 117.621 148.955 117.684C148.955 117.747 148.955 117.811 148.955 117.874C148.955 117.937 148.955 118 148.955 118.063C148.955 118.126 148.955 118.19 148.955 118.253C148.955 118.316 148.955 118.379 148.955 118.443C148.955 118.506 148.955 118.569 148.955 118.633C148.955 118.696 148.955 118.76 148.955 118.823C148.955 118.887 148.955 118.95 148.955 119.014C148.955 119.077 148.955 119.141 148.955 119.204C148.955 119.268 148.955 119.331 148.955 119.395C148.955 119.459 148.955 119.522 148.955 119.586C148.955 119.65 148.955 119.714 148.955 119.777C148.955 119.841 148.955 119.905 148.955 119.969C148.955 120.033 148.955 120.096 148.955 120.16C148.955 120.224 148.955 120.288 148.955 120.352C148.955 120.416 148.955 120.48 148.955 120.544C148.955 120.608 148.955 120.672 148.955 120.736C148.955 120.8 148.955 120.864 148.955 120.928C148.955 120.992 148.955 121.056 148.955 121.12C148.955 121.184 148.955 121.249 148.955 121.313C148.955 121.377 148.955 121.441 148.955 121.505C148.955 121.57 148.955 121.634 148.955 121.698C148.955 121.762 148.955 121.827 148.955 121.891C148.955 121.955 148.955 122.02 148.955 122.084C148.955 122.148 148.955 122.213 148.955 122.277C148.955 122.341 148.955 122.406 148.955 122.47C148.955 122.535 148.955 122.599 148.955 122.663C148.955 122.728 148.955 122.792 148.955 122.857C148.955 122.921 148.955 122.986 148.955 123.05C148.955 123.115 148.955 123.179 148.955 123.244C148.955 123.309 148.955 123.373 148.955 123.438C148.955 123.502 148.955 123.567 148.955 123.631C148.955 123.696 148.955 123.761 148.955 123.825C148.955 123.89 148.955 123.955 148.955 124.019C148.955 124.084 148.955 124.149 148.955 124.213C148.955 124.278 148.955 124.343 148.955 124.407C148.955 124.472 148.955 124.537 148.955 124.602C148.955 124.666 148.955 124.731 148.955 124.796C148.955 124.86 148.955 124.925 148.955 124.99C148.955 125.055 148.955 125.119 148.955 125.184C148.955 125.249 148.955 125.314 148.955 125.379C148.955 125.443 148.955 125.508 148.955 125.573C148.955 125.638 148.955 125.703 148.955 125.767C148.955 125.832 148.955 125.897 148.955 125.962C148.955 126.027 148.955 126.092 148.955 126.156C148.955 126.221 148.955 126.286 148.955 126.351C148.955 126.416 148.955 126.481 148.955 126.545C148.955 126.61 148.955 126.675 148.955 126.74C148.955 126.805 148.955 126.87 148.955 126.934C148.955 126.999 148.955 127.064 148.955 127.129C148.955 127.194 148.955 127.259 148.955 127.324C148.955 127.388 148.955 127.453 148.955 127.518C148.955 127.583 148.955 127.648 148.955 127.713C148.955 127.778 148.955 127.842 148.955 127.907C148.955 127.972 148.955 128.037 148.955 128.102C148.955 128.167 148.955 128.231 148.955 128.296C148.955 128.361 148.955 128.426 148.955 128.491C148.955 128.555 148.955 128.62 148.955 128.685C148.955 128.75 148.955 128.815 148.955 128.879C148.955 128.944 148.955 129.009 148.955 129.074C148.955 129.139 148.955 129.203 148.955 129.268C148.955 129.333 148.955 129.398 148.955 129.462C148.955 129.527 148.955 129.592 148.955 129.657C148.955 129.721 148.955 129.786 148.955 129.851C148.955 129.915 148.955 129.98 148.955 130.045C148.955 130.11 148.955 130.174 148.955 130.239C148.955 130.304 148.955 130.368 148.955 130.433C148.955 130.497 148.955 130.562 148.955 130.627C148.955 130.691 148.955 130.756 148.955 130.82C148.955 130.885 148.955 130.95 148.955 131.014C148.955 131.079 148.955 131.143 148.955 131.208C148.955 131.272 148.955 131.337 148.955 131.401C148.955 131.466 148.955 131.53 148.955 131.595C148.955 131.659 148.955 131.724 148.955 131.788C148.955 131.852 148.955 131.917 148.955 131.981C148.955 132.046 148.955 132.11 148.955 132.174C148.955 132.239 148.955 132.303 148.955 132.367C148.955 132.432 148.955 132.496 148.955 132.56C148.955 132.624 148.955 132.689 148.955 132.753C148.955 132.817 148.955 132.881 148.955 132.946C148.955 133.01 148.955 133.074 148.955 133.138C148.955 133.202 148.955 133.266 148.955 133.33C148.955 133.394 148.955 133.458 148.955 133.522C148.955 133.587 148.955 133.651 148.955 133.715C148.955 133.779 148.955 133.842 148.955 133.906C148.955 133.97 148.955 134.034 148.955 134.098C148.955 134.162 148.955 134.226 148.955 134.29C148.955 134.354 148.955 134.417 148.955 134.481C148.955 134.545 148.955 134.609 148.955 134.672C148.955 134.736 148.955 134.8 148.955 134.863C148.955 134.927 148.955 134.991 148.955 135.054C148.955 135.118 148.955 135.181 148.955 135.245C148.955 135.308 148.955 135.372 148.955 135.435C148.955 135.499 148.955 135.562 148.955 135.626C148.955 135.689 148.955 135.753 148.955 135.816C148.955 135.879 148.955 135.943 148.955 136.006C148.955 136.069 148.955 136.132 148.955 136.195C148.955 136.259 148.955 136.322 148.955 136.385C148.955 136.448 148.955 136.511 148.955 136.574C148.955 136.637 148.955 136.7 148.955 136.763C148.955 136.826 148.955 136.889 148.955 136.952C148.955 137.015 148.955 137.078 148.955 137.141C148.955 137.204 148.955 137.266 148.955 137.329C148.955 137.392 148.955 137.455 148.955 137.517C148.955 137.58 148.955 137.643 148.955 137.705C148.955 137.768 148.955 137.83 148.955 137.893C148.955 137.955 148.955 138.018 148.955 138.08C148.955 138.143 148.955 138.205 148.955 138.267C148.955 138.33 148.955 138.392 148.955 138.454C148.955 138.516 148.955 138.579 148.955 138.641C148.955 138.703 148.955 138.765 148.955 138.827C148.955 138.889 148.955 138.951 148.955 139.013C148.955 139.075 148.955 139.137 148.955 139.199C148.955 139.261 148.955 139.323 148.955 139.384C148.955 139.446 148.955 139.508 148.955 139.57C148.955 139.631 148.955 139.693 148.955 139.755C148.955 139.816 148.955 139.878 148.955 139.939C148.955 140.001 148.955 140.062 148.955 140.123C148.955 140.185 148.955 140.246 148.955 140.307C148.955 140.369 148.955 140.43 148.955 140.491C148.955 140.552 148.955 140.613 148.955 140.675C148.955 140.736 148.955 140.797 148.955 140.858C148.955 140.919 148.955 140.979 148.955 141.04C148.955 141.101 148.955 141.162 148.955 141.223C148.955 141.284 148.955 141.344 148.955 141.405C148.955 141.465 148.955 141.526 148.955 141.587C148.955 141.647 148.955 141.708 148.955 141.768C148.955 141.828 148.955 141.889 148.955 141.949C148.955 142.009 148.955 142.07 148.955 142.13C148.955 142.19 148.955 142.25 148.955 142.31C148.955 142.37 148.955 142.43 148.955 142.49C148.955 142.55 148.955 142.61 148.955 142.67C148.955 142.73 148.955 142.789 148.955 142.849C148.955 142.909 148.955 142.968 148.955 143.028C148.955 143.087 148.955 143.147 148.955 143.206C148.955 143.266 148.955 143.325 148.955 143.385C148.955 143.444 148.955 143.503 148.955 143.562C148.955 143.621 148.955 143.681 148.955 143.74C148.955 143.799 148.955 143.858 148.955 143.917C148.955 143.975 148.955 144.034 148.955 144.093C148.955 144.152 148.955 144.211 148.955 144.269C148.955 144.328 148.955 144.386 148.955 144.445C148.955 144.504 148.955 144.562 148.955 144.62C148.955 144.679 148.955 144.737 148.955 144.795C148.955 144.853 148.955 144.912 148.955 144.97C148.955 145.028 148.955 145.086 148.955 145.144C148.955 145.202 148.955 145.26 148.955 145.317C148.955 145.375 148.955 145.433 148.955 145.491C148.955 145.548 148.955 145.606 148.955 145.663C148.955 145.721 148.955 145.778 148.955 145.836C148.955 145.893 148.955 145.95 148.955 146.007C148.955 146.065 148.955 146.122 148.955 146.179C148.955 146.236 148.955 146.293 148.955 146.35C148.955 146.407 148.955 146.464 148.955 146.52C148.955 146.577 148.955 146.634 148.955 146.69C148.955 146.747 148.955 146.803 148.955 146.86C148.955 146.916 148.955 146.973 148.955 147.029C148.955 147.085 148.955 147.141 148.955 147.197C148.955 147.254 148.955 147.31 148.955 147.366C148.955 147.422 148.955 147.477 148.955 147.533C148.955 147.589 148.955 147.645 148.955 147.7C148.955 147.756 148.955 147.811 148.955 147.867C148.955 147.922 148.955 147.978 148.955 148.033C148.955 148.088 148.955 148.143 148.955 148.199C148.955 148.254 148.955 148.309 148.955 148.364C148.955 148.419 148.955 148.473 148.955 148.528C148.955 148.583 148.955 148.638 148.955 148.692C148.955 148.747 148.955 148.801 148.955 148.856C148.955 148.91 148.955 148.965 148.955 149.019C148.955 149.073 148.955 149.127 148.955 149.181C148.955 149.235 148.955 149.289 148.955 149.343C148.955 149.397 148.955 149.451 148.955 149.505C148.955 149.558 148.955 149.612 148.955 149.665C148.955 149.719 148.955 149.772 148.955 149.826C148.955 149.879 148.955 149.932 148.955 149.985C148.955 150.038 148.955 150.092 148.955 150.144C148.955 150.197 148.955 150.25 148.955 150.303C148.955 150.356 148.955 150.408 148.955 150.461C148.955 150.514 148.955 150.566 148.955 150.618C148.955 150.671 148.955 150.723 148.955 150.775C148.955 150.828 148.955 150.88 148.955 150.932C148.955 150.984 148.955 151.035 148.955 151.087C148.955 151.139 148.955 151.191 148.955 151.242C148.955 151.294 148.955 151.345 148.955 151.397C148.955 151.448 148.955 151.5 148.955 151.551C148.955 151.602 148.955 151.653 148.955 151.704C148.955 151.755 148.955 151.806 148.955 151.857C148.955 151.907 148.955 151.958 148.955 152.009C148.955 152.059 148.955 152.11 148.955 152.16C148.955 152.211 148.955 152.261 148.955 152.311C148.955 152.361 148.955 152.411 148.955 152.461C148.955 152.511 148.955 152.561 148.955 152.611C148.955 152.66 148.955 152.71 148.955 152.76C148.955 152.809 148.955 152.859 148.955 152.908C148.955 152.957 148.955 153.006 148.955 153.055C148.955 153.105 148.955 153.153 148.955 153.202C148.955 153.251 148.955 153.3 148.955 153.349C148.955 153.397 148.955 153.446 148.955 153.494C148.955 153.543 148.955 153.591 148.955 153.639C148.955 153.687 148.955 153.736 148.955 153.784C148.955 153.832 148.955 153.879 148.955 153.927C148.955 153.975 148.955 154.023 148.955 154.07C148.955 154.118 148.955 154.165 148.955 154.212C148.955 154.26 148.955 154.307 148.955 154.354C148.955 154.401 148.955 154.448 148.955 154.495C148.955 154.542 148.955 154.588 148.955 154.635C148.955 154.682 148.955 154.728 148.955 154.775C148.955 154.821 148.955 154.867 148.955 154.913C148.955 154.959 148.955 155.005 148.955 155.051C148.955 155.097 148.955 155.143 148.955 155.189C148.955 155.234 148.955 155.28 148.955 155.325C148.955 155.371 148.955 155.416 148.955 155.461C148.955 155.506 148.955 155.552 148.955 155.596C148.955 155.641 148.955 155.686 148.955 155.731C148.955 155.776 148.955 155.82 148.955 155.865C148.955 155.909 148.955 155.953 148.955 155.998C148.955 156.042 148.955 156.086 148.955 156.13C148.955 156.174 148.955 156.218 148.955 156.261C148.955 156.305 148.955 156.349 148.955 156.392C148.955 156.435 148.955 156.479 148.955 156.522C148.955 156.565 148.955 156.608 148.955 156.651C148.955 156.694 148.955 156.737 148.955 156.78C148.955 156.822 148.955 156.865 148.955 156.907C148.955 156.95 148.955 156.992 148.955 157.034C148.955 157.076 148.955 157.118 148.955 157.16C148.955 157.202 148.955 157.244 148.955 157.285C148.955 157.327 148.955 157.369 148.955 157.41C148.955 157.451 148.955 157.493 148.955 157.534C148.955 157.575 148.955 157.616 148.955 157.657C148.955 157.697 148.955 157.738 148.955 157.779C148.955 157.819 148.955 157.86 148.955 157.9C148.955 157.94 148.955 157.98 148.955 158.02C148.955 158.06 148.955 158.1 148.955 158.14C148.955 158.18 148.955 158.219 148.955 158.259C148.955 158.298 148.955 158.338 148.955 158.377C148.955 158.416 148.955 158.455 148.955 158.494C148.955 158.533 148.955 158.572 148.955 158.61C148.955 158.649 148.955 158.688 148.955 158.726C148.955 158.764 148.955 158.802 148.955 158.841C148.955 158.879 148.955 158.917 148.955 158.954C148.955 158.992 148.955 159.03 148.955 159.067C148.955 159.105 148.955 159.142 148.955 159.179C148.955 159.217 148.955 159.254 148.955 159.291C148.955 159.328 148.955 159.364 148.955 159.401C148.955 159.438 148.955 159.474 148.955 159.51C148.955 159.547 148.955 159.583 148.955 159.619C148.955 159.655 148.955 159.691 148.955 159.727C148.955 159.763 148.955 159.798 148.955 159.834C148.955 159.869 148.955 159.904 148.955 159.94C148.955 159.975 148.955 160.01 148.955 160.045C148.955 160.079 148.955 160.114 148.955 160.149C148.955 160.183 148.955 160.218 148.955 160.252C148.955 160.286 148.955 160.32 148.955 160.354C148.955 160.388 148.955 160.422 148.955 160.456C148.955 160.489 148.955 160.523 148.955 160.556C148.955 160.59 148.955 160.623 148.955 160.656C148.955 160.689 148.955 160.722 148.955 160.755C148.955 160.787 148.955 160.82 148.955 160.852C148.955 160.885 148.955 160.917 148.955 160.949C148.955 160.981 148.955 161.013 148.955 161.045C148.955 161.077 148.955 161.108 148.955 161.14C148.955 161.171 148.955 161.203 148.955 161.234C148.955 161.265 148.955 161.296 148.955 161.327C148.955 161.358 148.955 161.388 148.955 161.419C148.955 161.449 148.955 161.48 148.955 161.51C148.955 161.54 148.955 161.57 148.955 161.6C148.955 161.63 148.955 161.66 148.955 161.689C148.955 161.719 148.955 161.748 148.955 161.777H156.955C156.955 161.748 156.955 161.719 156.955 161.689C156.955 161.66 156.955 161.63 156.955 161.6C156.955 161.57 156.955 161.54 156.955 161.51C156.955 161.48 156.955 161.449 156.955 161.419C156.955 161.388 156.955 161.358 156.955 161.327C156.955 161.296 156.955 161.265 156.955 161.234C156.955 161.203 156.955 161.171 156.955 161.14C156.955 161.108 156.955 161.077 156.955 161.045C156.955 161.013 156.955 160.981 156.955 160.949C156.955 160.917 156.955 160.885 156.955 160.852C156.955 160.82 156.955 160.787 156.955 160.755C156.955 160.722 156.955 160.689 156.955 160.656C156.955 160.623 156.955 160.59 156.955 160.556C156.955 160.523 156.955 160.489 156.955 160.456C156.955 160.422 156.955 160.388 156.955 160.354C156.955 160.32 156.955 160.286 156.955 160.252C156.955 160.218 156.955 160.183 156.955 160.149C156.955 160.114 156.955 160.079 156.955 160.045C156.955 160.01 156.955 159.975 156.955 159.94C156.955 159.904 156.955 159.869 156.955 159.834C156.955 159.798 156.955 159.763 156.955 159.727C156.955 159.691 156.955 159.655 156.955 159.619C156.955 159.583 156.955 159.547 156.955 159.51C156.955 159.474 156.955 159.438 156.955 159.401C156.955 159.364 156.955 159.328 156.955 159.291C156.955 159.254 156.955 159.217 156.955 159.179C156.955 159.142 156.955 159.105 156.955 159.067C156.955 159.03 156.955 158.992 156.955 158.954C156.955 158.917 156.955 158.879 156.955 158.841C156.955 158.802 156.955 158.764 156.955 158.726C156.955 158.688 156.955 158.649 156.955 158.61C156.955 158.572 156.955 158.533 156.955 158.494C156.955 158.455 156.955 158.416 156.955 158.377C156.955 158.338 156.955 158.298 156.955 158.259C156.955 158.219 156.955 158.18 156.955 158.14C156.955 158.1 156.955 158.06 156.955 158.02C156.955 157.98 156.955 157.94 156.955 157.9C156.955 157.86 156.955 157.819 156.955 157.779C156.955 157.738 156.955 157.697 156.955 157.657C156.955 157.616 156.955 157.575 156.955 157.534C156.955 157.493 156.955 157.451 156.955 157.41C156.955 157.369 156.955 157.327 156.955 157.285C156.955 157.244 156.955 157.202 156.955 157.16C156.955 157.118 156.955 157.076 156.955 157.034C156.955 156.992 156.955 156.95 156.955 156.907C156.955 156.865 156.955 156.822 156.955 156.78C156.955 156.737 156.955 156.694 156.955 156.651C156.955 156.608 156.955 156.565 156.955 156.522C156.955 156.479 156.955 156.435 156.955 156.392C156.955 156.349 156.955 156.305 156.955 156.261C156.955 156.218 156.955 156.174 156.955 156.13C156.955 156.086 156.955 156.042 156.955 155.998C156.955 155.953 156.955 155.909 156.955 155.865C156.955 155.82 156.955 155.776 156.955 155.731C156.955 155.686 156.955 155.641 156.955 155.596C156.955 155.552 156.955 155.506 156.955 155.461C156.955 155.416 156.955 155.371 156.955 155.325C156.955 155.28 156.955 155.234 156.955 155.189C156.955 155.143 156.955 155.097 156.955 155.051C156.955 155.005 156.955 154.959 156.955 154.913C156.955 154.867 156.955 154.821 156.955 154.775C156.955 154.728 156.955 154.682 156.955 154.635C156.955 154.588 156.955 154.542 156.955 154.495C156.955 154.448 156.955 154.401 156.955 154.354C156.955 154.307 156.955 154.26 156.955 154.212C156.955 154.165 156.955 154.118 156.955 154.07C156.955 154.023 156.955 153.975 156.955 153.927C156.955 153.879 156.955 153.832 156.955 153.784C156.955 153.736 156.955 153.687 156.955 153.639C156.955 153.591 156.955 153.543 156.955 153.494C156.955 153.446 156.955 153.397 156.955 153.349C156.955 153.3 156.955 153.251 156.955 153.202C156.955 153.153 156.955 153.105 156.955 153.055C156.955 153.006 156.955 152.957 156.955 152.908C156.955 152.859 156.955 152.809 156.955 152.76C156.955 152.71 156.955 152.66 156.955 152.611C156.955 152.561 156.955 152.511 156.955 152.461C156.955 152.411 156.955 152.361 156.955 152.311C156.955 152.261 156.955 152.211 156.955 152.16C156.955 152.11 156.955 152.059 156.955 152.009C156.955 151.958 156.955 151.907 156.955 151.857C156.955 151.806 156.955 151.755 156.955 151.704C156.955 151.653 156.955 151.602 156.955 151.551C156.955 151.5 156.955 151.448 156.955 151.397C156.955 151.345 156.955 151.294 156.955 151.242C156.955 151.191 156.955 151.139 156.955 151.087C156.955 151.035 156.955 150.984 156.955 150.932C156.955 150.88 156.955 150.828 156.955 150.775C156.955 150.723 156.955 150.671 156.955 150.618C156.955 150.566 156.955 150.514 156.955 150.461C156.955 150.408 156.955 150.356 156.955 150.303C156.955 150.25 156.955 150.197 156.955 150.144C156.955 150.092 156.955 150.038 156.955 149.985C156.955 149.932 156.955 149.879 156.955 149.826C156.955 149.772 156.955 149.719 156.955 149.665C156.955 149.612 156.955 149.558 156.955 149.505C156.955 149.451 156.955 149.397 156.955 149.343C156.955 149.289 156.955 149.235 156.955 149.181C156.955 149.127 156.955 149.073 156.955 149.019C156.955 148.965 156.955 148.91 156.955 148.856C156.955 148.801 156.955 148.747 156.955 148.692C156.955 148.638 156.955 148.583 156.955 148.528C156.955 148.473 156.955 148.419 156.955 148.364C156.955 148.309 156.955 148.254 156.955 148.199C156.955 148.143 156.955 148.088 156.955 148.033C156.955 147.978 156.955 147.922 156.955 147.867C156.955 147.811 156.955 147.756 156.955 147.7C156.955 147.645 156.955 147.589 156.955 147.533C156.955 147.477 156.955 147.422 156.955 147.366C156.955 147.31 156.955 147.254 156.955 147.197C156.955 147.141 156.955 147.085 156.955 147.029C156.955 146.973 156.955 146.916 156.955 146.86C156.955 146.803 156.955 146.747 156.955 146.69C156.955 146.634 156.955 146.577 156.955 146.52C156.955 146.464 156.955 146.407 156.955 146.35C156.955 146.293 156.955 146.236 156.955 146.179C156.955 146.122 156.955 146.065 156.955 146.007C156.955 145.95 156.955 145.893 156.955 145.836C156.955 145.778 156.955 145.721 156.955 145.663C156.955 145.606 156.955 145.548 156.955 145.491C156.955 145.433 156.955 145.375 156.955 145.317C156.955 145.26 156.955 145.202 156.955 145.144C156.955 145.086 156.955 145.028 156.955 144.97C156.955 144.912 156.955 144.853 156.955 144.795C156.955 144.737 156.955 144.679 156.955 144.62C156.955 144.562 156.955 144.504 156.955 144.445C156.955 144.386 156.955 144.328 156.955 144.269C156.955 144.211 156.955 144.152 156.955 144.093C156.955 144.034 156.955 143.975 156.955 143.917C156.955 143.858 156.955 143.799 156.955 143.74C156.955 143.681 156.955 143.621 156.955 143.562C156.955 143.503 156.955 143.444 156.955 143.385C156.955 143.325 156.955 143.266 156.955 143.206C156.955 143.147 156.955 143.087 156.955 143.028C156.955 142.968 156.955 142.909 156.955 142.849C156.955 142.789 156.955 142.73 156.955 142.67C156.955 142.61 156.955 142.55 156.955 142.49C156.955 142.43 156.955 142.37 156.955 142.31C156.955 142.25 156.955 142.19 156.955 142.13C156.955 142.07 156.955 142.009 156.955 141.949C156.955 141.889 156.955 141.828 156.955 141.768C156.955 141.708 156.955 141.647 156.955 141.587C156.955 141.526 156.955 141.465 156.955 141.405C156.955 141.344 156.955 141.284 156.955 141.223C156.955 141.162 156.955 141.101 156.955 141.04C156.955 140.979 156.955 140.919 156.955 140.858C156.955 140.797 156.955 140.736 156.955 140.675C156.955 140.613 156.955 140.552 156.955 140.491C156.955 140.43 156.955 140.369 156.955 140.307C156.955 140.246 156.955 140.185 156.955 140.123C156.955 140.062 156.955 140.001 156.955 139.939C156.955 139.878 156.955 139.816 156.955 139.755C156.955 139.693 156.955 139.631 156.955 139.57C156.955 139.508 156.955 139.446 156.955 139.384C156.955 139.323 156.955 139.261 156.955 139.199C156.955 139.137 156.955 139.075 156.955 139.013C156.955 138.951 156.955 138.889 156.955 138.827C156.955 138.765 156.955 138.703 156.955 138.641C156.955 138.579 156.955 138.516 156.955 138.454C156.955 138.392 156.955 138.33 156.955 138.267C156.955 138.205 156.955 138.143 156.955 138.08C156.955 138.018 156.955 137.955 156.955 137.893C156.955 137.83 156.955 137.768 156.955 137.705C156.955 137.643 156.955 137.58 156.955 137.517C156.955 137.455 156.955 137.392 156.955 137.329C156.955 137.266 156.955 137.204 156.955 137.141C156.955 137.078 156.955 137.015 156.955 136.952C156.955 136.889 156.955 136.826 156.955 136.763C156.955 136.7 156.955 136.637 156.955 136.574C156.955 136.511 156.955 136.448 156.955 136.385C156.955 136.322 156.955 136.259 156.955 136.195C156.955 136.132 156.955 136.069 156.955 136.006C156.955 135.943 156.955 135.879 156.955 135.816C156.955 135.753 156.955 135.689 156.955 135.626C156.955 135.562 156.955 135.499 156.955 135.435C156.955 135.372 156.955 135.308 156.955 135.245C156.955 135.181 156.955 135.118 156.955 135.054C156.955 134.991 156.955 134.927 156.955 134.863C156.955 134.8 156.955 134.736 156.955 134.672C156.955 134.609 156.955 134.545 156.955 134.481C156.955 134.417 156.955 134.354 156.955 134.29C156.955 134.226 156.955 134.162 156.955 134.098C156.955 134.034 156.955 133.97 156.955 133.906C156.955 133.842 156.955 133.779 156.955 133.715C156.955 133.651 156.955 133.587 156.955 133.522C156.955 133.458 156.955 133.394 156.955 133.33C156.955 133.266 156.955 133.202 156.955 133.138C156.955 133.074 156.955 133.01 156.955 132.946C156.955 132.881 156.955 132.817 156.955 132.753C156.955 132.689 156.955 132.624 156.955 132.56C156.955 132.496 156.955 132.432 156.955 132.367C156.955 132.303 156.955 132.239 156.955 132.174C156.955 132.11 156.955 132.046 156.955 131.981C156.955 131.917 156.955 131.852 156.955 131.788C156.955 131.724 156.955 131.659 156.955 131.595C156.955 131.53 156.955 131.466 156.955 131.401C156.955 131.337 156.955 131.272 156.955 131.208C156.955 131.143 156.955 131.079 156.955 131.014C156.955 130.95 156.955 130.885 156.955 130.82C156.955 130.756 156.955 130.691 156.955 130.627C156.955 130.562 156.955 130.497 156.955 130.433C156.955 130.368 156.955 130.304 156.955 130.239C156.955 130.174 156.955 130.11 156.955 130.045C156.955 129.98 156.955 129.915 156.955 129.851C156.955 129.786 156.955 129.721 156.955 129.657C156.955 129.592 156.955 129.527 156.955 129.462C156.955 129.398 156.955 129.333 156.955 129.268C156.955 129.203 156.955 129.139 156.955 129.074C156.955 129.009 156.955 128.944 156.955 128.879C156.955 128.815 156.955 128.75 156.955 128.685C156.955 128.62 156.955 128.555 156.955 128.491C156.955 128.426 156.955 128.361 156.955 128.296C156.955 128.231 156.955 128.167 156.955 128.102C156.955 128.037 156.955 127.972 156.955 127.907C156.955 127.842 156.955 127.778 156.955 127.713C156.955 127.648 156.955 127.583 156.955 127.518C156.955 127.453 156.955 127.388 156.955 127.324C156.955 127.259 156.955 127.194 156.955 127.129C156.955 127.064 156.955 126.999 156.955 126.934C156.955 126.87 156.955 126.805 156.955 126.74C156.955 126.675 156.955 126.61 156.955 126.545C156.955 126.481 156.955 126.416 156.955 126.351C156.955 126.286 156.955 126.221 156.955 126.156C156.955 126.092 156.955 126.027 156.955 125.962C156.955 125.897 156.955 125.832 156.955 125.767C156.955 125.703 156.955 125.638 156.955 125.573C156.955 125.508 156.955 125.443 156.955 125.379C156.955 125.314 156.955 125.249 156.955 125.184C156.955 125.119 156.955 125.055 156.955 124.99C156.955 124.925 156.955 124.86 156.955 124.796C156.955 124.731 156.955 124.666 156.955 124.602C156.955 124.537 156.955 124.472 156.955 124.407C156.955 124.343 156.955 124.278 156.955 124.213C156.955 124.149 156.955 124.084 156.955 124.019C156.955 123.955 156.955 123.89 156.955 123.825C156.955 123.761 156.955 123.696 156.955 123.631C156.955 123.567 156.955 123.502 156.955 123.438C156.955 123.373 156.955 123.309 156.955 123.244C156.955 123.179 156.955 123.115 156.955 123.05C156.955 122.986 156.955 122.921 156.955 122.857C156.955 122.792 156.955 122.728 156.955 122.663C156.955 122.599 156.955 122.535 156.955 122.47C156.955 122.406 156.955 122.341 156.955 122.277C156.955 122.213 156.955 122.148 156.955 122.084C156.955 122.02 156.955 121.955 156.955 121.891C156.955 121.827 156.955 121.762 156.955 121.698C156.955 121.634 156.955 121.57 156.955 121.505C156.955 121.441 156.955 121.377 156.955 121.313C156.955 121.249 156.955 121.184 156.955 121.12C156.955 121.056 156.955 120.992 156.955 120.928C156.955 120.864 156.955 120.8 156.955 120.736C156.955 120.672 156.955 120.608 156.955 120.544C156.955 120.48 156.955 120.416 156.955 120.352C156.955 120.288 156.955 120.224 156.955 120.16C156.955 120.096 156.955 120.033 156.955 119.969C156.955 119.905 156.955 119.841 156.955 119.777C156.955 119.714 156.955 119.65 156.955 119.586C156.955 119.522 156.955 119.459 156.955 119.395C156.955 119.331 156.955 119.268 156.955 119.204C156.955 119.141 156.955 119.077 156.955 119.014C156.955 118.95 156.955 118.887 156.955 118.823C156.955 118.76 156.955 118.696 156.955 118.633C156.955 118.569 156.955 118.506 156.955 118.443C156.955 118.379 156.955 118.316 156.955 118.253C156.955 118.19 156.955 118.126 156.955 118.063C156.955 118 156.955 117.937 156.955 117.874C156.955 117.811 156.955 117.747 156.955 117.684C156.955 117.621 156.955 117.558 156.955 117.495C156.955 117.432 156.955 117.37 156.955 117.307C156.955 117.244 156.955 117.181 156.955 117.118C156.955 117.055 156.955 116.992 156.955 116.93C156.955 116.867 156.955 116.804 156.955 116.742C156.955 116.679 156.955 116.616 156.955 116.554C156.955 116.491 156.955 116.429 156.955 116.366C156.955 116.304 156.955 116.241 156.955 116.179C156.955 116.116 156.955 116.054 156.955 115.992C156.955 115.929 156.955 115.867 156.955 115.805C156.955 115.743 156.955 115.68 156.955 115.618C156.955 115.556 156.955 115.494 156.955 115.432C156.955 115.37 156.955 115.308 156.955 115.246C156.955 115.184 156.955 115.122 156.955 115.06C156.955 114.998 156.955 114.936 156.955 114.875C156.955 114.813 156.955 114.751 156.955 114.69C156.955 114.628 156.955 114.566 156.955 114.505C156.955 114.443 156.955 114.382 156.955 114.32C156.955 114.259 156.955 114.197 156.955 114.136C156.955 114.074 156.955 114.013 156.955 113.952C156.955 113.891 156.955 113.829 156.955 113.768C156.955 113.707 156.955 113.646 156.955 113.585C156.955 113.524 156.955 113.463 156.955 113.402C156.955 113.341 156.955 113.28 156.955 113.219C156.955 113.158 156.955 113.097 156.955 113.037C156.955 112.976 156.955 112.915 156.955 112.855C156.955 112.794 156.955 112.733 156.955 112.673C156.955 112.612 156.955 112.552 156.955 112.492C156.955 112.431 156.955 112.371 156.955 112.311C156.955 112.25 156.955 112.19 156.955 112.13C156.955 112.07 156.955 112.01 156.955 111.95C156.955 111.889 156.955 111.829 156.955 111.77C156.955 111.71 156.955 111.65 156.955 111.59C156.955 111.53 156.955 111.47 156.955 111.411C156.955 111.351 156.955 111.291 156.955 111.232C156.955 111.172 156.955 111.113 156.955 111.053C156.955 110.994 156.955 110.935 156.955 110.875C156.955 110.816 156.955 110.757 156.955 110.698C156.955 110.638 156.955 110.579 156.955 110.52C156.955 110.461 156.955 110.402 156.955 110.343C156.955 110.285 156.955 110.226 156.955 110.167C156.955 110.108 156.955 110.049 156.955 109.991C156.955 109.932 156.955 109.874 156.955 109.815C156.955 109.757 156.955 109.698 156.955 109.64C156.955 109.582 156.955 109.523 156.955 109.465C156.955 109.407 156.955 109.349 156.955 109.291C156.955 109.232 156.955 109.174 156.955 109.117C156.955 109.059 156.955 109.001 156.955 108.943C156.955 108.885 156.955 108.827 156.955 108.77C156.955 108.712 156.955 108.655 156.955 108.597C156.955 108.54 156.955 108.482 156.955 108.425C156.955 108.368 156.955 108.31 156.955 108.253C156.955 108.196 156.955 108.139 156.955 108.082C156.955 108.025 156.955 107.968 156.955 107.911C156.955 107.854 156.955 107.797 156.955 107.74C156.955 107.684 156.955 107.627 156.955 107.57C156.955 107.514 156.955 107.457 156.955 107.401C156.955 107.345 156.955 107.288 156.955 107.232C156.955 107.176 156.955 107.12 156.955 107.063C156.955 107.007 156.955 106.951 156.955 106.895C156.955 106.839 156.955 106.784 156.955 106.728C156.955 106.672 156.955 106.616 156.955 106.561C156.955 106.505 156.955 106.45 156.955 106.394C156.955 106.339 156.955 106.283 156.955 106.228C156.955 106.173 156.955 106.118 156.955 106.063C156.955 106.008 156.955 105.953 156.955 105.898C156.955 105.843 156.955 105.788 156.955 105.733C156.955 105.678 156.955 105.624 156.955 105.569C156.955 105.515 156.955 105.46 156.955 105.406C156.955 105.351 156.955 105.297 156.955 105.243C156.955 105.189 156.955 105.134 156.955 105.08C156.955 105.026 156.955 104.972 156.955 104.918C156.955 104.865 156.955 104.811 156.955 104.757C156.955 104.704 156.955 104.65 156.955 104.596C156.955 104.543 156.955 104.49 156.955 104.436C156.955 104.383 156.955 104.33 156.955 104.277C156.955 104.223 156.955 104.17 156.955 104.117C156.955 104.065 156.955 104.012 156.955 103.959C156.955 103.906 156.955 103.854 156.955 103.801C156.955 103.748 156.955 103.696 156.955 103.644C156.955 103.591 156.955 103.539 156.955 103.487C156.955 103.435 156.955 103.383 156.955 103.331C156.955 103.279 156.955 103.227 156.955 103.175C156.955 103.123 156.955 103.072 156.955 103.02C156.955 102.968 156.955 102.917 156.955 102.866C156.955 102.814 156.955 102.763 156.955 102.712C156.955 102.661 156.955 102.61 156.955 102.559C156.955 102.508 156.955 102.457 156.955 102.406C156.955 102.355 156.955 102.305 156.955 102.254C156.955 102.203 156.955 102.153 156.955 102.103C156.955 102.052 156.955 102.002 156.955 101.952C156.955 101.902 156.955 101.852 156.955 101.802C156.955 101.752 156.955 101.702 156.955 101.652C156.955 101.603 156.955 101.553 156.955 101.504C156.955 101.454 156.955 101.405 156.955 101.355C156.955 101.306 156.955 101.257 156.955 101.208C156.955 101.159 156.955 101.11 156.955 101.061C156.955 101.012 156.955 100.963 156.955 100.915C156.955 100.866 156.955 100.818 156.955 100.769C156.955 100.721 156.955 100.672 156.955 100.624C156.955 100.576 156.955 100.528 156.955 100.48C156.955 100.432 156.955 100.384 156.955 100.336C156.955 100.289 156.955 100.241 156.955 100.194C156.955 100.146 156.955 100.099 156.955 100.051C156.955 100.004 156.955 99.9569 156.955 99.9099C156.955 99.8628 156.955 99.8159 156.955 99.769C156.955 99.7222 156.955 99.6755 156.955 99.6289C156.955 99.5824 156.955 99.5359 156.955 99.4895C156.955 99.4432 156.955 99.3969 156.955 99.3508C156.955 99.3047 156.955 99.2587 156.955 99.2128C156.955 99.167 156.955 99.1212 156.955 99.0756C156.955 99.0299 156.955 98.9844 156.955 98.939C156.955 98.8936 156.955 98.8483 156.955 98.8032C156.955 98.758 156.955 98.713 156.955 98.6681C156.955 98.6232 156.955 98.5784 156.955 98.5337C156.955 98.4891 156.955 98.4445 156.955 98.4001C156.955 98.3557 156.955 98.3114 156.955 98.2672C156.955 98.223 156.955 98.179 156.955 98.1351C156.955 98.0911 156.955 98.0474 156.955 98.0037C156.955 97.96 156.955 97.9165 156.955 97.8731C156.955 97.8296 156.955 97.7863 156.955 97.7432C156.955 97.7 156.955 97.657 156.955 97.6141C156.955 97.5712 156.955 97.5284 156.955 97.4857C156.955 97.4431 156.955 97.4006 156.955 97.3582C156.955 97.3158 156.955 97.2735 156.955 97.2314C156.955 97.1893 156.955 97.1473 156.955 97.1054C156.955 97.0635 156.955 97.0218 156.955 96.9802C156.955 96.9386 156.955 96.8971 156.955 96.8558C156.955 96.8144 156.955 96.7732 156.955 96.7322C156.955 96.6911 156.955 96.6501 156.955 96.6093C156.955 96.5685 156.955 96.5279 156.955 96.4873C156.955 96.4468 156.955 96.4064 156.955 96.3661C156.955 96.3259 156.955 96.2857 156.955 96.2457C156.955 96.2057 156.955 96.1659 156.955 96.1262C156.955 96.0864 156.955 96.0469 156.955 96.0074C156.955 95.968 156.955 95.9287 156.955 95.8895C156.955 95.8503 156.955 95.8113 156.955 95.7724C156.955 95.7335 156.955 95.6948 156.955 95.6562C156.955 95.6176 156.955 95.5791 156.955 95.5408C156.955 95.5024 156.955 95.4642 156.955 95.4262C156.955 95.3882 156.955 95.3503 156.955 95.3125C156.955 95.2747 156.955 95.2371 156.955 95.1996C156.955 95.1622 156.955 95.1248 156.955 95.0876C156.955 95.0505 156.955 95.0134 156.955 94.9765C156.955 94.9396 156.955 94.9029 156.955 94.8663C156.955 94.8296 156.955 94.7932 156.955 94.7569C156.955 94.7206 156.955 94.6844 156.955 94.6484C156.955 94.6123 156.955 94.5765 156.955 94.5407C156.955 94.505 156.955 94.4694 156.955 94.434C156.955 94.3986 156.955 94.3633 156.955 94.3281C156.955 94.293 156.955 94.258 156.955 94.2232C156.955 94.1884 156.955 94.1537 156.955 94.1191C156.955 94.0846 156.955 94.0502 156.955 94.016C156.955 93.9818 156.955 93.9477 156.955 93.9137C156.955 93.8798 156.955 93.846 156.955 93.8124C156.955 93.7788 156.955 93.7453 156.955 93.712C156.955 93.6787 156.955 93.6455 156.955 93.6125C156.955 93.5795 156.955 93.5467 156.955 93.514C156.955 93.4813 156.955 93.4487 156.955 93.4163C156.955 93.384 156.955 93.3517 156.955 93.3197C156.955 93.2876 156.955 93.2557 156.955 93.2239C156.955 93.1921 156.955 93.1605 156.955 93.1291C156.955 93.0977 156.955 93.0664 156.955 93.0352C156.955 93.0041 156.955 92.9732 156.955 92.9423C156.955 92.9115 156.955 92.8809 156.955 92.8504C156.955 92.8199 156.955 92.7896 156.955 92.7594C156.955 92.7293 156.955 92.6993 156.955 92.6694C156.955 92.6396 156.955 92.6099 156.955 92.5804C156.955 92.5509 156.955 92.5215 156.955 92.4923C156.955 92.4631 156.955 92.4341 156.955 92.4052C156.955 92.3764 156.955 92.3477 156.955 92.3191C156.955 92.2906 156.955 92.2622 156.955 92.234C156.955 92.2058 156.955 92.1778 156.955 92.1499C156.955 92.1221 156.955 92.0944 156.955 92.0668C156.955 92.0393 156.955 92.0119 156.955 91.9847C156.955 91.9575 156.955 91.9305 156.955 91.9036C156.955 91.8768 156.955 91.8501 156.955 91.8235C156.955 91.797 156.955 91.7707 156.955 91.7445C156.955 91.7183 156.955 91.6923 156.955 91.6664C156.955 91.6406 156.955 91.6149 156.955 91.5894C156.955 91.5639 156.955 91.5386 156.955 91.5134C156.955 91.4883 156.955 91.4633 156.955 91.4385C156.955 91.4136 156.955 91.389 156.955 91.3645C156.955 91.3401 156.955 91.3158 156.955 91.2917C156.955 91.2676 156.955 91.2436 156.955 91.2199C156.955 91.1961 156.955 91.1725 156.955 91.1491C156.955 91.1257 156.955 91.1024 156.955 91.0794C156.955 91.0563 156.955 91.0334 156.955 91.0107C156.955 90.988 156.955 90.9655 156.955 90.9431C156.955 90.9208 156.955 90.8986 156.955 90.8766C156.955 90.8546 156.955 90.8328 156.955 90.8112C156.955 90.7896 156.955 90.7681 156.955 90.7468C156.955 90.7256 156.955 90.7045 156.955 90.6836C156.955 90.6627 156.955 90.6419 156.955 90.6214C156.955 90.6009 156.955 90.5805 156.955 90.5603C156.955 90.5401 156.955 90.5201 156.955 90.5003C156.955 90.4805 156.955 90.4609 156.955 90.4414C156.955 90.422 156.955 90.4027 156.955 90.3837C156.955 90.3646 156.955 90.3457 156.955 90.327C156.955 90.3083 156.955 90.2898 156.955 90.2714C156.955 90.2531 156.955 90.235 156.955 90.217C156.955 90.1991 156.955 90.1813 156.955 90.1637C156.955 90.1461 156.955 90.1287 156.955 90.1115C156.955 90.0943 156.955 90.0773 156.955 90.0605C156.955 90.0437 156.955 90.027 156.955 90.0106C156.955 89.9942 156.955 89.9779 156.955 89.9618C156.955 89.9458 156.955 89.9299 156.955 89.9142C156.955 89.8986 156.955 89.8831 156.955 89.8678C156.955 89.8525 156.955 89.8374 156.955 89.8225C156.955 89.8076 156.955 89.7929 156.955 89.7783C156.955 89.7638 156.955 89.7495 156.955 89.7354C156.955 89.7212 156.955 89.7073 156.955 89.6936C156.955 89.6798 156.955 89.6663 156.955 89.6529C156.955 89.6396 156.955 89.6264 156.955 89.6135C156.955 89.6005 156.955 89.5878 156.955 89.5752C156.955 89.5627 156.955 89.5503 156.955 89.5381C156.955 89.526 156.955 89.514 156.955 89.5023C156.955 89.4905 156.955 89.4789 156.955 89.4676C156.955 89.4562 156.955 89.445 156.955 89.4341C156.955 89.4231 156.955 89.4124 156.955 89.4018C156.955 89.3912 156.955 89.3809 156.955 89.3707C156.955 89.3606 156.955 89.3506 156.955 89.3409C156.955 89.3311 156.955 89.3216 156.955 89.3122C156.955 89.3029 156.955 89.2938 156.955 89.2848C156.955 89.2759 156.955 89.2672 156.955 89.2587C156.955 89.2501 156.955 89.2418 156.955 89.2337C156.955 89.2256 156.955 89.2177 156.955 89.21C156.955 89.2023 156.955 89.1948 156.955 89.1875C156.955 89.1802 156.955 89.1732 156.955 89.1663C156.955 89.1594 156.955 89.1528 156.955 89.1463C156.955 89.1399 156.955 89.1336 156.955 89.1276C156.955 89.1216 156.955 89.1158 156.955 89.1102C156.955 89.1046 156.955 89.0992 156.955 89.094C156.955 89.0888 156.955 89.0838 156.955 89.0791C156.955 89.0743 156.955 89.0697 156.955 89.0654C156.955 89.0611 156.955 89.057 156.955 89.053C156.955 89.0491 156.955 89.0454 156.955 89.042C156.955 89.0385 156.955 89.0352 156.955 89.0322C156.955 89.0291 156.955 89.0263 156.955 89.0237C156.955 89.021 156.955 89.0186 156.955 89.0164C156.955 89.0143 156.955 89.0123 156.955 89.0105C156.955 89.0088 156.955 89.0073 156.955 89.0059C156.955 89.0046 156.955 89.0035 156.955 89.0026C156.955 89.0018 156.955 89.0011 156.955 89.0007C156.955 89.0002 156.955 89 152.955 89ZM148.955 161.777C148.955 164.088 147.949 165.735 146.263 166.939C144.458 168.227 141.826 169 138.977 169C136.129 169 133.496 168.227 131.692 166.939C130.006 165.735 129 164.088 129 161.777H121C121 166.948 123.489 170.912 127.044 173.45C130.481 175.903 134.837 177 138.977 177C143.118 177 147.474 175.903 150.91 173.45C154.466 170.912 156.955 166.948 156.955 161.777H148.955ZM156.955 161.777C156.955 156.607 154.466 152.642 150.91 150.105C147.474 147.652 143.118 146.555 138.977 146.555C134.837 146.555 130.481 147.652 127.044 150.105C123.489 152.642 121 156.607 121 161.777H129C129 159.466 130.006 157.819 131.692 156.616C133.496 155.328 136.129 154.555 138.977 154.555C141.826 154.555 144.458 155.328 146.263 156.616C147.949 157.819 148.955 159.466 148.955 161.777H156.955Z" fill="#FF4D35"/>
</svg>
