<svg width="173" height="151" viewBox="0 0 173 151" fill="none" xmlns="http://www.w3.org/2000/svg">
<path d="M44.25 19.5C42.0409 19.5 40.25 21.2909 40.25 23.5C40.25 25.7091 42.0409 27.5 44.25 27.5V19.5ZM161 39.5V107.5H169V39.5H161ZM149 119.5H20V127.5H149V119.5ZM8 107.5V23.5H0V107.5H8ZM8 23.5V20H0V23.5H8ZM84.5 27.5H149V19.5H84.5V27.5ZM8 20C8 13.3726 13.3726 8 20 8V0C8.9543 0 0 8.9543 0 20H8ZM20 119.5C13.3726 119.5 8 114.127 8 107.5H0C0 118.546 8.9543 127.5 20 127.5V119.5ZM161 107.5C161 114.127 155.627 119.5 149 119.5V127.5C160.046 127.5 169 118.546 169 107.5H161ZM68.5 8C75.1274 8 80.5 13.3726 80.5 20H88.5C88.5 8.9543 79.5457 0 68.5 0V8ZM169 39.5C169 28.4543 160.046 19.5 149 19.5V27.5C155.627 27.5 161 32.8726 161 39.5H169ZM20 8H44.25V0H20V8ZM44.25 8H68.5V0H44.25V8ZM84.5 19.5H44.25V27.5H84.5V19.5ZM80.5 20V23.5H88.5V20H80.5Z" fill="#8F8F8F"/>
<path fill-rule="evenodd" clip-rule="evenodd" d="M128.869 64C104.611 64 85 83.9375 85 108.603C85 128.319 97.5651 145.009 114.996 150.916C117.176 151.36 117.974 149.956 117.974 148.775C117.974 147.741 117.902 144.197 117.902 140.504C105.699 143.163 103.158 135.187 103.158 135.187C101.196 130.018 98.2907 128.689 98.2907 128.689C94.2966 125.957 98.5816 125.957 98.5816 125.957C103.012 126.252 105.337 130.535 105.337 130.535C109.258 137.328 115.577 135.409 118.119 134.227C118.482 131.347 119.645 129.353 120.88 128.246C111.147 127.212 100.906 123.372 100.906 106.239C100.906 101.366 102.648 97.3781 105.409 94.2769C104.973 93.1695 103.448 88.5902 105.845 82.4612C105.845 82.4612 109.549 81.2795 117.901 87.0396C121.477 86.0633 125.165 85.5666 128.869 85.5624C132.573 85.5624 136.349 86.0799 139.836 87.0396C148.188 81.2795 151.893 82.4612 151.893 82.4612C154.29 88.5902 152.764 93.1695 152.328 94.2769C155.161 97.3781 156.831 101.366 156.831 106.239C156.831 123.372 146.591 127.138 136.785 128.246C138.384 129.649 139.763 132.307 139.763 136.516C139.763 142.498 139.691 147.298 139.691 148.774C139.691 149.956 140.49 151.36 142.669 150.917C160.1 145.008 172.665 128.319 172.665 108.603C172.737 83.9375 153.055 64 128.869 64Z" fill="white"/>
</svg>
