<svg width="200" height="200" viewBox="0 0 200 200" fill="none" xmlns="http://www.w3.org/2000/svg">
<path d="M56.25 53.5C54.0409 53.5 52.25 55.2909 52.25 57.5C52.25 59.7091 54.0409 61.5 56.25 61.5V53.5ZM173 73.5V141.5H181V73.5H173ZM161 153.5H32V161.5H161V153.5ZM20 141.5V57.5H12V141.5H20ZM20 57.5V54H12V57.5H20ZM96.5 61.5H161V53.5H96.5V61.5ZM20 54C20 47.3726 25.3726 42 32 42V34C20.9543 34 12 42.9543 12 54H20ZM32 153.5C25.3726 153.5 20 148.127 20 141.5H12C12 152.546 20.9543 161.5 32 161.5V153.5ZM173 141.5C173 148.127 167.627 153.5 161 153.5V161.5C172.046 161.5 181 152.546 181 141.5H173ZM80.5 42C87.1274 42 92.5 47.3726 92.5 54H100.5C100.5 42.9543 91.5457 34 80.5 34V42ZM181 73.5C181 62.4543 172.046 53.5 161 53.5V61.5C167.627 61.5 173 66.8726 173 73.5H181ZM32 42H56.25V34H32V42ZM56.25 42H80.5V34H56.25V42ZM96.5 53.5H56.25V61.5H96.5V53.5ZM92.5 54V57.5H100.5V54H92.5Z" fill="#94FFEC"/>
<path d="M147.203 132.019L137.858 138.682C136.69 139.57 133.719 140.581 131.182 137.516C128.646 134.451 126.454 129.909 125.675 128.021M125.675 128.021C124.841 126.577 124.14 123.29 128.012 121.691C132.851 119.692 148.872 113.861 164.059 122.357C179.245 130.853 183.728 126.629 184.431 124.424C185.133 122.22 187.255 110.53 173.571 114.527C170.634 111.995 170.252 110.33 170.475 110.219C173.479 108.72 193 102.136 193 122.357C193 135.977 184.186 140.589 177.743 146.178C173.571 149.797 170.233 152.342 170.233 167.667C168.097 167.667 163.78 167.667 161.889 167.667C161.889 160.171 147.203 154.84 144.366 168.334H137.023C137.023 160.837 122.338 155.507 119.501 169H111.157C108.82 159.838 108.453 138.815 125.675 128.021Z" stroke="#00F3C8" stroke-width="8" stroke-linecap="round" stroke-linejoin="round"/>
</svg>
