<svg width="200" height="200" viewBox="0 0 200 200" fill="none" xmlns="http://www.w3.org/2000/svg">
<path d="M56.25 53.5C54.0409 53.5 52.25 55.2909 52.25 57.5C52.25 59.7091 54.0409 61.5 56.25 61.5V53.5ZM173 73.5V141.5H181V73.5H173ZM161 153.5H32V161.5H161V153.5ZM20 141.5V57.5H12V141.5H20ZM20 57.5V54H12V57.5H20ZM96.5 61.5H161V53.5H96.5V61.5ZM20 54C20 47.3726 25.3726 42 32 42V34C20.9543 34 12 42.9543 12 54H20ZM32 153.5C25.3726 153.5 20 148.127 20 141.5H12C12 152.546 20.9543 161.5 32 161.5V153.5ZM173 141.5C173 148.127 167.627 153.5 161 153.5V161.5C172.046 161.5 181 152.546 181 141.5H173ZM80.5 42C87.1274 42 92.5 47.3726 92.5 54H100.5C100.5 42.9543 91.5457 34 80.5 34V42ZM181 73.5C181 62.4543 172.046 53.5 161 53.5V61.5C167.627 61.5 173 66.8726 173 73.5H181ZM32 42H56.25V34H32V42ZM56.25 42H80.5V34H56.25V42ZM96.5 53.5H56.25V61.5H96.5V53.5ZM92.5 54V57.5H100.5V54H92.5Z" fill="#FF8575"/>
<path d="M186 117.486C188.209 117.486 190 115.695 190 113.486C190 111.277 188.209 109.486 186 109.486V117.486ZM153.955 89V85C151.745 85 149.955 86.7909 149.955 89H153.955ZM186 109.486C182.446 109.486 180.377 108.367 178.793 106.809C176.986 105.03 175.679 102.58 173.969 99.3646C172.387 96.3892 170.433 92.7146 167.37 89.8869C164.113 86.8801 159.826 85 153.955 85V93C157.902 93 160.228 94.1806 161.944 95.7649C163.854 97.5283 165.233 99.9752 166.906 103.121C168.452 106.027 170.324 109.698 173.183 112.511C176.265 115.544 180.349 117.486 186 117.486V109.486ZM153.955 89C149.955 89 149.955 89.0002 149.955 89.0007C149.955 89.0011 149.955 89.0018 149.955 89.0026C149.955 89.0035 149.955 89.0046 149.955 89.0059C149.955 89.0073 149.955 89.0088 149.955 89.0105C149.955 89.0123 149.955 89.0143 149.955 89.0164C149.955 89.0186 149.955 89.021 149.955 89.0237C149.955 89.0263 149.955 89.0291 149.955 89.0322C149.955 89.0352 149.955 89.0385 149.955 89.042C149.955 89.0454 149.955 89.0491 149.955 89.053C149.955 89.057 149.955 89.0611 149.955 89.0654C149.955 89.0697 149.955 89.0743 149.955 89.0791C149.955 89.0838 149.955 89.0888 149.955 89.094C149.955 89.0992 149.955 89.1046 149.955 89.1102C149.955 89.1158 149.955 89.1216 149.955 89.1276C149.955 89.1336 149.955 89.1399 149.955 89.1463C149.955 89.1528 149.955 89.1594 149.955 89.1663C149.955 89.1732 149.955 89.1802 149.955 89.1875C149.955 89.1948 149.955 89.2023 149.955 89.21C149.955 89.2177 149.955 89.2256 149.955 89.2337C149.955 89.2418 149.955 89.2501 149.955 89.2587C149.955 89.2672 149.955 89.2759 149.955 89.2848C149.955 89.2938 149.955 89.3029 149.955 89.3122C149.955 89.3216 149.955 89.3311 149.955 89.3409C149.955 89.3506 149.955 89.3606 149.955 89.3707C149.955 89.3809 149.955 89.3912 149.955 89.4018C149.955 89.4124 149.955 89.4231 149.955 89.4341C149.955 89.445 149.955 89.4562 149.955 89.4676C149.955 89.4789 149.955 89.4905 149.955 89.5023C149.955 89.514 149.955 89.526 149.955 89.5381C149.955 89.5503 149.955 89.5627 149.955 89.5752C149.955 89.5878 149.955 89.6005 149.955 89.6135C149.955 89.6264 149.955 89.6396 149.955 89.6529C149.955 89.6663 149.955 89.6798 149.955 89.6936C149.955 89.7073 149.955 89.7212 149.955 89.7354C149.955 89.7495 149.955 89.7638 149.955 89.7783C149.955 89.7929 149.955 89.8076 149.955 89.8225C149.955 89.8374 149.955 89.8525 149.955 89.8678C149.955 89.8831 149.955 89.8986 149.955 89.9142C149.955 89.9299 149.955 89.9458 149.955 89.9618C149.955 89.9779 149.955 89.9942 149.955 90.0106C149.955 90.027 149.955 90.0437 149.955 90.0605C149.955 90.0773 149.955 90.0943 149.955 90.1115C149.955 90.1287 149.955 90.1461 149.955 90.1637C149.955 90.1813 149.955 90.1991 149.955 90.217C149.955 90.235 149.955 90.2531 149.955 90.2714C149.955 90.2898 149.955 90.3083 149.955 90.327C149.955 90.3457 149.955 90.3646 149.955 90.3837C149.955 90.4027 149.955 90.422 149.955 90.4414C149.955 90.4609 149.955 90.4805 149.955 90.5003C149.955 90.5201 149.955 90.5401 149.955 90.5603C149.955 90.5805 149.955 90.6009 149.955 90.6214C149.955 90.6419 149.955 90.6627 149.955 90.6836C149.955 90.7045 149.955 90.7256 149.955 90.7468C149.955 90.7681 149.955 90.7896 149.955 90.8112C149.955 90.8328 149.955 90.8546 149.955 90.8766C149.955 90.8986 149.955 90.9208 149.955 90.9431C149.955 90.9655 149.955 90.988 149.955 91.0107C149.955 91.0334 149.955 91.0563 149.955 91.0794C149.955 91.1024 149.955 91.1257 149.955 91.1491C149.955 91.1725 149.955 91.1961 149.955 91.2199C149.955 91.2436 149.955 91.2676 149.955 91.2917C149.955 91.3158 149.955 91.3401 149.955 91.3645C149.955 91.389 149.955 91.4136 149.955 91.4385C149.955 91.4633 149.955 91.4883 149.955 91.5134C149.955 91.5386 149.955 91.5639 149.955 91.5894C149.955 91.6149 149.955 91.6406 149.955 91.6664C149.955 91.6923 149.955 91.7183 149.955 91.7445C149.955 91.7707 149.955 91.797 149.955 91.8235C149.955 91.8501 149.955 91.8768 149.955 91.9036C149.955 91.9305 149.955 91.9575 149.955 91.9847C149.955 92.0119 149.955 92.0393 149.955 92.0668C149.955 92.0944 149.955 92.1221 149.955 92.1499C149.955 92.1778 149.955 92.2058 149.955 92.234C149.955 92.2622 149.955 92.2906 149.955 92.3191C149.955 92.3477 149.955 92.3764 149.955 92.4052C149.955 92.4341 149.955 92.4631 149.955 92.4923C149.955 92.5215 149.955 92.5509 149.955 92.5804C149.955 92.6099 149.955 92.6396 149.955 92.6694C149.955 92.6993 149.955 92.7293 149.955 92.7594C149.955 92.7896 149.955 92.8199 149.955 92.8504C149.955 92.8809 149.955 92.9115 149.955 92.9423C149.955 92.9732 149.955 93.0041 149.955 93.0352C149.955 93.0664 149.955 93.0977 149.955 93.1291C149.955 93.1605 149.955 93.1921 149.955 93.2239C149.955 93.2557 149.955 93.2876 149.955 93.3197C149.955 93.3517 149.955 93.384 149.955 93.4163C149.955 93.4487 149.955 93.4813 149.955 93.514C149.955 93.5467 149.955 93.5795 149.955 93.6125C149.955 93.6455 149.955 93.6787 149.955 93.712C149.955 93.7453 149.955 93.7788 149.955 93.8124C149.955 93.846 149.955 93.8798 149.955 93.9137C149.955 93.9477 149.955 93.9818 149.955 94.016C149.955 94.0502 149.955 94.0846 149.955 94.1191C149.955 94.1537 149.955 94.1884 149.955 94.2232C149.955 94.258 149.955 94.293 149.955 94.3281C149.955 94.3633 149.955 94.3986 149.955 94.434C149.955 94.4694 149.955 94.505 149.955 94.5407C149.955 94.5765 149.955 94.6123 149.955 94.6484C149.955 94.6844 149.955 94.7206 149.955 94.7569C149.955 94.7932 149.955 94.8296 149.955 94.8663C149.955 94.9029 149.955 94.9396 149.955 94.9765C149.955 95.0134 149.955 95.0505 149.955 95.0876C149.955 95.1248 149.955 95.1622 149.955 95.1996C149.955 95.2371 149.955 95.2747 149.955 95.3125C149.955 95.3503 149.955 95.3882 149.955 95.4262C149.955 95.4642 149.955 95.5024 149.955 95.5408C149.955 95.5791 149.955 95.6176 149.955 95.6562C149.955 95.6948 149.955 95.7335 149.955 95.7724C149.955 95.8113 149.955 95.8503 149.955 95.8895C149.955 95.9287 149.955 95.968 149.955 96.0074C149.955 96.0469 149.955 96.0864 149.955 96.1262C149.955 96.1659 149.955 96.2057 149.955 96.2457C149.955 96.2857 149.955 96.3259 149.955 96.3661C149.955 96.4064 149.955 96.4468 149.955 96.4873C149.955 96.5279 149.955 96.5685 149.955 96.6093C149.955 96.6501 149.955 96.6911 149.955 96.7322C149.955 96.7732 149.955 96.8144 149.955 96.8558C149.955 96.8971 149.955 96.9386 149.955 96.9802C149.955 97.0218 149.955 97.0635 149.955 97.1054C149.955 97.1473 149.955 97.1893 149.955 97.2314C149.955 97.2735 149.955 97.3158 149.955 97.3582C149.955 97.4006 149.955 97.4431 149.955 97.4857C149.955 97.5284 149.955 97.5712 149.955 97.6141C149.955 97.657 149.955 97.7 149.955 97.7432C149.955 97.7863 149.955 97.8296 149.955 97.8731C149.955 97.9165 149.955 97.96 149.955 98.0037C149.955 98.0474 149.955 98.0911 149.955 98.1351C149.955 98.179 149.955 98.223 149.955 98.2672C149.955 98.3114 149.955 98.3557 149.955 98.4001C149.955 98.4445 149.955 98.4891 149.955 98.5337C149.955 98.5784 149.955 98.6232 149.955 98.6681C149.955 98.713 149.955 98.758 149.955 98.8032C149.955 98.8483 149.955 98.8936 149.955 98.939C149.955 98.9844 149.955 99.0299 149.955 99.0756C149.955 99.1212 149.955 99.167 149.955 99.2128C149.955 99.2587 149.955 99.3047 149.955 99.3508C149.955 99.3969 149.955 99.4432 149.955 99.4895C149.955 99.5359 149.955 99.5824 149.955 99.6289C149.955 99.6755 149.955 99.7222 149.955 99.769C149.955 99.8159 149.955 99.8628 149.955 99.9099C149.955 99.9569 149.955 100.004 149.955 100.051C149.955 100.099 149.955 100.146 149.955 100.194C149.955 100.241 149.955 100.289 149.955 100.336C149.955 100.384 149.955 100.432 149.955 100.48C149.955 100.528 149.955 100.576 149.955 100.624C149.955 100.672 149.955 100.721 149.955 100.769C149.955 100.818 149.955 100.866 149.955 100.915C149.955 100.963 149.955 101.012 149.955 101.061C149.955 101.11 149.955 101.159 149.955 101.208C149.955 101.257 149.955 101.306 149.955 101.355C149.955 101.405 149.955 101.454 149.955 101.504C149.955 101.553 149.955 101.603 149.955 101.652C149.955 101.702 149.955 101.752 149.955 101.802C149.955 101.852 149.955 101.902 149.955 101.952C149.955 102.002 149.955 102.052 149.955 102.103C149.955 102.153 149.955 102.203 149.955 102.254C149.955 102.305 149.955 102.355 149.955 102.406C149.955 102.457 149.955 102.508 149.955 102.559C149.955 102.61 149.955 102.661 149.955 102.712C149.955 102.763 149.955 102.814 149.955 102.866C149.955 102.917 149.955 102.968 149.955 103.02C149.955 103.072 149.955 103.123 149.955 103.175C149.955 103.227 149.955 103.279 149.955 103.331C149.955 103.383 149.955 103.435 149.955 103.487C149.955 103.539 149.955 103.591 149.955 103.644C149.955 103.696 149.955 103.748 149.955 103.801C149.955 103.854 149.955 103.906 149.955 103.959C149.955 104.012 149.955 104.065 149.955 104.117C149.955 104.17 149.955 104.223 149.955 104.277C149.955 104.33 149.955 104.383 149.955 104.436C149.955 104.49 149.955 104.543 149.955 104.596C149.955 104.65 149.955 104.704 149.955 104.757C149.955 104.811 149.955 104.865 149.955 104.918C149.955 104.972 149.955 105.026 149.955 105.08C149.955 105.134 149.955 105.189 149.955 105.243C149.955 105.297 149.955 105.351 149.955 105.406C149.955 105.46 149.955 105.515 149.955 105.569C149.955 105.624 149.955 105.678 149.955 105.733C149.955 105.788 149.955 105.843 149.955 105.898C149.955 105.953 149.955 106.008 149.955 106.063C149.955 106.118 149.955 106.173 149.955 106.228C149.955 106.283 149.955 106.339 149.955 106.394C149.955 106.45 149.955 106.505 149.955 106.561C149.955 106.616 149.955 106.672 149.955 106.728C149.955 106.784 149.955 106.839 149.955 106.895C149.955 106.951 149.955 107.007 149.955 107.063C149.955 107.12 149.955 107.176 149.955 107.232C149.955 107.288 149.955 107.345 149.955 107.401C149.955 107.457 149.955 107.514 149.955 107.57C149.955 107.627 149.955 107.684 149.955 107.74C149.955 107.797 149.955 107.854 149.955 107.911C149.955 107.968 149.955 108.025 149.955 108.082C149.955 108.139 149.955 108.196 149.955 108.253C149.955 108.31 149.955 108.368 149.955 108.425C149.955 108.482 149.955 108.54 149.955 108.597C149.955 108.655 149.955 108.712 149.955 108.77C149.955 108.827 149.955 108.885 149.955 108.943C149.955 109.001 149.955 109.059 149.955 109.117C149.955 109.174 149.955 109.232 149.955 109.291C149.955 109.349 149.955 109.407 149.955 109.465C149.955 109.523 149.955 109.582 149.955 109.64C149.955 109.698 149.955 109.757 149.955 109.815C149.955 109.874 149.955 109.932 149.955 109.991C149.955 110.049 149.955 110.108 149.955 110.167C149.955 110.226 149.955 110.285 149.955 110.343C149.955 110.402 149.955 110.461 149.955 110.52C149.955 110.579 149.955 110.638 149.955 110.698C149.955 110.757 149.955 110.816 149.955 110.875C149.955 110.935 149.955 110.994 149.955 111.053C149.955 111.113 149.955 111.172 149.955 111.232C149.955 111.291 149.955 111.351 149.955 111.411C149.955 111.47 149.955 111.53 149.955 111.59C149.955 111.65 149.955 111.71 149.955 111.77C149.955 111.829 149.955 111.889 149.955 111.95C149.955 112.01 149.955 112.07 149.955 112.13C149.955 112.19 149.955 112.25 149.955 112.311C149.955 112.371 149.955 112.431 149.955 112.492C149.955 112.552 149.955 112.612 149.955 112.673C149.955 112.733 149.955 112.794 149.955 112.855C149.955 112.915 149.955 112.976 149.955 113.037C149.955 113.097 149.955 113.158 149.955 113.219C149.955 113.28 149.955 113.341 149.955 113.402C149.955 113.463 149.955 113.524 149.955 113.585C149.955 113.646 149.955 113.707 149.955 113.768C149.955 113.829 149.955 113.891 149.955 113.952C149.955 114.013 149.955 114.074 149.955 114.136C149.955 114.197 149.955 114.259 149.955 114.32C149.955 114.382 149.955 114.443 149.955 114.505C149.955 114.566 149.955 114.628 149.955 114.69C149.955 114.751 149.955 114.813 149.955 114.875C149.955 114.936 149.955 114.998 149.955 115.06C149.955 115.122 149.955 115.184 149.955 115.246C149.955 115.308 149.955 115.37 149.955 115.432C149.955 115.494 149.955 115.556 149.955 115.618C149.955 115.68 149.955 115.743 149.955 115.805C149.955 115.867 149.955 115.929 149.955 115.992C149.955 116.054 149.955 116.116 149.955 116.179C149.955 116.241 149.955 116.304 149.955 116.366C149.955 116.429 149.955 116.491 149.955 116.554C149.955 116.616 149.955 116.679 149.955 116.742C149.955 116.804 149.955 116.867 149.955 116.93C149.955 116.992 149.955 117.055 149.955 117.118C149.955 117.181 149.955 117.244 149.955 117.307C149.955 117.37 149.955 117.432 149.955 117.495C149.955 117.558 149.955 117.621 149.955 117.684C149.955 117.747 149.955 117.811 149.955 117.874C149.955 117.937 149.955 118 149.955 118.063C149.955 118.126 149.955 118.19 149.955 118.253C149.955 118.316 149.955 118.379 149.955 118.443C149.955 118.506 149.955 118.569 149.955 118.633C149.955 118.696 149.955 118.76 149.955 118.823C149.955 118.887 149.955 118.95 149.955 119.014C149.955 119.077 149.955 119.141 149.955 119.204C149.955 119.268 149.955 119.331 149.955 119.395C149.955 119.459 149.955 119.522 149.955 119.586C149.955 119.65 149.955 119.714 149.955 119.777C149.955 119.841 149.955 119.905 149.955 119.969C149.955 120.033 149.955 120.096 149.955 120.16C149.955 120.224 149.955 120.288 149.955 120.352C149.955 120.416 149.955 120.48 149.955 120.544C149.955 120.608 149.955 120.672 149.955 120.736C149.955 120.8 149.955 120.864 149.955 120.928C149.955 120.992 149.955 121.056 149.955 121.12C149.955 121.184 149.955 121.249 149.955 121.313C149.955 121.377 149.955 121.441 149.955 121.505C149.955 121.57 149.955 121.634 149.955 121.698C149.955 121.762 149.955 121.827 149.955 121.891C149.955 121.955 149.955 122.02 149.955 122.084C149.955 122.148 149.955 122.213 149.955 122.277C149.955 122.341 149.955 122.406 149.955 122.47C149.955 122.535 149.955 122.599 149.955 122.663C149.955 122.728 149.955 122.792 149.955 122.857C149.955 122.921 149.955 122.986 149.955 123.05C149.955 123.115 149.955 123.179 149.955 123.244C149.955 123.309 149.955 123.373 149.955 123.438C149.955 123.502 149.955 123.567 149.955 123.631C149.955 123.696 149.955 123.761 149.955 123.825C149.955 123.89 149.955 123.955 149.955 124.019C149.955 124.084 149.955 124.149 149.955 124.213C149.955 124.278 149.955 124.343 149.955 124.407C149.955 124.472 149.955 124.537 149.955 124.602C149.955 124.666 149.955 124.731 149.955 124.796C149.955 124.86 149.955 124.925 149.955 124.99C149.955 125.055 149.955 125.119 149.955 125.184C149.955 125.249 149.955 125.314 149.955 125.379C149.955 125.443 149.955 125.508 149.955 125.573C149.955 125.638 149.955 125.703 149.955 125.767C149.955 125.832 149.955 125.897 149.955 125.962C149.955 126.027 149.955 126.092 149.955 126.156C149.955 126.221 149.955 126.286 149.955 126.351C149.955 126.416 149.955 126.481 149.955 126.545C149.955 126.61 149.955 126.675 149.955 126.74C149.955 126.805 149.955 126.87 149.955 126.934C149.955 126.999 149.955 127.064 149.955 127.129C149.955 127.194 149.955 127.259 149.955 127.324C149.955 127.388 149.955 127.453 149.955 127.518C149.955 127.583 149.955 127.648 149.955 127.713C149.955 127.778 149.955 127.842 149.955 127.907C149.955 127.972 149.955 128.037 149.955 128.102C149.955 128.167 149.955 128.231 149.955 128.296C149.955 128.361 149.955 128.426 149.955 128.491C149.955 128.555 149.955 128.62 149.955 128.685C149.955 128.75 149.955 128.815 149.955 128.879C149.955 128.944 149.955 129.009 149.955 129.074C149.955 129.139 149.955 129.203 149.955 129.268C149.955 129.333 149.955 129.398 149.955 129.462C149.955 129.527 149.955 129.592 149.955 129.657C149.955 129.721 149.955 129.786 149.955 129.851C149.955 129.915 149.955 129.98 149.955 130.045C149.955 130.11 149.955 130.174 149.955 130.239C149.955 130.304 149.955 130.368 149.955 130.433C149.955 130.497 149.955 130.562 149.955 130.627C149.955 130.691 149.955 130.756 149.955 130.82C149.955 130.885 149.955 130.95 149.955 131.014C149.955 131.079 149.955 131.143 149.955 131.208C149.955 131.272 149.955 131.337 149.955 131.401C149.955 131.466 149.955 131.53 149.955 131.595C149.955 131.659 149.955 131.724 149.955 131.788C149.955 131.852 149.955 131.917 149.955 131.981C149.955 132.046 149.955 132.11 149.955 132.174C149.955 132.239 149.955 132.303 149.955 132.367C149.955 132.432 149.955 132.496 149.955 132.56C149.955 132.624 149.955 132.689 149.955 132.753C149.955 132.817 149.955 132.881 149.955 132.946C149.955 133.01 149.955 133.074 149.955 133.138C149.955 133.202 149.955 133.266 149.955 133.33C149.955 133.394 149.955 133.458 149.955 133.522C149.955 133.587 149.955 133.651 149.955 133.715C149.955 133.779 149.955 133.842 149.955 133.906C149.955 133.97 149.955 134.034 149.955 134.098C149.955 134.162 149.955 134.226 149.955 134.29C149.955 134.354 149.955 134.417 149.955 134.481C149.955 134.545 149.955 134.609 149.955 134.672C149.955 134.736 149.955 134.8 149.955 134.863C149.955 134.927 149.955 134.991 149.955 135.054C149.955 135.118 149.955 135.181 149.955 135.245C149.955 135.308 149.955 135.372 149.955 135.435C149.955 135.499 149.955 135.562 149.955 135.626C149.955 135.689 149.955 135.753 149.955 135.816C149.955 135.879 149.955 135.943 149.955 136.006C149.955 136.069 149.955 136.132 149.955 136.195C149.955 136.259 149.955 136.322 149.955 136.385C149.955 136.448 149.955 136.511 149.955 136.574C149.955 136.637 149.955 136.7 149.955 136.763C149.955 136.826 149.955 136.889 149.955 136.952C149.955 137.015 149.955 137.078 149.955 137.141C149.955 137.204 149.955 137.266 149.955 137.329C149.955 137.392 149.955 137.455 149.955 137.517C149.955 137.58 149.955 137.643 149.955 137.705C149.955 137.768 149.955 137.83 149.955 137.893C149.955 137.955 149.955 138.018 149.955 138.08C149.955 138.143 149.955 138.205 149.955 138.267C149.955 138.33 149.955 138.392 149.955 138.454C149.955 138.516 149.955 138.579 149.955 138.641C149.955 138.703 149.955 138.765 149.955 138.827C149.955 138.889 149.955 138.951 149.955 139.013C149.955 139.075 149.955 139.137 149.955 139.199C149.955 139.261 149.955 139.323 149.955 139.384C149.955 139.446 149.955 139.508 149.955 139.57C149.955 139.631 149.955 139.693 149.955 139.755C149.955 139.816 149.955 139.878 149.955 139.939C149.955 140.001 149.955 140.062 149.955 140.123C149.955 140.185 149.955 140.246 149.955 140.307C149.955 140.369 149.955 140.43 149.955 140.491C149.955 140.552 149.955 140.613 149.955 140.675C149.955 140.736 149.955 140.797 149.955 140.858C149.955 140.919 149.955 140.979 149.955 141.04C149.955 141.101 149.955 141.162 149.955 141.223C149.955 141.284 149.955 141.344 149.955 141.405C149.955 141.465 149.955 141.526 149.955 141.587C149.955 141.647 149.955 141.708 149.955 141.768C149.955 141.828 149.955 141.889 149.955 141.949C149.955 142.009 149.955 142.07 149.955 142.13C149.955 142.19 149.955 142.25 149.955 142.31C149.955 142.37 149.955 142.43 149.955 142.49C149.955 142.55 149.955 142.61 149.955 142.67C149.955 142.73 149.955 142.789 149.955 142.849C149.955 142.909 149.955 142.968 149.955 143.028C149.955 143.087 149.955 143.147 149.955 143.206C149.955 143.266 149.955 143.325 149.955 143.385C149.955 143.444 149.955 143.503 149.955 143.562C149.955 143.621 149.955 143.681 149.955 143.74C149.955 143.799 149.955 143.858 149.955 143.917C149.955 143.975 149.955 144.034 149.955 144.093C149.955 144.152 149.955 144.211 149.955 144.269C149.955 144.328 149.955 144.386 149.955 144.445C149.955 144.504 149.955 144.562 149.955 144.62C149.955 144.679 149.955 144.737 149.955 144.795C149.955 144.853 149.955 144.912 149.955 144.97C149.955 145.028 149.955 145.086 149.955 145.144C149.955 145.202 149.955 145.26 149.955 145.317C149.955 145.375 149.955 145.433 149.955 145.491C149.955 145.548 149.955 145.606 149.955 145.663C149.955 145.721 149.955 145.778 149.955 145.836C149.955 145.893 149.955 145.95 149.955 146.007C149.955 146.065 149.955 146.122 149.955 146.179C149.955 146.236 149.955 146.293 149.955 146.35C149.955 146.407 149.955 146.464 149.955 146.52C149.955 146.577 149.955 146.634 149.955 146.69C149.955 146.747 149.955 146.803 149.955 146.86C149.955 146.916 149.955 146.973 149.955 147.029C149.955 147.085 149.955 147.141 149.955 147.197C149.955 147.254 149.955 147.31 149.955 147.366C149.955 147.422 149.955 147.477 149.955 147.533C149.955 147.589 149.955 147.645 149.955 147.7C149.955 147.756 149.955 147.811 149.955 147.867C149.955 147.922 149.955 147.978 149.955 148.033C149.955 148.088 149.955 148.143 149.955 148.199C149.955 148.254 149.955 148.309 149.955 148.364C149.955 148.419 149.955 148.473 149.955 148.528C149.955 148.583 149.955 148.638 149.955 148.692C149.955 148.747 149.955 148.801 149.955 148.856C149.955 148.91 149.955 148.965 149.955 149.019C149.955 149.073 149.955 149.127 149.955 149.181C149.955 149.235 149.955 149.289 149.955 149.343C149.955 149.397 149.955 149.451 149.955 149.505C149.955 149.558 149.955 149.612 149.955 149.665C149.955 149.719 149.955 149.772 149.955 149.826C149.955 149.879 149.955 149.932 149.955 149.985C149.955 150.038 149.955 150.092 149.955 150.144C149.955 150.197 149.955 150.25 149.955 150.303C149.955 150.356 149.955 150.408 149.955 150.461C149.955 150.514 149.955 150.566 149.955 150.618C149.955 150.671 149.955 150.723 149.955 150.775C149.955 150.828 149.955 150.88 149.955 150.932C149.955 150.984 149.955 151.035 149.955 151.087C149.955 151.139 149.955 151.191 149.955 151.242C149.955 151.294 149.955 151.345 149.955 151.397C149.955 151.448 149.955 151.5 149.955 151.551C149.955 151.602 149.955 151.653 149.955 151.704C149.955 151.755 149.955 151.806 149.955 151.857C149.955 151.907 149.955 151.958 149.955 152.009C149.955 152.059 149.955 152.11 149.955 152.16C149.955 152.211 149.955 152.261 149.955 152.311C149.955 152.361 149.955 152.411 149.955 152.461C149.955 152.511 149.955 152.561 149.955 152.611C149.955 152.66 149.955 152.71 149.955 152.76C149.955 152.809 149.955 152.859 149.955 152.908C149.955 152.957 149.955 153.006 149.955 153.055C149.955 153.105 149.955 153.153 149.955 153.202C149.955 153.251 149.955 153.3 149.955 153.349C149.955 153.397 149.955 153.446 149.955 153.494C149.955 153.543 149.955 153.591 149.955 153.639C149.955 153.687 149.955 153.736 149.955 153.784C149.955 153.832 149.955 153.879 149.955 153.927C149.955 153.975 149.955 154.023 149.955 154.07C149.955 154.118 149.955 154.165 149.955 154.212C149.955 154.26 149.955 154.307 149.955 154.354C149.955 154.401 149.955 154.448 149.955 154.495C149.955 154.542 149.955 154.588 149.955 154.635C149.955 154.682 149.955 154.728 149.955 154.775C149.955 154.821 149.955 154.867 149.955 154.913C149.955 154.959 149.955 155.005 149.955 155.051C149.955 155.097 149.955 155.143 149.955 155.189C149.955 155.234 149.955 155.28 149.955 155.325C149.955 155.371 149.955 155.416 149.955 155.461C149.955 155.506 149.955 155.552 149.955 155.596C149.955 155.641 149.955 155.686 149.955 155.731C149.955 155.776 149.955 155.82 149.955 155.865C149.955 155.909 149.955 155.953 149.955 155.998C149.955 156.042 149.955 156.086 149.955 156.13C149.955 156.174 149.955 156.218 149.955 156.261C149.955 156.305 149.955 156.349 149.955 156.392C149.955 156.435 149.955 156.479 149.955 156.522C149.955 156.565 149.955 156.608 149.955 156.651C149.955 156.694 149.955 156.737 149.955 156.78C149.955 156.822 149.955 156.865 149.955 156.907C149.955 156.95 149.955 156.992 149.955 157.034C149.955 157.076 149.955 157.118 149.955 157.16C149.955 157.202 149.955 157.244 149.955 157.285C149.955 157.327 149.955 157.369 149.955 157.41C149.955 157.451 149.955 157.493 149.955 157.534C149.955 157.575 149.955 157.616 149.955 157.657C149.955 157.697 149.955 157.738 149.955 157.779C149.955 157.819 149.955 157.86 149.955 157.9C149.955 157.94 149.955 157.98 149.955 158.02C149.955 158.06 149.955 158.1 149.955 158.14C149.955 158.18 149.955 158.219 149.955 158.259C149.955 158.298 149.955 158.338 149.955 158.377C149.955 158.416 149.955 158.455 149.955 158.494C149.955 158.533 149.955 158.572 149.955 158.61C149.955 158.649 149.955 158.688 149.955 158.726C149.955 158.764 149.955 158.802 149.955 158.841C149.955 158.879 149.955 158.917 149.955 158.954C149.955 158.992 149.955 159.03 149.955 159.067C149.955 159.105 149.955 159.142 149.955 159.179C149.955 159.217 149.955 159.254 149.955 159.291C149.955 159.328 149.955 159.364 149.955 159.401C149.955 159.438 149.955 159.474 149.955 159.51C149.955 159.547 149.955 159.583 149.955 159.619C149.955 159.655 149.955 159.691 149.955 159.727C149.955 159.763 149.955 159.798 149.955 159.834C149.955 159.869 149.955 159.904 149.955 159.94C149.955 159.975 149.955 160.01 149.955 160.045C149.955 160.079 149.955 160.114 149.955 160.149C149.955 160.183 149.955 160.218 149.955 160.252C149.955 160.286 149.955 160.32 149.955 160.354C149.955 160.388 149.955 160.422 149.955 160.456C149.955 160.489 149.955 160.523 149.955 160.556C149.955 160.59 149.955 160.623 149.955 160.656C149.955 160.689 149.955 160.722 149.955 160.755C149.955 160.787 149.955 160.82 149.955 160.852C149.955 160.885 149.955 160.917 149.955 160.949C149.955 160.981 149.955 161.013 149.955 161.045C149.955 161.077 149.955 161.108 149.955 161.14C149.955 161.171 149.955 161.203 149.955 161.234C149.955 161.265 149.955 161.296 149.955 161.327C149.955 161.358 149.955 161.388 149.955 161.419C149.955 161.449 149.955 161.48 149.955 161.51C149.955 161.54 149.955 161.57 149.955 161.6C149.955 161.63 149.955 161.66 149.955 161.689C149.955 161.719 149.955 161.748 149.955 161.777H157.955C157.955 161.748 157.955 161.719 157.955 161.689C157.955 161.66 157.955 161.63 157.955 161.6C157.955 161.57 157.955 161.54 157.955 161.51C157.955 161.48 157.955 161.449 157.955 161.419C157.955 161.388 157.955 161.358 157.955 161.327C157.955 161.296 157.955 161.265 157.955 161.234C157.955 161.203 157.955 161.171 157.955 161.14C157.955 161.108 157.955 161.077 157.955 161.045C157.955 161.013 157.955 160.981 157.955 160.949C157.955 160.917 157.955 160.885 157.955 160.852C157.955 160.82 157.955 160.787 157.955 160.755C157.955 160.722 157.955 160.689 157.955 160.656C157.955 160.623 157.955 160.59 157.955 160.556C157.955 160.523 157.955 160.489 157.955 160.456C157.955 160.422 157.955 160.388 157.955 160.354C157.955 160.32 157.955 160.286 157.955 160.252C157.955 160.218 157.955 160.183 157.955 160.149C157.955 160.114 157.955 160.079 157.955 160.045C157.955 160.01 157.955 159.975 157.955 159.94C157.955 159.904 157.955 159.869 157.955 159.834C157.955 159.798 157.955 159.763 157.955 159.727C157.955 159.691 157.955 159.655 157.955 159.619C157.955 159.583 157.955 159.547 157.955 159.51C157.955 159.474 157.955 159.438 157.955 159.401C157.955 159.364 157.955 159.328 157.955 159.291C157.955 159.254 157.955 159.217 157.955 159.179C157.955 159.142 157.955 159.105 157.955 159.067C157.955 159.03 157.955 158.992 157.955 158.954C157.955 158.917 157.955 158.879 157.955 158.841C157.955 158.802 157.955 158.764 157.955 158.726C157.955 158.688 157.955 158.649 157.955 158.61C157.955 158.572 157.955 158.533 157.955 158.494C157.955 158.455 157.955 158.416 157.955 158.377C157.955 158.338 157.955 158.298 157.955 158.259C157.955 158.219 157.955 158.18 157.955 158.14C157.955 158.1 157.955 158.06 157.955 158.02C157.955 157.98 157.955 157.94 157.955 157.9C157.955 157.86 157.955 157.819 157.955 157.779C157.955 157.738 157.955 157.697 157.955 157.657C157.955 157.616 157.955 157.575 157.955 157.534C157.955 157.493 157.955 157.451 157.955 157.41C157.955 157.369 157.955 157.327 157.955 157.285C157.955 157.244 157.955 157.202 157.955 157.16C157.955 157.118 157.955 157.076 157.955 157.034C157.955 156.992 157.955 156.95 157.955 156.907C157.955 156.865 157.955 156.822 157.955 156.78C157.955 156.737 157.955 156.694 157.955 156.651C157.955 156.608 157.955 156.565 157.955 156.522C157.955 156.479 157.955 156.435 157.955 156.392C157.955 156.349 157.955 156.305 157.955 156.261C157.955 156.218 157.955 156.174 157.955 156.13C157.955 156.086 157.955 156.042 157.955 155.998C157.955 155.953 157.955 155.909 157.955 155.865C157.955 155.82 157.955 155.776 157.955 155.731C157.955 155.686 157.955 155.641 157.955 155.596C157.955 155.552 157.955 155.506 157.955 155.461C157.955 155.416 157.955 155.371 157.955 155.325C157.955 155.28 157.955 155.234 157.955 155.189C157.955 155.143 157.955 155.097 157.955 155.051C157.955 155.005 157.955 154.959 157.955 154.913C157.955 154.867 157.955 154.821 157.955 154.775C157.955 154.728 157.955 154.682 157.955 154.635C157.955 154.588 157.955 154.542 157.955 154.495C157.955 154.448 157.955 154.401 157.955 154.354C157.955 154.307 157.955 154.26 157.955 154.212C157.955 154.165 157.955 154.118 157.955 154.07C157.955 154.023 157.955 153.975 157.955 153.927C157.955 153.879 157.955 153.832 157.955 153.784C157.955 153.736 157.955 153.687 157.955 153.639C157.955 153.591 157.955 153.543 157.955 153.494C157.955 153.446 157.955 153.397 157.955 153.349C157.955 153.3 157.955 153.251 157.955 153.202C157.955 153.153 157.955 153.105 157.955 153.055C157.955 153.006 157.955 152.957 157.955 152.908C157.955 152.859 157.955 152.809 157.955 152.76C157.955 152.71 157.955 152.66 157.955 152.611C157.955 152.561 157.955 152.511 157.955 152.461C157.955 152.411 157.955 152.361 157.955 152.311C157.955 152.261 157.955 152.211 157.955 152.16C157.955 152.11 157.955 152.059 157.955 152.009C157.955 151.958 157.955 151.907 157.955 151.857C157.955 151.806 157.955 151.755 157.955 151.704C157.955 151.653 157.955 151.602 157.955 151.551C157.955 151.5 157.955 151.448 157.955 151.397C157.955 151.345 157.955 151.294 157.955 151.242C157.955 151.191 157.955 151.139 157.955 151.087C157.955 151.035 157.955 150.984 157.955 150.932C157.955 150.88 157.955 150.828 157.955 150.775C157.955 150.723 157.955 150.671 157.955 150.618C157.955 150.566 157.955 150.514 157.955 150.461C157.955 150.408 157.955 150.356 157.955 150.303C157.955 150.25 157.955 150.197 157.955 150.144C157.955 150.092 157.955 150.038 157.955 149.985C157.955 149.932 157.955 149.879 157.955 149.826C157.955 149.772 157.955 149.719 157.955 149.665C157.955 149.612 157.955 149.558 157.955 149.505C157.955 149.451 157.955 149.397 157.955 149.343C157.955 149.289 157.955 149.235 157.955 149.181C157.955 149.127 157.955 149.073 157.955 149.019C157.955 148.965 157.955 148.91 157.955 148.856C157.955 148.801 157.955 148.747 157.955 148.692C157.955 148.638 157.955 148.583 157.955 148.528C157.955 148.473 157.955 148.419 157.955 148.364C157.955 148.309 157.955 148.254 157.955 148.199C157.955 148.143 157.955 148.088 157.955 148.033C157.955 147.978 157.955 147.922 157.955 147.867C157.955 147.811 157.955 147.756 157.955 147.7C157.955 147.645 157.955 147.589 157.955 147.533C157.955 147.477 157.955 147.422 157.955 147.366C157.955 147.31 157.955 147.254 157.955 147.197C157.955 147.141 157.955 147.085 157.955 147.029C157.955 146.973 157.955 146.916 157.955 146.86C157.955 146.803 157.955 146.747 157.955 146.69C157.955 146.634 157.955 146.577 157.955 146.52C157.955 146.464 157.955 146.407 157.955 146.35C157.955 146.293 157.955 146.236 157.955 146.179C157.955 146.122 157.955 146.065 157.955 146.007C157.955 145.95 157.955 145.893 157.955 145.836C157.955 145.778 157.955 145.721 157.955 145.663C157.955 145.606 157.955 145.548 157.955 145.491C157.955 145.433 157.955 145.375 157.955 145.317C157.955 145.26 157.955 145.202 157.955 145.144C157.955 145.086 157.955 145.028 157.955 144.97C157.955 144.912 157.955 144.853 157.955 144.795C157.955 144.737 157.955 144.679 157.955 144.62C157.955 144.562 157.955 144.504 157.955 144.445C157.955 144.386 157.955 144.328 157.955 144.269C157.955 144.211 157.955 144.152 157.955 144.093C157.955 144.034 157.955 143.975 157.955 143.917C157.955 143.858 157.955 143.799 157.955 143.74C157.955 143.681 157.955 143.621 157.955 143.562C157.955 143.503 157.955 143.444 157.955 143.385C157.955 143.325 157.955 143.266 157.955 143.206C157.955 143.147 157.955 143.087 157.955 143.028C157.955 142.968 157.955 142.909 157.955 142.849C157.955 142.789 157.955 142.73 157.955 142.67C157.955 142.61 157.955 142.55 157.955 142.49C157.955 142.43 157.955 142.37 157.955 142.31C157.955 142.25 157.955 142.19 157.955 142.13C157.955 142.07 157.955 142.009 157.955 141.949C157.955 141.889 157.955 141.828 157.955 141.768C157.955 141.708 157.955 141.647 157.955 141.587C157.955 141.526 157.955 141.465 157.955 141.405C157.955 141.344 157.955 141.284 157.955 141.223C157.955 141.162 157.955 141.101 157.955 141.04C157.955 140.979 157.955 140.919 157.955 140.858C157.955 140.797 157.955 140.736 157.955 140.675C157.955 140.613 157.955 140.552 157.955 140.491C157.955 140.43 157.955 140.369 157.955 140.307C157.955 140.246 157.955 140.185 157.955 140.123C157.955 140.062 157.955 140.001 157.955 139.939C157.955 139.878 157.955 139.816 157.955 139.755C157.955 139.693 157.955 139.631 157.955 139.57C157.955 139.508 157.955 139.446 157.955 139.384C157.955 139.323 157.955 139.261 157.955 139.199C157.955 139.137 157.955 139.075 157.955 139.013C157.955 138.951 157.955 138.889 157.955 138.827C157.955 138.765 157.955 138.703 157.955 138.641C157.955 138.579 157.955 138.516 157.955 138.454C157.955 138.392 157.955 138.33 157.955 138.267C157.955 138.205 157.955 138.143 157.955 138.08C157.955 138.018 157.955 137.955 157.955 137.893C157.955 137.83 157.955 137.768 157.955 137.705C157.955 137.643 157.955 137.58 157.955 137.517C157.955 137.455 157.955 137.392 157.955 137.329C157.955 137.266 157.955 137.204 157.955 137.141C157.955 137.078 157.955 137.015 157.955 136.952C157.955 136.889 157.955 136.826 157.955 136.763C157.955 136.7 157.955 136.637 157.955 136.574C157.955 136.511 157.955 136.448 157.955 136.385C157.955 136.322 157.955 136.259 157.955 136.195C157.955 136.132 157.955 136.069 157.955 136.006C157.955 135.943 157.955 135.879 157.955 135.816C157.955 135.753 157.955 135.689 157.955 135.626C157.955 135.562 157.955 135.499 157.955 135.435C157.955 135.372 157.955 135.308 157.955 135.245C157.955 135.181 157.955 135.118 157.955 135.054C157.955 134.991 157.955 134.927 157.955 134.863C157.955 134.8 157.955 134.736 157.955 134.672C157.955 134.609 157.955 134.545 157.955 134.481C157.955 134.417 157.955 134.354 157.955 134.29C157.955 134.226 157.955 134.162 157.955 134.098C157.955 134.034 157.955 133.97 157.955 133.906C157.955 133.842 157.955 133.779 157.955 133.715C157.955 133.651 157.955 133.587 157.955 133.522C157.955 133.458 157.955 133.394 157.955 133.33C157.955 133.266 157.955 133.202 157.955 133.138C157.955 133.074 157.955 133.01 157.955 132.946C157.955 132.881 157.955 132.817 157.955 132.753C157.955 132.689 157.955 132.624 157.955 132.56C157.955 132.496 157.955 132.432 157.955 132.367C157.955 132.303 157.955 132.239 157.955 132.174C157.955 132.11 157.955 132.046 157.955 131.981C157.955 131.917 157.955 131.852 157.955 131.788C157.955 131.724 157.955 131.659 157.955 131.595C157.955 131.53 157.955 131.466 157.955 131.401C157.955 131.337 157.955 131.272 157.955 131.208C157.955 131.143 157.955 131.079 157.955 131.014C157.955 130.95 157.955 130.885 157.955 130.82C157.955 130.756 157.955 130.691 157.955 130.627C157.955 130.562 157.955 130.497 157.955 130.433C157.955 130.368 157.955 130.304 157.955 130.239C157.955 130.174 157.955 130.11 157.955 130.045C157.955 129.98 157.955 129.915 157.955 129.851C157.955 129.786 157.955 129.721 157.955 129.657C157.955 129.592 157.955 129.527 157.955 129.462C157.955 129.398 157.955 129.333 157.955 129.268C157.955 129.203 157.955 129.139 157.955 129.074C157.955 129.009 157.955 128.944 157.955 128.879C157.955 128.815 157.955 128.75 157.955 128.685C157.955 128.62 157.955 128.555 157.955 128.491C157.955 128.426 157.955 128.361 157.955 128.296C157.955 128.231 157.955 128.167 157.955 128.102C157.955 128.037 157.955 127.972 157.955 127.907C157.955 127.842 157.955 127.778 157.955 127.713C157.955 127.648 157.955 127.583 157.955 127.518C157.955 127.453 157.955 127.388 157.955 127.324C157.955 127.259 157.955 127.194 157.955 127.129C157.955 127.064 157.955 126.999 157.955 126.934C157.955 126.87 157.955 126.805 157.955 126.74C157.955 126.675 157.955 126.61 157.955 126.545C157.955 126.481 157.955 126.416 157.955 126.351C157.955 126.286 157.955 126.221 157.955 126.156C157.955 126.092 157.955 126.027 157.955 125.962C157.955 125.897 157.955 125.832 157.955 125.767C157.955 125.703 157.955 125.638 157.955 125.573C157.955 125.508 157.955 125.443 157.955 125.379C157.955 125.314 157.955 125.249 157.955 125.184C157.955 125.119 157.955 125.055 157.955 124.99C157.955 124.925 157.955 124.86 157.955 124.796C157.955 124.731 157.955 124.666 157.955 124.602C157.955 124.537 157.955 124.472 157.955 124.407C157.955 124.343 157.955 124.278 157.955 124.213C157.955 124.149 157.955 124.084 157.955 124.019C157.955 123.955 157.955 123.89 157.955 123.825C157.955 123.761 157.955 123.696 157.955 123.631C157.955 123.567 157.955 123.502 157.955 123.438C157.955 123.373 157.955 123.309 157.955 123.244C157.955 123.179 157.955 123.115 157.955 123.05C157.955 122.986 157.955 122.921 157.955 122.857C157.955 122.792 157.955 122.728 157.955 122.663C157.955 122.599 157.955 122.535 157.955 122.47C157.955 122.406 157.955 122.341 157.955 122.277C157.955 122.213 157.955 122.148 157.955 122.084C157.955 122.02 157.955 121.955 157.955 121.891C157.955 121.827 157.955 121.762 157.955 121.698C157.955 121.634 157.955 121.57 157.955 121.505C157.955 121.441 157.955 121.377 157.955 121.313C157.955 121.249 157.955 121.184 157.955 121.12C157.955 121.056 157.955 120.992 157.955 120.928C157.955 120.864 157.955 120.8 157.955 120.736C157.955 120.672 157.955 120.608 157.955 120.544C157.955 120.48 157.955 120.416 157.955 120.352C157.955 120.288 157.955 120.224 157.955 120.16C157.955 120.096 157.955 120.033 157.955 119.969C157.955 119.905 157.955 119.841 157.955 119.777C157.955 119.714 157.955 119.65 157.955 119.586C157.955 119.522 157.955 119.459 157.955 119.395C157.955 119.331 157.955 119.268 157.955 119.204C157.955 119.141 157.955 119.077 157.955 119.014C157.955 118.95 157.955 118.887 157.955 118.823C157.955 118.76 157.955 118.696 157.955 118.633C157.955 118.569 157.955 118.506 157.955 118.443C157.955 118.379 157.955 118.316 157.955 118.253C157.955 118.19 157.955 118.126 157.955 118.063C157.955 118 157.955 117.937 157.955 117.874C157.955 117.811 157.955 117.747 157.955 117.684C157.955 117.621 157.955 117.558 157.955 117.495C157.955 117.432 157.955 117.37 157.955 117.307C157.955 117.244 157.955 117.181 157.955 117.118C157.955 117.055 157.955 116.992 157.955 116.93C157.955 116.867 157.955 116.804 157.955 116.742C157.955 116.679 157.955 116.616 157.955 116.554C157.955 116.491 157.955 116.429 157.955 116.366C157.955 116.304 157.955 116.241 157.955 116.179C157.955 116.116 157.955 116.054 157.955 115.992C157.955 115.929 157.955 115.867 157.955 115.805C157.955 115.743 157.955 115.68 157.955 115.618C157.955 115.556 157.955 115.494 157.955 115.432C157.955 115.37 157.955 115.308 157.955 115.246C157.955 115.184 157.955 115.122 157.955 115.06C157.955 114.998 157.955 114.936 157.955 114.875C157.955 114.813 157.955 114.751 157.955 114.69C157.955 114.628 157.955 114.566 157.955 114.505C157.955 114.443 157.955 114.382 157.955 114.32C157.955 114.259 157.955 114.197 157.955 114.136C157.955 114.074 157.955 114.013 157.955 113.952C157.955 113.891 157.955 113.829 157.955 113.768C157.955 113.707 157.955 113.646 157.955 113.585C157.955 113.524 157.955 113.463 157.955 113.402C157.955 113.341 157.955 113.28 157.955 113.219C157.955 113.158 157.955 113.097 157.955 113.037C157.955 112.976 157.955 112.915 157.955 112.855C157.955 112.794 157.955 112.733 157.955 112.673C157.955 112.612 157.955 112.552 157.955 112.492C157.955 112.431 157.955 112.371 157.955 112.311C157.955 112.25 157.955 112.19 157.955 112.13C157.955 112.07 157.955 112.01 157.955 111.95C157.955 111.889 157.955 111.829 157.955 111.77C157.955 111.71 157.955 111.65 157.955 111.59C157.955 111.53 157.955 111.47 157.955 111.411C157.955 111.351 157.955 111.291 157.955 111.232C157.955 111.172 157.955 111.113 157.955 111.053C157.955 110.994 157.955 110.935 157.955 110.875C157.955 110.816 157.955 110.757 157.955 110.698C157.955 110.638 157.955 110.579 157.955 110.52C157.955 110.461 157.955 110.402 157.955 110.343C157.955 110.285 157.955 110.226 157.955 110.167C157.955 110.108 157.955 110.049 157.955 109.991C157.955 109.932 157.955 109.874 157.955 109.815C157.955 109.757 157.955 109.698 157.955 109.64C157.955 109.582 157.955 109.523 157.955 109.465C157.955 109.407 157.955 109.349 157.955 109.291C157.955 109.232 157.955 109.174 157.955 109.117C157.955 109.059 157.955 109.001 157.955 108.943C157.955 108.885 157.955 108.827 157.955 108.77C157.955 108.712 157.955 108.655 157.955 108.597C157.955 108.54 157.955 108.482 157.955 108.425C157.955 108.368 157.955 108.31 157.955 108.253C157.955 108.196 157.955 108.139 157.955 108.082C157.955 108.025 157.955 107.968 157.955 107.911C157.955 107.854 157.955 107.797 157.955 107.74C157.955 107.684 157.955 107.627 157.955 107.57C157.955 107.514 157.955 107.457 157.955 107.401C157.955 107.345 157.955 107.288 157.955 107.232C157.955 107.176 157.955 107.12 157.955 107.063C157.955 107.007 157.955 106.951 157.955 106.895C157.955 106.839 157.955 106.784 157.955 106.728C157.955 106.672 157.955 106.616 157.955 106.561C157.955 106.505 157.955 106.45 157.955 106.394C157.955 106.339 157.955 106.283 157.955 106.228C157.955 106.173 157.955 106.118 157.955 106.063C157.955 106.008 157.955 105.953 157.955 105.898C157.955 105.843 157.955 105.788 157.955 105.733C157.955 105.678 157.955 105.624 157.955 105.569C157.955 105.515 157.955 105.46 157.955 105.406C157.955 105.351 157.955 105.297 157.955 105.243C157.955 105.189 157.955 105.134 157.955 105.08C157.955 105.026 157.955 104.972 157.955 104.918C157.955 104.865 157.955 104.811 157.955 104.757C157.955 104.704 157.955 104.65 157.955 104.596C157.955 104.543 157.955 104.49 157.955 104.436C157.955 104.383 157.955 104.33 157.955 104.277C157.955 104.223 157.955 104.17 157.955 104.117C157.955 104.065 157.955 104.012 157.955 103.959C157.955 103.906 157.955 103.854 157.955 103.801C157.955 103.748 157.955 103.696 157.955 103.644C157.955 103.591 157.955 103.539 157.955 103.487C157.955 103.435 157.955 103.383 157.955 103.331C157.955 103.279 157.955 103.227 157.955 103.175C157.955 103.123 157.955 103.072 157.955 103.02C157.955 102.968 157.955 102.917 157.955 102.866C157.955 102.814 157.955 102.763 157.955 102.712C157.955 102.661 157.955 102.61 157.955 102.559C157.955 102.508 157.955 102.457 157.955 102.406C157.955 102.355 157.955 102.305 157.955 102.254C157.955 102.203 157.955 102.153 157.955 102.103C157.955 102.052 157.955 102.002 157.955 101.952C157.955 101.902 157.955 101.852 157.955 101.802C157.955 101.752 157.955 101.702 157.955 101.652C157.955 101.603 157.955 101.553 157.955 101.504C157.955 101.454 157.955 101.405 157.955 101.355C157.955 101.306 157.955 101.257 157.955 101.208C157.955 101.159 157.955 101.11 157.955 101.061C157.955 101.012 157.955 100.963 157.955 100.915C157.955 100.866 157.955 100.818 157.955 100.769C157.955 100.721 157.955 100.672 157.955 100.624C157.955 100.576 157.955 100.528 157.955 100.48C157.955 100.432 157.955 100.384 157.955 100.336C157.955 100.289 157.955 100.241 157.955 100.194C157.955 100.146 157.955 100.099 157.955 100.051C157.955 100.004 157.955 99.9569 157.955 99.9099C157.955 99.8628 157.955 99.8159 157.955 99.769C157.955 99.7222 157.955 99.6755 157.955 99.6289C157.955 99.5824 157.955 99.5359 157.955 99.4895C157.955 99.4432 157.955 99.3969 157.955 99.3508C157.955 99.3047 157.955 99.2587 157.955 99.2128C157.955 99.167 157.955 99.1212 157.955 99.0756C157.955 99.0299 157.955 98.9844 157.955 98.939C157.955 98.8936 157.955 98.8483 157.955 98.8032C157.955 98.758 157.955 98.713 157.955 98.6681C157.955 98.6232 157.955 98.5784 157.955 98.5337C157.955 98.4891 157.955 98.4445 157.955 98.4001C157.955 98.3557 157.955 98.3114 157.955 98.2672C157.955 98.223 157.955 98.179 157.955 98.1351C157.955 98.0911 157.955 98.0474 157.955 98.0037C157.955 97.96 157.955 97.9165 157.955 97.8731C157.955 97.8296 157.955 97.7863 157.955 97.7432C157.955 97.7 157.955 97.657 157.955 97.6141C157.955 97.5712 157.955 97.5284 157.955 97.4857C157.955 97.4431 157.955 97.4006 157.955 97.3582C157.955 97.3158 157.955 97.2735 157.955 97.2314C157.955 97.1893 157.955 97.1473 157.955 97.1054C157.955 97.0635 157.955 97.0218 157.955 96.9802C157.955 96.9386 157.955 96.8971 157.955 96.8558C157.955 96.8144 157.955 96.7732 157.955 96.7322C157.955 96.6911 157.955 96.6501 157.955 96.6093C157.955 96.5685 157.955 96.5279 157.955 96.4873C157.955 96.4468 157.955 96.4064 157.955 96.3661C157.955 96.3259 157.955 96.2857 157.955 96.2457C157.955 96.2057 157.955 96.1659 157.955 96.1262C157.955 96.0864 157.955 96.0469 157.955 96.0074C157.955 95.968 157.955 95.9287 157.955 95.8895C157.955 95.8503 157.955 95.8113 157.955 95.7724C157.955 95.7335 157.955 95.6948 157.955 95.6562C157.955 95.6176 157.955 95.5791 157.955 95.5408C157.955 95.5024 157.955 95.4642 157.955 95.4262C157.955 95.3882 157.955 95.3503 157.955 95.3125C157.955 95.2747 157.955 95.2371 157.955 95.1996C157.955 95.1622 157.955 95.1248 157.955 95.0876C157.955 95.0505 157.955 95.0134 157.955 94.9765C157.955 94.9396 157.955 94.9029 157.955 94.8663C157.955 94.8296 157.955 94.7932 157.955 94.7569C157.955 94.7206 157.955 94.6844 157.955 94.6484C157.955 94.6123 157.955 94.5765 157.955 94.5407C157.955 94.505 157.955 94.4694 157.955 94.434C157.955 94.3986 157.955 94.3633 157.955 94.3281C157.955 94.293 157.955 94.258 157.955 94.2232C157.955 94.1884 157.955 94.1537 157.955 94.1191C157.955 94.0846 157.955 94.0502 157.955 94.016C157.955 93.9818 157.955 93.9477 157.955 93.9137C157.955 93.8798 157.955 93.846 157.955 93.8124C157.955 93.7788 157.955 93.7453 157.955 93.712C157.955 93.6787 157.955 93.6455 157.955 93.6125C157.955 93.5795 157.955 93.5467 157.955 93.514C157.955 93.4813 157.955 93.4487 157.955 93.4163C157.955 93.384 157.955 93.3517 157.955 93.3197C157.955 93.2876 157.955 93.2557 157.955 93.2239C157.955 93.1921 157.955 93.1605 157.955 93.1291C157.955 93.0977 157.955 93.0664 157.955 93.0352C157.955 93.0041 157.955 92.9732 157.955 92.9423C157.955 92.9115 157.955 92.8809 157.955 92.8504C157.955 92.8199 157.955 92.7896 157.955 92.7594C157.955 92.7293 157.955 92.6993 157.955 92.6694C157.955 92.6396 157.955 92.6099 157.955 92.5804C157.955 92.5509 157.955 92.5215 157.955 92.4923C157.955 92.4631 157.955 92.4341 157.955 92.4052C157.955 92.3764 157.955 92.3477 157.955 92.3191C157.955 92.2906 157.955 92.2622 157.955 92.234C157.955 92.2058 157.955 92.1778 157.955 92.1499C157.955 92.1221 157.955 92.0944 157.955 92.0668C157.955 92.0393 157.955 92.0119 157.955 91.9847C157.955 91.9575 157.955 91.9305 157.955 91.9036C157.955 91.8768 157.955 91.8501 157.955 91.8235C157.955 91.797 157.955 91.7707 157.955 91.7445C157.955 91.7183 157.955 91.6923 157.955 91.6664C157.955 91.6406 157.955 91.6149 157.955 91.5894C157.955 91.5639 157.955 91.5386 157.955 91.5134C157.955 91.4883 157.955 91.4633 157.955 91.4385C157.955 91.4136 157.955 91.389 157.955 91.3645C157.955 91.3401 157.955 91.3158 157.955 91.2917C157.955 91.2676 157.955 91.2436 157.955 91.2199C157.955 91.1961 157.955 91.1725 157.955 91.1491C157.955 91.1257 157.955 91.1024 157.955 91.0794C157.955 91.0563 157.955 91.0334 157.955 91.0107C157.955 90.988 157.955 90.9655 157.955 90.9431C157.955 90.9208 157.955 90.8986 157.955 90.8766C157.955 90.8546 157.955 90.8328 157.955 90.8112C157.955 90.7896 157.955 90.7681 157.955 90.7468C157.955 90.7256 157.955 90.7045 157.955 90.6836C157.955 90.6627 157.955 90.6419 157.955 90.6214C157.955 90.6009 157.955 90.5805 157.955 90.5603C157.955 90.5401 157.955 90.5201 157.955 90.5003C157.955 90.4805 157.955 90.4609 157.955 90.4414C157.955 90.422 157.955 90.4027 157.955 90.3837C157.955 90.3646 157.955 90.3457 157.955 90.327C157.955 90.3083 157.955 90.2898 157.955 90.2714C157.955 90.2531 157.955 90.235 157.955 90.217C157.955 90.1991 157.955 90.1813 157.955 90.1637C157.955 90.1461 157.955 90.1287 157.955 90.1115C157.955 90.0943 157.955 90.0773 157.955 90.0605C157.955 90.0437 157.955 90.027 157.955 90.0106C157.955 89.9942 157.955 89.9779 157.955 89.9618C157.955 89.9458 157.955 89.9299 157.955 89.9142C157.955 89.8986 157.955 89.8831 157.955 89.8678C157.955 89.8525 157.955 89.8374 157.955 89.8225C157.955 89.8076 157.955 89.7929 157.955 89.7783C157.955 89.7638 157.955 89.7495 157.955 89.7354C157.955 89.7212 157.955 89.7073 157.955 89.6936C157.955 89.6798 157.955 89.6663 157.955 89.6529C157.955 89.6396 157.955 89.6264 157.955 89.6135C157.955 89.6005 157.955 89.5878 157.955 89.5752C157.955 89.5627 157.955 89.5503 157.955 89.5381C157.955 89.526 157.955 89.514 157.955 89.5023C157.955 89.4905 157.955 89.4789 157.955 89.4676C157.955 89.4562 157.955 89.445 157.955 89.4341C157.955 89.4231 157.955 89.4124 157.955 89.4018C157.955 89.3912 157.955 89.3809 157.955 89.3707C157.955 89.3606 157.955 89.3506 157.955 89.3409C157.955 89.3311 157.955 89.3216 157.955 89.3122C157.955 89.3029 157.955 89.2938 157.955 89.2848C157.955 89.2759 157.955 89.2672 157.955 89.2587C157.955 89.2501 157.955 89.2418 157.955 89.2337C157.955 89.2256 157.955 89.2177 157.955 89.21C157.955 89.2023 157.955 89.1948 157.955 89.1875C157.955 89.1802 157.955 89.1732 157.955 89.1663C157.955 89.1594 157.955 89.1528 157.955 89.1463C157.955 89.1399 157.955 89.1336 157.955 89.1276C157.955 89.1216 157.955 89.1158 157.955 89.1102C157.955 89.1046 157.955 89.0992 157.955 89.094C157.955 89.0888 157.955 89.0838 157.955 89.0791C157.955 89.0743 157.955 89.0697 157.955 89.0654C157.955 89.0611 157.955 89.057 157.955 89.053C157.955 89.0491 157.955 89.0454 157.955 89.042C157.955 89.0385 157.955 89.0352 157.955 89.0322C157.955 89.0291 157.955 89.0263 157.955 89.0237C157.955 89.021 157.955 89.0186 157.955 89.0164C157.955 89.0143 157.955 89.0123 157.955 89.0105C157.955 89.0088 157.955 89.0073 157.955 89.0059C157.955 89.0046 157.955 89.0035 157.955 89.0026C157.955 89.0018 157.955 89.0011 157.955 89.0007C157.955 89.0002 157.955 89 153.955 89ZM149.955 161.777C149.955 164.088 148.949 165.735 147.263 166.939C145.458 168.227 142.826 169 139.977 169C137.129 169 134.496 168.227 132.692 166.939C131.006 165.735 130 164.088 130 161.777H122C122 166.948 124.489 170.912 128.044 173.45C131.481 175.903 135.837 177 139.977 177C144.118 177 148.474 175.903 151.91 173.45C155.466 170.912 157.955 166.948 157.955 161.777H149.955ZM157.955 161.777C157.955 156.607 155.466 152.642 151.91 150.105C148.474 147.652 144.118 146.555 139.977 146.555C135.837 146.555 131.481 147.652 128.044 150.105C124.489 152.642 122 156.607 122 161.777H130C130 159.466 131.006 157.819 132.692 156.616C134.496 155.328 137.129 154.555 139.977 154.555C142.826 154.555 145.458 155.328 147.263 156.616C148.949 157.819 149.955 159.466 149.955 161.777H157.955Z" fill="#FF4D35"/>
</svg>
