<svg width="200" height="200" viewBox="0 0 200 200" fill="none" xmlns="http://www.w3.org/2000/svg">
<path d="M40.25 73.5L44.0176 74.8436C44.0309 74.8063 44.0436 74.7689 44.0558 74.7313L40.25 73.5ZM177 141.5L180.814 142.705C180.844 142.609 180.871 142.513 180.894 142.416L177 141.5ZM92.5 54C92.5 56.2091 94.2909 58 96.5 58C98.7091 58 100.5 56.2091 100.5 54H92.5ZM28.2324 95.2904C27.4904 97.3712 28.5756 99.6596 30.6564 100.402C32.7372 101.144 35.0255 100.058 35.7676 97.9776L28.2324 95.2904ZM192.92 73.8389L196.814 74.7551L192.92 73.8389ZM192.996 73.1507L196.995 73.065L192.996 73.1507ZM189.027 72.9228L173.106 140.584L180.894 142.416L196.814 74.7551L189.027 72.9228ZM161 153.5H32V161.5H161V153.5ZM96.5 61.5H177V53.5H96.5V61.5ZM44.0558 74.7313C45.3695 70.6708 46.9582 67.2716 48.9873 64.9357C50.8958 62.7386 53.1568 61.5 56.25 61.5V53.5C50.5067 53.5 46.1426 56.0114 42.9478 59.6893C39.8736 63.2284 37.8805 67.8292 36.4442 72.2687L44.0558 74.7313ZM32 153.5C25.3726 153.5 20 148.127 20 141.5H12C12 152.546 20.9543 161.5 32 161.5V153.5ZM173.186 140.295C171.736 144.885 170.153 148.225 168.21 150.393C166.434 152.375 164.26 153.5 161 153.5V161.5C166.577 161.5 170.903 159.375 174.168 155.732C177.265 152.275 179.264 147.615 180.814 142.705L173.186 140.295ZM80.5 42C87.1274 42 92.5 47.3726 92.5 54H100.5C100.5 42.9543 91.5457 34 80.5 34V42ZM196.995 73.065C196.763 62.2192 187.9 53.5 177 53.5V61.5C183.539 61.5 188.858 66.7316 188.997 73.2363L196.995 73.065ZM56.25 42H80.5V34H56.25V42ZM96.5 53.5H56.25V61.5H96.5V53.5ZM20 54C20 47.3726 25.3726 42 32 42V34C20.9543 34 12 42.9543 12 54H20ZM32 42H56.25V34H32V42ZM12 54V141.5H20V54H12ZM35.7676 97.9776L44.0176 74.8436L36.4824 72.1564L28.2324 95.2904L35.7676 97.9776ZM196.814 74.7551C196.934 74.2433 197.008 73.6735 196.995 73.065L188.997 73.2363C188.994 73.0904 189.012 72.9842 189.027 72.9228L196.814 74.7551Z" fill="#80D1FF"/>
<path d="M165.106 169.422H86V122.053H156.58M165.106 169.422C169.815 169.422 173.632 165.604 173.632 160.895M165.106 169.422C160.397 169.422 156.58 165.604 156.58 160.895M173.632 160.895V113.526C173.632 108.817 169.815 105 165.106 105C160.397 105 156.58 108.817 156.58 113.526V122.053M173.632 160.895C173.632 156.186 169.815 152.369 165.106 152.369C160.397 152.369 156.58 156.186 156.58 160.895M156.58 160.895V122.053" stroke="#2EB4FF" stroke-width="8" stroke-linejoin="round"/>
<path d="M95.1846 133.263C95.1846 131.33 96.7516 129.763 98.6846 129.763H121.389C123.322 129.763 124.889 131.33 124.889 133.263V139.223C124.889 141.156 123.322 142.723 121.389 142.723H98.6846C96.7516 142.723 95.1846 141.156 95.1846 139.223V133.263ZM129.301 133.263C129.301 131.33 130.868 129.763 132.801 129.763H144.845C146.778 129.763 148.345 131.33 148.345 133.263V158.683C148.345 160.616 146.778 162.183 144.845 162.183H132.801C130.868 162.183 129.301 160.616 129.301 158.683V133.263ZM95.1846 149.992C95.1846 148.633 96.2865 147.531 97.6458 147.531H122.428C123.788 147.531 124.889 148.633 124.889 149.992C124.889 151.351 123.788 152.453 122.428 152.453H97.6458C96.2865 152.453 95.1846 151.351 95.1846 149.992ZM95.1846 159.722C95.1846 158.363 96.2865 157.261 97.6458 157.261H122.428C123.788 157.261 124.889 158.363 124.889 159.722C124.889 161.081 123.788 162.183 122.428 162.183H97.6458C96.2865 162.183 95.1846 161.081 95.1846 159.722Z" fill="#2EB4FF" stroke="#2EB4FF"/>
</svg>
