<svg width="200" height="200" viewBox="0 0 200 200" fill="none" xmlns="http://www.w3.org/2000/svg">
<path d="M56.25 53.5C54.0409 53.5 52.25 55.2909 52.25 57.5C52.25 59.7091 54.0409 61.5 56.25 61.5V53.5ZM173 73.5V141.5H181V73.5H173ZM161 153.5H32V161.5H161V153.5ZM20 141.5V57.5H12V141.5H20ZM20 57.5V54H12V57.5H20ZM96.5 61.5H161V53.5H96.5V61.5ZM20 54C20 47.3726 25.3726 42 32 42V34C20.9543 34 12 42.9543 12 54H20ZM32 153.5C25.3726 153.5 20 148.127 20 141.5H12C12 152.546 20.9543 161.5 32 161.5V153.5ZM173 141.5C173 148.127 167.627 153.5 161 153.5V161.5C172.046 161.5 181 152.546 181 141.5H173ZM80.5 42C87.1274 42 92.5 47.3726 92.5 54H100.5C100.5 42.9543 91.5457 34 80.5 34V42ZM181 73.5C181 62.4543 172.046 53.5 161 53.5V61.5C167.627 61.5 173 66.8726 173 73.5H181ZM32 42H56.25V34H32V42ZM56.25 42H80.5V34H56.25V42ZM96.5 53.5H56.25V61.5H96.5V53.5ZM92.5 54V57.5H100.5V54H92.5Z" fill="#E8F9FF"/>
<path d="M173.229 123.612C172.737 123.912 161.694 129.847 161.829 142.222H161.834C161.977 156.993 175.844 161.911 176 161.975C175.873 162.313 173.775 168.981 168.685 175.869C164.284 181.823 159.724 187.743 152.528 187.864C145.45 187.994 143.176 183.988 135.089 183.988C127.002 183.988 124.478 187.751 117.787 187.994C110.845 188.237 105.554 181.565 101.116 175.638C92.0401 163.509 85.1067 141.36 94.421 126.415C99.035 118.987 107.303 114.286 116.272 114.161C123.09 114.051 129.531 118.418 133.694 118.418C137.864 118.418 145.697 113.162 153.915 113.937C157.355 114.066 167.022 115.217 173.229 123.612Z" stroke="#D6E0E3" stroke-width="8" stroke-linejoin="round"/>
<path d="M154.294 89C154.967 94.7186 152.475 100.464 148.793 104.599H148.797C145.102 108.726 139.06 111.939 133.132 111.514C132.328 105.897 135.32 100.061 138.736 96.3969C142.549 92.2656 148.982 89.2013 154.294 89Z" stroke="#D6E0E3" stroke-width="8" stroke-linejoin="round"/>
</svg>
