<svg width="200" height="200" viewBox="0 0 200 200" fill="none" xmlns="http://www.w3.org/2000/svg">
<path d="M56.25 53.5C54.0409 53.5 52.25 55.2909 52.25 57.5C52.25 59.7091 54.0409 61.5 56.25 61.5V53.5ZM173 73.5V141.5H181V73.5H173ZM161 153.5H32V161.5H161V153.5ZM20 141.5V57.5H12V141.5H20ZM20 57.5V54H12V57.5H20ZM96.5 61.5H161V53.5H96.5V61.5ZM20 54C20 47.3726 25.3726 42 32 42V34C20.9543 34 12 42.9543 12 54H20ZM32 153.5C25.3726 153.5 20 148.127 20 141.5H12C12 152.546 20.9543 161.5 32 161.5V153.5ZM173 141.5C173 148.127 167.627 153.5 161 153.5V161.5C172.046 161.5 181 152.546 181 141.5H173ZM80.5 42C87.1274 42 92.5 47.3726 92.5 54H100.5C100.5 42.9543 91.5457 34 80.5 34V42ZM181 73.5C181 62.4543 172.046 53.5 161 53.5V61.5C167.627 61.5 173 66.8726 173 73.5H181ZM32 42H56.25V34H32V42ZM56.25 42H80.5V34H56.25V42ZM96.5 53.5H56.25V61.5H96.5V53.5ZM92.5 54V57.5H100.5V54H92.5Z" fill="#2EB4FF"/>
<path d="M160.106 169.422H81V122.053H151.58M160.106 169.422C164.815 169.422 168.632 165.604 168.632 160.895M160.106 169.422C155.397 169.422 151.58 165.604 151.58 160.895M168.632 160.895V113.526C168.632 108.817 164.815 105 160.106 105C155.397 105 151.58 108.817 151.58 113.526V122.053M168.632 160.895C168.632 156.186 164.815 152.369 160.106 152.369C155.397 152.369 151.58 156.186 151.58 160.895M151.58 160.895V122.053" stroke="#D6E0E3" stroke-width="8" stroke-linejoin="round"/>
<path d="M93.6846 129.763H116.389C118.322 129.763 119.889 131.33 119.889 133.263V139.223C119.889 141.156 118.322 142.723 116.389 142.723H93.6846C91.7516 142.723 90.1846 141.156 90.1846 139.223V133.263C90.1846 131.33 91.7516 129.763 93.6846 129.763ZM127.801 129.763H139.845C141.778 129.763 143.345 131.33 143.345 133.263V158.683C143.345 160.616 141.778 162.183 139.845 162.183H127.801C125.868 162.183 124.301 160.616 124.301 158.683V133.263C124.301 131.33 125.868 129.763 127.801 129.763ZM92.6458 147.531H117.428C118.788 147.531 119.889 148.633 119.889 149.992C119.889 151.351 118.788 152.453 117.428 152.453H92.6458C91.2865 152.453 90.1846 151.351 90.1846 149.992C90.1846 148.633 91.2865 147.531 92.6458 147.531ZM92.6458 157.261H117.428C118.788 157.261 119.889 158.363 119.889 159.722C119.889 161.081 118.788 162.183 117.428 162.183H92.6458C91.2865 162.183 90.1846 161.081 90.1846 159.722C90.1846 158.363 91.2865 157.261 92.6458 157.261Z" fill="#D6E0E3" stroke="#D6E0E3"/>
</svg>
