<svg width="153" height="153" viewBox="0 0 153 153" fill="none" xmlns="http://www.w3.org/2000/svg">
<path d="M136.808 64.4525L88.2926 15.9374C81.7094 9.35418 71.0358 9.35419 64.4525 15.9375L15.9374 64.4525C9.35418 71.0358 9.35419 81.7094 15.9375 88.2926L64.4525 136.808C71.0358 143.391 81.7094 143.391 88.2926 136.808L136.808 88.2926C143.391 81.7094 143.391 71.0358 136.808 64.4525Z" stroke="#FF4D35" stroke-width="8"/>
<path d="M90.7849 39.355C90.7849 31.3664 84.3089 24.8903 76.3202 24.8903C73.9017 24.8903 71.6218 25.4839 69.6182 26.5333L64.5136 21.4287L57.5903 28.352L62.9836 33.7452C62.2571 35.4703 61.8555 37.3658 61.8555 39.355C61.8555 45.653 65.8806 51.011 71.4987 52.9967V102.055C65.8806 104.041 61.8555 109.398 61.8555 115.696C61.8555 123.685 68.3316 130.161 76.3202 130.161C84.3089 130.161 90.7849 123.685 90.7849 115.696C90.7849 109.454 86.8303 104.135 81.2896 102.108V52.9435V52.0513L81.93 52.6917L98.8567 69.6183C97.8073 71.6219 97.2137 73.9018 97.2137 76.3204C97.2137 84.309 103.69 90.7851 111.678 90.7851C119.667 90.7851 126.143 84.309 126.143 76.3204C126.143 68.3317 119.667 61.8557 111.678 61.8557C109.689 61.8557 107.794 62.2572 106.069 62.9837L89.1419 46.0571C90.1914 44.0535 90.7849 41.7736 90.7849 39.355Z" fill="#FF4D35"/>
</svg>
