<svg width="213" height="146" viewBox="0 0 213 146" fill="none" xmlns="http://www.w3.org/2000/svg">
<path fill-rule="evenodd" clip-rule="evenodd" d="M87.1835 142C108.67 142 128.254 135.243 143.015 124.15C133.31 128.416 122.246 130.832 110.503 130.832C72.0584 130.832 40.8931 104.94 40.8931 73C40.8931 41.0601 72.0584 15.1676 110.503 15.1676C122.246 15.1676 133.31 17.5837 143.015 21.8501C128.254 10.7575 108.67 4 87.1835 4C41.2425 4 4 34.8924 4 73C4 111.108 41.2425 142 87.1835 142Z" stroke="#FFA800" stroke-width="8" stroke-linejoin="round"/>
<path d="M113.306 110.088C107.464 110.088 102.07 109.199 97.1217 107.421C92.2424 105.575 87.9816 102.976 84.3393 99.6251C80.7657 96.2742 77.9824 92.3078 75.9894 87.7259C73.9965 83.144 73 78.0834 73 72.5441C73 67.0048 73.9965 61.9442 75.9894 57.3623C77.9824 52.7805 80.8 48.814 84.4423 45.4631C88.0847 42.1122 92.3798 39.5477 97.3279 37.7696C102.345 35.9232 107.842 35 113.821 35C120.969 35 127.325 36.1968 132.892 38.5903C138.527 40.9838 143.166 44.4031 146.808 48.8482L131.243 62.4913C128.975 59.8926 126.501 57.9436 123.821 56.6443C121.209 55.2766 118.288 54.5927 115.058 54.5927C112.378 54.5927 109.939 55.003 107.739 55.8236C105.609 56.6443 103.788 57.841 102.276 59.4139C100.764 60.9868 99.5957 62.8674 98.7711 65.0558C97.9464 67.2442 97.534 69.7403 97.534 72.5441C97.534 75.2112 97.9464 77.6731 98.7711 79.9298C99.5957 82.1182 100.764 83.9988 102.276 85.5717C103.788 87.1446 105.575 88.3756 107.636 89.2646C109.767 90.0852 112.138 90.4955 114.749 90.4955C117.498 90.4955 120.178 90.051 122.79 89.162C125.401 88.2046 128.184 86.5975 131.14 84.3408L144.747 100.959C140.348 103.899 135.332 106.156 129.696 107.729C124.061 109.302 118.598 110.088 113.306 110.088ZM123.614 97.8813V70.5951H144.747V100.959L123.614 97.8813Z" fill="#D6E0E3"/>
<path d="M155.112 108.447V36.6413H179.44V89.6749H212.015V108.447H155.112Z" fill="#D6E0E3"/>
</svg>
