<svg width="277" height="178" viewBox="0 0 277 178" fill="none" xmlns="http://www.w3.org/2000/svg">
<path d="M94.2158 95.5C94.2158 141.063 131.152 178 176.716 178C216.629 178 249.922 149.657 257.566 112C258.648 106.669 259.216 101.151 259.216 95.5C259.216 89.2642 258.524 83.19 257.213 77.35H224.552H176.716V112H225.146C218.282 132.153 199.192 146.65 176.716 146.65C148.466 146.65 125.566 123.749 125.566 95.5C125.566 67.2506 148.466 44.35 176.716 44.35C198.574 44.35 217.229 58.0602 224.552 77.35L249.554 56.725C235.675 30.7072 208.263 13 176.716 13C131.152 13 94.2158 49.9365 94.2158 95.5Z" fill="#2EB4FF"/>
<path d="M4.1001 59.9617H79.395M37.1001 161.5H104.361M12.3501 85.3463H71.988M20.6001 110.731H72.7724M28.8501 136.116H82.043" stroke="#2EB4FF" stroke-width="8" stroke-linecap="round"/>
</svg>
