<svg width="242" height="157" viewBox="0 0 242 157" fill="none" xmlns="http://www.w3.org/2000/svg">
<path d="M234.727 71.7264C235.87 84.7908 233.449 97.345 228.269 108.429C217.743 130.953 195.825 147.405 169.276 149.728C129.663 153.193 94.7409 123.89 91.2752 84.2768C87.8095 44.6636 117.113 9.74127 156.726 6.27557C177.727 4.43818 197.41 11.8113 211.787 25.0482L187.394 51.5249C180.206 44.9064 170.364 41.2199 159.864 42.1386C140.057 43.8714 125.405 61.3326 127.138 81.1392C127.885 89.6798 131.557 97.2618 137.08 102.985C144.366 110.535 154.873 114.85 166.139 113.865L163.001 78.0016M234.727 71.7264L163.001 78.0016M234.727 71.7264L198.864 74.864L163.001 78.0016" stroke="#2EB4FF" stroke-width="8" stroke-linejoin="round"/>
<path d="M71 79.5H4M37.5 117.75H71H85.5M37.5 41.25H71H85.5" stroke="#2EB4FF" stroke-width="8" stroke-linecap="round" stroke-linejoin="round"/>
</svg>
