<svg width="262" height="262" viewBox="0 0 262 262" fill="none" xmlns="http://www.w3.org/2000/svg">
<path d="M4 4H258V258" stroke="#00E878" stroke-width="8" stroke-linecap="round" stroke-linejoin="round"/>
<path d="M4 4V258H258" stroke="#2B66FF" stroke-width="8" stroke-linecap="round" stroke-linejoin="round"/>
<path d="M4 4H131" stroke="#FF47B5" stroke-width="8" stroke-linecap="round" stroke-linejoin="round"/>
<rect x="37" y="37" width="190" height="190" fill="#524E5A"/>
<path d="M34.8428 34.8428H227.157V227.157" stroke="#00E878" stroke-width="8" stroke-linecap="round" stroke-linejoin="round"/>
<path d="M34.8428 34.8428V227.157H227.157" stroke="#2B66FF" stroke-width="8" stroke-linecap="round" stroke-linejoin="round"/>
<path d="M34.8428 34.8428H131" stroke="#FF47B5" stroke-width="8" stroke-linecap="round" stroke-linejoin="round"/>
<path d="M116.653 103.542V128.735C115.705 129.95 114.209 131.268 112.166 132.69C110.151 134.112 107.515 135.341 104.256 136.378C100.998 137.385 96.9989 137.889 92.2593 137.889C88.1418 137.889 84.3797 137.207 80.9731 135.845C77.5666 134.452 74.634 132.423 72.1753 129.757C69.7166 127.091 67.8208 123.833 66.4878 119.982C65.1548 116.131 64.4883 111.732 64.4883 106.785V102.52C64.4883 97.5726 65.1104 93.1737 66.3545 89.3228C67.6283 85.4718 69.4352 82.2134 71.7754 79.5474C74.1452 76.8813 76.9741 74.8522 80.2622 73.46C83.5799 72.0677 87.2827 71.3716 91.3706 71.3716C96.8507 71.3716 101.353 72.2751 104.878 74.082C108.433 75.889 111.158 78.3773 113.054 81.5469C114.95 84.6868 116.135 88.3008 116.609 92.3887H104.701C104.375 90.1374 103.723 88.1675 102.746 86.479C101.768 84.7609 100.376 83.4279 98.5688 82.48C96.7915 81.5024 94.481 81.0137 91.6372 81.0137C89.2378 81.0137 87.1198 81.4876 85.2832 82.4355C83.4466 83.3835 81.9062 84.7609 80.6621 86.5679C79.418 88.3748 78.4701 90.6113 77.8184 93.2773C77.1963 95.9434 76.8853 98.9945 76.8853 102.431V106.785C76.8853 110.251 77.2407 113.332 77.9517 116.027C78.6626 118.693 79.6846 120.945 81.0176 122.781C82.3802 124.588 84.0539 125.966 86.0386 126.914C88.0529 127.832 90.3338 128.291 92.8813 128.291C95.1919 128.291 97.1025 128.098 98.6133 127.713C100.154 127.299 101.383 126.81 102.301 126.247C103.22 125.684 103.931 125.136 104.434 124.603V112.473H91.5928V103.542H116.653Z" fill="#D6E0E3"/>
<path d="M180.593 103.008V106.341C180.593 111.229 179.942 115.627 178.638 119.538C177.335 123.418 175.483 126.721 173.084 129.446C170.685 132.172 167.826 134.26 164.508 135.711C161.191 137.163 157.503 137.889 153.444 137.889C149.445 137.889 145.772 137.163 142.425 135.711C139.107 134.26 136.234 132.172 133.805 129.446C131.376 126.721 129.495 123.418 128.162 119.538C126.829 115.627 126.162 111.229 126.162 106.341V103.008C126.162 98.091 126.829 93.6921 128.162 89.8115C129.495 85.931 131.361 82.6281 133.76 79.9028C136.16 77.1479 139.018 75.0448 142.336 73.5933C145.683 72.1418 149.356 71.416 153.355 71.416C157.414 71.416 161.102 72.1418 164.419 73.5933C167.737 75.0448 170.596 77.1479 172.995 79.9028C175.424 82.6281 177.29 85.931 178.594 89.8115C179.927 93.6921 180.593 98.091 180.593 103.008ZM168.241 106.341V102.919C168.241 99.3944 167.915 96.2988 167.263 93.6328C166.611 90.9372 165.649 88.6711 164.375 86.8345C163.101 84.9979 161.531 83.6204 159.665 82.7021C157.799 81.7542 155.696 81.2803 153.355 81.2803C150.986 81.2803 148.882 81.7542 147.046 82.7021C145.239 83.6204 143.699 84.9979 142.425 86.8345C141.151 88.6711 140.174 90.9372 139.492 93.6328C138.84 96.2988 138.515 99.3944 138.515 102.919V106.341C138.515 109.836 138.84 112.932 139.492 115.627C140.174 118.323 141.151 120.604 142.425 122.47C143.728 124.307 145.298 125.699 147.135 126.647C148.971 127.595 151.075 128.069 153.444 128.069C155.814 128.069 157.917 127.595 159.754 126.647C161.59 125.699 163.131 124.307 164.375 122.47C165.649 120.604 166.611 118.323 167.263 115.627C167.915 112.932 168.241 109.836 168.241 106.341Z" fill="#D6E0E3"/>
<path d="M100.524 200V209.064H60.0449V200H100.524Z" fill="#D6E0E3"/>
</svg>
