<svg width="242" height="157" viewBox="0 0 242 157" fill="none" xmlns="http://www.w3.org/2000/svg">
<path d="M235.022 94.924L148.098 152.022L91 65.0984L128.524 40.4495L127.24 38.9705C122.008 39.3332 116.737 36.9362 113.652 32.24C109.104 25.316 111.03 16.0158 117.954 11.4676C124.878 6.91933 134.178 8.8453 138.726 15.7694C141.819 20.4778 141.918 26.2849 139.488 30.9495L140.74 32.4251L177.924 8L203.24 46.5403L202.134 47.1483C197.287 43.9689 190.817 43.7675 185.663 47.1528C178.739 51.7011 176.813 61.0012 181.361 67.9253C185.91 74.8493 195.21 76.7753 202.134 72.2271C207.487 68.7104 209.853 62.3529 208.548 56.4495L209.421 55.9495L235.022 94.924Z" stroke="#00F3C8" stroke-width="8" stroke-linejoin="round"/>
<path d="M71 79.5H4M37.5 117.75H71H85.5M37.5 41.25H71H85.5" stroke="#00F3C8" stroke-width="8" stroke-linecap="round" stroke-linejoin="round"/>
</svg>
