<svg width="268" height="187" viewBox="0 0 268 187" fill="none" xmlns="http://www.w3.org/2000/svg">
<path d="M4 69H65.581M30.9895 152H86M10.7474 89.75H59.523M17.4948 110.5H60.1646M24.2421 131.25H67.7467" stroke="#00F3C8" stroke-width="8" stroke-linecap="round"/>
<path d="M164.525 58.7623L161.696 55.9339L164.525 58.7623ZM108.95 70.5751L106.121 67.7466L108.95 70.5751ZM106.602 66.4867L105.76 62.5763L106.602 66.4867ZM128.896 42.2166L124.928 41.708L128.896 42.2166ZM134.411 45.1139L131.582 42.2855L134.411 45.1139ZM82.2187 104.377L79.3902 107.206L82.2187 104.377ZM82.2187 97.306L79.3902 94.4776L82.2187 97.306ZM213.286 78.7207L209.286 78.7541L213.286 78.7207ZM159.306 181.464L156.478 184.293L159.306 181.464ZM221.229 75.0706L224.057 72.2422L221.229 75.0706ZM243.464 104.377L240.636 101.549L243.464 104.377ZM243.464 97.306L240.636 100.134L243.464 97.306ZM188.613 42.4541L185.784 45.2825L188.613 42.4541ZM184.962 50.397L184.996 46.3972L184.962 50.397ZM166.377 20.2187L163.549 23.0471L166.377 20.2187ZM159.306 20.2187L156.478 17.3902L159.306 20.2187ZM240.636 101.549L163.549 178.636L169.206 184.293L246.293 107.206L240.636 101.549ZM162.134 178.636L85.0471 101.549L79.3902 107.206L156.478 184.293L162.134 178.636ZM123.591 15.5379C110.874 2.82071 90.255 2.82071 77.5379 15.5379L83.1947 21.1947C92.7877 11.6018 108.341 11.6018 117.934 21.1947L123.591 15.5379ZM77.5379 15.5379C64.8207 28.255 64.8207 48.8736 77.5379 61.5908L83.1947 55.9339C73.6018 46.341 73.6018 30.7877 83.1947 21.1947L77.5379 15.5379ZM161.696 55.9339C148.979 68.6511 148.979 89.2697 161.696 101.987L167.353 96.33C157.76 86.737 157.76 71.1837 167.353 61.5908L161.696 55.9339ZM161.696 101.987C174.413 114.704 195.032 114.704 207.749 101.987L202.092 96.33C192.499 105.923 176.946 105.923 167.353 96.33L161.696 101.987ZM191.441 39.6257L169.206 17.3902L163.549 23.0471L185.784 45.2825L191.441 39.6257ZM184.996 46.3972C176.578 46.327 168.124 49.5065 161.696 55.9339L167.353 61.5908C172.203 56.7413 178.567 54.3439 184.929 54.3969L184.996 46.3972ZM218.401 77.899L240.636 100.134L246.293 94.4776L224.057 72.2422L218.401 77.899ZM207.749 101.987C214.177 95.5594 217.356 87.1056 217.286 78.6874L209.286 78.7541C209.339 85.1157 206.942 91.4804 202.092 96.33L207.749 101.987ZM137.239 47.9424L162.134 23.0471L156.478 17.3902L131.582 42.2855L137.239 47.9424ZM132.863 42.7252C134.1 33.0753 131.012 22.9593 123.591 15.5379L117.934 21.1947C123.529 26.7902 125.864 34.4097 124.928 41.708L132.863 42.7252ZM77.5379 61.5908C85.6607 69.7136 97.007 72.6437 107.444 70.3972L105.76 62.5763C97.8666 64.2755 89.3169 62.0561 83.1947 55.9339L77.5379 61.5908ZM85.0471 100.134L111.778 73.4035L106.121 67.7466L79.3902 94.4776L85.0471 100.134ZM106.121 69.9761C105.506 69.3604 105.506 68.3623 106.121 67.7466L111.778 73.4035C114.287 70.8949 114.287 66.8278 111.778 64.3192L106.121 69.9761ZM107.444 70.3972C107.069 70.4778 106.545 70.3999 106.121 69.9761L111.778 64.3192C110.131 62.672 107.827 62.1316 105.76 62.5763L107.444 70.3972ZM124.928 41.708C124.651 43.8668 125.287 46.2208 127.008 47.9424L132.665 42.2855C132.874 42.4943 132.868 42.6883 132.863 42.7252L124.928 41.708ZM131.582 42.2855C131.881 41.9865 132.366 41.9865 132.665 42.2855L127.008 47.9424C129.833 50.7675 134.414 50.7676 137.239 47.9424L131.582 42.2855ZM85.0471 101.549C84.6566 101.158 84.6566 100.525 85.0471 100.134L79.3902 94.4776C75.8755 97.9923 75.8755 103.691 79.3902 107.206L85.0471 101.549ZM217.286 78.6874C217.282 78.2397 217.437 77.9924 217.53 77.899L211.873 72.2422C210.047 74.0681 209.267 76.4876 209.286 78.7541L217.286 78.6874ZM163.549 178.636C163.158 179.027 162.525 179.027 162.134 178.636L156.478 184.293C159.992 187.808 165.691 187.808 169.206 184.293L163.549 178.636ZM224.057 72.2422C220.693 68.8776 215.238 68.8776 211.873 72.2422L217.53 77.899C217.77 77.6586 218.16 77.6586 218.401 77.899L224.057 72.2422ZM246.293 107.206C249.808 103.691 249.808 97.9923 246.293 94.4776L240.636 100.134C241.027 100.525 241.027 101.158 240.636 101.549L246.293 107.206ZM185.784 45.2825C186.025 45.5229 186.025 45.9127 185.784 46.153L191.441 51.8099C194.806 48.4453 194.806 42.9903 191.441 39.6257L185.784 45.2825ZM184.929 54.3969C187.196 54.4158 189.615 53.6358 191.441 51.8099L185.784 46.153C185.691 46.2464 185.443 46.4009 184.996 46.3972L184.929 54.3969ZM169.206 17.3902C165.691 13.8755 159.992 13.8755 156.478 17.3902L162.134 23.0471C162.525 22.6566 163.158 22.6566 163.549 23.0471L169.206 17.3902Z" fill="#00F3C8"/>
</svg>
