<svg width="178" height="133" viewBox="0 0 178 133" fill="none" xmlns="http://www.w3.org/2000/svg">
<path d="M79.9753 53.0334L60.8903 66.6363C58.5047 68.4501 52.4384 70.5132 47.2582 64.2558C42.078 57.9985 37.6021 48.7258 36.0116 44.8716M36.0116 44.8716C34.3076 41.9243 32.8762 35.2136 40.7829 31.9488C50.6662 27.868 83.3835 15.9654 114.397 33.3091C145.41 50.6529 154.565 42.0297 156 37.5297C157.435 33.0297 161.768 9.16393 133.822 17.3257C127.824 12.1566 127.046 8.75643 127.5 8.52971C133.634 5.46905 173.5 -7.97029 173.5 33.3091C173.5 61.1146 155.5 70.5297 142.343 81.9396C133.822 89.3281 127.006 94.5223 127.006 125.809C122.644 125.809 113.829 125.809 109.966 125.809C109.966 110.506 79.9754 99.6234 74.1818 127.169H59.1864C59.1864 111.866 29.1957 100.984 23.402 128.53H6.36179C1.59051 109.826 0.840691 66.9084 36.0116 44.8716Z" stroke="#00F3C8" stroke-width="8" stroke-linecap="round" stroke-linejoin="round"/>
</svg>
