<svg width="157" height="174" viewBox="0 0 157 174" fill="none" xmlns="http://www.w3.org/2000/svg">
<path d="M137.619 108.943C146.114 108.943 153 115.777 153 124.207C153 132.637 146.114 139.471 137.619 139.471C130.886 139.471 125.163 135.177 123.079 129.197M137.619 108.943C135.417 108.943 133.323 109.402 131.429 110.229M137.619 108.943V68.8736M137.619 68.8736C146.114 68.8736 153 62.0395 153 53.6092C153 45.1789 146.114 38.3448 137.619 38.3448C132.075 38.3448 127.216 41.256 124.51 45.6221M137.619 68.8736C129.125 68.8736 122.239 62.0395 122.239 53.6092C122.239 50.6811 123.069 47.9456 124.51 45.6221M19.3806 68.8736C27.8751 68.8736 34.7613 62.0395 34.7613 53.6092C34.7613 50.6811 33.9306 47.9456 32.4902 45.6221M19.3806 68.8736C10.8861 68.8736 4 62.0395 4 53.6092C4 45.1789 10.8861 38.3448 19.3806 38.3448C24.9247 38.3448 29.7837 41.256 32.4902 45.6221M19.3806 68.8736V108.943M19.3806 108.943C10.8861 108.943 4 115.777 4 124.207C4 132.637 10.8861 139.471 19.3806 139.471C26.1142 139.471 31.8371 135.177 33.9205 129.197M19.3806 108.943C21.5828 108.943 23.6769 109.402 25.5709 110.229M32.4902 45.6221L65.539 26.6893M70.9305 32.2735C68.6871 30.9033 66.8251 28.9775 65.539 26.6893M70.9305 32.2735C73.2721 33.7038 76.0293 34.5287 78.9806 34.5287C81.6345 34.5287 84.1314 33.8617 86.3103 32.6873M70.9305 32.2735L25.5709 110.229M65.539 26.6893C64.3038 24.4916 63.6 21.9596 63.6 19.2644C63.6 10.8341 70.4861 4 78.9806 4C87.4751 4 94.3613 10.8341 94.3613 19.2644C94.3613 22.13 93.5656 24.8112 92.1816 27.1022M86.3103 32.6873C88.735 31.3805 90.7661 29.4454 92.1816 27.1022M86.3103 32.6873L131.429 110.229M92.1816 27.1022L124.51 45.6221M122.608 120.868C123.682 116.091 127.011 112.159 131.429 110.229M122.608 120.868C122.366 121.943 122.239 123.06 122.239 124.207C122.239 125.955 122.535 127.634 123.079 129.197M122.608 120.868H34.3922M123.079 129.197L92.1816 146.898M65.539 147.311C64.3038 149.508 63.6 152.04 63.6 154.736C63.6 163.166 70.4861 170 78.9806 170C87.4751 170 94.3613 163.166 94.3613 154.736C94.3613 151.87 93.5656 149.189 92.1816 146.898M65.539 147.311C68.1674 142.634 73.2019 139.471 78.9806 139.471C84.5877 139.471 89.494 142.449 92.1816 146.898M65.539 147.311L33.9205 129.197M33.9205 129.197C34.4654 127.634 34.7613 125.955 34.7613 124.207C34.7613 123.06 34.6338 121.943 34.3922 120.868M34.3922 120.868C33.3182 116.091 29.9887 112.159 25.5709 110.229" stroke="#FF47B5" stroke-width="8"/>
</svg>
