<svg width="203" height="203" viewBox="0 0 203 203" fill="none" xmlns="http://www.w3.org/2000/svg">
<mask id="mask0_509_108" style="mask-type:alpha" maskUnits="userSpaceOnUse" x="0" y="-17" width="203" height="236">
<path fill-rule="evenodd" clip-rule="evenodd" d="M203 -17H0V218.802H203V-17ZM126.871 98.1161C158.559 157.531 113.668 172.797 87.2613 173.003C85.1983 173.828 79.4636 170.775 73.0287 151.96C96.5488 147.009 125.018 135.869 119.446 125.966C66.2223 164.338 57.8339 122.872 73.0287 98.1161C117.095 26.3235 147.916 72.4277 116.352 108.019C87.2613 140.82 77.361 101.21 100.879 85.119L104.593 94.4025C86.7701 117.673 114.269 117.302 116.352 88.8325C119.323 48.2325 83.737 88.8323 81.0723 108.019C74.8832 152.579 119.446 127.204 126.871 98.1161Z" fill="#D9D9D9"/>
</mask>
<g mask="url(#mask0_509_108)">
<path d="M101.5 10.8506L130.137 72.9353L198.032 80.9854L147.835 127.406L161.16 194.466L101.5 161.071L41.8398 194.466L55.1645 127.406L4.96777 80.9854L72.8631 72.9353L101.5 10.8506Z" stroke="#2EB4FF" stroke-width="8" stroke-linejoin="round"/>
</g>
<path d="M129.459 95.0654C131.442 90.5179 132.629 86.0198 133.074 81.7773C134.016 72.7935 131.634 64.2681 125.463 59.6063C119.032 54.7488 110.135 55.2534 100.751 60.9513C91.3903 66.6349 80.7973 77.8127 69.6198 96.0231L69.6198 96.0232C65.4962 102.741 62.9666 110.585 62.3984 118.002C61.8357 125.344 63.1702 132.791 67.4429 138.195C70.9548 142.636 76.0852 145.243 82.5715 145.533C79.1029 146.483 75.6067 147.33 72.2048 148.046C71.0837 148.282 70.1176 148.987 69.5514 149.983C68.9852 150.979 68.8733 152.17 69.2441 153.254C72.5341 162.874 75.7684 168.855 78.7046 172.398C80.174 174.172 81.7004 175.495 83.2831 176.286C84.5905 176.94 86.2014 177.345 87.8287 176.997C101.431 176.792 120.256 172.782 131.77 160.498C137.723 154.146 141.581 145.713 141.763 134.921C141.943 124.234 138.521 111.459 130.401 96.2332C130.158 95.7789 129.837 95.3856 129.459 95.0654ZM98.9064 124.503C100.994 124.212 103.176 123.484 105.443 122.313C102.721 124.372 99.9771 125.958 97.412 126.959C92.3669 128.929 89.1647 128.3 87.4057 126.536C85.7832 124.909 84.2734 121.335 84.5072 114.409C84.6953 115.096 84.9197 115.764 85.1811 116.408C86.22 118.967 87.9019 121.276 90.3358 122.812C92.8078 124.373 95.7501 124.942 98.9064 124.503ZM102.043 81.2914C101.748 81.2019 101.447 81.1475 101.146 81.1273C101.905 80.3821 102.66 79.6907 103.405 79.0625C105.433 77.3513 107.199 76.2655 108.583 75.7543C109.971 75.2418 110.471 75.4715 110.562 75.5208C110.675 75.5816 111.371 76.0269 111.921 78.1956C112.466 80.3468 112.719 83.6728 112.363 88.5401C111.889 95.0198 109.987 99.6654 107.861 102.679C105.789 105.617 103.704 106.765 102.614 107.024C102.645 105.565 103.64 102.225 107.768 96.8342C108.626 95.7145 108.831 94.2259 108.307 92.9165L104.593 83.6329C104.143 82.5058 103.204 81.6445 102.043 81.2914ZM102.116 107.08C102.116 107.08 102.122 107.081 102.132 107.083C102.121 107.082 102.116 107.081 102.116 107.08ZM102.654 107.52C102.656 107.527 102.657 107.53 102.657 107.53C102.657 107.531 102.656 107.527 102.654 107.52Z" stroke="#D6E0E3" stroke-width="8" stroke-linejoin="round"/>
</svg>
