<svg width="261" height="171" viewBox="0 0 261 171" fill="none" xmlns="http://www.w3.org/2000/svg">
<path d="M72.259 166.572H113.142L119.68 156.791L140.121 126.21L146.81 116.204L180.478 166.572H222.112L167.627 85.061L147.186 54.4805L140.497 44.4743L119.68 13.3316L113.442 4H71.8081L98.8629 44.4743L119.68 75.617L126.369 85.6232L119.68 95.6293L99.2386 126.21L72.259 166.572Z" fill="#8710FF" stroke="#8710FF" stroke-width="8" stroke-linejoin="round"/>
<path d="M4 166.572H45.6343L99.7438 85.6232L45.1833 4H4.30061L58.4853 85.061L4 166.572Z" stroke="#8710FF" stroke-width="8" stroke-linejoin="round"/>
<path d="M256.716 54.4805H168.488L184.27 78.0872H256.716V54.4805Z" stroke="#8710FF" stroke-width="8" stroke-linejoin="round"/>
<path d="M195.843 95.6293L211.625 119.236H256.716V95.6293H195.843Z" stroke="#8710FF" stroke-width="8" stroke-linejoin="round"/>
</svg>
