<svg width="149" height="120" viewBox="0 0 149 120" fill="none" xmlns="http://www.w3.org/2000/svg">
<path d="M24.1306 4C33.6548 4 40.0764 7.89088 43.3954 15.6726L73.8439 91.509L74.9983 94.0153C76.6338 97.4527 78.7022 99.1952 81.2035 99.243H85.2347H86.5241V116C83.3005 116 79.3275 116 76.0085 116C70.6692 116 66.2919 114.83 62.8767 112.491C59.5095 110.104 56.8158 106.213 54.7955 100.818L42.4574 67.2327L26.5117 114.711H4L31.6345 39.0179L26.4395 27.202C25.4775 24.815 24.2509 23.1441 22.7597 22.1893C21.2686 21.2344 19.3926 20.757 17.1318 20.757L12.9469 20.9719L12.514 5.57545C15.8812 4.52515 19.7534 4 24.1306 4Z" stroke="#8710FF" stroke-width="8" stroke-linejoin="round"/>
<path d="M84.7398 65.7931L74.9192 41.3333H145V65.7931H84.7398Z" stroke="#8710FF" stroke-width="8" stroke-linejoin="round"/>
<path d="M91.5674 82.4291C93.2028 85.8665 95.2712 87.609 97.7725 87.6568H99.2156L100.37 87.5851L100.514 103.913V104.414H145V79.954H90.4273L91.5674 82.4291Z" stroke="#8710FF" stroke-width="8" stroke-linejoin="round"/>
</svg>
