<svg width="129" height="144" viewBox="0 0 129 144" fill="none" xmlns="http://www.w3.org/2000/svg">
<path d="M69.7023 5.48875L118.736 33.7986C119.89 34.4644 120.894 35.3195 121.72 36.3119C123.357 38.2783 124.293 40.7836 124.293 43.422V71.7319V100.042C124.293 102.093 123.727 104.063 122.707 105.763C121.752 107.353 120.398 108.706 118.736 109.665L69.7023 137.975C67.9833 138.968 66.0648 139.464 64.1463 139.464C62.2278 139.464 60.3092 138.968 58.5902 137.975L9.55607 109.665C7.89422 108.706 6.5408 107.353 5.58592 105.763C4.56531 104.063 4 102.093 4 100.042V71.7319V43.422C4 39.452 6.11796 35.7836 9.55607 33.7986L58.5902 5.48874C60.3093 4.49625 62.2278 4 64.1463 4C66.0648 4 67.9833 4.49625 69.7023 5.48875Z" stroke="#FFA800" stroke-width="8"/>
<path fill-rule="evenodd" clip-rule="evenodd" d="M35.8547 100.738C52.2371 117.12 78.7982 117.12 95.1806 100.738L84.5019 90.0591C74.0172 100.544 57.0181 100.544 46.5333 90.0591C36.0486 79.5743 36.0486 62.5752 46.5333 52.0905C57.0181 41.6057 74.0172 41.6057 84.5019 52.0905L95.1806 41.4118C78.7982 25.0294 52.2371 25.0294 35.8547 41.4118C19.4723 57.7942 19.4723 84.3553 35.8547 100.738Z" fill="#D6E0E3"/>
<path d="M107 69.706H98.2269V88H91.7227V69.706H83V63.5617H91.7227V55H98.2269V63.5617H107V69.706Z" fill="#D6E0E3"/>
</svg>
