<svg width="132" height="148" viewBox="0 0 132 148" fill="none" xmlns="http://www.w3.org/2000/svg">
<path d="M22 36H39.4255V64.6364H67.5745V36H85V111H67.5745V82.3636H39.4255V111H22V36Z" fill="#D6E0E3"/>
<path d="M69.598 5.08644L123.032 35.9366C123.874 36.4229 124.607 37.0466 125.209 37.7703C126.405 39.2065 127.087 41.0346 127.087 42.9595V73.8097V104.66C127.087 106.157 126.675 107.594 125.929 108.835C125.232 109.996 124.245 110.982 123.032 111.683L69.598 142.533C68.3434 143.257 66.9442 143.619 65.5434 143.619C64.1425 143.619 62.7434 143.257 61.4887 142.533L8.05463 111.683C6.84166 110.982 5.85456 109.996 5.1574 108.835C4.41211 107.594 4 106.157 4 104.66V73.8097V42.9595C4 40.0623 5.54562 37.3852 8.05464 35.9366L61.4887 5.08644C62.7434 4.36207 64.1425 4 65.5434 4C66.9442 4 68.3434 4.36207 69.598 5.08644Z" stroke="#2B66FF" stroke-width="8"/>
<path d="M117.786 88.3503H109.091V96.7049H102.645V88.3503H94V82.3546H102.645V74H109.091V82.3546H117.786V88.3503Z" fill="#D6E0E3"/>
<path d="M117.786 56.3503H109.091V64.7049H102.645V56.3503H94V50.3546H102.645V42H109.091V50.3546H117.786V56.3503Z" fill="#D6E0E3"/>
</svg>
