<svg width="223" height="223" viewBox="0 0 223 223" fill="none" xmlns="http://www.w3.org/2000/svg">
<rect x="4" y="4" width="215" height="215" stroke="#FFA800" stroke-width="8" stroke-linejoin="round"/>
<path d="M98.876 73.7671L69.8989 160H49.5801L87.5645 58.3359H100.552L98.876 73.7671ZM123.105 160L93.9883 73.7671L92.2427 58.3359H105.3L143.494 160H123.105ZM121.778 122.225V137.377H67.2456V122.225H121.778Z" fill="#FFA800"/>
<path d="M164.972 84.4502V160H146.468V84.4502H164.972ZM145.211 64.6899C145.211 61.9435 146.142 59.6626 148.004 57.8472C149.913 56.0317 152.473 55.124 155.685 55.124C158.897 55.124 161.434 56.0317 163.296 57.8472C165.204 59.6626 166.159 61.9435 166.159 64.6899C166.159 67.3898 165.204 69.6475 163.296 71.4629C161.434 73.2783 158.897 74.186 155.685 74.186C152.473 74.186 149.913 73.2783 148.004 71.4629C146.142 69.6475 145.211 67.3898 145.211 64.6899Z" fill="#FFA800"/>
</svg>
