<svg width="223" height="223" viewBox="0 0 223 223" fill="none" xmlns="http://www.w3.org/2000/svg">
<rect x="4" y="4" width="215" height="215" stroke="#FF4D35" stroke-width="8" stroke-linejoin="round"/>
<path d="M87.3547 58.3359V160H68.1531V58.3359H87.3547Z" fill="#FF4D35"/>
<path d="M130.548 146.873C133.155 146.873 135.482 146.361 137.53 145.337C139.579 144.313 141.208 142.87 142.418 141.008C143.675 139.146 144.35 136.981 144.443 134.514H161.829C161.736 139.635 160.293 144.22 157.5 148.27C154.707 152.319 150.983 155.531 146.328 157.905C141.72 160.233 136.553 161.396 130.827 161.396C125.009 161.396 119.935 160.419 115.606 158.464C111.277 156.509 107.669 153.786 104.783 150.294C101.943 146.803 99.8021 142.753 98.359 138.145C96.9626 133.537 96.2643 128.602 96.2643 123.342V121.108C96.2643 115.848 96.9626 110.914 98.359 106.305C99.8021 101.697 101.943 97.647 104.783 94.1558C107.669 90.6646 111.277 87.9414 115.606 85.9863C119.935 84.0312 124.985 83.0537 130.757 83.0537C136.855 83.0537 142.209 84.2407 146.817 86.6147C151.472 88.9888 155.103 92.3403 157.71 96.6694C160.363 100.999 161.736 106.096 161.829 111.961H144.443C144.35 109.261 143.745 106.84 142.628 104.699C141.51 102.558 139.928 100.836 137.88 99.5322C135.831 98.2288 133.341 97.5771 130.408 97.5771C127.29 97.5771 124.683 98.2288 122.588 99.5322C120.54 100.836 118.934 102.628 117.77 104.909C116.653 107.143 115.862 109.657 115.396 112.45C114.977 115.196 114.768 118.082 114.768 121.108V123.342C114.768 126.415 114.977 129.347 115.396 132.14C115.862 134.933 116.653 137.447 117.77 139.681C118.934 141.869 120.54 143.615 122.588 144.918C124.683 146.221 127.336 146.873 130.548 146.873Z" fill="#FF4D35"/>
</svg>
