<svg width="223" height="223" viewBox="0 0 223 223" fill="none" xmlns="http://www.w3.org/2000/svg">
<rect x="4" y="4" width="215" height="215" stroke="#FF47B5" stroke-width="8" stroke-linejoin="round"/>
<path d="M84.3525 58.3359V160H65.1509V58.3359H84.3525Z" fill="#FF47B5"/>
<path d="M141.86 143.94V52.75H160.433V160H143.675L141.86 143.94ZM93.3319 123.133V121.667C93.3319 115.894 93.9836 110.658 95.287 105.956C96.6369 101.208 98.592 97.1349 101.152 93.7368C103.712 90.3387 106.808 87.7087 110.439 85.8467C114.116 83.9847 118.282 83.0537 122.937 83.0537C127.453 83.0537 131.386 83.9614 134.738 85.7769C138.136 87.5923 141.022 90.1758 143.396 93.5273C145.816 96.8789 147.748 100.859 149.191 105.467C150.634 110.029 151.682 115.056 152.333 120.549V124.529C151.682 129.882 150.634 134.793 149.191 139.262C147.748 143.731 145.816 147.641 143.396 150.993C141.022 154.298 138.136 156.858 134.738 158.673C131.34 160.489 127.36 161.396 122.798 161.396C118.189 161.396 114.046 160.442 110.369 158.534C106.738 156.625 103.643 153.949 101.082 150.504C98.5688 147.059 96.6369 143.009 95.287 138.354C93.9836 133.7 93.3319 128.626 93.3319 123.133ZM111.835 121.667V123.133C111.835 126.391 112.115 129.44 112.673 132.28C113.232 135.119 114.14 137.633 115.396 139.821C116.653 141.962 118.259 143.638 120.214 144.848C122.216 146.058 124.636 146.664 127.476 146.664C131.107 146.664 134.086 145.872 136.413 144.29C138.788 142.66 140.626 140.449 141.93 137.656C143.233 134.817 144.071 131.628 144.443 128.09V117.128C144.257 114.335 143.768 111.751 142.977 109.377C142.232 107.003 141.162 104.955 139.765 103.233C138.415 101.511 136.739 100.161 134.738 99.1831C132.736 98.2056 130.362 97.7168 127.616 97.7168C124.776 97.7168 122.356 98.3452 120.354 99.6021C118.352 100.812 116.723 102.511 115.466 104.699C114.209 106.887 113.278 109.424 112.673 112.31C112.115 115.196 111.835 118.315 111.835 121.667Z" fill="#FF47B5"/>
</svg>
