<svg width="100" height="100" viewBox="0 0 126 164" fill="none" xmlns="http://www.w3.org/2000/svg">
<path d="M122 62.5L63 4V41.5252C63 53.1093 72.3921 62.5 83.9778 62.5H122Z" fill="#B339EC"/>
<path d="M63 4L65.8164 1.15956C65.0672 0.416768 64.055 0 63 0V4ZM122 62.5H126C126 61.4332 125.574 60.4107 124.816 59.6596L122 62.5ZM101.022 156H24.9778V164H101.022V156ZM8 139.025V24.9748H0V139.025H8ZM24.9778 8H63V0H24.9778V8ZM124.816 59.6596L65.8164 1.15956L60.1836 6.84044L119.184 65.3404L124.816 59.6596ZM24.9778 156C15.6007 156 8 148.4 8 139.025H0C0 152.819 11.1835 164 24.9778 164V156ZM101.022 164C114.817 164 126 152.819 126 139.025H118C118 148.4 110.399 156 101.022 156V164ZM83.9778 58.5C74.6007 58.5 67 50.8996 67 41.5252H59C59 55.3189 70.1835 66.5 83.9778 66.5V58.5ZM8 24.9748C8 15.6004 15.6007 8 24.9778 8V0C11.1835 0 0 11.1811 0 24.9748H8ZM118 62.5V139.025H126V62.5H118ZM67 41.5252V4H59V41.5252H67ZM83.9778 66.5H122V58.5H83.9778V66.5Z" fill="#B339EC"/>
<path d="M22.449 127.628C23.8794 127.628 24.9838 128.035 25.7621 128.851C26.5405 129.645 26.9296 130.648 26.9296 131.861C26.9296 133.052 26.5405 134.045 25.7621 134.84C24.9838 135.613 23.8794 136 22.449 136C21.0817 136 19.9984 135.613 19.199 134.84C18.3997 134.066 18 133.073 18 131.861C18 130.648 18.3892 129.645 19.1675 128.851C19.9458 128.035 21.0396 127.628 22.449 127.628Z" fill="#B339EC"/>
<path d="M44.8835 134.655C44.8835 135.207 44.4358 135.655 43.8835 135.655H37.932C37.3798 135.655 36.932 135.207 36.932 134.655V91C36.932 90.4477 37.3798 90 37.932 90H43.8835C44.4358 90 44.8835 90.4477 44.8835 91V134.655Z" fill="#B339EC"/>
<path d="M91.1408 134.655C91.1408 135.207 90.6931 135.655 90.1408 135.655H83.7086C83.3657 135.655 83.0467 135.479 82.8634 135.189L64.5249 106.183C63.9894 105.336 62.6796 105.715 62.6796 106.717V134.655C62.6796 135.207 62.2319 135.655 61.6796 135.655H55.6966C55.1443 135.655 54.6966 135.207 54.6966 134.655V91C54.6966 90.4477 55.1443 90 55.6966 90H62.1285C62.4716 90 62.7907 90.1759 62.9739 90.4659L81.3754 119.595C81.9107 120.443 83.2209 120.063 83.2209 119.061V91C83.2209 90.4477 83.6686 90 84.2209 90H90.1408C90.6931 90 91.1408 90.4477 91.1408 91V134.655Z" fill="#B339EC"/>
<path d="M109 134.655C109 135.207 108.552 135.655 108 135.655H102.049C101.496 135.655 101.049 135.207 101.049 134.655V91C101.049 90.4477 101.496 90 102.049 90H108C108.552 90 109 90.4477 109 91V134.655Z" fill="#B339EC"/>
</svg>
