<svg width="136" height="136" viewBox="0 0 136 136" fill="none" xmlns="http://www.w3.org/2000/svg">
<path d="M8 4C5.79086 4 4 5.79086 4 8V128C4 130.209 5.79086 132 8 132H128C130.209 132 132 130.209 132 128V8C132 5.79086 130.209 4 128 4H8ZM69.0916 100.892V71.3565H71.0724V100.892C71.0724 103.36 70.5286 105.38 69.5487 107.071L69.5428 107.081C68.5844 108.746 67.2409 110.035 65.4147 110.98C63.5633 111.939 61.4006 112.462 58.837 112.462C54.3811 112.462 51.4661 111.344 49.5536 109.612C48.4332 108.586 47.5724 107.255 47.0692 105.491H49.0907C49.4692 106.913 50.1063 108.252 51.1134 109.394C53.1498 111.702 56.0408 112.444 58.837 112.444C61.772 112.444 64.4464 111.381 66.421 109.097C68.3907 106.818 69.0916 103.89 69.0916 100.892ZM113.836 76.0811C114.168 76.5839 114.45 77.1096 114.68 77.6623H112.81C112.263 76.1011 111.349 74.6825 110.004 73.5043C108.221 71.9244 106.049 71.0951 103.728 70.7864C105.798 70.9813 107.608 71.4707 109.193 72.2114L109.217 72.2227C111.302 73.1794 112.785 74.4664 113.821 76.0583L113.836 76.0811ZM93.8621 72.1127C95.1895 71.5609 96.6429 71.1606 98.2353 70.928C96.4645 71.2637 94.7973 71.9201 93.3576 73.0244C91.0188 74.7952 89.7524 77.3228 89.7524 80.265C89.7524 83.4544 91.4598 85.9054 93.8743 87.5378L93.8958 87.5522C95.9672 88.9331 98.7361 90.0679 101.977 91.0473L101.982 91.0487C107.392 92.6758 110.822 94.557 112.752 96.4376C114.54 98.1796 115.436 100.28 115.436 103.021C115.436 106.035 114.379 108.113 112.275 109.705C110.599 110.957 108.344 111.863 105.348 112.251C106.937 111.928 108.437 111.343 109.756 110.398L109.792 110.372C112.207 108.601 113.422 106.02 113.422 103.088C113.422 100.142 112.314 97.4368 109.843 95.5755C107.925 94.1111 104.965 92.8834 101.472 91.7633C98.1293 90.67 95.643 89.6482 93.9203 88.7208C89.3458 86.2481 87.7717 83.4191 87.7717 80.2317C87.7717 78.4151 88.2619 76.9104 89.215 75.5804C90.1993 74.2153 91.6776 73.0299 93.8621 72.1127ZM92.117 109.64C93.1649 110.517 94.3529 111.163 95.6357 111.622C94.832 111.388 94.0597 111.106 93.3172 110.779C90.8262 109.657 89.1171 108.227 87.9812 106.566C87.5632 105.943 87.2175 105.277 86.9491 104.559H88.8312C89.4028 106.498 90.4543 108.249 92.117 109.64Z" stroke="#FFD600" stroke-width="8" stroke-linejoin="round"/>
</svg>
