<svg width="133" height="141" viewBox="0 0 133 141" fill="none" xmlns="http://www.w3.org/2000/svg">
<path d="M22.4484 85.1711C31.0512 85.1711 38.0252 78.2854 38.0252 69.7913C38.0252 61.2973 31.0512 54.4115 22.4484 54.4115C13.8456 54.4115 6.87165 61.2973 6.87165 69.7913C6.87165 74.7459 9.24446 79.1533 12.9293 81.9661M22.4484 85.1711C20.9523 100.266 27.5116 121.399 65.7172 85.1711M22.4484 85.1711C18.8636 85.1711 15.5617 83.9755 12.9293 81.9661M65.7172 85.1711C57.1144 85.1711 50.1404 78.2854 50.1404 69.7913C50.1404 61.2973 57.1144 54.4115 65.7172 54.4115M65.7172 85.1711C74.32 85.1711 81.2939 78.2854 81.2939 69.7913M81.2939 69.7913C81.2939 61.2973 74.32 54.4115 65.7172 54.4115M81.2939 69.7913H93.4092M65.7172 54.4115L50.1404 4H87.3516H124.563L108.986 54.4115M65.7172 54.4115L87.3516 29.633L108.986 54.4115M93.4092 69.7913C93.4092 78.2854 100.383 85.1711 108.986 85.1711C114.387 85.1711 119.145 82.4574 121.94 78.3357M93.4092 69.7913C93.4092 61.2973 100.383 54.4115 108.986 54.4115M108.986 54.4115C117.589 54.4115 124.563 61.2973 124.563 69.7913C124.563 72.953 123.596 75.8918 121.94 78.3357M12.9293 81.9661C-17.6845 141.605 38.0254 145.861 65.7172 124.5C71.2478 120.234 89.4216 114.227 105 118.5C130.96 125.62 133.5 85.1711 121.94 78.3357" stroke="#FF4D35" stroke-width="8" stroke-linejoin="round"/>
</svg>
