<svg width="262" height="262" viewBox="0 0 262 262" fill="none" xmlns="http://www.w3.org/2000/svg">
<path d="M4 4H258V258" stroke="#FFD600" stroke-width="8" stroke-linecap="round" stroke-linejoin="round"/>
<path d="M4 4V258H258" stroke="#FF47B5" stroke-width="8" stroke-linecap="round" stroke-linejoin="round"/>
<path d="M4 4H131" stroke="#FFA800" stroke-width="8" stroke-linecap="round" stroke-linejoin="round"/>
<rect x="37" y="37" width="190" height="190" fill="#524E5A"/>
<path d="M34.8428 34.8428H227.157V227.157" stroke="#FFD600" stroke-width="8" stroke-linecap="round" stroke-linejoin="round"/>
<path d="M34.8428 34.8428V227.157H227.157" stroke="#FF47B5" stroke-width="8" stroke-linecap="round" stroke-linejoin="round"/>
<path d="M34.8428 34.8428H131" stroke="#FFA800" stroke-width="8" stroke-linecap="round" stroke-linejoin="round"/>
<path d="M119 194V209H52V194H119Z" fill="#D6E0E3"/>
<path d="M99.3037 132.386V63H118.211V132.386C118.211 139.001 116.768 144.68 113.88 149.425C110.992 154.124 107.05 157.727 102.054 160.236C97.0577 162.745 91.4198 164 85.1401 164C78.6771 164 72.9475 162.928 67.9513 160.784C62.955 158.594 59.036 155.264 56.1941 150.793C53.398 146.323 52 140.643 52 133.755H70.9765C70.9765 137.495 71.5495 140.506 72.6954 142.787C73.8413 145.068 75.4685 146.71 77.577 147.714C79.7314 148.718 82.2524 149.22 85.1401 149.22C87.9362 149.22 90.3885 148.581 92.497 147.304C94.6513 145.981 96.3243 144.065 97.5161 141.556C98.7079 139.047 99.3037 135.99 99.3037 132.386Z" fill="#D6E0E3"/>
<path d="M175.347 118.222H149.77L149.633 104.946H171.566C175.324 104.946 178.464 104.422 180.985 103.373C183.506 102.323 185.408 100.795 186.692 98.7879C188.021 96.7807 188.686 94.3401 188.686 91.4661C188.686 88.2728 188.067 85.6725 186.829 83.6653C185.638 81.6581 183.758 80.1983 181.191 79.2859C178.625 78.3279 175.37 77.8489 171.428 77.8489H155.889V162.631H136.982V63H171.428C177.112 63 182.177 63.5474 186.623 64.6423C191.115 65.6915 194.92 67.3338 198.037 69.5691C201.153 71.8044 203.514 74.61 205.118 77.9858C206.768 81.3616 207.594 85.376 207.594 90.0291C207.594 94.1348 206.631 97.9212 204.706 101.388C202.827 104.81 199.916 107.592 195.974 109.736C192.078 111.881 187.127 113.112 181.123 113.432L175.347 118.222ZM174.522 162.631H144.201L152.108 147.851H174.522C178.281 147.851 181.375 147.235 183.804 146.003C186.279 144.772 188.113 143.084 189.305 140.94C190.542 138.75 191.161 136.241 191.161 133.413C191.161 130.311 190.611 127.619 189.511 125.338C188.457 123.057 186.761 121.301 184.423 120.069C182.131 118.837 179.106 118.222 175.347 118.222H155.683L155.821 104.946H180.848L185.179 110.079C190.955 110.124 195.653 111.265 199.274 113.5C202.941 115.735 205.645 118.609 207.387 122.122C209.129 125.635 210 129.421 210 133.481C210 139.868 208.602 145.228 205.806 149.562C203.056 153.895 199.022 157.157 193.705 159.347C188.434 161.537 182.039 162.631 174.522 162.631Z" fill="#D6E0E3"/>
</svg>
