<svg width="262" height="262" viewBox="0 0 262 262" fill="none" xmlns="http://www.w3.org/2000/svg">
<path d="M4 4H258V258" stroke="#FFD600" stroke-width="8" stroke-linecap="round" stroke-linejoin="round"/>
<path d="M4 4V258H258" stroke="#FF47B5" stroke-width="8" stroke-linecap="round" stroke-linejoin="round"/>
<path d="M4 4H131" stroke="#FFA800" stroke-width="8" stroke-linecap="round" stroke-linejoin="round"/>
<rect x="37" y="37" width="190" height="190" fill="#524E5A"/>
<path d="M34.8428 34.8428H227.157V227.157" stroke="#FFD600" stroke-width="8" stroke-linecap="round" stroke-linejoin="round"/>
<path d="M34.8428 34.8428V227.157H227.157" stroke="#FF47B5" stroke-width="8" stroke-linecap="round" stroke-linejoin="round"/>
<path d="M34.8428 34.8428H131" stroke="#FFA800" stroke-width="8" stroke-linecap="round" stroke-linejoin="round"/>
<path d="M91.5698 107.36V62.3047H103.789V107.36C103.789 111.656 102.856 115.344 100.99 118.424C99.1235 121.475 96.576 123.816 93.3472 125.445C90.1183 127.074 86.4748 127.889 82.4165 127.889C78.2397 127.889 74.5369 127.193 71.3081 125.8C68.0793 124.378 65.5465 122.216 63.71 119.313C61.903 116.41 60.9995 112.722 60.9995 108.249H73.2632C73.2632 110.678 73.6335 112.633 74.374 114.114C75.1146 115.595 76.1662 116.662 77.5288 117.313C78.9211 117.965 80.5503 118.291 82.4165 118.291C84.2235 118.291 85.8083 117.876 87.1709 117.047C88.5632 116.188 89.6444 114.944 90.4146 113.314C91.1847 111.685 91.5698 109.701 91.5698 107.36Z" fill="#D6E0E3"/>
<path d="M140.713 98.1626H124.184L124.095 89.5425H138.27C140.699 89.5425 142.728 89.2018 144.357 88.5205C145.986 87.8392 147.215 86.8468 148.045 85.5435C148.904 84.2401 149.333 82.6553 149.333 80.7891C149.333 78.7155 148.934 77.027 148.134 75.7236C147.364 74.4202 146.149 73.4723 144.49 72.8799C142.831 72.2578 140.728 71.9468 138.181 71.9468H128.139V127H115.919V62.3047H138.181C141.854 62.3047 145.127 62.6602 148 63.3711C150.903 64.0524 153.362 65.1188 155.376 66.5703C157.391 68.0218 158.916 69.8436 159.953 72.0356C161.02 74.2277 161.553 76.8345 161.553 79.856C161.553 82.522 160.931 84.9806 159.687 87.2319C158.472 89.4536 156.591 91.2606 154.043 92.6528C151.526 94.0451 148.326 94.8449 144.446 95.0522L140.713 98.1626ZM140.18 127H120.585L125.695 117.402H140.18C142.609 117.402 144.609 117.002 146.179 116.203C147.778 115.403 148.963 114.307 149.733 112.915C150.533 111.493 150.933 109.863 150.933 108.027C150.933 106.013 150.578 104.265 149.867 102.784C149.185 101.303 148.089 100.162 146.579 99.3623C145.097 98.5625 143.142 98.1626 140.713 98.1626H128.005L128.094 89.5425H144.268L147.067 92.875C150.8 92.9046 153.836 93.6452 156.176 95.0967C158.546 96.5482 160.294 98.4144 161.419 100.695C162.545 102.976 163.108 105.435 163.108 108.071C163.108 112.218 162.204 115.699 160.397 118.513C158.62 121.327 156.013 123.445 152.577 124.867C149.171 126.289 145.038 127 140.18 127Z" fill="#D6E0E3"/>
<path d="M99.5234 190V199.064H59.0444V190H99.5234Z" fill="#D6E0E3"/>
</svg>
