<svg width="100" height="100" viewBox="0 0 127 165" fill="none" xmlns="http://www.w3.org/2000/svg">
<path d="M123 62.875L63.5 4V41.7658C63.5 53.4241 72.9717 62.875 84.6556 62.875H123Z" fill="#FFD600"/>
<path d="M63.5 4L66.3135 1.15668C65.5646 0.41565 64.5535 0 63.5 0V4ZM123 62.875H127C127 61.8068 126.573 60.783 125.813 60.0317L123 62.875ZM101.844 157H25.1556V165H101.844V157ZM8 139.891V25.1092H0V139.891H8ZM25.1556 8H63.5V0H25.1556V8ZM125.813 60.0317L66.3135 1.15668L60.6865 6.84332L120.187 65.7183L125.813 60.0317ZM25.1556 157C15.6725 157 8 149.332 8 139.891H0C0 153.766 11.2708 165 25.1556 165V157ZM101.844 165C115.729 165 127 153.766 127 139.891H119C119 149.332 111.327 157 101.844 157V165ZM84.6556 58.875C75.1725 58.875 67.5 51.2067 67.5 41.7658H59.5C59.5 55.6415 70.7708 66.875 84.6556 66.875V58.875ZM8 25.1092C8 15.6683 15.6725 8 25.1556 8V0C11.2708 0 0 11.2335 0 25.1092H8ZM119 62.875V139.891H127V62.875H119ZM67.5 41.7658V4H59.5V41.7658H67.5ZM84.6556 66.875H123V58.875H84.6556V66.875Z" fill="#FFD600"/>
<path d="M34.6269 141.117C34.4529 141.614 33.9208 141.893 33.42 141.731C27.1853 139.712 24.0679 135.446 24.0679 128.932V123.339C24.0679 119.796 22.7114 117.841 19.9982 117.473C19.4509 117.399 19 116.961 19 116.409V112.591C19 112.039 19.4509 111.601 19.9983 111.528C22.6435 111.174 24.0001 109.331 24.0679 105.998V100.04C24.0679 96.5742 24.9221 93.7731 26.6304 91.6372C28.1859 89.6923 30.4496 88.2368 33.4215 87.2706C33.9224 87.1077 34.4538 87.3861 34.6288 87.8828L35.5831 90.591C35.7654 91.1082 35.4915 91.6677 35.0094 91.9291C34.0055 92.4733 33.215 93.2566 32.6379 94.279C31.8976 95.5718 31.5085 97.3705 31.4706 99.675V105.577C31.4706 109.045 30.331 111.665 28.0518 113.436C27.4038 113.94 27.4014 115.037 28.0475 115.543C30.3296 117.329 31.4706 119.966 31.4706 123.451V129.409C31.5547 133.294 32.7265 135.84 34.9862 137.048C35.4765 137.31 35.7623 137.875 35.5786 138.4L34.6269 141.117Z" fill="#FFD600"/>
<path d="M41.0507 127.892C41.0507 126.599 41.4873 125.55 42.3604 124.744C43.2525 123.938 44.3629 123.536 45.6916 123.536C47.0392 123.536 48.1496 123.938 49.0228 124.744C49.9149 125.55 50.3609 126.599 50.3609 127.892C50.3609 129.166 49.9244 130.206 49.0512 131.011C48.1781 131.798 47.0582 132.192 45.6916 132.192C44.3439 132.192 43.2335 131.798 42.3604 131.011C41.4873 130.206 41.0507 129.166 41.0507 127.892Z" fill="#FFD600"/>
<path d="M58.6029 127.892C58.6029 126.599 59.0394 125.55 59.9126 124.744C60.8047 123.938 61.9151 123.536 63.2438 123.536C64.5914 123.536 65.7018 123.938 66.5749 124.744C67.467 125.55 67.9131 126.599 67.9131 127.892C67.9131 129.166 67.4765 130.206 66.6034 131.011C65.7303 131.798 64.6104 132.192 63.2438 132.192C61.8961 132.192 60.7857 131.798 59.9126 131.011C59.0394 130.206 58.6029 129.166 58.6029 127.892Z" fill="#FFD600"/>
<path d="M76.1551 127.892C76.1551 126.599 76.5916 125.55 77.4648 124.744C78.3569 123.938 79.4673 123.536 80.7959 123.536C82.1436 123.536 83.254 123.938 84.1271 124.744C85.0192 125.55 85.4653 126.599 85.4653 127.892C85.4653 129.166 85.0287 130.206 84.1556 131.011C83.2825 131.798 82.1626 132.192 80.7959 132.192C79.4483 132.192 78.3379 131.798 77.4648 131.011C76.5916 130.206 76.1551 129.166 76.1551 127.892Z" fill="#FFD600"/>
<path d="M91.4182 138.391C91.2357 137.869 91.5165 137.307 92.0019 137.044C94.2861 135.807 95.462 133.225 95.5294 129.297V123.339C95.5294 119.913 96.6659 117.334 98.939 115.601C99.6093 115.089 99.6097 113.938 98.9412 113.424C96.6667 111.676 95.5294 109.051 95.5294 105.549V99.675C95.4618 95.7862 94.2796 93.2057 91.9827 91.9336C91.505 91.669 91.2335 91.1115 91.415 90.5963L92.3723 87.8796C92.5469 87.3842 93.0761 87.1057 93.5761 87.2665C96.531 88.2172 98.786 89.6647 100.341 91.6091C102.049 93.7263 102.913 96.5086 102.932 99.9561V105.998C103 109.331 104.356 111.174 107.002 111.528C107.549 111.601 108 112.039 108 112.591V116.409C108 116.961 107.549 117.399 107.002 117.472C104.289 117.837 102.932 119.773 102.932 123.283V129.381C102.787 135.638 99.6699 139.755 93.5803 141.73C93.0794 141.893 92.5469 141.614 92.3729 141.117L91.4182 138.391Z" fill="#FFD600"/>
</svg>
