<svg width="174" height="181" viewBox="0 0 174 181" fill="none" xmlns="http://www.w3.org/2000/svg">
<path d="M37.2013 42.4445L4.00145 23.2222V61.6667V100.111L4 138.556L4.00145 138.556L37.2013 157.778L70.4007 177L70.4009 138.556L37.2013 119.333V80.8889V42.4445Z" fill="#FF4D35"/>
<path d="M103.601 80.8889L136.8 100.111V61.6667L103.601 42.4445V80.8889Z" fill="#FF4D35"/>
<path d="M37.2013 42.4445L70.4009 23.2222M37.2013 42.4445L4.00145 23.2222M37.2013 42.4445V80.8889V119.333M70.4009 23.2222L37.2013 4L4.00145 23.2222M70.4009 23.2222V100.111M70.4009 23.2222V61.6667V100.111M4.00145 23.2222V61.6667V100.111L4 138.556M37.2013 119.333L70.4009 100.111M37.2013 119.333L70.4009 138.556M70.4009 100.111L103.601 80.8889M37.2013 157.778L4.00145 138.556M37.2013 157.778L70.4007 177M37.2013 157.778L70.3991 177M37.2013 157.778L37.1997 157.778M70.4009 138.556L103.601 119.333L136.8 100.111M70.4009 138.556L70.4007 177M4.00145 138.556L37.1997 157.778M4.00145 138.556L4 138.556M136.8 100.111L103.601 80.8889M136.8 100.111L170 80.8889V42.4445M136.8 100.111L136.8 138.556L103.6 157.778L70.4007 177M136.8 100.111V61.6667M103.601 80.8889V42.4445M136.8 61.6667L103.601 42.4445M136.8 61.6667L170 42.4445M103.601 42.4445L136.8 23.2222L170 42.4445M70.4007 177L70.3991 177M37.1997 157.778L4 138.556M37.1997 157.778L70.3991 177" stroke="#FF4D35" stroke-width="8" stroke-linejoin="round"/>
</svg>
