<svg width="223" height="223" viewBox="0 0 223 223" fill="none" xmlns="http://www.w3.org/2000/svg">
<rect x="4" y="4" width="215" height="215" stroke="#00F3C8" stroke-width="8" stroke-linejoin="round"/>
<path d="M124.851 144.918V160H73.7393V144.918H124.851ZM79.5347 58.3359V160H60.333V58.3359H79.5347Z" fill="#00F3C8"/>
<path d="M147.585 99.8813V160H129.152V84.4502H146.608L147.585 99.8813ZM170.558 83.9614L170.278 101.138C169.254 100.952 168.09 100.812 166.787 100.719C165.53 100.626 164.343 100.58 163.226 100.58C160.386 100.58 157.896 100.975 155.755 101.767C153.614 102.511 151.821 103.605 150.378 105.048C148.982 106.491 147.911 108.26 147.166 110.355C146.422 112.403 146.003 114.731 145.91 117.337L141.93 116.849C141.93 112.054 142.418 107.609 143.396 103.512C144.373 99.4159 145.793 95.8315 147.655 92.7593C149.517 89.687 151.845 87.313 154.638 85.6372C157.477 83.9149 160.736 83.0537 164.413 83.0537C165.437 83.0537 166.531 83.1468 167.695 83.333C168.905 83.4727 169.859 83.6821 170.558 83.9614Z" fill="#00F3C8"/>
</svg>
