<svg width="208" height="208" viewBox="0 0 208 208" fill="none" xmlns="http://www.w3.org/2000/svg">
<path d="M204 104C204 131.614 181.614 154 154 154C126.386 154 104 131.614 104 104C104 76.3858 81.6142 54 54 54C26.3858 54 4 76.3858 4 104C4 159.228 48.7715 204 104 204C159.228 204 204 159.228 204 104Z" fill="#2EB4FF"/>
<path d="M204 104C204 131.614 181.614 154 154 154C126.386 154 104 131.614 104 104C104 76.3858 81.6142 54 54 54C26.3858 54 4 76.3858 4 104M204 104C204 48.7715 159.228 4 104 4C48.7715 4 4 48.7715 4 104M204 104C204 159.228 159.228 204 104 204C48.7715 204 4 159.228 4 104" stroke="#2EB4FF" stroke-width="8"/>
<path d="M116.544 113.542H137.129L140.421 108.675L150.714 93.4574L154.081 88.4781L171.034 113.542H191.997L164.563 72.981L154.271 57.7635L150.903 52.7843L140.421 37.2871L137.281 32.6436H116.317L129.94 52.7843L140.421 68.2815L143.789 73.2607L140.421 78.2399L130.129 93.4574L116.544 113.542Z" stroke="#2EB4FF" stroke-width="8" stroke-linejoin="round"/>
</svg>
