<svg width="286" height="124" viewBox="0 0 286 124" fill="none" xmlns="http://www.w3.org/2000/svg">
<rect x="4" y="4" width="278" height="116" rx="45" stroke="#2EB4FF" stroke-width="8"/>
<path d="M197.363 20V16C195.154 16 193.363 17.7909 193.363 20H197.363ZM227.185 20H231.185C231.185 17.7909 229.394 16 227.185 16V20ZM227.185 51.1613H223.185C223.185 53.3704 224.976 55.1613 227.185 55.1613L227.185 51.1613ZM197.363 51.1613L197.363 55.1613C199.572 55.1613 201.363 53.3704 201.363 51.1613H197.363ZM212.5 104L209.036 106C209.75 107.237 211.071 108 212.5 108C213.929 108 215.25 107.237 215.964 106L212.5 104ZM182 51.1613L182 47.1613C180.571 47.1613 179.251 47.9236 178.536 49.1611C177.821 50.3987 177.821 51.9234 178.536 53.161L182 51.1613ZM243 51.1613L246.464 53.161C247.179 51.9234 247.179 50.3987 246.464 49.1611C245.749 47.9236 244.429 47.1613 243 47.1613L243 51.1613ZM197.363 24H227.185V16H197.363V24ZM223.185 20V51.1613H231.185V20H223.185ZM201.363 51.1613V20H193.363V51.1613H201.363ZM215.964 102L185.464 49.1616L178.536 53.161L209.036 106L215.964 102ZM239.536 49.1616L209.036 102L215.964 106L246.464 53.161L239.536 49.1616ZM243 47.1613L227.185 47.1613L227.185 55.1613L243 55.1613L243 47.1613ZM197.363 47.1613L182 47.1613L182 55.1613L197.363 55.1613L197.363 47.1613Z" fill="#2EB4FF"/>
<path d="M95.5571 104H107.367C108.522 104 109.574 103.337 110.073 102.295L131.368 57.7948C132.746 54.9137 137.074 55.8958 137.074 59.0897V101C137.074 102.657 138.417 104 140.074 104H157C158.657 104 160 102.657 160 101V23C160 21.3431 158.657 20 157 20H127.851C126.677 20 125.61 20.6848 125.122 21.7525L104.19 67.5329C103.122 69.8696 99.8019 69.8696 98.7335 67.5329L77.8013 21.7525C77.3131 20.6848 76.247 20 75.073 20H46C44.3431 20 43 21.3431 43 23V101C43 102.657 44.3431 104 46 104H62.8498C64.5066 104 65.8498 102.657 65.8498 101V59.0897C65.8498 55.8958 70.1772 54.9137 71.5559 57.7947L92.851 102.295C93.3496 103.337 94.402 104 95.5571 104Z" fill="#2EB4FF"/>
</svg>
