<svg width="183" height="165" viewBox="0 0 183 165" fill="none" xmlns="http://www.w3.org/2000/svg">
<path d="M42.6866 118.209L4 91.0541L55.7061 69.8509M42.6866 118.209C64.2618 110.769 64.1874 115.754 80.2572 160.988C112.62 160.988 134.939 73.9427 178.834 135.32C165.566 91.7981 135.46 4.60445 121.176 4.00927C103.32 3.2653 95.5087 47.5317 72.8175 51.2516C66.4937 52.2882 53.8462 64.8911 55.7061 69.8509M42.6866 118.209C62.6551 110.444 76.547 89.7145 87.325 67.9882M55.7061 69.8509L67.2377 78.4066" stroke="#FFA800" stroke-width="8" stroke-linecap="round" stroke-linejoin="round"/>
<path d="M42.6866 118.209L4 91.0541L55.7061 69.8509M121.176 4.00927C103.32 3.2653 95.5087 47.5317 72.8175 51.2516C66.4937 52.2882 53.8462 64.8911 55.7061 69.8509M55.7061 69.8509L67.2377 78.4066" stroke="#00F3C8" stroke-width="8" stroke-linecap="round" stroke-linejoin="round"/>
</svg>
