<svg width="100" height="110" viewBox="0 0 115 174" fill="none" xmlns="http://www.w3.org/2000/svg">
<path d="M4 169.5C6.2491 158.171 8.90079 147.514 11.877 137.5M11.877 137.5C72.5785 138.3 103.251 48.8333 111 4C91.1262 11.3285 53.4418 39.2261 26.5915 98M11.877 137.5C14.3338 129.234 17.0117 121.405 19.8668 114M19.8668 114L43.5 111M19.8668 114C22.0144 108.43 24.2621 103.099 26.5915 98M26.5915 98L46.5 95" stroke="#FFD600" stroke-width="8" stroke-linecap="round" stroke-linejoin="round"/>
<path d="M43.4999 111L19.8667 114C22.0142 108.43 24.262 103.099 26.5913 98M26.5913 98C53.4417 39.2261 91.1261 11.3285 111 4C105.788 34.1574 90.2031 84.5098 62.0839 114M26.5913 98L46.4999 95" stroke="#FFA800" stroke-width="8" stroke-linecap="round" stroke-linejoin="round"/>
<path d="M39.3687 73.5C64.3939 31.286 94.1207 10.2242 111 4C107.773 22.673 100.569 49.0885 88.8748 73.5" stroke="#FF4D35" stroke-width="8" stroke-linecap="round" stroke-linejoin="round"/>
<path d="M58.915 45.5C78.5688 21.6077 98.3771 8.65475 111 4C108.992 15.6185 105.445 30.2344 100.234 45.5" stroke="#FF47B5" stroke-width="8" stroke-linecap="round" stroke-linejoin="round"/>
</svg>
