<svg width="218" height="218" viewBox="0 0 218 218" fill="none" xmlns="http://www.w3.org/2000/svg">
<path d="M81.6182 87.8324L85.0334 85.7499C84.1001 84.2194 82.2625 83.4967 80.5367 83.9814C78.8109 84.4661 77.6182 86.0398 77.6182 87.8324H81.6182ZM81.6182 176V180C83.8274 180 85.6182 178.209 85.6182 176H81.6182ZM54 176H50C50 178.209 51.7909 180 54 180V176ZM54 42V38C51.7909 38 50 39.7909 50 42H54ZM81.6182 42L85.0337 39.9181C84.3076 38.7268 83.0133 38 81.6182 38V42ZM135.474 130.352L138.899 128.286C138.896 128.281 138.893 128.275 138.889 128.27L135.474 130.352ZM135.474 42V38C133.265 38 131.474 39.7909 131.474 42H135.474ZM163 42H167C167 39.7909 165.209 38 163 38V42ZM163 176L159.575 178.066C159.578 178.071 159.581 178.077 159.585 178.083L163 176ZM135.474 105H131.474C131.474 105.723 131.67 106.433 132.041 107.054L135.474 105ZM163 151L159.568 153.054C160.491 154.597 162.332 155.335 164.065 154.855C165.799 154.376 167 152.799 167 151H163ZM152.748 204.48L154.417 208.115C155.455 207.639 156.24 206.741 156.574 205.649C156.908 204.556 156.758 203.373 156.164 202.397L152.748 204.48ZM172.937 192.296L169.522 194.378C170.113 195.348 171.089 196.021 172.205 196.228C173.322 196.436 174.474 196.159 175.375 195.467L172.937 192.296ZM109 210C53.2192 210 8 164.781 8 109H0C0 169.199 48.801 218 109 218V210ZM8 109C8 53.2192 53.2192 8 109 8V0C48.801 0 0 48.801 0 109H8ZM109 8C164.781 8 210 53.2192 210 109H218C218 48.801 169.199 0 109 0V8ZM77.6182 87.8324V176H85.6182V87.8324H77.6182ZM81.6182 172H54V180H81.6182V172ZM58 176V42H50V176H58ZM54 46H81.6182V38H54V46ZM78.2028 44.0819L132.058 132.434L138.889 128.27L85.0337 39.9181L78.2028 44.0819ZM135.474 46H163V38H135.474V46ZM132.048 132.417L159.575 178.066L166.425 173.934L138.899 128.286L132.048 132.417ZM139.474 105V42H131.474V105H139.474ZM159 42V151H167V42H159ZM132.041 107.054L159.568 153.054L166.432 148.946L138.906 102.946L132.041 107.054ZM156.164 202.397L85.0334 85.7499L78.2031 89.9149L149.333 206.562L156.164 202.397ZM151.08 200.845C138.275 206.721 124.026 210 109 210V218C125.201 218 140.586 214.463 154.417 208.115L151.08 200.845ZM176.352 190.213L166.415 173.917L159.585 178.083L169.522 194.378L176.352 190.213ZM210 109C210 141.635 194.526 170.654 170.499 189.124L175.375 195.467C201.287 175.547 218 144.225 218 109H210Z" fill="#D6E0E3"/>
</svg>
