<svg width="195" height="137" viewBox="0 0 195 137" fill="none" xmlns="http://www.w3.org/2000/svg">
<path d="M176.61 68C127.566 44.8133 70.2666 44.6598 17.576 68L9.2694 58.5649L4 31.0271L17.576 37.7839L33.0915 26.2008L38.9098 10.7568L51.5161 21.3746L83.5167 17.5135L97.0928 4L110.669 17.5135L142.669 21.3746L155.276 10.7568L161.094 26.2008L176.61 37.7839L190.186 31.0271L184.916 58.5649L176.61 68Z" fill="#FFD600" stroke="#FFD600" stroke-width="8" stroke-linecap="round" stroke-linejoin="round"/>
<path d="M28.8247 106.542L9.31958 58.5254C15.5612 71.8524 45.7292 87.5965 60.033 93.8027L97.0928 74.2042L134.153 93.8027C148.456 87.5965 178.624 71.8524 184.866 58.5254L165.361 106.542C159.509 116.994 133.344 133 97.0928 133C57.1072 133 34.6763 116.994 28.8247 106.542Z" stroke="#FFA800" stroke-width="8" stroke-linecap="round" stroke-linejoin="round"/>
</svg>
