<svg width="262" height="262" viewBox="0 0 262 262" fill="none" xmlns="http://www.w3.org/2000/svg">
<path d="M4 78.3949L4.15312 74.3978C2.48058 74.3337 0.945004 75.3178 0.304482 76.8641C-0.33604 78.4105 0.0539511 80.1922 1.28192 81.3295L4 78.3949ZM110.907 82.4903L110.754 86.4874C111.92 86.5321 113.048 86.0649 113.841 85.2084L110.907 82.4903ZM183.605 4L187.602 4.15312C187.666 2.48058 186.682 0.945004 185.136 0.304482C183.59 -0.33604 181.808 0.053951 180.671 1.28192L183.605 4ZM179.51 110.907L175.513 110.754C175.468 111.92 175.935 113.048 176.792 113.841L179.51 110.907ZM258 183.605L257.847 187.602C259.519 187.666 261.055 186.682 261.696 185.136C262.336 183.59 261.946 181.808 260.718 180.671L258 183.605ZM151.093 179.51L151.246 175.513C150.08 175.468 148.952 175.935 148.159 176.792L151.093 179.51ZM78.3949 258L74.3978 257.847C74.3337 259.519 75.3178 261.055 76.8641 261.696C78.4105 262.336 80.1922 261.946 81.3295 260.718L78.3949 258ZM82.4903 151.093L86.4874 151.246C86.5321 150.08 86.0649 148.952 85.2084 148.159L82.4903 151.093ZM151.435 122.536C156.11 133.821 150.75 146.76 139.465 151.434L142.526 158.825C157.894 152.46 165.191 134.842 158.826 119.474L151.435 122.536ZM139.465 151.434C128.179 156.109 115.241 150.75 110.566 139.464L103.175 142.526C109.54 157.893 127.158 165.191 142.526 158.825L139.465 151.434ZM110.566 139.464C105.891 128.178 111.25 115.24 122.536 110.565L119.475 103.174C104.107 109.54 96.8094 127.158 103.175 142.526L110.566 139.464ZM122.536 110.565C133.822 105.891 146.76 111.25 151.435 122.536L158.826 119.474C152.46 104.107 134.842 96.8089 119.475 103.174L122.536 110.565ZM3.84688 82.392L110.754 86.4874L111.06 78.4932L4.15312 74.3978L3.84688 82.392ZM113.841 85.2084L186.54 6.71808L180.671 1.28192L107.972 79.7722L113.841 85.2084ZM179.608 3.84688L175.513 110.754L183.507 111.06L187.602 4.15312L179.608 3.84688ZM176.792 113.841L255.282 186.54L260.718 180.671L182.228 107.972L176.792 113.841ZM258.153 179.608L151.246 175.513L150.94 183.507L257.847 187.602L258.153 179.608ZM148.159 176.792L75.4603 255.282L81.3295 260.718L154.028 182.228L148.159 176.792ZM82.392 258.153L86.4874 151.246L78.4932 150.94L74.3978 257.847L82.392 258.153ZM85.2084 148.159L6.71808 75.4603L1.28192 81.3295L79.7722 154.028L85.2084 148.159Z" fill="#D6E0E3"/>
</svg>
