<svg width="120" height="134" viewBox="0 0 120 134" fill="none" xmlns="http://www.w3.org/2000/svg">
<path d="M54.5849 5.37952C57.7708 3.54016 61.6959 3.54016 64.8818 5.37952L110.318 31.6123C113.504 33.4516 115.467 36.8509 115.467 40.5296V92.9952C115.467 96.6739 113.504 100.073 110.318 101.913L64.8818 128.145C61.6959 129.985 57.7708 129.985 54.5849 128.145L9.14842 101.912C5.96257 100.073 4 96.6739 4 92.9952V40.5296C4 36.8509 5.96257 33.4516 9.14843 31.6123L54.5849 5.37952Z" stroke="#00E878" stroke-width="8"/>
<path d="M43.2826 42.9736H53.2752V76.5489C53.2752 79.6356 52.5868 82.3669 51.2101 84.7429C49.8555 87.0968 47.9347 88.9176 45.4476 90.2056C42.9606 91.4935 40.1515 92.1375 37.0205 92.1375C31.8909 92.1375 27.8938 90.8385 25.0293 88.2404C22.1647 85.6201 20.7324 81.9228 20.7324 77.1485H30.7917C30.7917 79.5245 31.2913 81.2788 32.2906 82.4113C33.2899 83.5438 34.8665 84.1101 37.0205 84.1101C38.9302 84.1101 40.4513 83.455 41.5838 82.1448C42.7163 80.8347 43.2826 78.9694 43.2826 76.5489V42.9736Z" fill="#00E878"/>
<path d="M87.666 78.7473C87.666 76.8598 86.9998 75.4164 85.6675 74.4172C84.3351 73.3957 81.9369 72.3298 78.4727 71.2195C75.0086 70.087 72.2662 68.9767 70.2454 67.8886C64.7384 64.913 61.9848 60.9048 61.9848 55.8641C61.9848 53.2438 62.7176 50.9122 64.1832 48.8692C65.671 46.8041 67.7917 45.1941 70.5452 44.0394C73.321 42.8847 76.4298 42.3074 79.8717 42.3074C83.3358 42.3074 86.4225 42.9402 89.1316 44.206C91.8407 45.4495 93.9392 47.2149 95.427 49.5021C96.937 51.7893 97.692 54.3874 97.692 57.2964H87.6993C87.6993 55.0758 86.9998 53.3548 85.6009 52.1335C84.2019 50.89 82.2367 50.2682 79.7052 50.2682C77.2625 50.2682 75.3639 50.79 74.0094 51.8337C72.6548 52.8552 71.9775 54.2098 71.9775 55.8974C71.9775 57.474 72.7658 58.7953 74.3424 59.8612C75.9413 60.9271 78.284 61.9263 81.3706 62.859C87.0553 64.5688 91.1968 66.6895 93.7948 69.221C96.3929 71.7524 97.692 74.9057 97.692 78.6807C97.692 82.8776 96.1043 86.1752 92.9288 88.5734C89.7534 90.9495 85.4787 92.1375 80.1049 92.1375C76.3743 92.1375 72.9768 91.4602 69.9124 90.1057C66.8479 88.7289 64.5052 86.8525 62.8842 84.4765C61.2854 82.1004 60.4859 79.3469 60.4859 76.2158H70.5119C70.5119 81.5675 73.7096 84.2433 80.1049 84.2433C82.4809 84.2433 84.3351 83.7659 85.6675 82.811C86.9998 81.8339 87.666 80.4794 87.666 78.7473Z" fill="#00E878"/>
</svg>
