<svg width="100" height="100" viewBox="0 0 166 205" fill="none" xmlns="http://www.w3.org/2000/svg">
<path d="M156.909 72.875C156.004 73.4719 135.717 85.282 135.966 109.907H135.973C136.237 139.3 161.713 149.085 162 149.213C161.766 149.886 157.912 163.154 148.561 176.861C140.476 188.709 132.097 200.489 118.876 200.73C105.874 200.987 101.696 193.016 86.8386 193.016C71.9813 193.016 67.3431 200.504 55.05 200.987C42.2969 201.471 32.5755 188.195 24.4229 176.4C7.748 152.266 -4.99006 108.192 12.1222 78.4513C20.5992 63.6718 35.7883 54.3174 52.2671 54.0681C64.794 53.849 76.6271 62.5384 84.2744 62.5384C91.9369 62.5384 106.327 52.0808 121.425 53.6223C127.745 53.8792 145.506 56.1687 156.909 72.875Z" stroke="#FF4D35" stroke-width="8" stroke-linejoin="round"/>
<path d="M122.121 4C123.358 15.3794 118.78 26.8116 112.015 35.0401H112.022C105.235 43.2535 94.1332 49.6459 83.2429 48.7996C81.7647 37.6243 87.2626 26.0107 93.5374 18.7191C100.544 10.4982 112.362 4.40047 122.121 4Z" stroke="#FF4D35" stroke-width="8" stroke-linejoin="round"/>
<path fill-rule="evenodd" clip-rule="evenodd" d="M124.217 161.545C105.359 180.555 74.7843 180.555 55.9262 161.545C37.0681 142.535 37.0681 111.715 55.9262 92.7049C74.7843 73.6952 105.359 73.6952 124.217 92.7049L109.771 107.267C98.8915 96.3001 81.2521 96.3001 70.3724 107.267C59.4927 118.234 59.4927 136.016 70.3724 146.983C81.2521 157.95 98.8915 157.95 109.771 146.983L124.217 161.545Z" stroke="#FF4D35" stroke-width="8" stroke-linejoin="round"/>
</svg>
