<svg width="187" height="191" viewBox="0 0 187 191" fill="none" xmlns="http://www.w3.org/2000/svg">
<path d="M183 27H162.5V61.25H183V27Z" fill="#D6E0E3"/>
<path d="M100 23C97.7909 23 96 24.7909 96 27C96 29.2091 97.7909 31 100 31V23ZM183 27H187C187 24.7909 185.209 23 183 23V27ZM183 164V168C185.209 168 187 166.209 187 164H183ZM100 160C97.7909 160 96 161.791 96 164C96 166.209 97.7909 168 100 168V160ZM100 57.25C97.7909 57.25 96 59.0409 96 61.25C96 63.4591 97.7909 65.25 100 65.25V57.25ZM100 74.375C97.7909 74.375 96 76.1659 96 78.375C96 80.5841 97.7909 82.375 100 82.375V74.375ZM100 91.5C97.7909 91.5 96 93.2909 96 95.5C96 97.7091 97.7909 99.5 100 99.5V91.5ZM100 108.625C97.7909 108.625 96 110.416 96 112.625C96 114.834 97.7909 116.625 100 116.625V108.625ZM100 125.75C97.7909 125.75 96 127.541 96 129.75C96 131.959 97.7909 133.75 100 133.75V125.75ZM142 65.25C144.209 65.25 146 63.4591 146 61.25C146 59.0409 144.209 57.25 142 57.25V65.25ZM142 82.375C144.209 82.375 146 80.5841 146 78.375C146 76.1659 144.209 74.375 142 74.375V82.375ZM142 99.5C144.209 99.5 146 97.7091 146 95.5C146 93.2909 144.209 91.5 142 91.5V99.5ZM142 116.625C144.209 116.625 146 114.834 146 112.625C146 110.416 144.209 108.625 142 108.625V116.625ZM142 133.75C144.209 133.75 146 131.959 146 129.75C146 127.541 144.209 125.75 142 125.75V133.75ZM100 31H162.5V23H100V31ZM162.5 31H183V23H162.5V31ZM183 160H162.5V168H183V160ZM162.5 160H100V168H162.5V160ZM179 27V61.25H187V27H179ZM179 61.25V95.5H187V61.25H179ZM179 95.5V129.75H187V95.5H179ZM179 129.75V164H187V129.75H179ZM158.5 27V61.25H166.5V27H158.5ZM183 57.25H162.5V65.25H183V57.25ZM158.5 61.25V95.5H166.5V61.25H158.5ZM183 91.5H162.5V99.5H183V91.5ZM158.5 95.5V129.75H166.5V95.5H158.5ZM158.5 129.75V164H166.5V129.75H158.5ZM183 125.75H162.5V133.75H183V125.75ZM100 31H183V23H100V31ZM183 160H100V168H183V160ZM179 61.25V78.375H187V61.25H179ZM179 78.375V95.5H187V78.375H179ZM179 95.5V112.625H187V95.5H179ZM179 112.625V129.75H187V112.625H179ZM142 57.25H100V65.25H142V57.25ZM142 74.375H100V82.375H142V74.375ZM142 91.5H100V99.5H142V91.5ZM142 108.625H100V116.625H142V108.625ZM142 125.75H100V133.75H142V125.75Z" fill="#D6E0E3"/>
<path d="M100 154.63V36.3703V4L4 36.3703V154.63L100 187V154.63Z" stroke="#A852FF" stroke-width="8" stroke-linejoin="round"/>
<path d="M77.9873 64V128.695H65.7236L38.2192 83.8174V128.695H26V64H38.2192L65.8125 108.922V64H77.9873Z" fill="#D6E0E3"/>
</svg>
