<svg width="182" height="200" viewBox="0 0 182 200" fill="none" xmlns="http://www.w3.org/2000/svg">
<path d="M15.9847 51.8753C9.94801 63.6119 16.7245 80.1796 20.8674 86.9964C20.8674 109.403 46.3163 110.855 59.0408 108.78C60.8163 130.564 66.8861 131.454 67.0306 143.902C67.4745 182.135 55.9337 184.802 55.9337 191.915C55.9337 199.028 75.4643 195.027 74.1327 191.915C72.801 188.803 78.5714 159.462 81.6786 148.792C84.1643 140.256 85.9694 121.821 86.5612 113.671C90.5561 110.114 98.2796 104.868 97.2143 112.337C95.8827 121.673 94.1071 145.235 94.1071 148.792C94.1071 152.348 102.985 159.239 108.311 162.574C115.413 167.019 115.413 172.799 106.536 181.69C97.6582 190.582 107.867 187.914 114.082 189.248C119.053 190.315 122.367 183.468 123.403 179.912C127.99 186.284 137.252 196.45 137.607 186.136C138.051 173.243 130.505 170.576 128.73 165.686C126.954 160.795 139.827 147.014 143.821 138.122C132.281 120.784 150.48 79.8833 149.592 96.3324C148.392 118.561 161.577 123.451 163.796 139.456C165.571 152.26 163.5 176.652 161.577 191.915C164.536 192.656 171.963 193.694 178 191.915C173.384 185.513 174.301 154.275 175.337 139.456C172.673 130.416 168.346 108.336 172.344 92.3313C176.341 76.3267 174.009 64.6197 172.344 60.7667C173.423 51.918 168.667 43.4937 165.128 39.4273C160.541 36.0189 151.279 35.8707 150.923 26.9793C150.48 15.865 144.709 7.41811 127.398 4.30611C113.549 1.81651 98.8418 15.124 93.2194 22.089C91.2959 28.6094 84.3418 32.3141 80.3469 32.3141C71.9133 32.3141 67.4745 63.8787 67.0306 68.769C66.5867 73.6593 50.1633 69.2135 55.9337 58.9884C60.55 50.8083 60.8163 33.6478 60.3724 26.0901C58.5969 25.7937 55.2235 23.7783 55.9337 18.0878C56.8214 10.9747 40.8418 8.30727 37.2908 6.52898C33.7398 4.7507 30.6327 8.75184 27.5255 14.9758C6.21939 13.6421 4 21.6444 4 29.2021C4 35.2483 15.2449 36.7598 20.8674 36.7598C21.7552 36.908 22.0215 40.1386 15.9847 51.8753Z" stroke="#2B66FF" stroke-width="8" stroke-linecap="round" stroke-linejoin="round"/>
<path d="M110.538 139.899C115.509 137.765 120.451 114.559 123.41 103C130.069 147.013 120.747 153.237 118.972 156.793C113.793 152.347 105.567 142.033 110.538 139.899Z" stroke="#2B66FF" stroke-width="8" stroke-linecap="round" stroke-linejoin="round"/>
</svg>
