<svg width="223" height="223" viewBox="0 0 223 223" fill="none" xmlns="http://www.w3.org/2000/svg">
<rect x="4" y="4" width="215" height="215" stroke="#2EB4FF" stroke-width="8" stroke-linejoin="round"/>
<path d="M81.2102 122.923H55.0261V107.841H81.2102C85.4928 107.841 88.9607 107.143 91.614 105.747C94.3139 104.304 96.2922 102.348 97.5491 99.8813C98.8059 97.3677 99.4343 94.5049 99.4343 91.293C99.4343 88.1742 98.8059 85.2648 97.5491 82.5649C96.2922 79.8651 94.3139 77.6772 91.614 76.0015C88.9607 74.3257 85.4928 73.4878 81.2102 73.4878H61.3103V160H42.1086V58.3359H81.2102C89.1236 58.3359 95.8733 59.7557 101.459 62.5952C107.092 65.3882 111.374 69.2751 114.307 74.2559C117.286 79.1901 118.776 84.8226 118.776 91.1533C118.776 97.7168 117.286 103.373 114.307 108.121C111.374 112.869 107.092 116.523 101.459 119.083C95.8733 121.643 89.1236 122.923 81.2102 122.923Z" fill="#2EB4FF"/>
<path d="M166.857 139.332C166.857 137.749 166.438 136.33 165.6 135.073C164.762 133.816 163.179 132.675 160.852 131.651C158.571 130.581 155.219 129.58 150.797 128.649C146.887 127.811 143.279 126.764 139.974 125.507C136.669 124.25 133.83 122.737 131.456 120.968C129.082 119.153 127.22 117.035 125.87 114.614C124.566 112.147 123.915 109.308 123.915 106.096C123.915 102.977 124.59 100.044 125.94 97.2979C127.29 94.5049 129.245 92.061 131.805 89.9663C134.365 87.825 137.484 86.1493 141.161 84.939C144.839 83.6821 148.982 83.0537 153.59 83.0537C160.014 83.0537 165.53 84.1011 170.138 86.1958C174.793 88.2905 178.354 91.1766 180.821 94.854C183.289 98.4849 184.522 102.581 184.522 107.143H166.089C166.089 105.141 165.623 103.326 164.692 101.697C163.808 100.068 162.434 98.7642 160.572 97.7866C158.71 96.7625 156.36 96.2505 153.52 96.2505C150.96 96.2505 148.795 96.6694 147.027 97.5073C145.304 98.3452 144.001 99.4391 143.116 100.789C142.232 102.139 141.79 103.629 141.79 105.258C141.79 106.468 142.022 107.562 142.488 108.54C143 109.471 143.815 110.332 144.932 111.123C146.049 111.914 147.562 112.636 149.47 113.288C151.425 113.939 153.823 114.568 156.662 115.173C162.295 116.29 167.206 117.78 171.395 119.642C175.631 121.457 178.936 123.878 181.31 126.903C183.684 129.929 184.871 133.793 184.871 138.494C184.871 141.846 184.15 144.918 182.707 147.711C181.264 150.457 179.169 152.855 176.423 154.903C173.676 156.951 170.394 158.557 166.577 159.721C162.76 160.838 158.454 161.396 153.66 161.396C146.724 161.396 140.859 160.163 136.064 157.696C131.27 155.182 127.639 152.017 125.172 148.2C122.704 144.336 121.471 140.333 121.471 136.19H139.136C139.276 139.123 140.067 141.473 141.51 143.242C142.953 145.011 144.769 146.291 146.957 147.083C149.191 147.827 151.542 148.2 154.009 148.2C156.802 148.2 159.153 147.827 161.061 147.083C162.97 146.291 164.413 145.244 165.39 143.94C166.368 142.59 166.857 141.054 166.857 139.332Z" fill="#2EB4FF"/>
</svg>
