<svg width="206" height="110" viewBox="0 0 206 110" fill="none" xmlns="http://www.w3.org/2000/svg">
<ellipse cx="103" cy="55" rx="99" ry="51" stroke="#2EB4FF" stroke-width="8"/>
<path d="M45.8508 63.3262V82H35V29H55.5443C59.4988 29 62.9711 29.728 65.9611 31.1841C68.9752 32.6401 71.2901 34.715 72.9056 37.4087C74.5212 40.0781 75.329 43.1236 75.329 46.5453C75.329 51.7386 73.5567 55.8397 70.0121 58.8489C66.4916 61.8338 61.6087 63.3262 55.3634 63.3262H45.8508ZM45.8508 54.4808H55.5443C58.4137 54.4808 60.5959 53.8013 62.091 52.4423C63.6101 51.0833 64.3696 49.1419 64.3696 46.6181C64.3696 44.0215 63.6101 41.9224 62.091 40.3207C60.5718 38.7191 58.474 37.894 55.7975 37.8455H45.8508V54.4808Z" fill="#2EB4FF"/>
<path d="M126.418 82H115.567V59.2857H94.4077V82H83.5568V29H94.4077V50.4766H115.567V29H126.418V82Z" fill="#2EB4FF"/>
<path d="M147.522 63.3262V82H136.671V29H157.215C161.17 29 164.642 29.728 167.632 31.1841C170.646 32.6401 172.961 34.715 174.577 37.4087C176.192 40.0781 177 43.1236 177 46.5453C177 51.7386 175.228 55.8397 171.683 58.8489C168.163 61.8338 163.28 63.3262 157.034 63.3262H147.522ZM147.522 54.4808H157.215C160.085 54.4808 162.267 53.8013 163.762 52.4423C165.281 51.0833 166.041 49.1419 166.041 46.6181C166.041 44.0215 165.281 41.9224 163.762 40.3207C162.243 38.7191 160.145 37.894 157.468 37.8455H147.522V54.4808Z" fill="#2EB4FF"/>
</svg>
