<svg width="262" height="262" viewBox="0 0 262 262" fill="none" xmlns="http://www.w3.org/2000/svg">
<path d="M4 4H258V258" stroke="#B339EC" stroke-width="8" stroke-linecap="round" stroke-linejoin="round"/>
<path d="M4 4V258H258" stroke="#8710FF" stroke-width="8" stroke-linecap="round" stroke-linejoin="round"/>
<path d="M4 4H131" stroke="#FF47B5" stroke-width="8" stroke-linecap="round" stroke-linejoin="round"/>
<rect x="37" y="37" width="190" height="190" fill="#524E5A"/>
<path d="M34.8428 34.8428H227.157V227.157" stroke="#B339EC" stroke-width="8" stroke-linecap="round" stroke-linejoin="round"/>
<path d="M34.8428 34.8428V227.157H227.157" stroke="#8710FF" stroke-width="8" stroke-linecap="round" stroke-linejoin="round"/>
<path d="M34.8428 34.8428H131" stroke="#FF47B5" stroke-width="8" stroke-linecap="round" stroke-linejoin="round"/>
<path d="M90.0596 113.406H73.397V103.808H90.0596C92.7848 103.808 94.9917 103.364 96.6802 102.475C98.3983 101.557 99.6572 100.313 100.457 98.7427C101.257 97.1431 101.657 95.3213 101.657 93.2773C101.657 91.2926 101.257 89.4412 100.457 87.7231C99.6572 86.005 98.3983 84.6128 96.6802 83.5464C94.9917 82.48 92.7848 81.9468 90.0596 81.9468H77.396V137H65.1768V72.3047H90.0596C95.0954 72.3047 99.3906 73.2082 102.945 75.0151C106.53 76.7925 109.255 79.266 111.121 82.4355C113.017 85.5755 113.965 89.1598 113.965 93.1885C113.965 97.3652 113.017 100.964 111.121 103.986C109.255 107.007 106.53 109.333 102.945 110.962C99.3906 112.591 95.0954 113.406 90.0596 113.406Z" fill="#D6E0E3"/>
<path d="M157.421 120.204C157.421 118.96 157.228 117.849 156.843 116.872C156.488 115.864 155.821 114.961 154.844 114.161C153.896 113.332 152.548 112.532 150.8 111.762C149.082 110.962 146.861 110.132 144.135 109.273C141.114 108.326 138.3 107.259 135.693 106.074C133.086 104.889 130.79 103.512 128.806 101.942C126.851 100.372 125.325 98.5649 124.229 96.521C123.133 94.4474 122.585 92.048 122.585 89.3228C122.585 86.6567 123.148 84.2277 124.273 82.0356C125.429 79.8436 127.058 77.9626 129.161 76.3926C131.264 74.793 133.738 73.5636 136.582 72.7046C139.455 71.8455 142.625 71.416 146.09 71.416C150.889 71.416 155.036 72.2899 158.532 74.0376C162.057 75.7853 164.782 78.1551 166.708 81.147C168.633 84.1388 169.596 87.501 169.596 91.2334H157.421C157.421 89.2191 156.991 87.4417 156.132 85.9014C155.303 84.361 154.029 83.1465 152.311 82.2578C150.623 81.3691 148.49 80.9248 145.913 80.9248C143.424 80.9248 141.351 81.2951 139.692 82.0356C138.063 82.7762 136.833 83.7834 136.004 85.0571C135.204 86.3309 134.804 87.7528 134.804 89.3228C134.804 90.5077 135.086 91.5741 135.648 92.522C136.211 93.4403 137.056 94.3141 138.181 95.1436C139.307 95.9434 140.699 96.6987 142.358 97.4097C144.046 98.091 146.001 98.7723 148.223 99.4536C151.778 100.52 154.888 101.705 157.554 103.008C160.25 104.312 162.486 105.793 164.264 107.452C166.071 109.111 167.418 110.977 168.307 113.05C169.225 115.124 169.685 117.479 169.685 120.115C169.685 122.9 169.137 125.388 168.041 127.58C166.944 129.772 165.375 131.638 163.331 133.179C161.287 134.719 158.828 135.889 155.955 136.689C153.111 137.489 149.926 137.889 146.401 137.889C143.261 137.889 140.151 137.474 137.07 136.645C134.019 135.785 131.25 134.512 128.761 132.823C126.273 131.105 124.288 128.943 122.807 126.336C121.326 123.7 120.585 120.619 120.585 117.094H132.849C132.849 119.138 133.175 120.885 133.827 122.337C134.508 123.759 135.456 124.929 136.67 125.847C137.915 126.736 139.366 127.388 141.025 127.802C142.684 128.217 144.476 128.424 146.401 128.424C148.89 128.424 150.934 128.084 152.533 127.402C154.162 126.691 155.377 125.714 156.177 124.47C157.006 123.226 157.421 121.804 157.421 120.204Z" fill="#D6E0E3"/>
<path d="M99.5239 200V209.064H59.0449V200H99.5239Z" fill="#D6E0E3"/>
</svg>
