<svg width="263" height="154" viewBox="0 0 263 154" fill="none" xmlns="http://www.w3.org/2000/svg">
<path d="M4 149.392L0.425329 147.598C-0.196726 148.836 -0.132996 150.309 0.59376 151.49C1.32052 152.67 2.60667 153.39 3.99293 153.392L4 149.392ZM77.0046 4L77.0117 6.25341e-06C75.4965 -0.00267298 74.1099 0.851003 73.4299 2.20508L77.0046 4ZM259 4.32181L262.575 6.11673C263.197 4.87788 263.133 3.40527 262.406 2.22478C261.679 1.0443 260.393 0.324271 259.007 0.32182L259 4.32181ZM185.995 149.714L185.988 153.714C187.504 153.717 188.89 152.863 189.57 151.509L185.995 149.714ZM7.57467 151.187L80.5793 5.79492L73.4299 2.20508L0.425329 147.598L7.57467 151.187ZM76.9975 7.99999L258.993 8.32181L259.007 0.32182L77.0117 6.25341e-06L76.9975 7.99999ZM255.425 2.5269L182.421 147.919L189.57 151.509L262.575 6.11673L255.425 2.5269ZM186.002 145.714L4.00707 145.392L3.99293 153.392L185.988 153.714L186.002 145.714Z" fill="#FFA800"/>
<path d="M184.143 111.916C185.247 111.916 186.143 112.812 186.143 113.916V123.428C186.143 124.533 185.247 125.428 184.143 125.428H137.941C136.837 125.428 135.941 124.533 135.941 123.428V113.916C135.941 112.812 136.837 111.916 137.941 111.916H184.143Z" fill="#FFA800"/>
<path d="M78.7285 53.9841C78.075 53.6371 77.6665 52.9576 77.6665 52.2177V30.2739C77.6665 28.7033 79.394 27.7455 80.7261 28.5776L135.001 62.4799C135.586 62.8453 135.941 63.4864 135.941 64.1762V84.535C135.941 85.2248 135.586 85.8659 135.001 86.2313L80.7261 120.134C79.394 120.966 77.6665 120.008 77.6665 118.437V96.4821C77.6665 95.7482 78.0685 95.0733 78.7137 94.7237L113.415 75.922C114.818 75.1618 114.81 73.1455 113.4 72.3971L78.7285 53.9841Z" fill="#FFA800"/>
</svg>
