<svg width="187" height="191" viewBox="0 0 187 191" fill="none" xmlns="http://www.w3.org/2000/svg">
<path d="M151 90V94C153.209 94 155 92.2091 155 90H151ZM134 73V69C131.791 69 130 70.7909 130 73H134ZM100 23C97.7909 23 96 24.7909 96 27C96 29.2091 97.7909 31 100 31V23ZM183 27H187C187 24.7909 185.209 23 183 23V27ZM183 164V168C185.209 168 187 166.209 187 164H183ZM100 160C97.7909 160 96 161.791 96 164C96 166.209 97.7909 168 100 168V160ZM161 61.25H165C165 59.0409 163.209 57.25 161 57.25V61.25ZM161 129.75V133.75C163.209 133.75 165 131.959 165 129.75H161ZM100 57.25C97.7909 57.25 96 59.0409 96 61.25C96 63.4591 97.7909 65.25 100 65.25V57.25ZM100 125.75C97.7909 125.75 96 127.541 96 129.75C96 131.959 97.7909 133.75 100 133.75V125.75ZM134 90H130C130 92.2091 131.791 94 134 94V90ZM141.5 100H145.5C145.5 97.7909 143.709 96 141.5 96V100ZM124.5 83H128.5C128.5 80.7909 126.709 79 124.5 79V83ZM124.5 100H120.5C120.5 102.209 122.291 104 124.5 104V100ZM134 77C141.18 77 147 82.8203 147 90H155C155 78.402 145.598 69 134 69V77ZM100 31H183V23H100V31ZM183 160H100V168H183V160ZM157 61.25V129.75H165V61.25H157ZM179 27V164H187V27H179ZM161 57.25H100V65.25H161V57.25ZM161 125.75H100V133.75H161V125.75ZM130 73V90H138V73H130ZM134 94H151V86H134V94ZM137.5 100C137.5 107.18 131.68 113 124.5 113V121C136.098 121 145.5 111.598 145.5 100H137.5ZM124.5 113C117.32 113 111.5 107.18 111.5 100H103.5C103.5 111.598 112.902 121 124.5 121V113ZM111.5 100C111.5 92.8203 117.32 87 124.5 87V79C112.902 79 103.5 88.402 103.5 100H111.5ZM120.5 83V100H128.5V83H120.5ZM124.5 104H141.5V96H124.5V104Z" fill="#D6E0E3"/>
<path d="M100 154.63V36.3703V4L4 36.3703V154.63L100 187V154.63Z" stroke="#FFA800" stroke-width="8" stroke-linejoin="round"/>
<path d="M58.8828 105.101H42.2202V95.5034H58.8828C61.6081 95.5034 63.8149 95.0591 65.5034 94.1704C67.2215 93.2521 68.4805 92.008 69.2803 90.438C70.0801 88.8384 70.48 87.0166 70.48 84.9727C70.48 82.988 70.0801 81.1366 69.2803 79.4185C68.4805 77.7004 67.2215 76.3081 65.5034 75.2417C63.8149 74.1753 61.6081 73.6421 58.8828 73.6421H46.2192V128.695H34V64H58.8828C63.9186 64 68.2139 64.9035 71.7686 66.7104C75.3529 68.4878 78.0781 70.9613 79.9443 74.1309C81.8402 77.2708 82.7881 80.8551 82.7881 84.8838C82.7881 89.0605 81.8402 92.6597 79.9443 95.6812C78.0781 98.7026 75.3529 101.028 71.7686 102.657C68.2139 104.286 63.9186 105.101 58.8828 105.101Z" fill="#D6E0E3"/>
</svg>
