<svg width="223" height="223" viewBox="0 0 223 223" fill="none" xmlns="http://www.w3.org/2000/svg">
<rect x="4" y="4" width="215" height="215" stroke="#8710FF" stroke-width="8" stroke-linejoin="round"/>
<path d="M92.2424 122.923H66.0583V107.841H92.2424C96.525 107.841 99.9929 107.143 102.646 105.747C105.346 104.304 107.324 102.348 108.581 99.8813C109.838 97.3677 110.467 94.5049 110.467 91.293C110.467 88.1742 109.838 85.2648 108.581 82.5649C107.324 79.8651 105.346 77.6772 102.646 76.0015C99.9929 74.3257 96.525 73.4878 92.2424 73.4878H72.3425V160H53.1409V58.3359H92.2424C100.156 58.3359 106.906 59.7557 112.491 62.5952C118.124 65.3882 122.406 69.2751 125.339 74.2559C128.318 79.1901 129.808 84.8226 129.808 91.1533C129.808 97.7168 128.318 103.373 125.339 108.121C122.406 112.869 118.124 116.523 112.491 119.083C106.906 121.643 100.156 122.923 92.2424 122.923Z" fill="#8710FF"/>
<path d="M154.777 99.8813V160H136.343V84.4502H153.799L154.777 99.8813ZM177.749 83.9614L177.47 101.138C176.446 100.952 175.282 100.812 173.979 100.719C172.722 100.626 171.535 100.58 170.418 100.58C167.578 100.58 165.088 100.975 162.946 101.767C160.805 102.511 159.013 103.605 157.57 105.048C156.173 106.491 155.103 108.26 154.358 110.355C153.613 112.403 153.194 114.731 153.101 117.337L149.121 116.849C149.121 112.054 149.61 107.609 150.588 103.512C151.565 99.4159 152.985 95.8315 154.847 92.7593C156.709 89.687 159.036 87.313 161.829 85.6372C164.669 83.9149 167.927 83.0537 171.605 83.0537C172.629 83.0537 173.723 83.1468 174.886 83.333C176.097 83.4727 177.051 83.6821 177.749 83.9614Z" fill="#8710FF"/>
</svg>
