<svg width="136" height="142" viewBox="0 0 136 142" fill="none" xmlns="http://www.w3.org/2000/svg">
<path d="M65.0594 101.433H95.9345M34.1842 101.433V122.456C34.1842 130.533 40.6893 137.081 48.7137 137.081H81.405C89.4294 137.081 95.9345 130.533 95.9345 122.456V104.633V101.433M97.3009 66.1481C101.156 62.1613 101.156 54.3978 101.156 39.2796H116.821C124.845 39.2796 131.35 45.8272 131.35 53.9041V86.809C131.35 94.8859 124.845 101.433 116.821 101.433H95.9345" stroke="#D6E0E3" stroke-width="8" stroke-linecap="round" stroke-linejoin="round"/>
<path d="M70.2907 39.4156H39.4156M101.166 39.4156V18.5295C101.166 10.5051 94.6608 4 86.6364 4H53.9451C45.9207 4 39.4156 10.5051 39.4156 18.5295V36.2373V39.4156M38.0492 74.4719C34.1941 78.4328 34.1941 86.1459 34.1941 101.166H18.5295C10.5051 101.166 4 94.6608 4 86.6364V53.9451C4 45.9207 10.5051 39.4156 18.5295 39.4156H39.4156" stroke="#524E5A" stroke-width="8" stroke-linecap="round" stroke-linejoin="round"/>
<circle cx="68" cy="119" r="7" fill="#D6E0E3"/>
<circle cx="68" cy="22" r="7" fill="#524E5A"/>
</svg>
