<svg width="262" height="262" viewBox="0 0 262 262" fill="none" xmlns="http://www.w3.org/2000/svg">
<path d="M4 4H258V258" stroke="#2EB4FF" stroke-width="8" stroke-linecap="round" stroke-linejoin="round"/>
<path d="M4 4V258H258" stroke="#FFD600" stroke-width="8" stroke-linecap="round" stroke-linejoin="round"/>
<path d="M4 4H131" stroke="#AFED00" stroke-width="8" stroke-linecap="round" stroke-linejoin="round"/>
<rect x="37" y="37" width="190" height="190" fill="#524E5A"/>
<path d="M34.8428 34.8428H227.157V227.157" stroke="#2EB4FF" stroke-width="8" stroke-linecap="round" stroke-linejoin="round"/>
<path d="M34.8428 34.8428V227.157H227.157" stroke="#FFD600" stroke-width="8" stroke-linecap="round" stroke-linejoin="round"/>
<path d="M34.8428 34.8428H131" stroke="#AFED00" stroke-width="8" stroke-linecap="round" stroke-linejoin="round"/>
<path d="M90.0591 103.406H73.3965V93.8081H90.0591C92.7843 93.8081 94.9912 93.3638 96.6797 92.4751C98.3978 91.5568 99.6567 90.3127 100.457 88.7427C101.256 87.1431 101.656 85.3213 101.656 83.2773C101.656 81.2926 101.256 79.4412 100.457 77.7231C99.6567 76.005 98.3978 74.6128 96.6797 73.5464C94.9912 72.48 92.7843 71.9468 90.0591 71.9468H77.3955V127H65.1763V62.3047H90.0591C95.0949 62.3047 99.3901 63.2082 102.945 65.0151C106.529 66.7925 109.254 69.266 111.121 72.4355C113.016 75.5755 113.964 79.1598 113.964 83.1885C113.964 87.3652 113.016 90.9644 111.121 93.9858C109.254 97.0073 106.529 99.3327 102.945 100.962C99.3901 102.591 95.0949 103.406 90.0591 103.406Z" fill="#D6E0E3"/>
<path d="M161.419 105.716H173.639C173.313 110.041 172.113 113.877 170.04 117.225C167.966 120.542 165.078 123.149 161.375 125.045C157.672 126.941 153.184 127.889 147.912 127.889C143.853 127.889 140.195 127.178 136.937 125.756C133.708 124.304 130.938 122.246 128.627 119.58C126.347 116.884 124.599 113.655 123.384 109.893C122.17 106.101 121.562 101.851 121.562 97.1406V92.2085C121.562 87.4985 122.185 83.2477 123.429 79.4561C124.673 75.6644 126.45 72.4355 128.761 69.7695C131.101 67.0739 133.9 65.0003 137.159 63.5488C140.447 62.0973 144.12 61.3716 148.178 61.3716C153.451 61.3716 157.909 62.3491 161.553 64.3042C165.196 66.2297 168.025 68.8809 170.04 72.2578C172.054 75.6348 173.268 79.5153 173.683 83.8994H161.464C161.227 81.1742 160.634 78.8636 159.687 76.9678C158.768 75.0719 157.376 73.6353 155.51 72.6577C153.673 71.6506 151.229 71.147 148.178 71.147C145.808 71.147 143.72 71.5913 141.913 72.48C140.136 73.3687 138.655 74.7017 137.47 76.479C136.285 78.2267 135.396 80.4188 134.804 83.0552C134.211 85.6619 133.915 88.6834 133.915 92.1196V97.1406C133.915 100.429 134.182 103.376 134.715 105.983C135.248 108.59 136.077 110.797 137.203 112.604C138.329 114.41 139.78 115.788 141.558 116.736C143.335 117.684 145.453 118.158 147.912 118.158C150.903 118.158 153.333 117.684 155.199 116.736C157.095 115.788 158.531 114.396 159.509 112.559C160.516 110.722 161.153 108.442 161.419 105.716Z" fill="#D6E0E3"/>
<path d="M99.5234 190V199.064H59.0444V190H99.5234Z" fill="#D6E0E3"/>
</svg>
