<svg width="168" height="122" viewBox="0 0 168 122" fill="none" xmlns="http://www.w3.org/2000/svg">
<path d="M156 62C156 85.196 129.137 104 96 104C62.8629 104 36 85.196 36 62C36 38.804 62.8629 20 96 20C129.137 20 156 38.804 156 62Z" stroke="#2B66FF" stroke-width="8"/>
<path d="M164 57C164 86.2711 128.183 110 84 110C39.8172 110 4 86.2711 4 57C4 27.7289 39.8172 4 84 4C128.183 4 164 27.7289 164 57Z" stroke="#2B66FF" stroke-width="8"/>
<path d="M63 122V33H107.407C115.042 33 121.723 34.2023 127.45 36.6069C133.176 39.0116 137.63 42.4736 140.812 46.9932C143.993 51.5127 145.584 56.9303 145.584 63.2461C145.584 69.6198 143.943 74.994 140.661 79.3687C137.413 83.7433 132.842 87.0461 126.947 89.2769C121.087 91.5076 114.238 92.623 106.402 92.623H79.8785V73.8496H100.776C104.058 73.8496 106.854 73.502 109.165 72.8066C111.509 72.0824 113.301 70.938 114.54 69.3735C115.812 67.8091 116.449 65.7666 116.449 63.2461C116.449 60.6966 115.812 58.6252 114.54 57.0317C113.301 55.4093 111.509 54.2215 109.165 53.4683C106.854 52.686 104.058 52.2949 100.776 52.2949H90.9299V122H63ZM123.28 81.1504L149 122H118.659L93.5421 81.1504H123.28Z" fill="#D6E0E3"/>
</svg>
