<svg width="187" height="201" viewBox="0 0 187 201" fill="none" xmlns="http://www.w3.org/2000/svg">
<path d="M48.5907 34.1563V25.2681L93.5 4.00002L138.409 25.2681V34.1563M48.5907 34.1563L93.5 66.852M48.5907 34.1563L13.5552 66.852M93.5 66.852L48.5907 97.3257M93.5 66.852L138.409 34.1563M93.5 66.852L138.409 97.3257M48.5907 97.3257L93.5 138.592M48.5907 97.3257L13.5552 66.852M48.5907 97.3257L10.8087 120.498M93.5 138.592L48.5907 162.4M93.5 138.592L138.409 97.3257M93.5 138.592L138.409 162.4M48.5907 162.4L93.5 197L138.409 162.4M48.5907 162.4H31.71L10.8087 120.498M13.5552 66.852L4 106.849L10.8087 120.498M138.409 34.1563L173.445 66.852M138.409 97.3257L173.445 66.852M138.409 97.3257L176.191 120.498M138.409 162.4H155.29L176.191 120.498M173.445 66.852L183 106.849L176.191 120.498" stroke="#FFA800" stroke-width="8" stroke-linejoin="round"/>
</svg>
