<svg width="127" height="127" viewBox="0 0 127 167" fill="none" xmlns="http://www.w3.org/2000/svg">
<path d="M4 162.5V4H62.75C86.7522 4 104.985 15.1346 114.686 30.5M4 162.5H18.5M4 162.5C17.4252 84.932 52.7642 43.8508 75.5 26.4903M114.686 30.5C129.135 53.3845 124.657 85.6538 92.125 104.5L121.5 162.5H92.125H62.75H18.5M114.686 30.5C103.778 21.8649 84.4181 19.6211 75.5 26.4903M75.5 50.5L89 38C95.4796 51.4846 95.1674 58.0496 92.125 60.0783M75.5 50.5C79.8101 57.8084 88.2183 62.6832 92.125 60.0783M75.5 50.5C68.4489 38.5438 69.9592 30.7582 75.5 26.4903M92.125 60.0783C74.5833 76.0522 35.3 118.9 18.5 162.5" stroke="#FF4D35" stroke-width="8" stroke-linejoin="round"/>
</svg>
