<svg width="151" height="112" viewBox="0 0 151 112" fill="none" xmlns="http://www.w3.org/2000/svg">
<path d="M75.5 108L4 34.4131M75.5 108V34.4131M75.5 108L39.75 34.4131M75.5 108L147 34.4131M75.5 108L111.25 34.4131M4 34.4131L41.3318 4M4 34.4131H39.75M41.3318 4H75.5M41.3318 4L39.75 34.4131M75.5 4V34.4131M75.5 4L39.75 34.4131M75.5 4H109.668M75.5 4L111.25 34.4131M75.5 34.4131H39.75M75.5 34.4131H111.25M147 34.4131L109.668 4M147 34.4131H111.25M109.668 4L111.25 34.4131" stroke="#FF4D35" stroke-width="8" stroke-linejoin="round"/>
</svg>
