<svg width="154" height="153" viewBox="0 0 154 153" fill="none" xmlns="http://www.w3.org/2000/svg">
<path d="M4 119.662C4.63136 129.419 6.84176 150.348 34.7856 148.932L14.4198 102.431L4 119.662Z" fill="#FF4D35"/>
<path d="M34.7856 148.932L141.352 141.614L73.86 137.194C62.7256 143.207 49.6395 147.912 34.7856 148.932Z" fill="#FF4D35"/>
<path d="M107.724 111.636L50.8891 93.461L34.7856 148.932C49.6395 147.912 62.7256 143.207 73.86 137.194C88.8204 129.114 100.257 118.673 107.724 111.636Z" fill="#FF4D35"/>
<path d="M141.352 141.614L141.626 145.605C143.604 145.469 145.184 143.905 145.339 141.929L141.352 141.614ZM34.7856 148.932L34.988 152.926C35.0119 152.925 35.0357 152.924 35.0596 152.922L34.7856 148.932ZM149.877 33.5056L145.89 33.1911L145.89 33.1911L149.877 33.5056ZM126.433 4.47209L126.727 0.48294C126.629 0.475709 126.531 0.47209 126.433 0.47209V4.47209ZM86.1744 4.47209V0.47209C85.7103 0.47209 85.2499 0.552825 84.8135 0.710684L86.1744 4.47209ZM54.2045 16.0383L52.5675 12.3886C52.1755 12.5644 51.8144 12.8022 51.4981 13.0929L54.2045 16.0383ZM23.8924 43.8916L21.1859 40.9462C20.927 41.1842 20.7005 41.4552 20.5125 41.7524L23.8924 43.8916ZM6.13132 79.0623L2.56078 77.2592C2.31033 77.7551 2.16595 78.2978 2.13682 78.8526L6.13132 79.0623ZM4 119.662L0.0055003 119.452C-0.00268498 119.608 -0.00173383 119.764 0.00834887 119.92L4 119.662ZM12.0517 92.5168L15.2142 90.0676L15.2142 90.0676L12.0517 92.5168ZM96.1205 12.2616L99.5423 10.19L96.1205 12.2616ZM50.8891 93.461L52.1075 89.6511C51.0792 89.3223 49.9617 89.423 49.0088 89.9305C48.056 90.438 47.3487 91.3091 47.0477 92.3458L50.8891 93.461ZM73.86 137.194L71.9593 133.674L71.9593 133.674L73.86 137.194ZM14.4198 102.431L18.0838 100.826C17.4845 99.4576 16.1725 98.5371 14.6818 98.4393C13.191 98.3415 11.77 99.0825 10.997 100.361L14.4198 102.431ZM104.172 16.9825L102.108 13.5562C100.994 14.2271 100.276 15.3973 100.183 16.694C100.089 17.9907 100.631 19.2521 101.637 20.0762L104.172 16.9825ZM92.5683 54.7497L92.3411 50.7561C91.1404 50.8244 90.0341 51.4294 89.3287 52.4034C88.6232 53.3775 88.3935 54.6173 88.7032 55.7794L92.5683 54.7497ZM141.078 137.624L34.5115 144.941L35.0596 152.922L141.626 145.605L141.078 137.624ZM145.339 141.929L153.865 33.8201L145.89 33.1911L137.364 141.3L145.339 141.929ZM126.138 8.46124C129.715 8.7252 135.111 10.3032 139.334 14.0673C143.377 17.6712 146.651 23.5361 145.89 33.1911L153.865 33.8201C154.816 21.759 150.632 13.4218 144.657 8.09544C138.861 2.92908 131.679 0.848429 126.727 0.48294L126.138 8.46124ZM126.433 0.47209H86.1744V8.47209H126.433V0.47209ZM84.8135 0.710684L52.8437 12.2769L55.5653 19.7997L87.5352 8.2335L84.8135 0.710684ZM51.4981 13.0929L21.1859 40.9462L26.5988 46.837L56.9109 18.9837L51.4981 13.0929ZM20.3218 42.0885L2.56078 77.2592L9.70187 80.8654L27.4629 45.6947L20.3218 42.0885ZM2.13682 78.8526L0.0055003 119.452L7.9945 119.872L10.1258 79.272L2.13682 78.8526ZM0.00834887 119.92C0.323844 124.796 1.04779 133.442 5.80804 140.684C10.8314 148.326 19.8311 153.695 34.988 152.926L34.5831 144.937C21.7962 145.585 15.7188 141.197 12.4932 136.289C9.00444 130.982 8.30751 124.285 7.99165 119.404L0.00834887 119.92ZM20.5125 41.7524C16.6819 47.8046 11.4693 57.571 8.26386 67.3141C6.66246 72.1816 5.50106 77.2238 5.34389 81.8923C5.1879 86.5258 6.01017 91.2485 8.88915 94.966L15.2142 90.0676C13.9252 88.4033 13.2161 85.8224 13.3394 82.1614C13.4614 78.5354 14.3899 74.2922 15.8632 69.8143C18.807 60.8665 23.6827 51.7022 27.2722 46.0308L20.5125 41.7524ZM8.88915 94.966C12.5445 99.686 18.2328 101.352 24.1391 101.256C30.04 101.159 36.7191 99.3275 43.4114 96.3851C56.8103 90.4939 71.2609 79.7056 81.2746 66.8903L74.9708 61.9647C65.8025 73.698 52.4276 83.6817 40.1914 89.0617C34.0661 91.7548 28.4753 93.1836 24.0082 93.2567C19.5465 93.3297 16.7687 92.075 15.2142 90.0676L8.88915 94.966ZM81.2746 66.8903C90.9107 54.5582 97.6407 44.2315 100.917 35.1963C104.269 25.9523 104.107 17.7299 99.5423 10.19L92.6988 14.3332C95.7121 19.3104 96.1421 24.8966 93.3962 32.4691C90.5746 40.2504 84.5166 49.7481 74.9708 61.9647L81.2746 66.8903ZM99.5423 10.19C97.6763 7.10781 94.578 5.41238 91.2734 4.58881C87.9858 3.76952 84.1497 3.71261 80.1164 4.15459C72.0298 5.04072 62.2768 8.03361 52.5675 12.3886L55.8415 19.688C65.0773 15.5454 73.9959 12.8732 80.9878 12.107C84.4937 11.7228 87.2985 11.8429 89.3388 12.3514C91.362 12.8556 92.2783 13.6386 92.6988 14.3332L99.5423 10.19ZM49.6707 97.2709L106.506 115.446L108.943 107.827L52.1075 89.6511L49.6707 97.2709ZM145.89 33.1911C145.416 39.2013 144.283 45.0076 142.668 50.565L150.351 52.7972C152.102 46.7687 153.344 40.4246 153.865 33.8201L145.89 33.1911ZM47.0477 92.3458L30.9442 147.816L38.627 150.047L54.7305 94.5762L47.0477 92.3458ZM105.063 114.622L138.69 144.6L144.014 138.628L110.386 108.651L105.063 114.622ZM35.0596 152.922C50.6042 151.855 64.243 146.933 75.7608 140.713L71.9593 133.674C61.2083 139.48 48.6748 143.968 34.5115 144.941L35.0596 152.922ZM75.7608 140.713C91.2067 132.372 102.959 121.624 110.468 114.547L104.981 108.725C97.5556 115.723 86.4341 125.857 71.9593 133.674L75.7608 140.713ZM141.613 137.623L74.1215 133.202L73.5986 141.185L141.09 145.606L141.613 137.623ZM38.4496 147.327L18.0838 100.826L10.7558 104.035L31.1216 150.536L38.4496 147.327ZM10.997 100.361L0.57715 117.592L7.42285 121.732L17.8427 104.501L10.997 100.361ZM106.236 20.4088L127.786 7.42629L123.658 0.573712L102.108 13.5562L106.236 20.4088ZM101.637 20.0762L143.974 54.7748L149.045 48.5874L106.708 13.8888L101.637 20.0762ZM146.282 47.6875L92.3411 50.7561L92.7955 58.7432L146.737 55.6746L146.282 47.6875ZM88.7032 55.7794L103.859 112.666L111.59 110.607L96.4335 53.7199L88.7032 55.7794ZM142.668 50.565C139.527 61.3757 134.567 71.221 129.121 79.7404L135.862 84.0492C141.614 75.0504 146.948 64.5078 150.351 52.7972L142.668 50.565ZM129.121 79.7404C120.273 93.582 110.243 103.767 104.981 108.725L110.468 114.547C115.989 109.345 126.527 98.6513 135.862 84.0492L129.121 79.7404ZM145.308 141.027L136.448 81.3078L128.535 82.4818L137.395 142.201L145.308 141.027Z" fill="#FF4D35"/>
</svg>
