<svg width="151" height="112" viewBox="0 0 151 112" fill="none" xmlns="http://www.w3.org/2000/svg">
<path d="M75.5 4H41.3318L39.75 34.4131L75.5 4Z" fill="#FF4D35"/>
<path d="M75.5 108V34.4131H39.75L75.5 108Z" fill="#FF4D35"/>
<path d="M109.668 4H75.5L111.25 34.4131L109.668 4Z" fill="#FF4D35"/>
<path d="M75.5 108L72.6312 110.787C73.3844 111.563 74.4192 112 75.5 112C76.5808 112 77.6156 111.563 78.3688 110.787L75.5 108ZM4 34.4131L1.47358 31.3119C0.604038 32.0203 0.0718479 33.0612 0.00674462 34.1809C-0.0583587 35.3006 0.349606 36.3961 1.13119 37.2005L4 34.4131ZM41.3318 4V0C40.4113 0 39.519 0.317463 38.8053 0.89884L41.3318 4ZM147 34.4131L149.869 37.2005C150.65 36.3961 151.058 35.3006 150.993 34.1809C150.928 33.0612 150.396 32.0203 149.526 31.3119L147 34.4131ZM109.668 4L112.195 0.89884C111.481 0.317463 110.589 0 109.668 0V4ZM78.3688 105.213L6.86881 31.6256L1.13119 37.2005L72.6312 110.787L78.3688 105.213ZM6.52642 37.5142L43.8582 7.10116L38.8053 0.89884L1.47358 31.3119L6.52642 37.5142ZM41.3318 8H75.5V0H41.3318V8ZM71.5 4V34.4131H79.5V4H71.5ZM71.5 34.4131V108H79.5V34.4131H71.5ZM4 38.4131H39.75V30.4131H4V38.4131ZM39.75 38.4131H75.5V30.4131H39.75V38.4131ZM37.3372 3.79224L35.7554 34.2053L43.7446 34.6208L45.3264 4.20776L37.3372 3.79224ZM72.9081 0.953319L37.1581 31.3664L42.3419 37.4598L78.0919 7.04668L72.9081 0.953319ZM36.1521 36.161L71.9021 109.748L79.0979 106.252L43.3479 32.6652L36.1521 36.161ZM78.3688 110.787L149.869 37.2005L144.131 31.6256L72.6312 105.213L78.3688 110.787ZM149.526 31.3119L112.195 0.89884L107.142 7.10116L144.474 37.5142L149.526 31.3119ZM109.668 0H75.5V8H109.668V0ZM147 30.4131H111.25V38.4131H147V30.4131ZM111.25 30.4131H75.5V38.4131H111.25V30.4131ZM105.674 4.20776L107.255 34.6208L115.245 34.2053L113.663 3.79224L105.674 4.20776ZM72.9081 7.04668L108.658 37.4598L113.842 31.3664L78.0919 0.953319L72.9081 7.04668ZM107.652 32.6652L71.9021 106.252L79.0979 109.748L114.848 36.161L107.652 32.6652Z" fill="#FF4D35"/>
</svg>
