<svg width="262" height="262" viewBox="0 0 262 262" fill="none" xmlns="http://www.w3.org/2000/svg">
<path d="M4 4H258V258" stroke="#FFA800" stroke-width="8" stroke-linecap="round" stroke-linejoin="round"/>
<path d="M4 4V258H258" stroke="#FF4D35" stroke-width="8" stroke-linecap="round" stroke-linejoin="round"/>
<path d="M4 4H131" stroke="#B339EC" stroke-width="8" stroke-linecap="round" stroke-linejoin="round"/>
<rect x="37" y="37" width="190" height="190" fill="#524E5A"/>
<path d="M34.8428 34.8428H227.157V227.157" stroke="#FFA800" stroke-width="8" stroke-linecap="round" stroke-linejoin="round"/>
<path d="M34.8428 34.8428V227.157H227.157" stroke="#FF4D35" stroke-width="8" stroke-linecap="round" stroke-linejoin="round"/>
<path d="M34.8428 34.8428H131" stroke="#B339EC" stroke-width="8" stroke-linecap="round" stroke-linejoin="round"/>
<path d="M65.1763 62.3047H88.6816C93.599 62.3047 97.8201 63.0452 101.345 64.5264C104.87 66.0075 107.581 68.1995 109.477 71.1025C111.372 74.0055 112.32 77.575 112.32 81.811C112.32 85.1584 111.728 88.0614 110.543 90.52C109.358 92.9787 107.684 95.0374 105.522 96.6963C103.389 98.3551 100.871 99.6585 97.9683 100.606L94.147 102.562H73.3965L73.3076 92.9194H88.8149C91.3328 92.9194 93.4212 92.4751 95.0801 91.5864C96.7389 90.6978 97.9831 89.4684 98.8125 87.8984C99.6716 86.3285 100.101 84.5363 100.101 82.522C100.101 80.3595 99.6864 78.4933 98.8569 76.9233C98.0275 75.3237 96.7686 74.0944 95.0801 73.2354C93.3916 72.3763 91.2588 71.9468 88.6816 71.9468H77.3955V127H65.1763V62.3047ZM101.701 127L86.7266 98.0293L99.6567 97.9849L114.809 126.378V127H101.701Z" fill="#D6E0E3"/>
<path d="M128.361 62.3047H138.936L156.621 111.004L174.261 62.3047H184.88L160.842 127H152.355L128.361 62.3047ZM123.029 62.3047H133.382L135.248 107.049V127H123.029V62.3047ZM179.815 62.3047H190.212V127H177.993V107.049L179.815 62.3047Z" fill="#D6E0E3"/>
<path d="M99.5234 190V199.064H59.0444V190H99.5234Z" fill="#D6E0E3"/>
</svg>
