<svg width="264" height="182" viewBox="0 0 264 182" fill="none" xmlns="http://www.w3.org/2000/svg">
<path d="M153.226 25.2906L132 4L110.774 25.2906L83.0165 13.7434L71.554 41.5361L41.4903 41.4903L41.5361 71.554L13.7434 83.0165L25.2906 110.774L4 132C103.11 157.379 159.142 156.86 260 132L238.709 110.774L250.257 83.0165L222.464 71.554L222.51 41.4903L192.446 41.5361L180.983 13.7434L153.226 25.2906Z" stroke="#FF4D35" stroke-width="8" stroke-linejoin="round"/>
<path d="M67.0375 128C58.5375 135.167 46.1375 155.1 64.5375 177.5" stroke="#FF4D35" stroke-width="8" stroke-linecap="round" stroke-linejoin="round"/>
<path d="M197 128C205.5 135.167 217.9 155.1 199.5 177.5" stroke="#FF4D35" stroke-width="8" stroke-linecap="round" stroke-linejoin="round"/>
<rect x="153" y="75" width="25" height="42" rx="12.5" fill="#FF4D35"/>
<rect x="85" y="75" width="25" height="42" rx="12.5" fill="#FF4D35"/>
</svg>
