<svg width="201" height="164" viewBox="0 0 201 164" fill="none" xmlns="http://www.w3.org/2000/svg">
<path d="M55.0527 115.063C24.0434 115.063 23.3708 157.216 53.0349 159.044C54.1374 159.112 55.0527 158.21 55.0527 157.106V137.084M55.0527 115.063C33.3505 110.774 13.6985 105.135 6.13986 102.874C4.67136 102.434 4.24722 100.577 5.36946 99.5331L19.038 86.8163C19.6689 86.2293 19.8529 85.3042 19.4947 84.5205L11.1992 66.3731C10.7164 65.3169 11.2317 64.073 12.3199 63.6675L31.0178 56.7011C31.8253 56.4003 32.3493 55.616 32.3183 54.7549L31.599 34.8143C31.5572 33.6538 32.5092 32.7017 33.6698 32.7435L53.6103 33.4628C54.4715 33.4939 55.2557 32.9699 55.5566 32.1624L62.523 13.4645C62.9284 12.3762 64.1724 11.861 65.2286 12.3438L83.376 20.6392C84.1597 20.9974 85.0848 20.8134 85.6717 20.1825L99.2632 5.57386C100.054 4.72361 101.401 4.72361 102.192 5.57386L115.783 20.1825C116.37 20.8134 117.295 20.9974 118.079 20.6392L136.226 12.3438C137.283 11.861 138.527 12.3762 138.932 13.4645L145.898 32.1624C146.199 32.9699 146.984 33.4939 147.845 33.4628L167.785 32.7435C168.946 32.7017 169.898 33.6538 169.856 34.8143L169.137 54.7549C169.106 55.616 169.63 56.4003 170.437 56.7011L189.135 63.6675C190.223 64.073 190.739 65.3169 190.256 66.3731L181.96 84.5205C181.602 85.3042 181.786 86.2293 182.417 86.8163L196.086 99.5331C197.208 100.577 196.784 102.434 195.315 102.874C187.757 105.135 168.104 110.774 146.402 115.063M55.0527 115.063C70.4403 118.105 86.8586 120.468 100.727 120.468C114.596 120.468 131.015 118.105 146.402 115.063M146.402 115.063C177.412 115.063 178.084 157.216 148.42 159.044C147.318 159.112 146.402 158.21 146.402 157.106V137.084" stroke="#FF4D35" stroke-width="8" stroke-linecap="round"/>
<path fill-rule="evenodd" clip-rule="evenodd" d="M71.3688 101.872C80.0173 101.872 87.0283 94.8611 87.0283 86.2125V78.3828C87.0283 69.7343 80.0173 62.7233 71.3688 62.7233C62.7203 62.7233 55.7093 69.7343 55.7093 78.3828V86.2125C55.7093 94.8611 62.7203 101.872 71.3688 101.872ZM67.4539 86.2125C64.2107 86.2125 61.5816 83.4081 61.5816 79.9487V76.8168C61.5816 73.3574 64.2107 70.553 67.4539 70.553C70.6971 70.553 73.3262 73.3574 73.3262 76.8168V79.9487C73.3262 83.4081 70.6971 86.2125 67.4539 86.2125Z" fill="#FF4D35"/>
<path fill-rule="evenodd" clip-rule="evenodd" d="M134.006 101.872C142.655 101.872 149.666 94.8611 149.666 86.2125V78.3828C149.666 69.7343 142.655 62.7233 134.006 62.7233C125.357 62.7233 118.346 69.7343 118.346 78.3828V86.2125C118.346 94.8611 125.357 101.872 134.006 101.872ZM130.091 86.2125C126.848 86.2125 124.219 83.4081 124.219 79.9487V76.8168C124.219 73.3574 126.848 70.553 130.091 70.553C133.334 70.553 135.963 73.3574 135.963 76.8168V79.9487C135.963 83.4081 133.334 86.2125 130.091 86.2125Z" fill="#FF4D35"/>
</svg>
