<svg width="148" height="148" viewBox="0 0 148 148" fill="none" xmlns="http://www.w3.org/2000/svg">
<path d="M82.0968 108.306C80.173 109.392 79.4937 111.832 80.5796 113.756C81.6655 115.68 84.1054 116.359 86.0292 115.273L82.0968 108.306ZM42.4846 120.83L40.1561 124.083L42.4846 120.83ZM61.8107 36.2597L63.717 39.7763L61.8107 36.2597ZM62.8018 60.9634C60.6615 60.4161 58.4828 61.7074 57.9354 63.8477C57.3881 65.9879 58.6794 68.1666 60.8197 68.714L62.8018 60.9634ZM86.0292 115.273C91.9921 111.907 95.6329 103.4 91.6759 96.4357C87.5777 89.2226 77.1653 86.5385 60.9538 90.0938L62.6676 97.908C78.3698 94.4644 83.4749 98.1959 84.7202 100.388C86.1068 102.828 84.9169 106.715 82.0968 108.306L86.0292 115.273ZM59.1033 96.9454C62.0596 99.6636 62.7034 102.235 62.4356 104.48C62.1405 106.954 60.648 109.661 58.2012 112.127C55.776 114.571 52.7276 116.452 49.9587 117.378C46.9858 118.372 45.3628 117.971 44.8132 117.578L40.1561 124.083C43.8519 126.729 48.6704 126.244 52.4958 124.965C56.5253 123.617 60.6321 121.035 63.88 117.762C67.1063 114.51 69.8047 110.245 70.3793 105.427C70.9813 100.379 69.1736 95.3371 64.5181 91.0564L59.1033 96.9454ZM44.8132 117.578C42.3602 115.822 41.4058 112.098 44.0646 107.588C46.6438 103.212 52.5552 98.7719 62.137 97.9876L61.4844 90.0142C49.6906 90.9796 41.2549 96.6003 37.1728 103.525C33.1704 110.315 33.2407 119.131 40.1561 124.083L44.8132 117.578ZM63.8512 90.5605C57.4704 86.776 51.8921 82.8383 47.7156 78.7812C43.5096 74.6953 41.0171 70.7709 40.2551 67.0448C39.5335 63.5156 40.2493 59.6071 43.6677 55.102C47.1802 50.473 53.4892 45.3206 63.717 39.7763L59.9044 32.7432C49.1961 38.548 41.7796 44.3558 37.2947 50.2662C32.7158 56.3005 31.1624 62.5106 32.4173 68.6475C33.632 74.5874 37.3618 79.8764 42.1414 84.5194C46.9505 89.1912 53.1212 93.4978 59.7702 97.4413L63.8512 90.5605ZM63.717 39.7763C79.8381 31.0373 91.0413 29.8879 97.7854 31.7814C104.21 33.5852 107.053 38.23 106.999 43.2888C106.943 48.5415 103.701 54.7776 96.5503 58.87C89.4451 62.9366 78.3038 64.9278 62.8018 60.9634L60.8197 68.714C77.817 73.0608 91.1967 71.1516 100.524 65.8133C109.806 60.5009 114.908 51.8278 114.999 43.3743C115.091 34.7269 109.883 26.8684 99.9479 24.0792C90.3325 21.3796 76.8683 23.5474 59.9044 32.7432L63.717 39.7763ZM140 74C140 110.451 110.451 140 74 140V148C114.869 148 148 114.869 148 74H140ZM74 140C37.5492 140 8 110.451 8 74H0C0 114.869 33.1309 148 74 148V140ZM8 74C8 37.5492 37.5492 8 74 8V0C33.1309 0 0 33.1309 0 74H8ZM74 8C110.451 8 140 37.5492 140 74H148C148 33.1309 114.869 0 74 0V8Z" fill="#FF47B5"/>
</svg>
