<svg width="187" height="210" viewBox="0 0 187 257" fill="none" xmlns="http://www.w3.org/2000/svg">
<path d="M5.34503 20.6513L181.766 4.44047C182.037 4.41561 182.166 4.49947 182.225 4.5532C182.284 4.60694 182.379 4.72803 182.379 4.99974V62.2619C182.379 62.956 181.725 63.6727 181.034 63.7362L4.61301 79.947C4.34244 79.9719 4.21314 79.888 4.15424 79.8343C4.09535 79.7806 4 79.6595 4 79.3878V22.1256C4 21.4315 4.65384 20.7148 5.34503 20.6513ZM5.34503 106.922L181.766 90.7115C182.037 90.6867 182.166 90.7705 182.225 90.8243C182.284 90.878 182.379 90.9991 182.379 91.2708V148.533C182.379 149.227 181.725 149.944 181.034 150.007L4.61301 166.218C4.34244 166.243 4.21313 166.159 4.15424 166.105C4.09535 166.052 4 165.931 4 165.659V108.397C4 107.703 4.65384 106.986 5.34503 106.922ZM5.34503 193.193L181.766 176.983C182.037 176.958 182.166 177.042 182.225 177.095C182.284 177.149 182.379 177.27 182.379 177.542V234.804C182.379 235.498 181.725 236.215 181.034 236.278L4.61301 252.489C4.34244 252.514 4.21314 252.43 4.15424 252.376C4.09535 252.323 4 252.202 4 251.93V194.668C4 193.974 4.65384 193.257 5.34503 193.193Z" stroke="#FF4D35" stroke-width="8"/>
<mask id="mask0_205_98" style="mask-type:alpha" maskUnits="userSpaceOnUse" x="0" y="0" width="187" height="257">
<path d="M4.61302 12.6849C4.40676 12.7038 4.20234 12.7296 4 12.762V4.45725L94.1534 4.45725L4.61302 12.6849ZM181.766 71.7027C181.972 71.6837 182.177 71.6579 182.379 71.6255V82.7216C181.939 82.6961 181.49 82.7032 181.034 82.7451L4.61302 98.9559C4.40676 98.9749 4.20234 99.0007 4 99.0331V87.9369C4.43996 87.9624 4.88912 87.9554 5.34502 87.9135L181.766 71.7027ZM4.61302 185.227C4.40676 185.246 4.20234 185.272 4 185.304V174.208C4.43996 174.233 4.88912 174.226 5.34502 174.185L181.766 157.974C181.972 157.955 182.177 157.929 182.379 157.897V168.993C181.939 168.967 181.49 168.974 181.034 169.016L4.61302 185.227ZM181.766 244.245C181.972 244.226 182.177 244.2 182.379 244.168V252.472L92.2257 252.472L181.766 244.245Z" fill="#C4C4C4" stroke="#FF4D35" stroke-width="8"/>
</mask>
<g mask="url(#mask0_205_98)">
<path d="M5.34954 23.2645L181.35 88.9245C181.741 89.0704 182 89.4439 182 89.8614V146.484C182 147.181 181.304 147.664 180.65 147.421L4.65047 81.7607C4.25933 81.6148 4 81.2412 4 80.8238V24.2015C4 23.504 4.69604 23.0207 5.34954 23.2645ZM5.34954 109.578L181.35 175.238C181.741 175.384 182 175.758 182 176.175V232.798C182 233.495 181.304 233.978 180.65 233.734L4.65047 168.075C4.25933 167.929 4 167.555 4 167.138V110.515C4 109.818 4.69604 109.335 5.34954 109.578Z" stroke="#FF4D35" stroke-width="8" stroke-linejoin="round"/>
</g>
</svg>
