<svg width="100" height="110" viewBox="0 0 151 210" fill="none" xmlns="http://www.w3.org/2000/svg">
<path d="M113.04 205.859L146.388 148.22H79.6923L113.04 205.859Z" fill="#D6E0E3"/>
<path d="M146.388 148.22L113.04 90.5815L79.6923 148.22M146.388 148.22L113.04 205.859M146.388 148.22H79.6923M113.04 205.859H46.3443M113.04 205.859L79.6923 148.22M46.3443 205.859L12.9963 148.22H79.6923M46.3443 205.859L79.6923 148.22" stroke="#D6E0E3" stroke-width="8" stroke-linejoin="round"/>
<path d="M37.3481 3.99982L4.00009 61.6383H70.6961L37.3481 3.99982Z" fill="#D6E0E3"/>
<path d="M4.00009 61.6383L37.3481 119.277L70.6961 61.6383M4.00009 61.6383L37.3481 3.99982M4.00009 61.6383H70.6961M37.3481 3.99982H104.044M37.3481 3.99982L70.6961 61.6383M104.044 3.99982L137.392 61.6383H70.6961M104.044 3.99982L70.6961 61.6383" stroke="#D6E0E3" stroke-width="8" stroke-linejoin="round"/>
</svg>
