<svg width="213" height="284" viewBox="0 0 213 284" fill="none" xmlns="http://www.w3.org/2000/svg">
<path d="M188 64.26C188 83.7336 151.287 99.52 106 99.52C60.7127 99.52 24 83.7336 24 64.26M188 64.26C188 44.7864 151.287 29 106 29C60.7127 29 24 44.7864 24 64.26M188 64.26V98.7C188 118.174 151.287 133.96 106 133.96C60.7127 133.96 24 118.174 24 98.7V64.26" stroke="#2B66FF" stroke-width="8" stroke-linejoin="round"/>
<path d="M188 124.94C188 144.414 151.287 160.2 106 160.2C60.7127 160.2 24 144.414 24 124.94V159.38C24 178.854 60.7127 194.64 106 194.64C151.287 194.64 188 178.854 188 159.38V124.94Z" stroke="#2EB4FF" stroke-width="8" stroke-linejoin="round"/>
<path d="M188 185.62C188 205.094 151.287 220.88 106 220.88C60.7127 220.88 24 205.094 24 185.62V220.06C24 239.534 60.7127 255.32 106 255.32C151.287 255.32 188 239.534 188 220.06V185.62Z" stroke="#FFA800" stroke-width="8" stroke-linejoin="round"/>
</svg>
