<svg width="158" height="150" viewBox="0 0 158 217" fill="none" xmlns="http://www.w3.org/2000/svg">
<path d="M79 137.936C62.7578 154.193 36.4239 154.193 20.1817 137.936M79 137.936L108.409 108.5M79 137.936L49.5908 167.372M20.1817 137.936C3.93944 121.679 3.93944 95.3212 20.1817 79.0642L79 20.1927C95.2422 3.93577 121.576 3.93577 137.818 20.1927C154.061 36.4496 154.061 62.8073 137.818 79.0642M20.1817 137.936C3.93944 154.193 3.93944 180.55 20.1817 196.807C36.4239 213.064 62.7578 213.064 79 196.807L137.818 137.936C154.061 121.679 154.061 95.3212 137.818 79.0642M137.818 79.0642C121.576 62.8073 95.2422 62.8073 79 79.0642M79 79.0642L49.5908 108.5M79 79.0642L108.409 49.6285" stroke="#FF4D35" stroke-width="16" stroke-linecap="round"/>
</svg>
