<svg width="206" height="206" viewBox="0 0 206 206" fill="none" xmlns="http://www.w3.org/2000/svg">
<path d="M103 44C114.046 44 123 35.0457 123 24C123 12.9543 114.046 4 103 4C91.9543 4 83 12.9543 83 24C83 35.0457 91.9543 44 103 44Z" fill="#FFA800"/>
<path d="M24 123C35.0457 123 44 114.046 44 103C44 91.9543 35.0457 83 24 83C12.9543 83 4 91.9543 4 103C4 114.046 12.9543 123 24 123Z" fill="#FFA800"/>
<path d="M103 202C114.046 202 123 193.046 123 182C123 170.954 114.046 162 103 162C91.9543 162 83 170.954 83 182C83 193.046 91.9543 202 103 202Z" fill="#FFA800"/>
<path d="M182 123C193.046 123 202 114.046 202 103C202 91.9543 193.046 83 182 83C170.954 83 162 91.9543 162 103C162 114.046 170.954 123 182 123Z" fill="#FFA800"/>
<path d="M119 24C119 32.8366 111.837 40 103 40V48C116.255 48 127 37.2548 127 24H119ZM103 40C94.1634 40 87 32.8366 87 24H79C79 37.2548 89.7452 48 103 48V40ZM87 24C87 15.1634 94.1634 8 103 8V0C89.7452 0 79 10.7452 79 24H87ZM103 8C111.837 8 119 15.1634 119 24H127C127 10.7452 116.255 0 103 0V8ZM198 103C198 111.837 190.837 119 182 119V127C195.255 127 206 116.255 206 103H198ZM182 119C173.163 119 166 111.837 166 103H158C158 116.255 168.745 127 182 127V119ZM166 103C166 94.1634 173.163 87 182 87V79C168.745 79 158 89.7452 158 103H166ZM182 87C190.837 87 198 94.1634 198 103H206C206 89.7452 195.255 79 182 79V87ZM119 182C119 190.837 111.837 198 103 198V206C116.255 206 127 195.255 127 182H119ZM103 198C94.1634 198 87 190.837 87 182H79C79 195.255 89.7452 206 103 206V198ZM87 182C87 173.163 94.1634 166 103 166V158C89.7452 158 79 168.745 79 182H87ZM103 166C111.837 166 119 173.163 119 182H127C127 168.745 116.255 158 103 158V166ZM40 103C40 111.837 32.8366 119 24 119V127C37.2548 127 48 116.255 48 103H40ZM24 119C15.1634 119 8 111.837 8 103H0C0 116.255 10.7452 127 24 127V119ZM8 103C8 94.1634 15.1634 87 24 87V79C10.7452 79 0 89.7452 0 103H8ZM24 87C32.8366 87 40 94.1634 40 103H48C48 89.7452 37.2548 79 24 79V87ZM58.4523 35.8249C64.7007 42.0732 64.7007 52.2039 58.4523 58.4523L64.1092 64.1091C73.4818 54.7365 73.4818 39.5406 64.1092 30.168L58.4523 35.8249ZM58.4523 58.4523C52.2039 64.7007 42.0733 64.7007 35.8249 58.4523L30.1681 64.1091C39.5406 73.4817 54.7366 73.4817 64.1092 64.1091L58.4523 58.4523ZM35.8249 58.4523C29.5765 52.2039 29.5765 42.0732 35.8249 35.8249L30.1681 30.168C20.7955 39.5406 20.7955 54.7365 30.1681 64.1091L35.8249 58.4523ZM35.8249 35.8249C42.0733 29.5765 52.2039 29.5765 58.4523 35.8249L64.1092 30.168C54.7366 20.7954 39.5406 20.7954 30.1681 30.168L35.8249 35.8249ZM170.175 35.8249C176.424 42.0732 176.424 52.2039 170.175 58.4523L175.832 64.1091C185.205 54.7365 185.205 39.5406 175.832 30.168L170.175 35.8249ZM170.175 58.4523C163.927 64.7007 153.796 64.7007 147.548 58.4523L141.891 64.1091C151.264 73.4817 166.459 73.4817 175.832 64.1091L170.175 58.4523ZM147.548 58.4523C141.299 52.2039 141.299 42.0732 147.548 35.8249L141.891 30.168C132.518 39.5406 132.518 54.7365 141.891 64.1091L147.548 58.4523ZM147.548 35.8249C153.796 29.5765 163.927 29.5765 170.175 35.8249L175.832 30.168C166.459 20.7954 151.264 20.7954 141.891 30.168L147.548 35.8249ZM170.175 147.548C176.424 153.796 176.424 163.927 170.175 170.175L175.832 175.832C185.205 166.459 185.205 151.263 175.832 141.891L170.175 147.548ZM170.175 170.175C163.927 176.424 153.796 176.424 147.548 170.175L141.891 175.832C151.264 185.205 166.459 185.205 175.832 175.832L170.175 170.175ZM147.548 170.175C141.299 163.927 141.299 153.796 147.548 147.548L141.891 141.891C132.518 151.263 132.518 166.459 141.891 175.832L147.548 170.175ZM147.548 147.548C153.796 141.299 163.927 141.299 170.175 147.548L175.832 141.891C166.459 132.518 151.264 132.518 141.891 141.891L147.548 147.548ZM58.4523 147.548C64.7007 153.796 64.7007 163.927 58.4523 170.175L64.1092 175.832C73.4818 166.459 73.4818 151.263 64.1092 141.891L58.4523 147.548ZM58.4523 170.175C52.2039 176.424 42.0733 176.424 35.8249 170.175L30.1681 175.832C39.5406 185.205 54.7366 185.205 64.1092 175.832L58.4523 170.175ZM35.8249 170.175C29.5765 163.927 29.5765 153.796 35.8249 147.548L30.1681 141.891C20.7955 151.263 20.7955 166.459 30.1681 175.832L35.8249 170.175ZM35.8249 147.548C42.0733 141.299 52.2039 141.299 58.4523 147.548L64.1092 141.891C54.7366 132.518 39.5406 132.518 30.1681 141.891L35.8249 147.548ZM58.4523 64.1091L100.172 105.828L105.828 100.172L64.1092 58.4523L58.4523 64.1091ZM99 44V103H107V44H99ZM105.828 105.828L147.548 64.1091L141.891 58.4523L100.172 100.172L105.828 105.828ZM103 107H162V99H103V107ZM100.172 105.828L141.891 147.548L147.548 141.891L105.828 100.172L100.172 105.828ZM64.1092 147.548L105.828 105.828L100.172 100.172L58.4523 141.891L64.1092 147.548ZM44 107H103V99H44V107ZM99 103V162H107V103H99ZM99 44V162H107V44H99Z" fill="#FFA800"/>
</svg>
