<svg width="242" height="221" viewBox="0 0 242 221" fill="none" xmlns="http://www.w3.org/2000/svg">
<path d="M67.349 22.6176C87.3177 54.5663 134.416 123.842 163.061 145.356C127.255 119.843 47.9312 60.1286 17.083 25.3758C44.167 58.9334 101.089 127.428 112.106 132.944M117.615 159.836C86.216 171.42 28.7887 149.953 4 137.771C65.9619 210.421 136.991 218.214 180.276 192.199C242.936 183.281 223.656 235.961 234.673 209.483C245.69 183.005 226.722 157.997 215.861 148.804C229.417 109.599 214.367 55.5011 149.978 4C161.454 28.3638 180.964 84.2625 167.193 112.947" stroke="#FF4D35" stroke-width="8" stroke-linecap="round" stroke-linejoin="round"/>
</svg>
