<svg width="196" height="196" viewBox="0 0 196 196" fill="none" xmlns="http://www.w3.org/2000/svg">
<path d="M4 151.058V44.9422M192 44.9422C192 22.3305 173.67 4 151.058 4H44.9422" stroke="#FFA800" stroke-width="8" stroke-linecap="round"/>
<path d="M44.9422 4C22.3305 4 4 22.3305 4 44.9422" stroke="#FFD600" stroke-width="8" stroke-linecap="round"/>
<path d="M4 151.058C4 173.67 22.3305 192 44.9422 192H151.058M192 151.058V44.9424" stroke="#FF4D35" stroke-width="8" stroke-linecap="round"/>
<path d="M192 151.058C192 173.669 173.669 192 151.058 192" stroke="#FF47B5" stroke-width="8" stroke-linecap="round"/>
<path d="M66.6167 44.2721C78.453 63.1967 106.37 104.232 123.35 116.975C102.126 101.863 55.1069 66.4915 36.8217 45.9059C52.8756 65.7835 86.616 106.356 93.1464 109.623M96.4116 125.552C77.8 132.414 43.7603 119.698 29.0669 112.482C65.7945 155.516 107.897 160.132 133.553 144.722C170.695 139.44 159.267 170.645 165.797 154.96C172.327 139.276 161.084 124.463 154.646 119.017C162.681 95.7947 153.761 63.7504 115.595 33.2441C122.397 47.6758 133.961 80.787 125.798 97.7783" stroke="#D6E0E3" stroke-width="8" stroke-linecap="round" stroke-linejoin="round"/>
</svg>
