<svg width="156" height="156" viewBox="0 0 156 156" fill="none" xmlns="http://www.w3.org/2000/svg">
<path d="M49.1948 106.159C44.0931 101.058 44.0931 92.7863 49.1948 87.6846C49.5669 87.3124 49.9559 86.9674 50.3593 86.6496C55.4863 82.61 62.9401 82.955 67.6697 87.6846C72.3992 92.4141 72.7442 99.8679 68.7046 104.995C68.3868 105.398 68.0418 105.787 67.6697 106.159C62.568 111.261 54.2965 111.261 49.1948 106.159Z" fill="#2EB4FF"/>
<path d="M33.0292 122.325C18.9995 108.295 18.9995 85.5487 33.0292 71.519L19.9428 58.4326C-1.31428 79.6897 -1.31428 114.154 19.9428 135.411C41.1999 156.669 75.6645 156.669 96.9216 135.411C103.932 128.401 108.631 119.954 111.017 111.018C112.779 104.419 113.281 97.5548 112.522 90.8049M49.1948 106.159C44.0931 101.058 44.0931 92.7863 49.1948 87.6846C49.5669 87.3124 49.9559 86.9674 50.3593 86.6496C55.4863 82.61 62.9401 82.955 67.6697 87.6846C72.3992 92.4141 72.7442 99.8679 68.7046 104.995C68.3868 105.398 68.0418 105.787 67.6697 106.159C62.568 111.261 54.2965 111.261 49.1948 106.159Z" stroke="#2EB4FF" stroke-width="8" stroke-linecap="round" stroke-linejoin="round"/>
<path d="M87.6865 49.1948C92.7882 44.0931 101.06 44.0931 106.161 49.1948C111.263 54.2965 111.263 62.568 106.161 67.6697C105.789 68.0418 105.4 68.3868 104.997 68.7046C99.8698 72.7442 92.416 72.3992 87.6865 67.6697C82.9569 62.9401 82.6119 55.4863 86.6515 50.3593C86.9694 49.9559 87.3143 49.5669 87.6865 49.1948Z" fill="#FFD600"/>
<path d="M122.327 33.0292C136.357 47.0589 136.357 69.8055 122.327 83.8352L135.413 96.9216C156.67 75.6645 156.67 41.1999 135.413 19.9428C114.156 -1.31428 79.6916 -1.31428 58.4345 19.9428C51.4239 26.9534 46.7254 35.4006 44.339 44.3367C42.577 50.9348 42.0755 57.7995 42.8344 64.5493M87.6865 67.6697C92.416 72.3992 99.8698 72.7442 104.997 68.7046C105.4 68.3868 105.789 68.0418 106.161 67.6697C111.263 62.568 111.263 54.2965 106.161 49.1948C101.06 44.0931 92.7882 44.0931 87.6865 49.1948C87.3143 49.5669 86.9694 49.9559 86.6515 50.3593C82.6119 55.4863 82.9569 62.9401 87.6865 67.6697Z" stroke="#FFD600" stroke-width="8" stroke-linecap="round" stroke-linejoin="round"/>
</svg>
