<svg width="100" height="100" viewBox="0 0 126 164" fill="none" xmlns="http://www.w3.org/2000/svg">
<path d="M122 62.5L63 4V41.5252C63 53.1093 72.3921 62.5 83.9778 62.5H122Z" fill="#2B66FF"/>
<path d="M63 4L65.8164 1.15956C65.0672 0.416768 64.055 0 63 0V4ZM122 62.5H126C126 61.4332 125.574 60.4107 124.816 59.6596L122 62.5ZM101.022 156H24.9778V164H101.022V156ZM8 139.025V24.9748H0V139.025H8ZM24.9778 8H63V0H24.9778V8ZM124.816 59.6596L65.8164 1.15956L60.1836 6.84044L119.184 65.3404L124.816 59.6596ZM24.9778 156C15.6007 156 8 148.4 8 139.025H0C0 152.819 11.1835 164 24.9778 164V156ZM101.022 164C114.817 164 126 152.819 126 139.025H118C118 148.4 110.399 156 101.022 156V164ZM83.9778 58.5C74.6007 58.5 67 50.8996 67 41.5252H59C59 55.3189 70.1835 66.5 83.9778 66.5V58.5ZM8 24.9748C8 15.6004 15.6007 8 24.9778 8V0C11.1835 0 0 11.1811 0 24.9748H8ZM118 62.5V139.025H126V62.5H118ZM67 41.5252V4H59V41.5252H67ZM83.9778 66.5H122V58.5H83.9778V66.5Z" fill="#2B66FF"/>
<path d="M31.5625 91.4531C31.5625 92.0054 31.1148 92.4531 30.5625 92.4531H28.6953C28.143 92.4531 27.6953 92.9008 27.6953 93.4531V129.492C27.6953 130.044 28.143 130.492 28.6953 130.492H30.5625C31.1148 130.492 31.5625 130.94 31.5625 131.492V133.922C31.5625 134.474 31.1148 134.922 30.5625 134.922H23C22.4477 134.922 22 134.474 22 133.922V89C22 88.4477 22.4477 88 23 88H30.5625C31.1148 88 31.5625 88.4477 31.5625 89V91.4531Z" fill="#2B66FF"/>
<path d="M94.5332 89C94.5332 88.4477 94.9809 88 95.5332 88H103.143C103.695 88 104.143 88.4477 104.143 89V133.922C104.143 134.474 103.695 134.922 103.143 134.922H95.5332C94.9809 134.922 94.5332 134.474 94.5332 133.922V131.492C94.5332 130.94 94.9809 130.492 95.5332 130.492H97.4473C97.9996 130.492 98.4473 130.044 98.4473 129.492V93.4531C98.4473 92.9008 97.9996 92.4531 97.4473 92.4531H95.5332C94.9809 92.4531 94.5332 92.0054 94.5332 91.4531V89Z" fill="#2B66FF"/>
<path d="M81.5933 94.4082C81.5933 94.9605 81.1455 95.4082 80.5933 95.4082H68.6274C68.0752 95.4082 67.6274 95.8559 67.6274 96.4082V132.922C67.6274 133.474 67.1797 133.922 66.6274 133.922H60.9062C60.354 133.922 59.9062 133.474 59.9062 132.922V96.4082C59.9062 95.8559 59.4585 95.4082 58.9062 95.4082H47.0635C46.5112 95.4082 46.0635 94.9605 46.0635 94.4082V90.1328C46.0635 89.5805 46.5112 89.1328 47.0635 89.1328H80.5933C81.1455 89.1328 81.5933 89.5805 81.5933 90.1328V94.4082Z" fill="#2B66FF"/>
</svg>
