<svg width="134" height="134" viewBox="0 0 134 134" fill="none" xmlns="http://www.w3.org/2000/svg">
<path d="M110 4H24C12.9543 4 4 12.9543 4 24V110C4 121.046 12.9543 130 24 130H110C121.046 130 130 121.046 130 110V24C130 12.9543 121.046 4 110 4Z" stroke="#2EB4FF" stroke-width="8"/>
<path d="M77.2588 74.3169H62.668V114H52.8535V74.3169H38.459V66.3672H77.2588V74.3169Z" fill="#2EB4FF"/>
<path d="M107.732 101.503C107.732 99.6491 107.078 98.2314 105.769 97.25C104.461 96.2467 102.105 95.1999 98.7027 94.1094C95.3004 92.9971 92.6068 91.9066 90.6221 90.8379C85.2133 87.9154 82.5089 83.9787 82.5089 79.0278C82.5089 76.4543 83.2286 74.1642 84.668 72.1577C86.1293 70.1294 88.2122 68.5482 90.9166 67.4141C93.6428 66.2799 96.6962 65.7129 100.077 65.7129C103.479 65.7129 106.511 66.3345 109.171 67.5776C111.832 68.799 113.893 70.5329 115.355 72.7793C116.838 75.0257 117.579 77.5775 117.579 80.4346H107.765C107.765 78.2536 107.078 76.5633 105.704 75.3638C104.33 74.1424 102.399 73.5317 99.9132 73.5317C97.5141 73.5317 95.6493 74.0443 94.3189 75.0693C92.9885 76.0726 92.3233 77.403 92.3233 79.0605C92.3233 80.609 93.0976 81.9067 94.6461 82.9536C96.2164 84.0005 98.5173 84.9819 101.549 85.8979C107.132 87.5773 111.2 89.6602 113.752 92.1465C116.303 94.6328 117.579 97.7298 117.579 101.438C117.579 105.56 116.02 108.798 112.901 111.154C109.782 113.487 105.584 114.654 100.306 114.654C96.6417 114.654 93.3048 113.989 90.295 112.659C87.2852 111.306 84.9843 109.464 83.3922 107.13C81.8219 104.796 81.0367 102.092 81.0367 99.0166H90.8839C90.8839 104.273 94.0245 106.901 100.306 106.901C102.639 106.901 104.461 106.432 105.769 105.494C107.078 104.535 107.732 103.204 107.732 101.503Z" fill="#2EB4FF"/>
</svg>
