<svg width="128" height="128" viewBox="0 0 128 128" fill="none" xmlns="http://www.w3.org/2000/svg">
<rect x="4" y="4" width="120" height="120" rx="16" stroke="#2EB4FF" stroke-width="8" stroke-linejoin="round"/>
<path d="M59.2397 67.3672V115H49.458V67.3672H59.2397ZM73.896 67.3672V75.0552H35.0308V67.3672H73.896Z" fill="#2EB4FF"/>
<path d="M103.765 102.536C103.765 101.685 103.634 100.922 103.372 100.246C103.132 99.5477 102.674 98.9152 101.998 98.3481C101.322 97.7593 100.373 97.1813 99.1519 96.6143C97.9305 96.0472 96.3493 95.4583 94.4082 94.8477C92.249 94.1497 90.1989 93.3646 88.2578 92.4922C86.3385 91.6198 84.6374 90.6056 83.1543 89.4497C81.693 88.272 80.5371 86.9089 79.6865 85.3604C78.8577 83.8118 78.4434 82.0125 78.4434 79.9624C78.4434 77.9777 78.8796 76.1784 79.752 74.5645C80.6243 72.9287 81.8457 71.5329 83.416 70.377C84.9863 69.1992 86.8402 68.2941 88.9775 67.6616C91.1367 67.0291 93.5031 66.7129 96.0767 66.7129C99.5881 66.7129 102.652 67.3454 105.27 68.6104C107.887 69.8753 109.915 71.6092 111.354 73.812C112.816 76.0148 113.546 78.5339 113.546 81.3691H103.797C103.797 79.9733 103.503 78.752 102.914 77.7051C102.347 76.6364 101.475 75.7967 100.297 75.186C99.141 74.5754 97.6797 74.27 95.9131 74.27C94.2119 74.27 92.7943 74.5317 91.6602 75.0552C90.526 75.5568 89.6755 76.2438 89.1084 77.1162C88.5413 77.9668 88.2578 78.9264 88.2578 79.9951C88.2578 80.8021 88.4541 81.5327 88.8467 82.187C89.2611 82.8413 89.8717 83.452 90.6787 84.019C91.4857 84.5861 92.478 85.1204 93.6558 85.6221C94.8335 86.1237 96.1966 86.6144 97.7451 87.0942C100.34 87.8794 102.62 88.7627 104.583 89.7441C106.567 90.7256 108.225 91.827 109.555 93.0483C110.886 94.2697 111.889 95.6546 112.565 97.2031C113.241 98.7516 113.579 100.507 113.579 102.47C113.579 104.542 113.176 106.396 112.369 108.032C111.562 109.667 110.395 111.052 108.868 112.187C107.341 113.321 105.52 114.182 103.405 114.771C101.289 115.36 98.9229 115.654 96.3057 115.654C93.9502 115.654 91.6274 115.349 89.3374 114.738C87.0474 114.106 84.9645 113.157 83.0889 111.892C81.235 110.627 79.752 109.013 78.6396 107.05C77.5273 105.087 76.9712 102.765 76.9712 100.082H86.8184C86.8184 101.565 87.0474 102.819 87.5054 103.844C87.9634 104.869 88.6068 105.698 89.4355 106.331C90.2861 106.963 91.2894 107.421 92.4453 107.705C93.623 107.988 94.9098 108.13 96.3057 108.13C98.0068 108.13 99.4027 107.89 100.493 107.41C101.605 106.93 102.423 106.265 102.947 105.415C103.492 104.564 103.765 103.604 103.765 102.536Z" fill="#2EB4FF"/>
</svg>
