<svg width="152" height="164" viewBox="0 0 152 164" fill="none" xmlns="http://www.w3.org/2000/svg">
<path d="M76 159.642L93.9702 149.375L129.944 128.822L111.963 118.44L93.9601 128.678L93.95 108.04L93.94 87.5693L112.084 77.01L129.967 66.6021L129.937 87.3176L147.791 97.6253L147.85 56.1942L147.881 35.1424L76 77.2116L76 159.642Z" fill="#D6E0E3"/>
<path d="M76 159.642L58.0302 149.267L22.5532 128.785L40.5231 118.41L58.0302 128.517V108.302V87.302L40.1829 76.9979L22.0502 66.529L22.0707 87.5267L4.09116 97.9784L4.02995 56.1251L4 35.6424M76 159.642L93.9702 149.375L129.944 128.822L111.963 118.44L93.9601 128.678L93.95 108.04L93.94 87.5693L112.084 77.01L129.967 66.6021L129.937 87.3176L147.791 97.6253L147.85 56.1942L147.881 35.1424M76 159.642L76 77.2116M147.881 35.1424L130.404 25.052L93.94 4L94.1758 24.8861L112.352 35.3798L93.94 45.9133L76 56.177L58.0302 45.8021L40.1017 35.451L58.0302 24.9339V4.12482L22.1227 25.0708L4 35.6424M147.881 35.1424L76 77.2116M4 35.6424L76 77.2116" stroke="#D6E0E3" stroke-width="8" stroke-linejoin="round"/>
</svg>
