<svg width="239" height="118" viewBox="0 0 239 118" fill="none" xmlns="http://www.w3.org/2000/svg">
<path d="M234.5 59.6363C222.067 145.748 144.667 108.464 115.501 81.3775M90.5 54.9108C54.433 36.789 15.1874 55.1915 27.7189 80.9813M4 59.6363C4 2.13626 90.5 31.5989 97.5 47.8352M4 59.6363C4 60.814 4.06034 61.9359 4.17795 63.0035C4.07817 61.8296 4.02026 60.703 4 59.6363ZM170.501 98.1645C181.834 90.1383 201.101 67.0409 187.501 38.8611M170.501 98.1645C153.346 94.9644 135.961 86.413 121.892 77.2195M170.501 98.1645C207.196 106.574 225.982 80.8865 226.465 59.6363" stroke="#2EB4FF" stroke-width="8" stroke-linecap="round" stroke-linejoin="round"/>
<path d="M234.5 59.6362C240.837 15.7475 179.845 -31.3854 98.5 47.3319C96.1771 49.5797 92.843 52.4404 90.4998 54.9108C78.1299 67.9347 48.7972 81.2949 27.7186 80.9812C15.1951 80.7949 5.58529 75.7817 4.17773 63.0035C5.71477 81.0869 16.4998 108.247 53.4998 106.247C74.4998 105.112 94.3126 94.9451 115.501 81.3775C117.632 80.0129 119.763 78.6236 121.892 77.2194C144.841 62.085 167.568 45.2163 187.501 38.861C214.5 30.2527 226.878 41.5083 226.465 59.6362" stroke="#B339EC" stroke-width="8" stroke-linecap="round" stroke-linejoin="round"/>
</svg>
