<svg width="207" height="209" viewBox="0 0 207 209" fill="none" xmlns="http://www.w3.org/2000/svg">
<path d="M4 69.5L21.4356 53.3402C23.2096 51.696 25.9062 51.5574 27.8394 53.011L64.3574 80.4703M4 69.5V135M4 69.5L24.5 88.5862M149 204.5L200.236 178.882C201.93 178.035 203 176.304 203 174.41V34.0902C203 32.1963 201.93 30.465 200.236 29.618L149 4M149 204.5V144.116M149 204.5L64.3727 125.709M149 4V61.4186M149 4L64.3574 80.4703M4 135L21.4146 152.839C23.177 154.645 26.0082 154.854 28.0171 153.328L64.3727 125.709M4 135L24.5 116.479M149 61.4186V144.116M149 61.4186L94.2923 102.979M149 144.116L94.2923 102.979M39.7049 102.742L64.3727 125.709M39.7049 102.742L24.5 88.5862M39.7049 102.742L24.5 116.479M94.2923 102.979L64.3574 80.4703M24.5 116.479V88.5862" stroke="#B339EC" stroke-width="8" stroke-linecap="round" stroke-linejoin="round"/>
</svg>
