<svg width="205" height="209" viewBox="0 0 205 209" fill="none" xmlns="http://www.w3.org/2000/svg">
<path d="M147 204.5L198.236 178.882C199.93 178.035 201 176.304 201 174.41V34.0902C201 32.1963 199.93 30.465 198.236 29.618L147 4M147 204.5V144.116M147 204.5L62.3727 125.709M147 4V61.4186M147 4L62.3574 80.4703M147 61.4186V144.116M147 61.4186L92.2923 102.979M147 144.116L92.2923 102.979M37.7049 102.742L62.3727 125.709M37.7049 102.742L5.85628 131.516C3.75105 133.418 3.64843 136.689 5.63029 138.719L19.4146 152.839C21.177 154.645 24.0082 154.854 26.0171 153.328L62.3727 125.709M37.7049 102.742L5.93945 73.1678C3.8123 71.1873 3.8161 67.8168 5.94771 65.8411L19.4356 53.3402C21.2096 51.696 23.9062 51.5574 25.8394 53.011L62.3574 80.4703M92.2923 102.979L62.3574 80.4703" stroke="#2EB4FF" stroke-width="8" stroke-linecap="round" stroke-linejoin="round"/>
</svg>
