<svg width="128" height="128" viewBox="0 0 128 128" fill="none" xmlns="http://www.w3.org/2000/svg">
<path fill-rule="evenodd" clip-rule="evenodd" d="M124 4H88C88 17.2548 77.2548 28 64 28C50.7452 28 40 17.2548 40 4H4V124H124V4Z" stroke="#B339EC" stroke-width="8" stroke-linejoin="round"/>
<path d="M45.29 108.571L53.3613 74.4766H57.8701L58.8999 80.1543L50.2998 115H45.457L45.29 108.571ZM41.1431 74.4766L47.8228 108.571L47.2661 115H41.8667L32.877 74.4766H41.1431ZM65.9971 108.432L72.5933 74.4766H80.8594L71.8975 115H66.498L65.9971 108.432ZM60.4028 74.4766L68.5298 108.71L68.3071 115H63.4644L54.8086 80.1265L55.9219 74.4766H60.4028Z" fill="#B339EC"/>
<path d="M97.798 81.4067L86.7765 115H77.898L92.9552 74.4766H98.6051L97.798 81.4067ZM106.955 115L95.9054 81.4067L95.0147 74.4766H100.72L115.861 115H106.955ZM106.454 99.915V106.456H85.0509V99.915H106.454Z" fill="#B339EC"/>
</svg>
