<svg width="126" height="126" viewBox="0 0 126 126" fill="none" xmlns="http://www.w3.org/2000/svg">
<path d="M63.2432 95.75L68.5448 68H76.6324L67.8956 107H59.7268L53.3162 80.9107L46.9056 107H38.7368L30 68H38.0876L43.4163 95.6964L49.908 68H56.7785L63.2432 95.75Z" fill="#B339EC"/>
<path d="M102.639 98.9643H88.4117L85.7068 107H77.0782L91.7387 68H99.2583L114 107H105.371L102.639 98.9643ZM90.6027 92.4554H100.448L95.4985 77.8571L90.6027 92.4554Z" fill="#B339EC"/>
<path d="M122 122V4H87C87 17.2548 76.2548 28 63 28C49.7452 28 39 17.2548 39 4H4V122H122Z" stroke="#B339EC" stroke-width="8" stroke-linejoin="round"/>
</svg>
