<svg width="174" height="191" viewBox="0 0 174 191" fill="none" xmlns="http://www.w3.org/2000/svg">
<path d="M86.5098 41.8464V4M134.842 68.6064L169.02 49.6832M134.842 122.127L169.02 141.05M86.5098 148.887V186.733M38.1777 122.127L4 141.05M38.1777 68.6064L4 49.6832M86.5098 4L169.02 49.6832M86.5098 4L4 49.6832M169.02 49.6832V141.05M169.02 141.05L86.5098 186.733M86.5098 186.733L4 141.05M4 141.05V95.3665V49.6832" stroke="#D6E0E3" stroke-width="8" stroke-linejoin="round"/>
<path d="M134.842 68.6062L86.5098 41.8462L38.1777 68.6062M134.842 68.6062V122.126L86.5098 148.886M134.842 68.6062L86.5098 95.3663M86.5098 148.886L38.1777 122.126V68.6062M86.5098 148.886V95.3663M38.1777 68.6062L86.5098 95.3663" stroke="#2B66FF" stroke-width="8" stroke-linejoin="round"/>
</svg>
