<svg width="262" height="262" viewBox="0 0 262 262" fill="none" xmlns="http://www.w3.org/2000/svg">
<path d="M4 4H258V258" stroke="#2EB4FF" stroke-width="8" stroke-linecap="round" stroke-linejoin="round"/>
<path d="M4 4V258H258" stroke="#2B66FF" stroke-width="8" stroke-linecap="round" stroke-linejoin="round"/>
<path d="M4 4H131" stroke="#FFD600" stroke-width="8" stroke-linecap="round" stroke-linejoin="round"/>
<rect x="37" y="37" width="190" height="190" fill="#524E5A"/>
<path d="M34.8428 34.8428H227.157V227.157" stroke="#2EB4FF" stroke-width="8" stroke-linecap="round" stroke-linejoin="round"/>
<path d="M34.8428 34.8428V227.157H227.157" stroke="#2B66FF" stroke-width="8" stroke-linecap="round" stroke-linejoin="round"/>
<path d="M34.8428 34.8428H131" stroke="#FFD600" stroke-width="8" stroke-linecap="round" stroke-linejoin="round"/>
<path d="M81.084 113.603L93.9697 61.3047H100.946L101.39 72.3242L87.6157 126H80.2397L81.084 113.603ZM72.9526 61.3047L83.5278 113.425V126H75.4854L60.8223 61.3047H72.9526ZM114.765 113.203L125.162 61.3047H137.337L122.674 126H114.631L114.765 113.203ZM104.278 61.3047L117.164 113.781L117.919 126H110.543L96.8135 72.2798L97.3467 61.3047H104.278Z" fill="#D6E0E3"/>
<path d="M178.927 109.204C178.927 107.96 178.734 106.849 178.349 105.872C177.994 104.864 177.327 103.961 176.35 103.161C175.402 102.332 174.054 101.532 172.306 100.762C170.588 99.9619 168.366 99.1325 165.641 98.2734C162.62 97.3255 159.806 96.2591 157.199 95.0742C154.592 93.8893 152.296 92.5119 150.312 90.9419C148.356 89.3719 146.831 87.5649 145.735 85.521C144.639 83.4474 144.091 81.048 144.091 78.3228C144.091 75.6567 144.654 73.2277 145.779 71.0356C146.935 68.8436 148.564 66.9626 150.667 65.3926C152.77 63.793 155.244 62.5636 158.087 61.7046C160.961 60.8455 164.13 60.416 167.596 60.416C172.395 60.416 176.542 61.2899 180.038 63.0376C183.563 64.7853 186.288 67.1551 188.213 70.147C190.139 73.1388 191.102 76.501 191.102 80.2334H178.927C178.927 78.2191 178.497 76.4417 177.638 74.9014C176.809 73.361 175.535 72.1465 173.817 71.2578C172.128 70.3691 169.996 69.9248 167.418 69.9248C164.93 69.9248 162.857 70.2951 161.198 71.0356C159.569 71.7762 158.339 72.7834 157.51 74.0571C156.71 75.3309 156.31 76.7528 156.31 78.3228C156.31 79.5077 156.591 80.5741 157.154 81.522C157.717 82.4403 158.561 83.3141 159.687 84.1436C160.813 84.9434 162.205 85.6987 163.864 86.4097C165.552 87.091 167.507 87.7723 169.729 88.4536C173.284 89.52 176.394 90.7049 179.06 92.0083C181.756 93.3117 183.992 94.7928 185.77 96.4517C187.576 98.1105 188.924 99.9767 189.813 102.05C190.731 104.124 191.19 106.479 191.19 109.115C191.19 111.9 190.642 114.388 189.546 116.58C188.45 118.772 186.88 120.638 184.836 122.179C182.792 123.719 180.334 124.889 177.46 125.689C174.617 126.489 171.432 126.889 167.907 126.889C164.767 126.889 161.657 126.474 158.576 125.645C155.525 124.785 152.755 123.512 150.267 121.823C147.779 120.105 145.794 117.943 144.313 115.336C142.832 112.7 142.091 109.619 142.091 106.094H154.355C154.355 108.138 154.681 109.885 155.333 111.337C156.014 112.759 156.962 113.929 158.176 114.847C159.42 115.736 160.872 116.388 162.531 116.802C164.19 117.217 165.982 117.424 167.907 117.424C170.396 117.424 172.439 117.084 174.039 116.402C175.668 115.691 176.883 114.714 177.683 113.47C178.512 112.226 178.927 110.804 178.927 109.204Z" fill="#D6E0E3"/>
<path d="M99.5239 189V198.064H59.0449V189H99.5239Z" fill="#D6E0E3"/>
</svg>
