<svg width="187" height="191" viewBox="0 0 187 191" fill="none" xmlns="http://www.w3.org/2000/svg">
<path d="M100 27H183V61.25V78.375V95.5V112.625V129.75V164H100M100 129.75H130.5M100 95.5H161M100 61.25H130.5M100 78.375H161M100 112.625H161M130.5 61.25H161V129.75H130.5M130.5 61.25V129.75" stroke="#D6E0E3" stroke-width="8" stroke-linecap="round" stroke-linejoin="round"/>
<path d="M100 154.63V36.3703V4L4 36.3703V154.63L100 187V154.63Z" stroke="#00E878" stroke-width="8" stroke-linejoin="round"/>
<path d="M38.5742 64L51.5044 87.061L64.479 64H78.52L59.3247 96.0811L79.0088 128.695H64.8345L51.5044 105.19L38.2188 128.695H24L43.6841 96.0811L24.4888 64H38.5742Z" fill="#D6E0E3"/>
</svg>
