<svg width="100" height="100" viewBox="0 0 126 164" fill="none" xmlns="http://www.w3.org/2000/svg">
<path d="M122 62.5L63 4V41.5252C63 53.1093 72.3921 62.5 83.9778 62.5H122Z" fill="#AFED00"/>
<path d="M63 4L65.8164 1.15956C65.0672 0.416768 64.055 0 63 0V4ZM122 62.5H126C126 61.4332 125.574 60.4107 124.816 59.6596L122 62.5ZM101.022 156H24.9778V164H101.022V156ZM8 139.025V24.9748H0V139.025H8ZM24.9778 8H63V0H24.9778V8ZM124.816 59.6596L65.8164 1.15956L60.1836 6.84044L119.184 65.3404L124.816 59.6596ZM24.9778 156C15.6007 156 8 148.4 8 139.025H0C0 152.819 11.1835 164 24.9778 164V156ZM101.022 164C114.817 164 126 152.819 126 139.025H118C118 148.4 110.399 156 101.022 156V164ZM83.9778 58.5C74.6007 58.5 67 50.8996 67 41.5252H59C59 55.3189 70.1835 66.5 83.9778 66.5V58.5ZM8 24.9748C8 15.6004 15.6007 8 24.9778 8V0C11.1835 0 0 11.1811 0 24.9748H8ZM118 62.5V139.025H126V62.5H118ZM67 41.5252V4H59V41.5252H67ZM83.9778 66.5H122V58.5H83.9778V66.5Z" fill="#AFED00"/>
<path d="M30.8304 111.552C29.9459 111.871 29.9498 113.123 30.8363 113.436L45.5293 118.623C45.9291 118.765 46.1964 119.142 46.1964 119.566V126.203C46.1964 126.92 45.4651 127.404 44.8057 127.124L19.6093 116.429C19.2399 116.273 19 115.91 19 115.509V109.369C19 108.968 19.2399 108.605 19.6093 108.449L44.8057 97.7541C45.4651 97.4742 46.1964 97.9582 46.1964 98.6746V105.316C46.1964 105.738 45.9319 106.114 45.5352 106.257L30.8304 111.552Z" fill="#AFED00"/>
<path d="M57.4654 135.321C57.3279 135.727 56.9469 136 56.5182 136H51.8386C51.154 136 50.6718 135.328 50.8914 134.679L67.1448 86.6793C67.2823 86.2732 67.6633 86 68.0919 86H72.7716C73.4562 86 73.9383 86.6723 73.7188 87.3207L57.4654 135.321Z" fill="#AFED00"/>
<path d="M95.1657 113.357C96.0551 113.041 96.0522 111.782 95.1613 111.47L80.1576 106.222C79.7564 106.081 79.4878 105.703 79.4878 105.278V98.6995C79.4878 97.9848 80.2157 97.5009 80.8747 97.7773L106.387 108.482C106.758 108.637 107 109.001 107 109.404V115.507C107 115.909 106.759 116.272 106.388 116.428L80.8756 127.162C80.2165 127.439 79.4878 126.955 79.4878 126.24V119.628C79.4878 119.205 79.7543 118.828 80.1532 118.686L95.1657 113.357Z" fill="#AFED00"/>
</svg>
