<svg width="100" height="100" viewBox="0 0 126 164" fill="none" xmlns="http://www.w3.org/2000/svg">
<path d="M122 62.5L63 4V41.5252C63 53.1093 72.3921 62.5 83.9778 62.5H122Z" fill="#FF47B5"/>
<path d="M63 4L65.8164 1.15956C65.0672 0.416768 64.055 0 63 0V4ZM122 62.5H126C126 61.4332 125.574 60.4107 124.816 59.6596L122 62.5ZM101.022 156H24.9778V164H101.022V156ZM8 139.025V24.9748H0V139.025H8ZM24.9778 8H63V0H24.9778V8ZM124.816 59.6596L65.8164 1.15956L60.1836 6.84044L119.184 65.3404L124.816 59.6596ZM24.9778 156C15.6007 156 8 148.4 8 139.025H0C0 152.819 11.1835 164 24.9778 164V156ZM101.022 164C114.817 164 126 152.819 126 139.025H118C118 148.4 110.399 156 101.022 156V164ZM83.9778 58.5C74.6007 58.5 67 50.8996 67 41.5252H59C59 55.3189 70.1835 66.5 83.9778 66.5V58.5ZM8 24.9748C8 15.6004 15.6007 8 24.9778 8V0C11.1835 0 0 11.1811 0 24.9748H8ZM118 62.5V139.025H126V62.5H118ZM67 41.5252V4H59V41.5252H67ZM83.9778 66.5H122V58.5H83.9778V66.5Z" fill="#FF47B5"/>
<path d="M49.8614 97.3455C47.6523 97.3455 45.8614 99.1364 45.8614 101.345C45.8614 103.555 47.6523 105.345 49.8614 105.345V97.3455ZM108 105.345C110.209 105.345 112 103.555 112 101.345C112 99.1364 110.209 97.3455 108 97.3455V105.345ZM49.8614 130C47.6523 130 45.8614 131.791 45.8614 134C45.8614 136.209 47.6523 138 49.8614 138V130ZM108 138C110.209 138 112 136.209 112 134C112 131.791 110.209 130 108 130V138ZM19 79C16.7909 79 15 80.7909 15 83C15 85.2091 16.7909 87 19 87V79ZM63.5 87C65.7091 87 67.5 85.2091 67.5 83C67.5 80.7909 65.7091 79 63.5 79V87ZM49.8613 114C47.6522 114 45.8613 115.791 45.8613 118C45.8613 120.209 47.6522 122 49.8613 122V114ZM108 122C110.209 122 112 120.209 112 118C112 115.791 110.209 114 108 114V122ZM49.8614 105.345H108V97.3455H49.8614V105.345ZM49.8614 138H108V130H49.8614V138ZM19 87H63.5V79H19V87ZM49.8613 122H108V114H49.8613V122Z" fill="#FF47B5"/>
</svg>
