<svg width="158" height="158" viewBox="0 0 158 158" fill="none" xmlns="http://www.w3.org/2000/svg">
<path d="M103.107 4H79V22.75H105.786V4H103.107Z" fill="#AFED00"/>
<path d="M79 41.5V22.75H52.2143L52.2143 41.5H79Z" fill="#AFED00"/>
<path d="M79 41.5V60.25H105.786V41.5H79Z" fill="#AFED00"/>
<path d="M79 79V60.25H52.2143V79H79Z" fill="#AFED00"/>
<path d="M105.786 97.75V79H79V97.75H105.786Z" fill="#AFED00"/>
<path d="M79 116.5V97.75H52.2143V116.5H79Z" fill="#AFED00"/>
<path d="M132.571 4C144.406 4 154 13.5939 154 25.4286V132.571C154 144.406 144.406 154 132.571 154H105.786H79H52.2143H25.4286C13.5939 154 4 144.406 4 132.571V25.4286C4 13.5939 13.5939 4 25.4286 4M132.571 4H103.107M132.571 4H105.786M25.4286 4H54.8929M25.4286 4H52.2143M54.8929 4H79M54.8929 4H52.2143M103.107 4H79M103.107 4H105.786M79 4V22.75M79 4H52.2143M79 4H105.786M79 79V60.25M79 79H52.2143V60.25M79 79V97.75M79 79H105.786V97.75H79M79 41.5V60.25M79 41.5V22.75M79 41.5H52.2143M79 41.5H105.786M79 60.25H52.2143M79 60.25H105.786M79 22.75H52.2143M79 22.75H105.786M105.786 4V22.75M105.786 22.75H52.2143M52.2143 22.75L52.2143 41.5M52.2143 41.5H105.786M105.786 41.5V60.25M105.786 60.25H52.2143M79 97.75V116.5H52.2143V97.75H79Z" stroke="#AFED00" stroke-width="8" stroke-linecap="round" stroke-linejoin="round"/>
</svg>
